<svg width="693" height="543" viewBox="0 0 693 543" fill="none" xmlns="http://www.w3.org/2000/svg">
<g clip-path="url(#clip0_106_404)">
<path d="M420.213 163.628C421.075 163.669 421.929 163.436 422.658 162.961C423.387 162.486 423.957 161.791 424.29 160.972C424.623 160.152 424.703 159.247 424.519 158.379C424.336 157.511 423.897 156.722 423.264 156.119C423.158 155.685 423.081 155.373 422.975 154.939C423.013 154.844 423.051 154.75 423.09 154.656C426.965 145.145 440.1 145.211 443.942 154.735C447.352 163.189 451.695 171.657 452.764 180.595C453.235 184.546 453.036 188.551 452.177 192.432C460.187 174.449 464.346 154.904 464.373 135.121C464.375 130.157 464.107 125.196 463.571 120.263C463.127 116.219 462.512 112.203 461.725 108.216C457.432 86.5843 448.214 66.309 434.829 49.0554C428.35 45.4174 423.111 39.823 419.817 33.026C418.623 30.5828 417.78 27.9746 417.312 25.2826C418.043 25.3812 420.068 13.9263 419.517 13.2234C420.535 11.6329 422.358 10.8422 423.471 9.29014C429.003 1.57107 436.624 2.91887 440.603 13.4085C449.103 17.8235 449.185 25.1454 443.97 32.1875C440.652 36.6677 440.196 42.7299 437.285 47.5263C437.584 47.921 437.896 48.3032 438.195 48.6979C443.67 55.9437 448.443 63.7244 452.443 71.9283C451.311 62.8294 452.982 51.8676 455.831 44.8015C459.074 36.7504 465.152 29.9697 470.504 23.0096C476.934 14.6494 490.117 18.298 491.25 28.8958C491.261 28.9985 491.272 29.101 491.282 29.2036C490.487 29.6651 489.709 30.1551 488.947 30.6734C487.991 31.3312 487.25 32.271 486.821 33.3697C486.392 34.4684 486.296 35.6747 486.545 36.8307C486.794 37.9867 487.376 39.0383 488.216 39.8478C489.055 40.6574 490.113 41.187 491.25 41.3674L491.366 41.3859C491.083 44.3348 490.582 47.2574 489.868 50.1282C496.735 77.4578 481.91 87.4118 460.743 87.8589C460.276 88.1055 459.82 88.3521 459.353 88.5865C463.373 100.309 465.894 112.52 466.853 124.912C467.396 132.222 467.364 139.566 466.757 146.872L466.793 146.613C468.327 138.489 472.538 131.159 478.714 125.861C487.888 118.105 500.849 115.249 510.746 109.015C515.51 106.014 521.615 109.892 520.783 115.577C520.77 115.667 520.757 115.758 520.743 115.849C519.268 116.467 517.831 117.18 516.442 117.982C515.647 118.444 514.869 118.933 514.107 119.452C513.151 120.109 512.409 121.049 511.981 122.148C511.552 123.247 511.456 124.453 511.705 125.609C511.953 126.765 512.536 127.817 513.375 128.626C514.215 129.436 515.272 129.965 516.409 130.146L516.526 130.164C516.61 130.177 516.682 130.189 516.765 130.201C514.245 136.396 510.706 142.098 506.306 147.057C502.013 170.914 483.572 173.178 463.846 166.23H463.834C461.67 175.91 458.534 185.331 454.477 194.344H421.051C420.931 193.961 420.823 193.567 420.715 193.184C423.809 193.385 426.915 193.194 429.964 192.617C427.484 189.485 425.004 186.329 422.524 183.197C422.469 183.138 422.417 183.077 422.368 183.012C421.11 181.409 419.84 179.818 418.582 178.216L418.582 178.214C418.515 173.3 419.063 168.398 420.212 163.629L420.213 163.628Z" fill="#F2F2F2"/>
<path d="M487.881 466.576V467.34C487.852 467.086 487.852 466.83 487.881 466.576Z" fill="#2F2E41"/>
<path d="M510.701 334.593C511.294 334.428 511.897 334.308 512.506 334.232C511.807 334.35 511.205 334.47 510.701 334.593Z" fill="#2F2E41"/>
<path d="M510.174 334.732C510.334 334.686 510.512 334.64 510.702 334.594C510.525 334.641 510.355 334.676 510.174 334.732Z" fill="#2F2E41"/>
<path d="M302.77 224.056C301.908 224.097 301.054 223.864 300.325 223.388C299.596 222.913 299.026 222.219 298.693 221.399C298.36 220.58 298.28 219.675 298.464 218.807C298.647 217.939 299.086 217.15 299.719 216.547C299.826 216.113 299.902 215.801 300.008 215.367C299.97 215.272 299.932 215.178 299.893 215.083C296.018 205.573 282.884 205.638 279.041 215.163C275.631 223.617 271.288 232.085 270.219 241.023C269.748 244.974 269.947 248.979 270.806 252.86C262.796 234.877 258.637 215.331 258.61 195.549C258.608 190.585 258.876 185.624 259.413 180.691C259.856 176.646 260.471 172.631 261.258 168.644C265.551 147.012 274.769 126.737 288.155 109.483C294.633 105.845 299.873 100.251 303.167 93.4538C304.36 91.0105 305.203 88.4023 305.671 85.7103C304.94 85.809 302.915 74.354 303.466 73.6512C302.448 72.0606 300.625 71.27 299.512 69.7179C293.98 61.9988 286.359 63.3466 282.38 73.8362C273.88 78.2512 273.798 85.5732 279.013 92.6152C282.331 97.0954 282.787 103.158 285.699 107.954C285.399 108.349 285.087 108.731 284.788 109.126C279.313 116.371 274.541 124.152 270.54 132.356C271.672 123.257 270.001 112.295 267.152 105.229C263.909 97.1781 257.831 90.3975 252.479 83.4373C246.05 75.0771 232.866 78.7257 231.733 89.3236C231.722 89.4262 231.711 89.5288 231.701 89.6313C232.496 90.0929 233.274 90.5828 234.036 91.1011C234.992 91.7589 235.733 92.6987 236.162 93.7974C236.591 94.8961 236.687 96.1025 236.438 97.2584C236.189 98.4144 235.607 99.466 234.768 100.276C233.928 101.085 232.871 101.615 231.734 101.795L231.617 101.814C231.9 104.763 232.401 107.685 233.115 110.556C226.248 137.886 241.073 147.84 262.24 148.287C262.707 148.533 263.163 148.78 263.63 149.014C259.611 160.737 257.09 172.948 256.13 185.339C255.587 192.65 255.619 199.994 256.226 207.3L256.19 207.041C254.656 198.917 250.445 191.587 244.269 186.289C235.095 178.533 222.134 175.677 212.237 169.443C207.473 166.442 201.368 170.32 202.2 176.004C202.213 176.095 202.226 176.186 202.24 176.277C203.716 176.895 205.152 177.607 206.541 178.41C207.336 178.871 208.115 179.361 208.876 179.879C209.833 180.537 210.574 181.477 211.002 182.576C211.431 183.674 211.527 184.881 211.279 186.037C211.03 187.193 210.447 188.244 209.608 189.054C208.768 189.863 207.711 190.393 206.574 190.574L206.457 190.592C206.373 190.604 206.302 190.617 206.218 190.629C208.739 196.824 212.277 202.525 216.677 207.484C220.971 231.342 239.411 233.606 259.137 226.658H259.149C261.313 236.337 264.449 245.759 268.506 254.771H301.933C302.052 254.389 302.16 253.994 302.268 253.612C299.174 253.812 296.068 253.622 293.019 253.045C295.499 249.913 297.979 246.757 300.459 243.625C300.514 243.566 300.566 243.504 300.615 243.44C301.873 241.837 303.143 240.246 304.401 238.643L304.401 238.641C304.468 233.728 303.921 228.826 302.771 224.056L302.77 224.056Z" fill="#F2F2F2"/>
<path d="M444.083 474.478C444.083 474.478 441.726 518.114 440.643 543H359.484C357.814 520.352 357.251 503.713 357.251 503.713L352.811 543H270.775L265.689 470.24L290.267 407.54C290.267 407.54 423.459 398.033 435.813 410.093C448.16 422.145 444.083 474.478 444.083 474.478Z" fill="#2F2E41"/>
<path d="M372.314 107.413C396.797 107.413 416.645 86.9862 416.645 61.7885C416.645 36.5908 396.797 16.1641 372.314 16.1641C347.83 16.1641 327.982 36.5908 327.982 61.7885C327.982 86.9862 347.83 107.413 372.314 107.413Z" fill="#FFB6B6"/>
<path d="M423.987 46.9627C419.433 49.0995 416.483 64.5756 412.904 60.9777C409.325 57.3799 409.564 52.6978 404.739 51.37C400.842 50.2932 396.649 51.5239 393.095 53.4648C392.46 53.8073 391.845 54.1797 391.245 54.55C390.849 54.2779 390.456 54.0217 390.033 53.7854C386.854 52.0345 383.143 51.6049 379.665 52.5853C382.413 53.5326 384.802 55.3449 386.495 57.7661C385.305 58.5865 384.1 59.409 382.868 60.1378C372.572 66.2527 357.922 52.9561 347.084 47.9609C353.872 61.0711 350.53 66.5006 344.636 80.0594L344.432 80.8315C344.767 77.4333 334.55 74.9008 335.142 79.6844C335.563 83.0808 338.419 90.6302 340.018 93.6289C328.624 80.0695 320.837 63.4766 322.48 46.3596C322.838 42.7639 322.73 38.9699 324.532 35.849C326.336 32.7443 330.097 30.5655 333.425 31.7494C333.143 26.2906 334.303 20.8552 336.783 16.0211C339.263 11.187 342.969 7.13476 347.508 4.29533C352.047 1.4559 357.249 -0.0646486 362.56 -0.104658C367.872 -0.144668 373.094 1.29736 377.673 4.06812C381.928 6.63744 385.479 10.2713 389.379 13.4058C393.278 16.5402 397.774 19.2724 402.718 19.5312C405.855 19.6869 409.269 18.8988 411.963 20.5708C415.085 22.5109 415.62 26.573 416.088 30.4817C413.304 30.7642 410.664 31.8946 408.507 33.7286C411.388 33.4262 414.289 34.0664 416.796 35.5582C416.843 35.5803 416.889 35.6069 416.931 35.6376C418.582 42.0974 418.413 43.5294 423.987 46.9627Z" fill="#2F2E41"/>
<path d="M270.971 429.613C308.722 384.135 295.971 326.29 280.988 267.899L283.839 181.638C283.979 177.406 285.106 173.272 287.125 169.583C289.144 165.894 291.996 162.76 295.44 160.444L333.98 134.532L348.98 112.211L390.329 116.466L413.258 141.422L438.638 161.363C445.011 166.37 449.859 173.148 452.613 180.897C455.366 188.646 455.909 197.044 454.178 205.101L429.891 318.143C429.891 318.143 440.049 376.745 433.851 383.218C427.652 389.69 411.681 383.221 424.346 390.486C439.546 399.205 453.366 397.596 445.674 405.512C437.983 413.429 447.717 424.434 447.717 424.434L270.971 429.613Z" fill="#DC3545"/>
<path d="M287.112 495.709L293.406 449.562L268.293 442.184L263.326 491.217C261.247 493.178 259.742 495.697 258.978 498.49C258.215 501.284 258.224 504.241 259.004 507.03C259.784 509.819 261.304 512.328 263.394 514.276C265.484 516.224 268.06 517.534 270.834 518.058C273.607 518.581 276.468 518.298 279.093 517.241C281.719 516.183 284.006 514.393 285.698 512.071C287.389 509.749 288.417 506.987 288.667 504.097C288.917 501.206 288.379 498.301 287.112 495.709Z" fill="#FFB6B6"/>
<path d="M334.923 142.85C334.923 142.85 263.441 166.793 261.736 184.313C260.032 201.832 260.597 212.557 253.053 282.661L253.45 471.504C253.45 471.504 301.374 482.064 296.46 470.774C291.545 459.483 293.26 454.171 293.26 454.171C293.26 454.171 303.535 449.998 300.963 436.741C298.391 423.484 311.289 357.787 311.289 357.787L319.43 239.963L334.923 142.85Z" fill="#DC3545"/>
<path d="M423.06 493.266L419.711 446.794L445.239 441.121L447.081 490.383C449.03 492.48 450.373 495.095 450.957 497.934C451.542 500.773 451.345 503.723 450.39 506.454C449.434 509.184 447.758 511.586 445.548 513.389C443.339 515.192 440.685 516.326 437.884 516.662C435.084 516.998 432.247 516.523 429.694 515.291C427.141 514.059 424.973 512.119 423.433 509.688C421.893 507.257 421.042 504.433 420.976 501.531C420.91 498.63 421.632 495.768 423.06 493.266H423.06Z" fill="#FFB6B6"/>
<path d="M397.764 137.945C397.764 137.945 467.572 166.646 468.16 184.243C468.748 201.839 467.503 212.503 470.579 282.965L458.188 471.378C458.188 471.378 409.696 478.691 415.317 467.756C420.939 456.82 419.565 451.404 419.565 451.404C419.565 451.404 409.577 446.548 412.985 433.493C416.394 420.437 407.696 354.013 407.696 354.013L407.055 235.893L397.764 137.945Z" fill="#DC3545"/>
</g>
<defs>
<clipPath id="clip0_106_404">
<rect width="693" height="543" fill="white"/>
</clipPath>
</defs>
</svg>
