<svg width="650" height="416" viewBox="0 0 650 416" fill="none" xmlns="http://www.w3.org/2000/svg">
<path d="M267.236 75.6699L50.9272 407.414H608.615L403.425 75.6699H267.236Z" fill="#636466"/>
<path d="M448.694 221.534C451.67 216.285 453.236 210.515 453.273 204.661C453.309 198.808 451.817 193.023 448.907 187.746C445.997 182.468 441.747 177.836 436.477 174.198C431.207 170.561 425.056 168.014 418.489 166.751C415.661 166.212 413.08 164.955 411.072 163.139V163.109C407.228 159.61 406.569 156.47 401.115 146.959C400.531 145.93 400.042 145.102 399.757 144.629L354.324 159.964L366.638 192.733C364.106 199.652 363.866 207.052 365.947 214.084C368.027 221.117 372.344 227.496 378.401 232.489C384.459 237.483 392.011 240.889 400.192 242.316C408.372 243.743 416.849 243.134 424.65 240.558C425.023 243.803 426.424 246.894 428.697 249.487C430.971 252.079 434.027 254.071 437.525 255.24C441.023 256.41 444.825 256.71 448.508 256.108C452.191 255.507 455.609 254.026 458.382 251.833C461.155 249.639 463.173 246.818 464.211 243.684C465.25 240.551 465.267 237.228 464.263 234.086C463.258 230.944 461.27 228.106 458.521 225.89C455.772 223.674 452.37 222.166 448.694 221.534Z" fill="#2A2E32"/>
<path d="M315.019 241.486C327.262 241.486 337.188 232.847 337.188 222.191C337.188 211.534 327.262 202.895 315.019 202.895C302.775 202.895 292.849 211.534 292.849 222.191C292.849 232.847 302.775 241.486 315.019 241.486Z" fill="#2A2E32"/>
<path d="M386.322 171.226C386.343 167.832 384.827 164.568 382.103 162.139C379.379 159.711 375.665 158.314 371.767 158.25L370.85 149.56C370.58 146.804 369.689 144.121 368.226 141.666C366.764 139.21 364.759 137.03 362.327 135.25C359.894 133.471 357.082 132.126 354.052 131.294C351.021 130.461 347.832 130.158 344.666 130.4L307.887 133.386C303.072 133.801 298.642 135.862 295.57 139.115C292.498 142.369 291.033 146.55 291.497 150.742L295.573 189.842C295.894 193.125 296.957 196.321 298.699 199.246C300.442 202.171 302.831 204.769 305.729 206.889C308.627 209.009 311.977 210.611 315.588 211.602C319.198 212.594 322.998 212.956 326.769 212.667L328.474 212.525L330.776 234.197L379.36 230.26L376.643 204.592H376.603L374.443 183.954C377.806 183.351 380.826 181.754 382.991 179.435C385.156 177.115 386.333 174.215 386.322 171.226Z" fill="white"/>
<path d="M371.407 177.41C370.266 177.41 369.151 177.115 368.203 176.564C367.255 176.012 366.516 175.228 366.079 174.311C365.643 173.394 365.528 172.385 365.751 171.411C365.973 170.438 366.523 169.544 367.329 168.842C368.136 168.14 369.163 167.662 370.282 167.468C371.4 167.274 372.56 167.374 373.613 167.754C374.667 168.134 375.568 168.777 376.201 169.602C376.835 170.428 377.173 171.398 377.173 172.391C377.171 173.721 376.563 174.997 375.482 175.938C374.401 176.879 372.935 177.408 371.407 177.41ZM371.407 169.724C370.803 169.724 370.214 169.88 369.712 170.172C369.211 170.463 368.82 170.878 368.589 171.363C368.358 171.848 368.298 172.382 368.416 172.897C368.533 173.411 368.824 173.884 369.25 174.256C369.677 174.627 370.22 174.88 370.812 174.982C371.403 175.085 372.016 175.032 372.574 174.831C373.131 174.63 373.607 174.29 373.942 173.853C374.277 173.417 374.456 172.904 374.456 172.379C374.451 171.677 374.127 171.006 373.556 170.511C372.985 170.016 372.213 169.738 371.407 169.736V169.724Z" fill="#2A2E32"/>
<path d="M328.372 212.56L357.299 209.433C357.485 209.413 357.674 209.451 357.83 209.54C357.987 209.63 358.102 209.765 358.154 209.922C358.207 210.079 358.193 210.246 358.116 210.395C358.039 210.544 357.903 210.664 357.734 210.734L329.418 222.51L328.372 212.56Z" fill="#2A2E32"/>
<path d="M367.155 174.572C366.836 174.577 366.525 174.485 366.277 174.311C366.029 174.137 365.858 173.892 365.796 173.62C365.484 172.279 365.582 170.89 366.081 169.592C366.579 168.294 367.46 167.133 368.635 166.225C369.771 165.391 371.12 164.806 372.569 164.519C374.017 164.232 375.524 164.251 376.963 164.575C377.309 164.659 377.603 164.86 377.78 165.132C377.957 165.405 378.003 165.728 377.907 166.03C377.81 166.331 377.58 166.587 377.266 166.741C376.953 166.895 376.583 166.935 376.236 166.851C375.237 166.633 374.192 166.621 373.187 166.818C372.182 167.016 371.244 167.416 370.449 167.986C369.631 168.619 369.018 169.428 368.672 170.331C368.327 171.235 368.26 172.202 368.479 173.135C368.515 173.288 368.516 173.445 368.481 173.598C368.447 173.751 368.378 173.896 368.279 174.026C368.18 174.155 368.052 174.267 367.904 174.353C367.755 174.44 367.588 174.5 367.413 174.53C367.328 174.55 367.242 174.564 367.155 174.572Z" fill="#2A2E32"/>
<path d="M300.164 175.151C301.751 175.151 303.037 174.032 303.037 172.651C303.037 171.269 301.751 170.15 300.164 170.15C298.577 170.15 297.291 171.269 297.291 172.651C297.291 174.032 298.577 175.151 300.164 175.151Z" fill="#2A2E32"/>
<path d="M330.817 172.059C332.404 172.059 333.69 170.94 333.69 169.559C333.69 168.178 332.404 167.058 330.817 167.058C329.23 167.058 327.944 168.178 327.944 169.559C327.944 170.94 329.23 172.059 330.817 172.059Z" fill="#2A2E32"/>
<path d="M312.614 182.624C312.507 182.624 312.399 182.612 312.295 182.588C310.128 182.133 307.887 181.447 307.731 179.869C307.715 179.27 307.971 178.69 308.444 178.255C308.58 178.101 308.736 177.924 308.906 177.694C309.54 176.808 309.861 175.781 309.829 174.738L309.768 163.837C309.768 163.523 309.911 163.222 310.166 163.001C310.421 162.779 310.766 162.654 311.127 162.654C311.487 162.654 311.833 162.779 312.087 163.001C312.342 163.222 312.485 163.523 312.485 163.837L312.546 174.738C312.565 176.219 312.093 177.674 311.188 178.929C310.971 179.219 310.794 179.432 310.638 179.609C311.359 179.914 312.121 180.138 312.906 180.277C313.234 180.342 313.522 180.51 313.715 180.748C313.908 180.987 313.994 181.28 313.954 181.57C313.914 181.86 313.753 182.127 313.5 182.319C313.248 182.512 312.923 182.616 312.587 182.612L312.614 182.624Z" fill="#2A2E32"/>
<path d="M317.287 193.034C315.451 193.012 313.643 192.64 311.989 191.946C311.669 191.803 311.427 191.554 311.316 191.256C311.206 190.957 311.237 190.632 311.402 190.353C311.567 190.074 311.852 189.863 312.195 189.767C312.539 189.672 312.912 189.698 313.232 189.842C313.273 189.842 316.404 191.225 319.23 190.433C320.001 190.189 320.707 189.811 321.305 189.322C321.902 188.834 322.38 188.244 322.707 187.589C322.781 187.442 322.888 187.309 323.022 187.198C323.157 187.088 323.316 187.003 323.49 186.948C323.663 186.893 323.848 186.869 324.033 186.878C324.217 186.888 324.398 186.93 324.563 187.002C324.728 187.074 324.875 187.175 324.994 187.298C325.113 187.421 325.202 187.564 325.255 187.718C325.308 187.872 325.325 188.034 325.304 188.194C325.283 188.354 325.224 188.508 325.132 188.648C324.65 189.587 323.95 190.431 323.077 191.125C322.205 191.82 321.177 192.351 320.058 192.685C319.162 192.928 318.226 193.045 317.287 193.034Z" fill="#2A2E32"/>
<path d="M377.996 217.862L328.84 221.808L330.927 241.499L380.083 237.553L377.996 217.862Z" fill="#C20004"/>
<path d="M308.586 134.887C312.906 134.591 317.029 137.683 319.454 140.432C323.529 145.067 325.247 150.718 328.385 155.802C334.614 165.852 349.781 167.111 360.831 162.926L402.467 149.406C401.435 146.515 396.096 130.169 377.003 122.26C368.169 118.663 358.315 117.405 348.667 118.642L313.626 120.238C309.547 120.397 305.579 121.44 302.079 123.271C295.742 126.67 288.814 133.912 291.266 149.205C291.825 145.445 293.855 141.967 297.015 139.357C300.174 136.747 304.27 135.165 308.614 134.875L308.586 134.887Z" fill="#2A2E32"/>
<path d="M294.241 236.26C294.241 236.26 278.484 238.182 268.132 265.712C265.572 272.522 262.855 279.262 259.717 285.906L238.478 327.844L253.944 385.713L288.617 366.086L277.037 340.022C270.53 326.425 268.615 311.102 273.525 297.02L294.241 236.26Z" fill="white"/>
<path d="M430.091 348.12L285.779 362.834C279.306 348.865 278.063 347.582 271.597 333.625C266.306 322.218 265.619 309.586 269.647 297.794L289.84 238.885C290.284 237.576 291.189 236.422 292.427 235.586C293.666 234.75 295.175 234.275 296.741 234.226L424.053 230.011C427.157 278.516 427.021 299.615 430.091 348.12Z" fill="#C20004"/>
<path d="M274.15 192.094C278.66 194.341 281.302 198.443 283.659 202.31C286.388 206.751 288.777 211.345 290.811 216.06C294.883 225.467 297.498 235.304 298.588 245.311C299.66 255.104 299.12 264.979 296.985 274.639C294.958 283.707 291.5 292.489 286.709 300.733C281.919 309.004 275.753 316.616 268.411 323.321C267.505 324.161 266.564 324.984 265.585 325.792C263.697 327.383 266.577 329.889 268.465 328.299C276.381 321.601 283.107 313.914 288.421 305.492C293.766 297.073 297.735 288.045 300.212 278.671C302.784 268.811 303.719 258.682 302.99 248.592C302.242 238.158 299.873 227.861 295.946 217.981C293.962 212.97 291.6 208.079 288.876 203.338C286.424 199.07 283.802 194.5 279.679 191.255C278.627 190.417 277.472 189.681 276.236 189.062C273.953 187.927 271.902 190.989 274.198 192.124L274.15 192.094Z" fill="white"/>
<path d="M376.481 397.495C375.973 384.067 378.966 370.714 385.236 358.437C391.46 346.097 400.756 335.115 412.452 326.283C418.565 321.713 425.574 317.15 433.63 315.76C437.2 315.129 440.904 315.387 444.314 316.505C445.711 317.005 447.047 317.627 448.301 318.362C449.563 319.114 450.734 319.976 451.798 320.933C456.492 325.071 459.637 330.628 461.878 336.067C464.867 343.35 466.836 351.029 468.426 358.626C471.798 374.748 472.654 391.193 470.973 407.515C470.764 409.561 470.515 411.602 470.225 413.64C470.09 414.591 471.258 415.413 472.263 415.413C472.8 415.403 473.311 415.212 473.691 414.882C474.07 414.552 474.289 414.107 474.301 413.64C476.669 396.685 476.34 379.528 473.323 362.652C471.899 354.469 469.809 346.385 467.067 338.461C464.914 332.301 461.939 326.23 457.375 321.122C452.912 316.115 446.725 312.479 439.342 311.924C430.383 311.256 421.92 315.429 415.012 319.952C402.106 328.459 391.591 339.409 384.264 351.975C376.862 364.514 372.795 378.342 372.365 392.435C372.317 394.119 372.365 395.798 372.405 397.483C372.494 399.759 376.569 399.771 376.481 397.483V397.495Z" fill="white"/>
<path d="M301.835 367.434C299.94 357.834 299.981 348.02 301.957 338.432C303.757 329.7 306.997 321.034 312.336 313.437C314.734 309.971 317.674 306.812 321.07 304.049C322.714 302.735 324.487 301.548 326.368 300.502C328.124 299.513 329.985 298.672 331.924 297.99C335.773 296.68 339.883 296.049 344.014 296.134C347.927 296.175 351.785 296.934 355.337 298.362C359.025 299.854 362.135 302.247 364.289 305.25C366.809 308.826 367.807 313.207 366.326 317.144C365.673 318.863 364.56 320.423 363.08 321.696C361.64 322.925 359.636 324.06 357.517 324.22C356.633 324.275 355.748 324.15 354.93 323.853C354.113 323.556 353.386 323.097 352.81 322.512C351.45 321.228 350.455 319.685 349.903 318.007C346.86 309.287 351.187 299.758 356.342 292.344C361.394 285.202 367.888 278.914 375.509 273.782C383.462 268.422 392.329 264.178 401.788 261.202C412.249 257.921 423.143 255.802 434.213 254.894C436.93 254.658 439.647 254.48 442.364 254.362C442.9 254.35 443.41 254.159 443.79 253.829C444.169 253.499 444.388 253.055 444.402 252.588C444.402 252.118 444.187 251.667 443.805 251.334C443.423 251.002 442.904 250.815 442.364 250.815C430.472 251.263 418.686 252.961 407.262 255.869C396.563 258.606 386.426 262.796 377.228 268.284C368.596 273.458 361.105 279.942 355.112 287.426C348.898 295.312 343.749 305.125 345.06 314.915C345.644 319.296 347.471 323.883 351.852 326.443C356.539 329.162 362.434 327.282 366.082 324.078C367.905 322.429 369.286 320.451 370.128 318.283C370.97 316.115 371.251 313.813 370.952 311.54C370.309 306.876 367.824 302.552 363.922 299.308C357.361 293.816 347.743 291.866 338.879 292.871C329.031 293.988 320.493 298.717 314.129 305.25C307.337 312.243 302.922 320.797 300.09 329.57C296.831 339.675 295.68 350.207 296.693 360.665C296.945 363.261 297.373 365.856 297.848 368.427C297.992 368.88 298.338 369.265 298.807 369.497C299.277 369.728 299.834 369.788 300.354 369.663C300.87 369.531 301.307 369.229 301.573 368.823C301.839 368.416 301.913 367.935 301.781 367.482L301.835 367.434Z" fill="white"/>
<path d="M505.218 342.658H505.293L494.962 321.731L473.227 277.66C470.098 271.322 466.969 264.981 463.84 258.636C459.575 249.999 456.097 240.653 447.105 234.765C435.558 227.215 418.102 225.661 406.203 233.458C396.076 240.091 393.298 252.139 393.481 262.626C393.725 274.515 398.235 286.078 404.172 296.66C410.285 307.561 415.311 318.911 420.928 330.019L430.097 348.144L292.564 362.143C288.001 362.604 283.547 363.675 279.36 365.318C273.586 367.592 267.713 370.035 261.741 372.648C258.241 374.177 254.822 375.718 251.485 377.271L260.118 407.42H456.301C494.874 407.42 520.358 372.991 505.218 342.658Z" fill="white"/>
<path d="M563.434 316.86H517.247C515.064 316.858 512.972 316.103 511.428 314.76C509.885 313.416 509.017 311.595 509.015 309.695V269.46C509.017 267.561 509.885 265.739 511.428 264.396C512.972 263.052 515.064 262.297 517.247 262.295H563.434C565.616 262.297 567.709 263.052 569.253 264.396C570.796 265.739 571.664 267.561 571.666 269.46V309.695C571.664 311.595 570.796 313.416 569.253 314.76C567.709 316.103 565.616 316.858 563.434 316.86ZM517.247 264.66C515.785 264.662 514.383 265.168 513.349 266.068C512.315 266.968 511.734 268.188 511.732 269.46V309.695C511.734 310.968 512.315 312.188 513.349 313.088C514.383 313.988 515.785 314.494 517.247 314.495H563.434C564.896 314.494 566.298 313.988 567.331 313.088C568.365 312.188 568.947 310.968 568.949 309.695V269.46C568.947 268.188 568.365 266.968 567.331 266.068C566.298 265.168 564.896 264.662 563.434 264.66H517.247Z" fill="#2A2E32"/>
<path d="M530.023 285.174C528.621 285.174 527.25 284.812 526.084 284.133C524.917 283.455 524.009 282.491 523.472 281.364C522.935 280.236 522.795 278.995 523.068 277.798C523.342 276.601 524.017 275.501 525.009 274.638C526.001 273.775 527.264 273.187 528.64 272.949C530.015 272.711 531.441 272.833 532.737 273.3C534.032 273.767 535.14 274.558 535.919 275.573C536.698 276.588 537.114 277.781 537.114 279.002C537.112 280.638 536.365 282.207 535.035 283.364C533.706 284.521 531.903 285.172 530.023 285.174ZM530.023 275.195C529.158 275.195 528.312 275.418 527.593 275.836C526.874 276.255 526.313 276.849 525.982 277.545C525.651 278.241 525.564 279.006 525.733 279.745C525.902 280.483 526.318 281.161 526.93 281.694C527.542 282.226 528.321 282.589 529.17 282.736C530.018 282.883 530.898 282.807 531.697 282.519C532.496 282.231 533.179 281.743 533.66 281.117C534.141 280.491 534.397 279.755 534.397 279.002C534.39 277.996 533.926 277.033 533.107 276.323C532.288 275.613 531.179 275.214 530.023 275.212V275.195Z" fill="#2A2E32"/>
<path d="M550.624 304.321C549.22 304.321 547.847 303.958 546.681 303.279C545.514 302.599 544.605 301.634 544.069 300.504C543.534 299.375 543.395 298.132 543.671 296.934C543.948 295.736 544.627 294.637 545.622 293.775C546.617 292.913 547.883 292.327 549.261 292.093C550.639 291.858 552.066 291.984 553.361 292.456C554.656 292.928 555.761 293.723 556.536 294.742C557.311 295.761 557.721 296.957 557.715 298.179C557.704 299.81 556.952 301.371 555.624 302.522C554.295 303.673 552.498 304.32 550.624 304.321ZM550.624 294.342C549.758 294.342 548.913 294.565 548.193 294.984C547.474 295.402 546.914 295.997 546.582 296.692C546.251 297.388 546.165 298.154 546.334 298.892C546.502 299.631 546.919 300.309 547.531 300.841C548.142 301.374 548.922 301.736 549.77 301.883C550.619 302.03 551.498 301.955 552.298 301.667C553.097 301.378 553.78 300.89 554.261 300.264C554.741 299.638 554.998 298.902 554.998 298.149C554.996 297.14 554.535 296.173 553.715 295.459C552.895 294.745 551.783 294.344 550.624 294.342Z" fill="#2A2E32"/>
<path d="M526.776 307.987C526.536 307.984 526.301 307.925 526.097 307.815C525.79 307.653 525.568 307.392 525.482 307.088C525.395 306.785 525.451 306.464 525.635 306.195L549.483 271.736C549.575 271.603 549.696 271.487 549.84 271.395C549.984 271.303 550.147 271.236 550.321 271.199C550.494 271.161 550.674 271.154 550.851 271.177C551.028 271.201 551.197 271.254 551.35 271.334C551.503 271.415 551.637 271.521 551.743 271.646C551.849 271.771 551.925 271.913 551.968 272.064C552.011 272.215 552.019 272.372 551.993 272.526C551.966 272.679 551.905 272.827 551.812 272.96L527.965 307.413C527.842 307.591 527.668 307.738 527.459 307.839C527.25 307.939 527.015 307.99 526.776 307.987Z" fill="#2A2E32"/>
<path d="M637.101 232.217H490.33C487.087 232.217 483.978 231.096 481.685 229.1C479.392 227.105 478.104 224.398 478.104 221.576V121.787C478.104 118.965 479.392 116.258 481.685 114.263C483.978 112.267 487.087 111.146 490.33 111.146H637.101C640.343 111.146 643.453 112.267 645.746 114.263C648.038 116.258 649.327 118.965 649.327 121.787V221.588C649.323 224.408 648.033 227.111 645.741 229.104C643.449 231.097 640.341 232.217 637.101 232.217ZM490.33 113.522C487.808 113.522 485.389 114.394 483.606 115.947C481.823 117.499 480.821 119.604 480.821 121.799V221.588C480.821 223.783 481.823 225.888 483.606 227.44C485.389 228.992 487.808 229.864 490.33 229.864H637.101C639.623 229.864 642.041 228.992 643.825 227.44C645.608 225.888 646.61 223.783 646.61 221.588V121.787C646.61 119.592 645.608 117.487 643.825 115.935C642.041 114.383 639.623 113.511 637.101 113.511L490.33 113.522Z" fill="#2A2E32"/>
<path d="M556.818 134.526H504.383C500.992 134.526 498.243 136.919 498.243 139.87V209.492C498.243 212.444 500.992 214.836 504.383 214.836H556.818C560.209 214.836 562.958 212.444 562.958 209.492V139.87C562.958 136.919 560.209 134.526 556.818 134.526Z" fill="#636466"/>
<path d="M599.805 137.01H586.146C584.263 137.01 582.737 138.338 582.737 139.977V151.866C582.737 153.505 584.263 154.833 586.146 154.833H599.805C601.689 154.833 603.215 153.505 603.215 151.866V139.977C603.215 138.338 601.689 137.01 599.805 137.01Z" fill="#B3B3B3"/>
<path d="M629.779 137.01H616.12C614.237 137.01 612.71 138.338 612.71 139.977V151.866C612.71 153.505 614.237 154.833 616.12 154.833H629.779C631.662 154.833 633.189 153.505 633.189 151.866V139.977C633.189 138.338 631.662 137.01 629.779 137.01Z" fill="#B3B3B3"/>
<path d="M633.181 169.518H584.041C583.68 169.518 583.335 169.393 583.08 169.171C582.825 168.949 582.682 168.649 582.682 168.335C582.682 168.022 582.825 167.721 583.08 167.499C583.335 167.277 583.68 167.153 584.041 167.153H633.181C633.542 167.153 633.887 167.277 634.142 167.499C634.397 167.721 634.54 168.022 634.54 168.335C634.54 168.649 634.397 168.949 634.142 169.171C633.887 169.393 633.542 169.518 633.181 169.518Z" fill="#2A2E32"/>
<path d="M633.181 181.548H584.041C583.68 181.548 583.335 181.423 583.08 181.201C582.825 180.98 582.682 180.679 582.682 180.365C582.682 180.052 582.825 179.751 583.08 179.529C583.335 179.308 583.68 179.183 584.041 179.183H633.181C633.542 179.183 633.887 179.308 634.142 179.529C634.397 179.751 634.54 180.052 634.54 180.365C634.54 180.679 634.397 180.98 634.142 181.201C633.887 181.423 633.542 181.548 633.181 181.548Z" fill="#2A2E32"/>
<path d="M618.483 194.4H584.041C583.68 194.4 583.335 194.275 583.08 194.053C582.825 193.832 582.682 193.531 582.682 193.217C582.682 192.904 582.825 192.603 583.08 192.381C583.335 192.16 583.68 192.035 584.041 192.035H618.483C618.844 192.035 619.189 192.16 619.444 192.381C619.699 192.603 619.842 192.904 619.842 193.217C619.842 193.531 619.699 193.832 619.444 194.053C619.189 194.275 618.844 194.4 618.483 194.4Z" fill="#2A2E32"/>
<path d="M538.459 157.871V160.827C538.458 162.309 537.798 163.732 536.616 164.798C535.434 165.864 533.823 166.49 532.122 166.544C531.721 166.544 531.334 166.544 530.947 166.544C529.2 166.496 527.543 165.857 526.328 164.763C525.113 163.67 524.436 162.207 524.44 160.685V157.877C524.44 156.98 524.031 156.12 523.302 155.486C522.574 154.852 521.585 154.496 520.555 154.496C519.525 154.496 518.536 154.852 517.808 155.486C517.079 156.12 516.67 156.98 516.67 157.877V188.576C516.67 189.143 516.798 189.704 517.047 190.228C517.297 190.751 517.662 191.227 518.122 191.628C518.583 192.029 519.129 192.347 519.731 192.563C520.332 192.78 520.977 192.892 521.628 192.892H541.271C541.922 192.892 542.567 192.78 543.168 192.563C543.77 192.347 544.317 192.029 544.777 191.628C545.237 191.227 545.603 190.751 545.852 190.228C546.101 189.704 546.229 189.143 546.229 188.576V157.871C546.229 156.974 545.82 156.114 545.091 155.48C544.363 154.846 543.375 154.49 542.344 154.49C541.314 154.49 540.326 154.846 539.597 155.48C538.868 156.114 538.459 156.974 538.459 157.871Z" fill="white"/>
<path d="M457.11 336.918C457.11 334.062 445.482 331.745 431.13 331.745C416.778 331.745 405.15 334.062 405.15 336.918L402.358 362.433C408.865 361.51 417.98 361.451 426.022 365.802C428.889 367.4 432.054 368.55 435.375 369.201C440.965 370.224 449.38 370.467 459.507 366.73L457.11 336.918Z" fill="white"/>
<path d="M442.703 371.034C440.146 371.037 437.594 370.811 435.09 370.36C431.619 369.677 428.31 368.477 425.309 366.813C417.498 362.604 408.634 362.746 402.576 363.603L400.837 363.852L403.798 336.859C403.948 331.887 421.716 330.569 431.13 330.569C440.544 330.569 458.353 331.875 458.468 336.871L460.927 367.493L460.03 367.818C454.564 369.898 448.669 370.992 442.703 371.034ZM409.286 360.748C415.425 360.653 421.472 362.056 426.742 364.797C429.471 366.321 432.484 367.419 435.647 368.043C440.618 368.953 448.49 369.308 458.061 365.962L455.751 336.918C455.751 335.96 448.348 332.928 431.13 332.928C413.912 332.928 406.508 335.96 406.508 336.918V337.03L403.873 361.049C405.668 360.851 407.476 360.75 409.286 360.748Z" fill="#2A2E32"/>
<path d="M461.3 364.638C450.521 368.374 441.556 368.132 435.606 367.109C432.099 366.459 428.739 365.311 425.662 363.71C417.056 359.353 407.391 359.418 400.463 360.334L397.631 384.613C397.269 387.706 397.656 390.83 398.768 393.784C399.88 396.738 401.691 399.456 404.086 401.762C406.48 404.069 409.403 405.912 412.667 407.174C415.931 408.436 419.462 409.088 423.034 409.088H437.589C441.102 409.088 444.577 408.457 447.798 407.235C451.018 406.013 453.914 404.226 456.304 401.986C458.695 399.745 460.529 397.099 461.691 394.214C462.853 391.329 463.319 388.266 463.06 385.216L461.3 364.638Z" fill="#C20004"/>
<path d="M429.065 393.747H428.943C428.584 393.718 428.254 393.567 428.023 393.326C427.793 393.086 427.681 392.776 427.713 392.464L436.17 311.001C436.291 309.763 436.943 308.611 437.997 307.773C439.05 306.935 440.427 306.473 441.855 306.479H461.973C462.333 306.479 462.679 306.603 462.933 306.825C463.188 307.047 463.331 307.347 463.331 307.661C463.331 307.974 463.188 308.275 462.933 308.497C462.679 308.719 462.333 308.843 461.973 308.843H441.855C441.108 308.842 440.388 309.084 439.836 309.522C439.284 309.959 438.941 310.561 438.873 311.208L430.417 392.671C430.386 392.964 430.231 393.238 429.981 393.437C429.73 393.636 429.404 393.746 429.065 393.747Z" fill="#2A2E32"/>
<path d="M431.075 343.107C430.294 343.107 429.513 343.107 428.739 343.072C420.377 342.797 412.163 341.071 404.579 337.994C404.417 337.928 404.272 337.836 404.151 337.721C404.031 337.607 403.937 337.472 403.876 337.326C403.815 337.18 403.787 337.025 403.795 336.87C403.802 336.715 403.845 336.562 403.921 336.421C403.996 336.281 404.102 336.154 404.234 336.049C404.366 335.944 404.52 335.862 404.687 335.809C404.855 335.756 405.033 335.732 405.212 335.738C405.39 335.745 405.565 335.782 405.727 335.848C412.976 338.792 420.827 340.444 428.82 340.707C438.364 341.006 447.853 339.341 456.519 335.848C456.681 335.782 456.856 335.744 457.035 335.737C457.214 335.729 457.393 335.753 457.561 335.806C457.73 335.86 457.884 335.941 458.016 336.047C458.148 336.152 458.255 336.28 458.33 336.421C458.405 336.563 458.448 336.716 458.455 336.871C458.462 337.027 458.433 337.183 458.371 337.329C458.309 337.475 458.214 337.609 458.092 337.723C457.97 337.837 457.823 337.929 457.66 337.994C449.326 341.348 440.257 343.092 431.075 343.107Z" fill="#2A2E32"/>
<path d="M345.209 234.658C344.863 234.659 344.529 234.544 344.277 234.337C344.024 234.131 343.872 233.848 343.851 233.547L343.05 221.522C343.029 221.209 343.152 220.901 343.392 220.666C343.632 220.432 343.97 220.29 344.33 220.272C344.69 220.254 345.044 220.361 345.313 220.57C345.583 220.779 345.746 221.073 345.766 221.386L346.568 233.405C346.579 233.56 346.555 233.716 346.496 233.863C346.438 234.01 346.347 234.146 346.228 234.262C346.11 234.379 345.966 234.473 345.805 234.541C345.644 234.609 345.469 234.649 345.291 234.658H345.209Z" fill="#2A2E32"/>
<path d="M358.984 233.783C358.637 233.784 358.304 233.669 358.051 233.463C357.799 233.256 357.646 232.973 357.626 232.672L356.824 220.648C356.814 220.493 356.839 220.337 356.898 220.19C356.956 220.043 357.048 219.908 357.167 219.792C357.286 219.676 357.43 219.581 357.59 219.513C357.751 219.446 357.926 219.406 358.104 219.397C358.283 219.389 358.461 219.41 358.63 219.461C358.799 219.513 358.954 219.592 359.088 219.696C359.221 219.799 359.33 219.925 359.408 220.065C359.485 220.205 359.531 220.357 359.541 220.512L360.342 232.56C360.353 232.715 360.329 232.871 360.271 233.018C360.213 233.165 360.122 233.301 360.003 233.417C359.884 233.534 359.74 233.629 359.58 233.696C359.419 233.764 359.244 233.804 359.065 233.813L358.984 233.783Z" fill="#2A2E32"/>
<path d="M218.292 236.16H74.1901C71.6682 236.16 69.2495 235.288 67.4663 233.736C65.683 232.183 64.6812 230.078 64.6812 227.883V147.828C64.6812 145.633 65.683 143.527 67.4663 141.975C69.2495 140.423 71.6682 139.551 74.1901 139.551H218.292C220.814 139.551 223.232 140.423 225.016 141.975C226.799 143.527 227.801 145.633 227.801 147.828V227.866C227.803 228.954 227.559 230.032 227.083 231.038C226.606 232.044 225.906 232.959 225.023 233.729C224.14 234.5 223.09 235.111 221.935 235.528C220.78 235.945 219.542 236.16 218.292 236.16ZM74.1901 141.898C72.3887 141.898 70.6611 142.521 69.3874 143.63C68.1136 144.738 67.398 146.242 67.398 147.81V227.866C67.398 229.433 68.1136 230.937 69.3874 232.046C70.6611 233.154 72.3887 233.777 74.1901 233.777H218.292C220.093 233.777 221.821 233.154 223.094 232.046C224.368 230.937 225.084 229.433 225.084 227.866V147.828C225.084 146.26 224.368 144.756 223.094 143.647C221.821 142.539 220.093 141.916 218.292 141.916L74.1901 141.898Z" fill="#2A2E32"/>
<path d="M205.346 200.099H144.312C141.39 200.099 139.021 202.16 139.021 204.704V206.377C139.021 208.92 141.39 210.982 144.312 210.982H205.346C208.268 210.982 210.637 208.92 210.637 206.377V204.704C210.637 202.16 208.268 200.099 205.346 200.099Z" fill="#C20004"/>
<path d="M207.649 172.556H142.01C141.65 172.556 141.304 172.432 141.049 172.21C140.794 171.988 140.651 171.687 140.651 171.374C140.651 171.06 140.794 170.759 141.049 170.538C141.304 170.316 141.65 170.191 142.01 170.191H207.649C208.009 170.191 208.355 170.316 208.609 170.538C208.864 170.759 209.007 171.06 209.007 171.374C209.007 171.687 208.864 171.988 208.609 172.21C208.355 172.432 208.009 172.556 207.649 172.556Z" fill="#2A2E32"/>
<path d="M198.405 185.485H142.03C141.67 185.485 141.325 185.361 141.07 185.139C140.815 184.917 140.672 184.616 140.672 184.303C140.672 183.989 140.815 183.689 141.07 183.467C141.325 183.245 141.67 183.121 142.03 183.121H198.405C198.765 183.121 199.111 183.245 199.365 183.467C199.62 183.689 199.763 183.989 199.763 184.303C199.763 184.616 199.62 184.917 199.365 185.139C199.111 185.361 198.765 185.485 198.405 185.485Z" fill="#2A2E32"/>
<path d="M95.3208 173.833C94.9605 173.833 94.615 173.709 94.3603 173.487C94.1055 173.265 93.9624 172.965 93.9624 172.651C93.8469 168.513 95.6197 166.012 97.1275 164.653C98.8083 163.118 101.112 162.216 103.546 162.14C105.923 162.175 108.188 163.025 109.849 164.505C111.391 165.853 113.245 168.359 113.164 172.639C113.164 172.953 113.021 173.254 112.766 173.475C112.511 173.697 112.166 173.822 111.805 173.822C111.445 173.822 111.099 173.697 110.845 173.475C110.59 173.254 110.447 172.953 110.447 172.639C110.494 169.181 109.088 167.23 107.927 166.201C106.77 165.183 105.211 164.587 103.566 164.534C101.861 164.593 100.25 165.23 99.0769 166.308C97.4332 167.786 96.6045 169.961 96.6792 172.604C96.6792 172.917 96.5361 173.218 96.2814 173.44C96.0266 173.662 95.6811 173.786 95.3208 173.786V173.833Z" fill="#2A2E32"/>
<path d="M120.159 212.46H87.1224C86.3128 212.461 85.5125 212.31 84.7751 212.019C84.0378 211.728 83.3804 211.304 82.8472 210.773C82.3139 210.243 81.9171 209.62 81.6833 208.945C81.4495 208.271 81.3842 207.56 81.4917 206.862L86.0967 176.961C86.2809 175.775 86.9532 174.688 87.9887 173.9C89.0242 173.113 90.3526 172.68 91.7274 172.681H114.787C116.14 172.679 117.45 173.099 118.478 173.865C119.507 174.63 120.188 175.69 120.397 176.854L125.783 206.755C125.911 207.462 125.861 208.183 125.637 208.871C125.413 209.559 125.02 210.196 124.485 210.738C123.95 211.281 123.286 211.716 122.54 212.013C121.793 212.31 120.98 212.463 120.159 212.46Z" fill="#B3B3B3"/>
<path d="M361.279 408.816H251.485V388.154H361.279C362.796 388.154 364.251 388.679 365.323 389.612C366.396 390.546 366.998 391.812 366.998 393.132V403.832C366.999 404.486 366.852 405.134 366.565 405.739C366.278 406.343 365.857 406.893 365.326 407.356C364.795 407.818 364.164 408.186 363.47 408.436C362.775 408.687 362.031 408.816 361.279 408.816Z" fill="#2A2E32"/>
<path d="M263.881 408.816H135.197C132.799 408.836 130.457 408.18 128.521 406.948C126.584 405.715 125.157 403.972 124.452 401.976L92.9434 308.998C90.9058 302.974 96.2648 296.973 103.689 296.973H225.05C227.554 296.948 229.995 297.661 231.974 298.996C233.953 300.331 235.355 302.21 235.952 304.327L263.881 408.816Z" fill="#2A2E32"/>
<path d="M170.421 377.23C180.268 377.23 188.25 370.282 188.25 361.711C188.25 353.141 180.268 346.193 170.421 346.193C160.574 346.193 152.592 353.141 152.592 361.711C152.592 370.282 160.574 377.23 170.421 377.23Z" fill="#B3B3B3"/>
<path d="M166.502 350.68C166.198 350.68 165.902 350.59 165.663 350.426C165.424 350.262 165.256 350.033 165.184 349.776L163.052 342.173C163.009 342.022 163.001 341.866 163.029 341.712C163.056 341.558 163.118 341.411 163.21 341.278C163.398 341.01 163.7 340.817 164.05 340.743C164.4 340.668 164.77 340.718 165.079 340.881C165.387 341.044 165.608 341.307 165.694 341.612L167.826 349.214C167.869 349.365 167.877 349.522 167.85 349.676C167.823 349.829 167.761 349.977 167.668 350.11C167.575 350.243 167.453 350.358 167.309 350.45C167.165 350.542 167.002 350.608 166.828 350.645C166.721 350.668 166.612 350.68 166.502 350.68Z" fill="#636466"/>
<path d="M608.615 408.603H70.1763C69.816 408.603 69.4705 408.478 69.2157 408.257C68.961 408.035 68.8179 407.734 68.8179 407.421C68.8179 407.107 68.961 406.806 69.2157 406.585C69.4705 406.363 69.816 406.238 70.1763 406.238H608.615C608.975 406.238 609.321 406.363 609.575 406.585C609.83 406.806 609.973 407.107 609.973 407.421C609.973 407.734 609.83 408.035 609.575 408.257C609.321 408.478 608.975 408.603 608.615 408.603Z" fill="#2A2E32"/>
<path d="M335.327 91.046C330.752 91.0519 326.277 89.8763 322.469 87.668C318.661 85.4598 315.692 82.318 313.936 78.6404C312.181 74.9628 311.718 70.9146 312.606 67.0079C313.495 63.1013 315.695 59.5119 318.928 56.6938C322.161 53.8757 326.282 51.9556 330.769 51.1766C335.256 50.3975 339.908 50.7944 344.136 52.317C348.364 53.8397 351.978 56.4197 354.52 59.7305C357.063 63.0414 358.42 66.9344 358.42 70.9168C358.411 76.2479 355.977 81.3589 351.649 85.1313C347.321 88.9037 341.452 91.0304 335.327 91.046ZM335.327 53.1523C331.297 53.1523 327.358 54.1924 324.007 56.1411C320.656 58.0899 318.044 60.8597 316.502 64.1004C314.96 67.341 314.556 70.9069 315.342 74.3472C316.129 77.7874 318.069 80.9475 320.919 83.4278C323.769 85.9081 327.399 87.5972 331.352 88.2815C335.305 88.9658 339.402 88.6146 343.125 87.2723C346.848 85.9299 350.031 83.6568 352.269 80.7403C354.508 77.8238 355.704 74.3949 355.704 70.8872C355.689 66.1875 353.538 61.6838 349.72 58.3605C345.901 55.0372 340.727 53.1647 335.327 53.1523Z" fill="white"/>
<path d="M336.285 0.852051H334.376C331.465 0.852051 329.105 2.90592 329.105 5.4395V43.3569C329.105 45.8905 331.465 47.9443 334.376 47.9443H336.285C339.196 47.9443 341.555 45.8905 341.555 43.3569V5.4395C341.555 2.90592 339.196 0.852051 336.285 0.852051Z" fill="#2A2E32"/>
<path d="M334.336 34.8086C319.957 34.9976 305.902 38.5563 293.651 45.1104C281.399 51.6644 271.404 60.9714 264.716 72.0521C264.487 72.4298 264.373 72.8529 264.387 73.2801C264.401 73.7074 264.541 74.1242 264.795 74.4902C265.048 74.8562 265.407 75.1588 265.834 75.3687C266.262 75.5785 266.745 75.6884 267.236 75.6877H403.452C403.943 75.6874 404.425 75.5767 404.852 75.3665C405.278 75.1562 405.636 74.8535 405.888 74.4877C406.141 74.1219 406.281 73.7054 406.295 73.2787C406.308 72.8519 406.195 72.4294 405.965 72.0521C399.117 60.7101 388.807 51.2321 376.169 44.6612C363.531 38.0903 349.056 34.681 334.336 34.8086Z" fill="#B3B3B3"/>
<path d="M293.488 64.3434C284.549 64.3434 277.261 59.0879 277.153 59.0229C276.877 58.8206 276.705 58.5314 276.674 58.2187C276.644 57.9061 276.757 57.5957 276.99 57.3558C277.222 57.1159 277.554 56.9662 277.913 56.9396C278.273 56.913 278.629 57.0117 278.905 57.2139C279.503 57.6514 293.63 67.784 305.693 57.2849L306.515 56.5696L307.459 57.1607C308.138 57.5864 324.045 67.4943 335.789 57.2789L336.584 56.5814L337.521 57.1371C340.194 58.63 343.122 59.7472 346.194 60.4476C352.545 61.8428 357.802 60.7787 361.816 57.2789L362.659 56.5459L363.603 57.1725C364.234 57.5923 379.272 67.3761 390.88 57.2789C391.138 57.0748 391.476 56.9647 391.825 56.9717C392.173 56.9786 392.506 57.1019 392.753 57.3162C393 57.5304 393.143 57.8191 393.152 58.1225C393.161 58.4259 393.036 58.7208 392.802 58.946C381.296 68.9604 366.741 61.8132 362.917 59.6259C358.312 63.1729 352.301 64.2488 345.447 62.7236C342.453 62.0335 339.584 60.9829 336.923 59.6022C325.377 68.7476 310.672 61.7363 306.814 59.6022C302.392 63.1433 297.753 64.3434 293.488 64.3434Z" fill="#2A2E32"/>
<path d="M254.976 377.762C254.684 377.755 254.402 377.667 254.172 377.509C253.942 377.352 253.777 377.134 253.7 376.888C253.624 376.643 253.641 376.382 253.748 376.145C253.856 375.909 254.048 375.708 254.297 375.574C258.712 373.21 263.29 371.011 267.881 368.971C273.994 366.281 280.29 363.822 286.661 361.664C286.997 361.551 287.371 361.558 287.701 361.684C288.031 361.811 288.29 362.046 288.421 362.338C288.551 362.631 288.543 362.956 288.398 363.243C288.253 363.531 287.982 363.756 287.646 363.869C281.357 365.998 275.122 368.421 269.111 371.082C264.567 373.092 260.057 375.285 255.689 377.584C255.476 377.702 255.228 377.763 254.976 377.762Z" fill="#2A2E32"/>
<path d="M79.6646 343.734L87.5366 317.794H42.8784L49.9694 344.018C41.9156 347.077 35.3244 352.465 31.3129 359.269C27.3013 366.074 26.1162 373.876 27.9582 381.354C29.8003 388.832 34.5562 395.526 41.4201 400.301C48.284 405.076 56.8337 407.639 65.6202 407.555C74.4068 407.471 82.8897 404.745 89.6315 399.84C96.3733 394.935 100.959 388.152 102.612 380.641C104.265 373.129 102.884 365.351 98.7013 358.625C94.5191 351.899 87.7936 346.638 79.6646 343.734Z" fill="white"/>
<path d="M65.2042 408.727C56.2443 408.72 47.5538 406.059 40.5628 401.182C33.5718 396.304 28.6969 389.5 26.7403 381.89C24.7836 374.28 25.8618 366.316 29.7974 359.311C33.733 352.305 40.2915 346.674 48.3938 343.344L41.1601 316.611H89.2959L81.2812 343.048C89.5246 346.257 96.2538 351.83 100.345 358.836C104.436 365.843 105.641 373.859 103.76 381.546C101.878 389.234 97.0233 396.126 90.0062 401.073C82.9891 406.02 74.2344 408.721 65.2042 408.727ZM44.5902 318.976L51.5521 344.709L50.5129 345.1C42.7441 348.049 36.3857 353.245 32.5154 359.808C28.6451 366.371 27.5009 373.896 29.2767 381.109C31.0525 388.322 35.6391 394.779 42.2592 399.386C48.8793 403.992 57.1256 406.464 65.6006 406.384C74.0756 406.303 82.258 403.675 88.7611 398.944C95.2641 394.213 99.6877 387.671 101.282 380.425C102.877 373.18 101.544 365.678 97.5104 359.19C93.4764 352.703 86.9893 347.628 79.1485 344.828L78.0481 344.432L85.7708 318.976H44.5902Z" fill="#2A2E32"/>
<path d="M65.1908 321.016C78.5375 321.016 89.3571 319.02 89.3571 316.558C89.3571 314.097 78.5375 312.101 65.1908 312.101C51.8441 312.101 41.0244 314.097 41.0244 316.558C41.0244 319.02 51.8441 321.016 65.1908 321.016Z" fill="#2A2E32"/>
<path d="M58.616 320.147C58.3388 320.146 58.0686 320.071 57.8415 319.933C57.6145 319.794 57.4415 319.599 57.3459 319.372C49.1003 299.805 32.0588 283.902 31.889 283.766C31.7664 283.653 31.6705 283.521 31.6069 283.375C31.5432 283.23 31.5131 283.075 31.5181 282.92C31.5232 282.765 31.5633 282.612 31.6363 282.47C31.7093 282.328 31.8136 282.2 31.9434 282.093C32.0732 281.987 32.2258 281.903 32.3927 281.848C32.5595 281.792 32.7372 281.766 32.9157 281.77C33.0942 281.775 33.27 281.81 33.4329 281.873C33.5959 281.937 33.7429 282.028 33.8656 282.141C34.0422 282.306 51.4571 298.528 59.893 318.556C60.0098 318.848 59.9913 319.167 59.8416 319.446C59.6919 319.726 59.4227 319.943 59.0915 320.052C58.9405 320.107 58.7796 320.139 58.616 320.147Z" fill="#2A2E32"/>
<path d="M69.4971 320.306C69.1368 320.306 68.7913 320.182 68.5365 319.96C68.2818 319.738 68.1387 319.438 68.1387 319.124V302.193C68.1387 301.879 68.2818 301.579 68.5365 301.357C68.7913 301.135 69.1368 301.011 69.4971 301.011C69.8574 301.011 70.2029 301.135 70.4576 301.357C70.7124 301.579 70.8555 301.879 70.8555 302.193V319.124C70.8555 319.438 70.7124 319.738 70.4576 319.96C70.2029 320.182 69.8574 320.306 69.4971 320.306Z" fill="#2A2E32"/>
<path d="M39.7543 271.931H33.9606C33.8519 271.671 33.7297 271.417 33.6006 271.169L37.8185 267.917C38.2651 267.583 38.6309 267.174 38.8945 266.715C39.1582 266.257 39.3146 265.757 39.3545 265.245C39.3944 264.733 39.3171 264.22 39.1272 263.734C38.9372 263.249 38.6382 262.801 38.2477 262.417C37.8572 262.033 37.3829 261.72 36.8524 261.497C36.3218 261.274 35.7456 261.144 35.1572 261.116C34.5687 261.089 33.9798 261.163 33.4246 261.335C32.8694 261.507 32.359 261.773 31.923 262.118L27.4809 265.541C27.413 265.594 27.3587 265.659 27.2907 265.718C27.0123 265.606 26.727 265.505 26.4349 265.411V260.723C26.39 259.721 25.9012 258.774 25.0712 258.079C24.2412 257.384 23.1343 256.996 21.9827 256.996C20.8311 256.996 19.7242 257.384 18.8942 258.079C18.0642 258.774 17.5754 259.721 17.5305 260.723V265.411C17.1188 265.542 16.7153 265.692 16.3215 265.86C16.1964 265.725 16.0602 265.599 15.9139 265.482L11.4379 262.118C10.5371 261.493 9.39313 261.196 8.24617 261.289C7.09921 261.383 6.03837 261.859 5.28623 262.619C4.53408 263.378 4.1491 264.361 4.21205 265.363C4.275 266.364 4.781 267.305 5.62388 267.988L10.1203 271.364C10.1558 271.391 10.1945 271.415 10.2357 271.435C10.1542 271.6 10.0863 271.772 10.0116 271.943H4.42846C3.25444 271.948 2.13014 272.356 1.3006 273.079C0.471074 273.802 0.00357255 274.782 0 275.803C-1.37164e-06 276.831 0.468497 277.816 1.30262 278.544C2.13675 279.271 3.26831 279.68 4.44884 279.681H9.97762L10.1135 280.001H10.0727L5.62388 283.424C4.78356 284.115 4.28498 285.064 4.23349 286.069C4.18201 287.074 4.58165 288.058 5.34797 288.812C6.11429 289.565 7.18726 290.03 8.34015 290.108C9.49304 290.186 10.6355 289.871 11.5262 289.229L15.9683 285.806L16.0634 285.717C16.5491 285.945 17.053 286.143 17.5712 286.308V290.955C17.6162 291.957 18.1049 292.904 18.9349 293.599C19.765 294.294 20.8719 294.682 22.0234 294.682C23.175 294.682 24.2819 294.294 25.1119 293.599C25.942 292.904 26.4307 291.957 26.4757 290.955V286.356C26.7813 286.255 27.087 286.149 27.3858 286.025L31.7464 289.294C32.6444 289.962 33.8108 290.293 34.989 290.214C36.1672 290.134 37.2608 289.65 38.0291 288.868C38.7974 288.087 39.1775 287.071 39.0858 286.046C38.994 285.02 38.438 284.069 37.54 283.4L33.6685 280.491C33.8044 280.225 33.9266 279.953 34.0421 279.681H39.7543C40.936 279.681 42.0693 279.273 42.9049 278.546C43.7405 277.818 44.2099 276.832 44.2099 275.803C44.2081 274.776 43.7379 273.791 42.9025 273.065C42.0671 272.339 40.9348 271.931 39.7543 271.931Z" fill="#C20004"/>
<path d="M39.7543 271.931H33.9606C33.8519 271.671 33.7297 271.417 33.6006 271.169L37.8185 267.917C38.2651 267.583 38.6309 267.174 38.8945 266.715C39.1582 266.257 39.3146 265.757 39.3545 265.245C39.3944 264.733 39.3171 264.22 39.1272 263.734C38.9372 263.249 38.6382 262.801 38.2477 262.417C37.8572 262.033 37.3829 261.72 36.8524 261.497C36.3218 261.274 35.7456 261.144 35.1572 261.116C34.5687 261.089 33.9798 261.163 33.4246 261.335C32.8694 261.507 32.359 261.773 31.923 262.118L27.4809 265.541C27.413 265.594 27.3587 265.659 27.2907 265.718C27.0123 265.606 26.727 265.505 26.4349 265.411V260.723C26.39 259.721 25.9012 258.774 25.0712 258.079C24.2412 257.384 23.1343 256.996 21.9827 256.996C20.8311 256.996 19.7242 257.384 18.8942 258.079C18.0642 258.774 17.5754 259.721 17.5305 260.723V265.411C17.1188 265.542 16.7153 265.692 16.3215 265.86C16.1964 265.725 16.0602 265.599 15.9139 265.482L11.4379 262.118C10.5371 261.493 9.39313 261.196 8.24617 261.289C7.09921 261.383 6.03837 261.859 5.28623 262.619C4.53408 263.378 4.1491 264.361 4.21205 265.363C4.275 266.364 4.781 267.305 5.62388 267.988L10.1203 271.364C10.1558 271.391 10.1945 271.415 10.2357 271.435C10.1542 271.6 10.0863 271.772 10.0116 271.943H4.42846C3.25444 271.948 2.13014 272.356 1.3006 273.079C0.471074 273.802 0.00357255 274.782 0 275.803C-1.37164e-06 276.831 0.468497 277.816 1.30262 278.544C2.13675 279.271 3.26831 279.68 4.44884 279.681H9.97762L10.1135 280.001H10.0727L5.62388 283.424C4.78356 284.115 4.28498 285.064 4.23349 286.069C4.18201 287.074 4.58165 288.058 5.34797 288.812C6.11429 289.565 7.18726 290.03 8.34015 290.108C9.49304 290.186 10.6355 289.871 11.5262 289.229L15.9683 285.806L16.0634 285.717C16.5491 285.945 17.053 286.143 17.5712 286.308V290.955C17.6162 291.957 18.1049 292.904 18.9349 293.599C19.765 294.294 20.8719 294.682 22.0234 294.682C23.175 294.682 24.2819 294.294 25.1119 293.599C25.942 292.904 26.4307 291.957 26.4757 290.955V286.356C26.7813 286.255 27.087 286.149 27.3858 286.025L31.7464 289.294C32.6444 289.962 33.8108 290.293 34.989 290.214C36.1672 290.134 37.2608 289.65 38.0291 288.868C38.7974 288.087 39.1775 287.071 39.0858 286.046C38.994 285.02 38.438 284.069 37.54 283.4L33.6685 280.491C33.8044 280.225 33.9266 279.953 34.0421 279.681H39.7543C40.936 279.681 42.0693 279.273 42.9049 278.546C43.7405 277.818 44.2099 276.832 44.2099 275.803C44.2081 274.776 43.7379 273.791 42.9025 273.065C42.0671 272.339 40.9348 271.931 39.7543 271.931Z" fill="#C20004"/>
<path d="M39.7543 271.931H33.9606C33.8519 271.671 33.7297 271.417 33.6006 271.169L37.8185 267.917C38.2651 267.583 38.6309 267.174 38.8945 266.715C39.1582 266.257 39.3146 265.757 39.3545 265.245C39.3944 264.733 39.3171 264.22 39.1272 263.734C38.9372 263.249 38.6382 262.801 38.2477 262.417C37.8572 262.033 37.3829 261.72 36.8524 261.497C36.3218 261.274 35.7456 261.144 35.1572 261.116C34.5687 261.089 33.9798 261.163 33.4246 261.335C32.8694 261.507 32.359 261.773 31.923 262.118L27.4809 265.541C27.413 265.594 27.3587 265.659 27.2907 265.718C27.0123 265.606 26.727 265.505 26.4349 265.411V260.723C26.39 259.721 25.9012 258.774 25.0712 258.079C24.2412 257.384 23.1343 256.996 21.9827 256.996C20.8311 256.996 19.7242 257.384 18.8942 258.079C18.0642 258.774 17.5754 259.721 17.5305 260.723V265.411C17.1188 265.542 16.7153 265.692 16.3215 265.86C16.1964 265.725 16.0602 265.599 15.9139 265.482L11.4379 262.118C10.5371 261.493 9.39313 261.196 8.24617 261.289C7.09921 261.383 6.03837 261.859 5.28623 262.619C4.53408 263.378 4.1491 264.361 4.21205 265.363C4.275 266.364 4.781 267.305 5.62388 267.988L10.1203 271.364C10.1558 271.391 10.1945 271.415 10.2357 271.435C10.1542 271.6 10.0863 271.772 10.0116 271.943H4.42846C3.25444 271.948 2.13014 272.356 1.3006 273.079C0.471074 273.802 0.00357255 274.782 0 275.803C-1.37164e-06 276.831 0.468497 277.816 1.30262 278.544C2.13675 279.271 3.26831 279.68 4.44884 279.681H9.97762L10.1135 280.001H10.0727L5.62388 283.424C4.78356 284.115 4.28498 285.064 4.23349 286.069C4.18201 287.074 4.58165 288.058 5.34797 288.812C6.11429 289.565 7.18726 290.03 8.34015 290.108C9.49304 290.186 10.6355 289.871 11.5262 289.229L15.9683 285.806L16.0634 285.717C16.5491 285.945 17.053 286.143 17.5712 286.308V290.955C17.6162 291.957 18.1049 292.904 18.9349 293.599C19.765 294.294 20.8719 294.682 22.0234 294.682C23.175 294.682 24.2819 294.294 25.1119 293.599C25.942 292.904 26.4307 291.957 26.4757 290.955V286.356C26.7813 286.255 27.087 286.149 27.3858 286.025L31.7464 289.294C32.6444 289.962 33.8108 290.293 34.989 290.214C36.1672 290.134 37.2608 289.65 38.0291 288.868C38.7974 288.087 39.1775 287.071 39.0858 286.046C38.994 285.02 38.438 284.069 37.54 283.4L33.6685 280.491C33.8044 280.225 33.9266 279.953 34.0421 279.681H39.7543C40.936 279.681 42.0693 279.273 42.9049 278.546C43.7405 277.818 44.2099 276.832 44.2099 275.803C44.2081 274.776 43.7379 273.791 42.9025 273.065C42.0671 272.339 40.9348 271.931 39.7543 271.931Z" fill="#C20004"/>
<path d="M39.7543 271.931H33.9606C33.8519 271.671 33.7297 271.417 33.6006 271.169L37.8185 267.917C38.2651 267.583 38.6309 267.174 38.8945 266.715C39.1582 266.257 39.3146 265.757 39.3545 265.245C39.3944 264.733 39.3171 264.22 39.1272 263.734C38.9372 263.249 38.6382 262.801 38.2477 262.417C37.8572 262.033 37.3829 261.72 36.8524 261.497C36.3218 261.274 35.7456 261.144 35.1572 261.116C34.5687 261.089 33.9798 261.163 33.4246 261.335C32.8694 261.507 32.359 261.773 31.923 262.118L27.4809 265.541C27.413 265.594 27.3587 265.659 27.2907 265.718C27.0123 265.606 26.727 265.505 26.4349 265.411V260.723C26.39 259.721 25.9012 258.774 25.0712 258.079C24.2412 257.384 23.1343 256.996 21.9827 256.996C20.8311 256.996 19.7242 257.384 18.8942 258.079C18.0642 258.774 17.5754 259.721 17.5305 260.723V265.411C17.1188 265.542 16.7153 265.692 16.3215 265.86C16.1964 265.725 16.0602 265.599 15.9139 265.482L11.4379 262.118C10.5371 261.493 9.39313 261.196 8.24617 261.289C7.09921 261.383 6.03837 261.859 5.28623 262.619C4.53408 263.378 4.1491 264.361 4.21205 265.363C4.275 266.364 4.781 267.305 5.62388 267.988L10.1203 271.364C10.1558 271.391 10.1945 271.415 10.2357 271.435C10.1542 271.6 10.0863 271.772 10.0116 271.943H4.42846C3.25444 271.948 2.13014 272.356 1.3006 273.079C0.471074 273.802 0.00357255 274.782 0 275.803C-1.37164e-06 276.831 0.468497 277.816 1.30262 278.544C2.13675 279.271 3.26831 279.68 4.44884 279.681H9.97762L10.1135 280.001H10.0727L5.62388 283.424C4.78356 284.115 4.28498 285.064 4.23349 286.069C4.18201 287.074 4.58165 288.058 5.34797 288.812C6.11429 289.565 7.18726 290.03 8.34015 290.108C9.49304 290.186 10.6355 289.871 11.5262 289.229L15.9683 285.806L16.0634 285.717C16.5491 285.945 17.053 286.143 17.5712 286.308V290.955C17.6162 291.957 18.1049 292.904 18.9349 293.599C19.765 294.294 20.8719 294.682 22.0234 294.682C23.175 294.682 24.2819 294.294 25.1119 293.599C25.942 292.904 26.4307 291.957 26.4757 290.955V286.356C26.7813 286.255 27.087 286.149 27.3858 286.025L31.7464 289.294C32.6444 289.962 33.8108 290.293 34.989 290.214C36.1672 290.134 37.2608 289.65 38.0291 288.868C38.7974 288.087 39.1775 287.071 39.0858 286.046C38.994 285.02 38.438 284.069 37.54 283.4L33.6685 280.491C33.8044 280.225 33.9266 279.953 34.0421 279.681H39.7543C40.936 279.681 42.0693 279.273 42.9049 278.546C43.7405 277.818 44.2099 276.832 44.2099 275.803C44.2081 274.776 43.7379 273.791 42.9025 273.065C42.0671 272.339 40.9348 271.931 39.7543 271.931Z" fill="#C20004"/>
<path d="M39.7543 271.931H33.9606C33.8519 271.671 33.7297 271.417 33.6006 271.169L37.8185 267.917C38.2651 267.583 38.6309 267.174 38.8945 266.715C39.1582 266.257 39.3146 265.757 39.3545 265.245C39.3944 264.733 39.3171 264.22 39.1272 263.734C38.9372 263.249 38.6382 262.801 38.2477 262.417C37.8572 262.033 37.3829 261.72 36.8524 261.497C36.3218 261.274 35.7456 261.144 35.1572 261.116C34.5687 261.089 33.9798 261.163 33.4246 261.335C32.8694 261.507 32.359 261.773 31.923 262.118L27.4809 265.541C27.413 265.594 27.3587 265.659 27.2907 265.718C27.0123 265.606 26.727 265.505 26.4349 265.411V260.723C26.39 259.721 25.9012 258.774 25.0712 258.079C24.2412 257.384 23.1343 256.996 21.9827 256.996C20.8311 256.996 19.7242 257.384 18.8942 258.079C18.0642 258.774 17.5754 259.721 17.5305 260.723V265.411C17.1188 265.542 16.7153 265.692 16.3215 265.86C16.1964 265.725 16.0602 265.599 15.9139 265.482L11.4379 262.118C10.5371 261.493 9.39313 261.196 8.24617 261.289C7.09921 261.383 6.03837 261.859 5.28623 262.619C4.53408 263.378 4.1491 264.361 4.21205 265.363C4.275 266.364 4.781 267.305 5.62388 267.988L10.1203 271.364C10.1558 271.391 10.1945 271.415 10.2357 271.435C10.1542 271.6 10.0863 271.772 10.0116 271.943H4.42846C3.25444 271.948 2.13014 272.356 1.3006 273.079C0.471074 273.802 0.00357255 274.782 0 275.803C-1.37164e-06 276.831 0.468497 277.816 1.30262 278.544C2.13675 279.271 3.26831 279.68 4.44884 279.681H9.97762L10.1135 280.001H10.0727L5.62388 283.424C4.78356 284.115 4.28498 285.064 4.23349 286.069C4.18201 287.074 4.58165 288.058 5.34797 288.812C6.11429 289.565 7.18726 290.03 8.34015 290.108C9.49304 290.186 10.6355 289.871 11.5262 289.229L15.9683 285.806L16.0634 285.717C16.5491 285.945 17.053 286.143 17.5712 286.308V290.955C17.6162 291.957 18.1049 292.904 18.9349 293.599C19.765 294.294 20.8719 294.682 22.0234 294.682C23.175 294.682 24.2819 294.294 25.1119 293.599C25.942 292.904 26.4307 291.957 26.4757 290.955V286.356C26.7813 286.255 27.087 286.149 27.3858 286.025L31.7464 289.294C32.6444 289.962 33.8108 290.293 34.989 290.214C36.1672 290.134 37.2608 289.65 38.0291 288.868C38.7974 288.087 39.1775 287.071 39.0858 286.046C38.994 285.02 38.438 284.069 37.54 283.4L33.6685 280.491C33.8044 280.225 33.9266 279.953 34.0421 279.681H39.7543C40.936 279.681 42.0693 279.273 42.9049 278.546C43.7405 277.818 44.2099 276.832 44.2099 275.803C44.2081 274.776 43.7379 273.791 42.9025 273.065C42.0671 272.339 40.9348 271.931 39.7543 271.931Z" fill="#C20004"/>
<path d="M39.7543 271.931H33.9606C33.8519 271.671 33.7297 271.417 33.6006 271.169L37.8185 267.917C38.2651 267.583 38.6309 267.174 38.8945 266.715C39.1582 266.257 39.3146 265.757 39.3545 265.245C39.3944 264.733 39.3171 264.22 39.1272 263.734C38.9372 263.249 38.6382 262.801 38.2477 262.417C37.8572 262.033 37.3829 261.72 36.8524 261.497C36.3218 261.274 35.7456 261.144 35.1572 261.116C34.5687 261.089 33.9798 261.163 33.4246 261.335C32.8694 261.507 32.359 261.773 31.923 262.118L27.4809 265.541C27.413 265.594 27.3587 265.659 27.2907 265.718C27.0123 265.606 26.727 265.505 26.4349 265.411V260.723C26.39 259.721 25.9012 258.774 25.0712 258.079C24.2412 257.384 23.1343 256.996 21.9827 256.996C20.8311 256.996 19.7242 257.384 18.8942 258.079C18.0642 258.774 17.5754 259.721 17.5305 260.723V265.411C17.1188 265.542 16.7153 265.692 16.3215 265.86C16.1964 265.725 16.0602 265.599 15.9139 265.482L11.4379 262.118C10.5371 261.493 9.39313 261.196 8.24617 261.289C7.09921 261.383 6.03837 261.859 5.28623 262.619C4.53408 263.378 4.1491 264.361 4.21205 265.363C4.275 266.364 4.781 267.305 5.62388 267.988L10.1203 271.364C10.1558 271.391 10.1945 271.415 10.2357 271.435C10.1542 271.6 10.0863 271.772 10.0116 271.943H4.42846C3.25444 271.948 2.13014 272.356 1.3006 273.079C0.471074 273.802 0.00357255 274.782 0 275.803C-1.37164e-06 276.831 0.468497 277.816 1.30262 278.544C2.13675 279.271 3.26831 279.68 4.44884 279.681H9.97762L10.1135 280.001H10.0727L5.62388 283.424C4.78356 284.115 4.28498 285.064 4.23349 286.069C4.18201 287.074 4.58165 288.058 5.34797 288.812C6.11429 289.565 7.18726 290.03 8.34015 290.108C9.49304 290.186 10.6355 289.871 11.5262 289.229L15.9683 285.806L16.0634 285.717C16.5491 285.945 17.053 286.143 17.5712 286.308V290.955C17.6162 291.957 18.1049 292.904 18.9349 293.599C19.765 294.294 20.8719 294.682 22.0234 294.682C23.175 294.682 24.2819 294.294 25.1119 293.599C25.942 292.904 26.4307 291.957 26.4757 290.955V286.356C26.7813 286.255 27.087 286.149 27.3858 286.025L31.7464 289.294C32.6444 289.962 33.8108 290.293 34.989 290.214C36.1672 290.134 37.2608 289.65 38.0291 288.868C38.7974 288.087 39.1775 287.071 39.0858 286.046C38.994 285.02 38.438 284.069 37.54 283.4L33.6685 280.491C33.8044 280.225 33.9266 279.953 34.0421 279.681H39.7543C40.936 279.681 42.0693 279.273 42.9049 278.546C43.7405 277.818 44.2099 276.832 44.2099 275.803C44.2081 274.776 43.7379 273.791 42.9025 273.065C42.0671 272.339 40.9348 271.931 39.7543 271.931Z" fill="#C20004"/>
<path d="M39.7543 271.931H33.9606C33.8519 271.671 33.7297 271.417 33.6006 271.169L37.8185 267.917C38.2651 267.583 38.6309 267.174 38.8945 266.715C39.1582 266.257 39.3146 265.757 39.3545 265.245C39.3944 264.733 39.3171 264.22 39.1272 263.734C38.9372 263.249 38.6382 262.801 38.2477 262.417C37.8572 262.033 37.3829 261.72 36.8524 261.497C36.3218 261.274 35.7456 261.144 35.1572 261.116C34.5687 261.089 33.9798 261.163 33.4246 261.335C32.8694 261.507 32.359 261.773 31.923 262.118L27.4809 265.541C27.413 265.594 27.3587 265.659 27.2907 265.718C27.0123 265.606 26.727 265.505 26.4349 265.411V260.723C26.39 259.721 25.9012 258.774 25.0712 258.079C24.2412 257.384 23.1343 256.996 21.9827 256.996C20.8311 256.996 19.7242 257.384 18.8942 258.079C18.0642 258.774 17.5754 259.721 17.5305 260.723V265.411C17.1188 265.542 16.7153 265.692 16.3215 265.86C16.1964 265.725 16.0602 265.599 15.9139 265.482L11.4379 262.118C10.5371 261.493 9.39313 261.196 8.24617 261.289C7.09921 261.383 6.03837 261.859 5.28623 262.619C4.53408 263.378 4.1491 264.361 4.21205 265.363C4.275 266.364 4.781 267.305 5.62388 267.988L10.1203 271.364C10.1558 271.391 10.1945 271.415 10.2357 271.435C10.1542 271.6 10.0863 271.772 10.0116 271.943H4.42846C3.25444 271.948 2.13014 272.356 1.3006 273.079C0.471074 273.802 0.00357255 274.782 0 275.803C-1.37164e-06 276.831 0.468497 277.816 1.30262 278.544C2.13675 279.271 3.26831 279.68 4.44884 279.681H9.97762L10.1135 280.001H10.0727L5.62388 283.424C4.78356 284.115 4.28498 285.064 4.23349 286.069C4.18201 287.074 4.58165 288.058 5.34797 288.812C6.11429 289.565 7.18726 290.03 8.34015 290.108C9.49304 290.186 10.6355 289.871 11.5262 289.229L15.9683 285.806L16.0634 285.717C16.5491 285.945 17.053 286.143 17.5712 286.308V290.955C17.6162 291.957 18.1049 292.904 18.9349 293.599C19.765 294.294 20.8719 294.682 22.0234 294.682C23.175 294.682 24.2819 294.294 25.1119 293.599C25.942 292.904 26.4307 291.957 26.4757 290.955V286.356C26.7813 286.255 27.087 286.149 27.3858 286.025L31.7464 289.294C32.6444 289.962 33.8108 290.293 34.989 290.214C36.1672 290.134 37.2608 289.65 38.0291 288.868C38.7974 288.087 39.1775 287.071 39.0858 286.046C38.994 285.02 38.438 284.069 37.54 283.4L33.6685 280.491C33.8044 280.225 33.9266 279.953 34.0421 279.681H39.7543C40.936 279.681 42.0693 279.273 42.9049 278.546C43.7405 277.818 44.2099 276.832 44.2099 275.803C44.2081 274.776 43.7379 273.791 42.9025 273.065C42.0671 272.339 40.9348 271.931 39.7543 271.931Z" fill="#C20004"/>
<path d="M87.1633 286.208H81.3968C81.2881 285.948 81.1659 285.699 81.03 285.451L85.2547 282.2C86.0951 281.508 86.5936 280.559 86.6451 279.554C86.6966 278.549 86.297 277.565 85.5306 276.811C84.7643 276.058 83.6914 275.593 82.5385 275.515C81.3856 275.437 80.2431 275.752 79.3524 276.394L74.9103 279.817C74.8435 279.873 74.78 279.933 74.7202 279.994C74.4417 279.882 74.1496 279.782 73.8576 279.687V274.999C73.8126 273.998 73.3239 273.05 72.4938 272.355C71.6638 271.661 70.5569 271.272 69.4053 271.272C68.2537 271.272 67.1469 271.661 66.3168 272.355C65.4868 273.05 64.998 273.998 64.9531 274.999V279.687C64.5456 279.817 64.1448 279.971 63.7509 280.136C63.624 280.003 63.4879 279.877 63.3434 279.758L58.847 276.382C58.4083 276.027 57.8916 275.752 57.3279 275.574C56.7642 275.396 56.165 275.319 55.5663 275.348C54.9676 275.376 54.3817 275.51 53.8437 275.74C53.3056 275.97 52.8265 276.293 52.435 276.688C52.0436 277.083 51.7478 277.543 51.5654 278.04C51.383 278.537 51.3177 279.061 51.3736 279.581C51.4294 280.101 51.6051 280.605 51.8902 281.064C52.1754 281.523 52.564 281.927 53.0329 282.253L57.5225 285.628C57.5617 285.654 57.6025 285.678 57.6448 285.699C57.5633 285.865 57.4886 286.036 57.4206 286.208H51.8375C50.6576 286.208 49.526 286.616 48.6917 287.342C47.8574 288.068 47.3887 289.053 47.3887 290.08C47.3887 291.107 47.8572 292.093 48.6913 292.82C49.5254 293.547 50.657 293.956 51.8375 293.958H57.3663C57.4071 294.064 57.4546 294.177 57.5021 294.283C57.5021 294.283 57.5021 294.283 57.4614 294.283L53.0126 297.706C52.5524 298.037 52.1735 298.446 51.8985 298.908C51.6235 299.369 51.458 299.875 51.4118 300.393C51.3656 300.911 51.4396 301.433 51.6296 301.926C51.8195 302.419 52.1214 302.873 52.5173 303.263C52.9133 303.652 53.3951 303.968 53.9343 304.193C54.4734 304.417 55.0588 304.544 55.6557 304.567C56.2525 304.59 56.8487 304.509 57.4086 304.327C57.9685 304.146 58.4807 303.868 58.9149 303.511L63.3569 300.088L63.452 300.005C63.9374 300.23 64.4388 300.428 64.9531 300.597V305.273C64.998 306.274 65.4868 307.222 66.3168 307.917C67.1469 308.611 68.2537 308.999 69.4053 308.999C70.5569 308.999 71.6638 308.611 72.4938 307.917C73.3239 307.222 73.8126 306.274 73.8576 305.273V300.603C74.17 300.502 74.4756 300.396 74.7745 300.271L79.1283 303.541C79.5707 303.873 80.084 304.127 80.639 304.287C81.194 304.447 81.7798 304.51 82.3629 304.473C82.9459 304.436 83.5149 304.299 84.0374 304.071C84.5598 303.842 85.0254 303.527 85.4076 303.142C85.7898 302.757 86.0811 302.31 86.2649 301.827C86.4487 301.344 86.5214 300.834 86.4788 300.326C86.4362 299.819 86.2792 299.324 86.0168 298.869C85.7543 298.414 85.3915 298.009 84.9491 297.676L81.0708 294.768C81.2134 294.502 81.3357 294.23 81.4512 293.958H87.1633C88.3439 293.956 89.4754 293.547 90.3095 292.82C91.1437 292.093 91.6122 291.107 91.6122 290.08C91.6122 289.571 91.4971 289.068 91.2735 288.598C91.0499 288.128 90.7222 287.701 90.3091 287.342C89.896 286.982 89.4056 286.697 88.8658 286.502C88.3261 286.308 87.7476 286.208 87.1633 286.208Z" fill="#C20004"/>
<path d="M87.1633 286.208H81.3968C81.2881 285.948 81.1659 285.699 81.03 285.451L85.2547 282.2C86.0951 281.508 86.5936 280.559 86.6451 279.554C86.6966 278.549 86.297 277.565 85.5306 276.811C84.7643 276.058 83.6914 275.593 82.5385 275.515C81.3856 275.437 80.2431 275.752 79.3524 276.394L74.9103 279.817C74.8435 279.873 74.78 279.933 74.7202 279.994C74.4417 279.882 74.1496 279.782 73.8576 279.687V274.999C73.8126 273.998 73.3239 273.05 72.4938 272.355C71.6638 271.661 70.5569 271.272 69.4053 271.272C68.2537 271.272 67.1469 271.661 66.3168 272.355C65.4868 273.05 64.998 273.998 64.9531 274.999V279.687C64.5456 279.817 64.1448 279.971 63.7509 280.136C63.624 280.003 63.4879 279.877 63.3434 279.758L58.847 276.382C58.4083 276.027 57.8916 275.752 57.3279 275.574C56.7642 275.396 56.165 275.319 55.5663 275.348C54.9676 275.376 54.3817 275.51 53.8437 275.74C53.3056 275.97 52.8265 276.293 52.435 276.688C52.0436 277.083 51.7478 277.543 51.5654 278.04C51.383 278.537 51.3177 279.061 51.3736 279.581C51.4294 280.101 51.6051 280.605 51.8902 281.064C52.1754 281.523 52.564 281.927 53.0329 282.253L57.5225 285.628C57.5617 285.654 57.6025 285.678 57.6448 285.699C57.5633 285.865 57.4886 286.036 57.4206 286.208H51.8375C50.6576 286.208 49.526 286.616 48.6917 287.342C47.8574 288.068 47.3887 289.053 47.3887 290.08C47.3887 291.107 47.8572 292.093 48.6913 292.82C49.5254 293.547 50.657 293.956 51.8375 293.958H57.3663C57.4071 294.064 57.4546 294.177 57.5021 294.283C57.5021 294.283 57.5021 294.283 57.4614 294.283L53.0126 297.706C52.5524 298.037 52.1735 298.446 51.8985 298.908C51.6235 299.369 51.458 299.875 51.4118 300.393C51.3656 300.911 51.4396 301.433 51.6296 301.926C51.8195 302.419 52.1214 302.873 52.5173 303.263C52.9133 303.652 53.3951 303.968 53.9343 304.193C54.4734 304.417 55.0588 304.544 55.6557 304.567C56.2525 304.59 56.8487 304.509 57.4086 304.327C57.9685 304.146 58.4807 303.868 58.9149 303.511L63.3569 300.088L63.452 300.005C63.9374 300.23 64.4388 300.428 64.9531 300.597V305.273C64.998 306.274 65.4868 307.222 66.3168 307.917C67.1469 308.611 68.2537 308.999 69.4053 308.999C70.5569 308.999 71.6638 308.611 72.4938 307.917C73.3239 307.222 73.8126 306.274 73.8576 305.273V300.603C74.17 300.502 74.4756 300.396 74.7745 300.271L79.1283 303.541C79.5707 303.873 80.084 304.127 80.639 304.287C81.194 304.447 81.7798 304.51 82.3629 304.473C82.9459 304.436 83.5149 304.299 84.0374 304.071C84.5598 303.842 85.0254 303.527 85.4076 303.142C85.7898 302.757 86.0811 302.31 86.2649 301.827C86.4487 301.344 86.5214 300.834 86.4788 300.326C86.4362 299.819 86.2792 299.324 86.0168 298.869C85.7543 298.414 85.3915 298.009 84.9491 297.676L81.0708 294.768C81.2134 294.502 81.3357 294.23 81.4512 293.958H87.1633C88.3439 293.956 89.4754 293.547 90.3095 292.82C91.1437 292.093 91.6122 291.107 91.6122 290.08C91.6122 289.571 91.4971 289.068 91.2735 288.598C91.0499 288.128 90.7222 287.701 90.3091 287.342C89.896 286.982 89.4056 286.697 88.8658 286.502C88.3261 286.308 87.7476 286.208 87.1633 286.208Z" fill="#C20004"/>
<path d="M87.1633 286.208H81.3968C81.2881 285.948 81.1659 285.699 81.03 285.451L85.2547 282.2C86.0951 281.508 86.5936 280.559 86.6451 279.554C86.6966 278.549 86.297 277.565 85.5306 276.811C84.7643 276.058 83.6914 275.593 82.5385 275.515C81.3856 275.437 80.2431 275.752 79.3524 276.394L74.9103 279.817C74.8435 279.873 74.78 279.933 74.7202 279.994C74.4417 279.882 74.1496 279.782 73.8576 279.687V274.999C73.8126 273.998 73.3239 273.05 72.4938 272.355C71.6638 271.661 70.5569 271.272 69.4053 271.272C68.2537 271.272 67.1469 271.661 66.3168 272.355C65.4868 273.05 64.998 273.998 64.9531 274.999V279.687C64.5456 279.817 64.1448 279.971 63.7509 280.136C63.624 280.003 63.4879 279.877 63.3434 279.758L58.847 276.382C58.4083 276.027 57.8916 275.752 57.3279 275.574C56.7642 275.396 56.165 275.319 55.5663 275.348C54.9676 275.376 54.3817 275.51 53.8437 275.74C53.3056 275.97 52.8265 276.293 52.435 276.688C52.0436 277.083 51.7478 277.543 51.5654 278.04C51.383 278.537 51.3177 279.061 51.3736 279.581C51.4294 280.101 51.6051 280.605 51.8902 281.064C52.1754 281.523 52.564 281.927 53.0329 282.253L57.5225 285.628C57.5617 285.654 57.6025 285.678 57.6448 285.699C57.5633 285.865 57.4886 286.036 57.4206 286.208H51.8375C50.6576 286.208 49.526 286.616 48.6917 287.342C47.8574 288.068 47.3887 289.053 47.3887 290.08C47.3887 291.107 47.8572 292.093 48.6913 292.82C49.5254 293.547 50.657 293.956 51.8375 293.958H57.3663C57.4071 294.064 57.4546 294.177 57.5021 294.283C57.5021 294.283 57.5021 294.283 57.4614 294.283L53.0126 297.706C52.5524 298.037 52.1735 298.446 51.8985 298.908C51.6235 299.369 51.458 299.875 51.4118 300.393C51.3656 300.911 51.4396 301.433 51.6296 301.926C51.8195 302.419 52.1214 302.873 52.5173 303.263C52.9133 303.652 53.3951 303.968 53.9343 304.193C54.4734 304.417 55.0588 304.544 55.6557 304.567C56.2525 304.59 56.8487 304.509 57.4086 304.327C57.9685 304.146 58.4807 303.868 58.9149 303.511L63.3569 300.088L63.452 300.005C63.9374 300.23 64.4388 300.428 64.9531 300.597V305.273C64.998 306.274 65.4868 307.222 66.3168 307.917C67.1469 308.611 68.2537 308.999 69.4053 308.999C70.5569 308.999 71.6638 308.611 72.4938 307.917C73.3239 307.222 73.8126 306.274 73.8576 305.273V300.603C74.17 300.502 74.4756 300.396 74.7745 300.271L79.1283 303.541C79.5707 303.873 80.084 304.127 80.639 304.287C81.194 304.447 81.7798 304.51 82.3629 304.473C82.9459 304.436 83.5149 304.299 84.0374 304.071C84.5598 303.842 85.0254 303.527 85.4076 303.142C85.7898 302.757 86.0811 302.31 86.2649 301.827C86.4487 301.344 86.5214 300.834 86.4788 300.326C86.4362 299.819 86.2792 299.324 86.0168 298.869C85.7543 298.414 85.3915 298.009 84.9491 297.676L81.0708 294.768C81.2134 294.502 81.3357 294.23 81.4512 293.958H87.1633C88.3439 293.956 89.4754 293.547 90.3095 292.82C91.1437 292.093 91.6122 291.107 91.6122 290.08C91.6122 289.571 91.4971 289.068 91.2735 288.598C91.0499 288.128 90.7222 287.701 90.3091 287.342C89.896 286.982 89.4056 286.697 88.8658 286.502C88.3261 286.308 87.7476 286.208 87.1633 286.208Z" fill="#C20004"/>
<path d="M87.1633 286.208H81.3968C81.2881 285.948 81.1659 285.699 81.03 285.451L85.2547 282.2C86.0951 281.508 86.5936 280.559 86.6451 279.554C86.6966 278.549 86.297 277.565 85.5306 276.811C84.7643 276.058 83.6914 275.593 82.5385 275.515C81.3856 275.437 80.2431 275.752 79.3524 276.394L74.9103 279.817C74.8435 279.873 74.78 279.933 74.7202 279.994C74.4417 279.882 74.1496 279.782 73.8576 279.687V274.999C73.8126 273.998 73.3239 273.05 72.4938 272.355C71.6638 271.661 70.5569 271.272 69.4053 271.272C68.2537 271.272 67.1469 271.661 66.3168 272.355C65.4868 273.05 64.998 273.998 64.9531 274.999V279.687C64.5456 279.817 64.1448 279.971 63.7509 280.136C63.624 280.003 63.4879 279.877 63.3434 279.758L58.847 276.382C58.4083 276.027 57.8916 275.752 57.3279 275.574C56.7642 275.396 56.165 275.319 55.5663 275.348C54.9676 275.376 54.3817 275.51 53.8437 275.74C53.3056 275.97 52.8265 276.293 52.435 276.688C52.0436 277.083 51.7478 277.543 51.5654 278.04C51.383 278.537 51.3177 279.061 51.3736 279.581C51.4294 280.101 51.6051 280.605 51.8902 281.064C52.1754 281.523 52.564 281.927 53.0329 282.253L57.5225 285.628C57.5617 285.654 57.6025 285.678 57.6448 285.699C57.5633 285.865 57.4886 286.036 57.4206 286.208H51.8375C50.6576 286.208 49.526 286.616 48.6917 287.342C47.8574 288.068 47.3887 289.053 47.3887 290.08C47.3887 291.107 47.8572 292.093 48.6913 292.82C49.5254 293.547 50.657 293.956 51.8375 293.958H57.3663C57.4071 294.064 57.4546 294.177 57.5021 294.283C57.5021 294.283 57.5021 294.283 57.4614 294.283L53.0126 297.706C52.5524 298.037 52.1735 298.446 51.8985 298.908C51.6235 299.369 51.458 299.875 51.4118 300.393C51.3656 300.911 51.4396 301.433 51.6296 301.926C51.8195 302.419 52.1214 302.873 52.5173 303.263C52.9133 303.652 53.3951 303.968 53.9343 304.193C54.4734 304.417 55.0588 304.544 55.6557 304.567C56.2525 304.59 56.8487 304.509 57.4086 304.327C57.9685 304.146 58.4807 303.868 58.9149 303.511L63.3569 300.088L63.452 300.005C63.9374 300.23 64.4388 300.428 64.9531 300.597V305.273C64.998 306.274 65.4868 307.222 66.3168 307.917C67.1469 308.611 68.2537 308.999 69.4053 308.999C70.5569 308.999 71.6638 308.611 72.4938 307.917C73.3239 307.222 73.8126 306.274 73.8576 305.273V300.603C74.17 300.502 74.4756 300.396 74.7745 300.271L79.1283 303.541C79.5707 303.873 80.084 304.127 80.639 304.287C81.194 304.447 81.7798 304.51 82.3629 304.473C82.9459 304.436 83.5149 304.299 84.0374 304.071C84.5598 303.842 85.0254 303.527 85.4076 303.142C85.7898 302.757 86.0811 302.31 86.2649 301.827C86.4487 301.344 86.5214 300.834 86.4788 300.326C86.4362 299.819 86.2792 299.324 86.0168 298.869C85.7543 298.414 85.3915 298.009 84.9491 297.676L81.0708 294.768C81.2134 294.502 81.3357 294.23 81.4512 293.958H87.1633C88.3439 293.956 89.4754 293.547 90.3095 292.82C91.1437 292.093 91.6122 291.107 91.6122 290.08C91.6122 289.571 91.4971 289.068 91.2735 288.598C91.0499 288.128 90.7222 287.701 90.3091 287.342C89.896 286.982 89.4056 286.697 88.8658 286.502C88.3261 286.308 87.7476 286.208 87.1633 286.208Z" fill="#C20004"/>
<path d="M87.1633 286.208H81.3968C81.2881 285.948 81.1659 285.699 81.03 285.451L85.2547 282.2C86.0951 281.508 86.5936 280.559 86.6451 279.554C86.6966 278.549 86.297 277.565 85.5306 276.811C84.7643 276.058 83.6914 275.593 82.5385 275.515C81.3856 275.437 80.2431 275.752 79.3524 276.394L74.9103 279.817C74.8435 279.873 74.78 279.933 74.7202 279.994C74.4417 279.882 74.1496 279.782 73.8576 279.687V274.999C73.8126 273.998 73.3239 273.05 72.4938 272.355C71.6638 271.661 70.5569 271.272 69.4053 271.272C68.2537 271.272 67.1469 271.661 66.3168 272.355C65.4868 273.05 64.998 273.998 64.9531 274.999V279.687C64.5456 279.817 64.1448 279.971 63.7509 280.136C63.624 280.003 63.4879 279.877 63.3434 279.758L58.847 276.382C58.4083 276.027 57.8916 275.752 57.3279 275.574C56.7642 275.396 56.165 275.319 55.5663 275.348C54.9676 275.376 54.3817 275.51 53.8437 275.74C53.3056 275.97 52.8265 276.293 52.435 276.688C52.0436 277.083 51.7478 277.543 51.5654 278.04C51.383 278.537 51.3177 279.061 51.3736 279.581C51.4294 280.101 51.6051 280.605 51.8902 281.064C52.1754 281.523 52.564 281.927 53.0329 282.253L57.5225 285.628C57.5617 285.654 57.6025 285.678 57.6448 285.699C57.5633 285.865 57.4886 286.036 57.4206 286.208H51.8375C50.6576 286.208 49.526 286.616 48.6917 287.342C47.8574 288.068 47.3887 289.053 47.3887 290.08C47.3887 291.107 47.8572 292.093 48.6913 292.82C49.5254 293.547 50.657 293.956 51.8375 293.958H57.3663C57.4071 294.064 57.4546 294.177 57.5021 294.283C57.5021 294.283 57.5021 294.283 57.4614 294.283L53.0126 297.706C52.5524 298.037 52.1735 298.446 51.8985 298.908C51.6235 299.369 51.458 299.875 51.4118 300.393C51.3656 300.911 51.4396 301.433 51.6296 301.926C51.8195 302.419 52.1214 302.873 52.5173 303.263C52.9133 303.652 53.3951 303.968 53.9343 304.193C54.4734 304.417 55.0588 304.544 55.6557 304.567C56.2525 304.59 56.8487 304.509 57.4086 304.327C57.9685 304.146 58.4807 303.868 58.9149 303.511L63.3569 300.088L63.452 300.005C63.9374 300.23 64.4388 300.428 64.9531 300.597V305.273C64.998 306.274 65.4868 307.222 66.3168 307.917C67.1469 308.611 68.2537 308.999 69.4053 308.999C70.5569 308.999 71.6638 308.611 72.4938 307.917C73.3239 307.222 73.8126 306.274 73.8576 305.273V300.603C74.17 300.502 74.4756 300.396 74.7745 300.271L79.1283 303.541C79.5707 303.873 80.084 304.127 80.639 304.287C81.194 304.447 81.7798 304.51 82.3629 304.473C82.9459 304.436 83.5149 304.299 84.0374 304.071C84.5598 303.842 85.0254 303.527 85.4076 303.142C85.7898 302.757 86.0811 302.31 86.2649 301.827C86.4487 301.344 86.5214 300.834 86.4788 300.326C86.4362 299.819 86.2792 299.324 86.0168 298.869C85.7543 298.414 85.3915 298.009 84.9491 297.676L81.0708 294.768C81.2134 294.502 81.3357 294.23 81.4512 293.958H87.1633C88.3439 293.956 89.4754 293.547 90.3095 292.82C91.1437 292.093 91.6122 291.107 91.6122 290.08C91.6122 289.571 91.4971 289.068 91.2735 288.598C91.0499 288.128 90.7222 287.701 90.3091 287.342C89.896 286.982 89.4056 286.697 88.8658 286.502C88.3261 286.308 87.7476 286.208 87.1633 286.208Z" fill="#C20004"/>
<path d="M87.1633 286.208H81.3968C81.2881 285.948 81.1659 285.699 81.03 285.451L85.2547 282.2C86.0951 281.508 86.5936 280.559 86.6451 279.554C86.6966 278.549 86.297 277.565 85.5306 276.811C84.7643 276.058 83.6914 275.593 82.5385 275.515C81.3856 275.437 80.2431 275.752 79.3524 276.394L74.9103 279.817C74.8435 279.873 74.78 279.933 74.7202 279.994C74.4417 279.882 74.1496 279.782 73.8576 279.687V274.999C73.8126 273.998 73.3239 273.05 72.4938 272.355C71.6638 271.661 70.5569 271.272 69.4053 271.272C68.2537 271.272 67.1469 271.661 66.3168 272.355C65.4868 273.05 64.998 273.998 64.9531 274.999V279.687C64.5456 279.817 64.1448 279.971 63.7509 280.136C63.624 280.003 63.4879 279.877 63.3434 279.758L58.847 276.382C58.4083 276.027 57.8916 275.752 57.3279 275.574C56.7642 275.396 56.165 275.319 55.5663 275.348C54.9676 275.376 54.3817 275.51 53.8437 275.74C53.3056 275.97 52.8265 276.293 52.435 276.688C52.0436 277.083 51.7478 277.543 51.5654 278.04C51.383 278.537 51.3177 279.061 51.3736 279.581C51.4294 280.101 51.6051 280.605 51.8902 281.064C52.1754 281.523 52.564 281.927 53.0329 282.253L57.5225 285.628C57.5617 285.654 57.6025 285.678 57.6448 285.699C57.5633 285.865 57.4886 286.036 57.4206 286.208H51.8375C50.6576 286.208 49.526 286.616 48.6917 287.342C47.8574 288.068 47.3887 289.053 47.3887 290.08C47.3887 291.107 47.8572 292.093 48.6913 292.82C49.5254 293.547 50.657 293.956 51.8375 293.958H57.3663C57.4071 294.064 57.4546 294.177 57.5021 294.283C57.5021 294.283 57.5021 294.283 57.4614 294.283L53.0126 297.706C52.5524 298.037 52.1735 298.446 51.8985 298.908C51.6235 299.369 51.458 299.875 51.4118 300.393C51.3656 300.911 51.4396 301.433 51.6296 301.926C51.8195 302.419 52.1214 302.873 52.5173 303.263C52.9133 303.652 53.3951 303.968 53.9343 304.193C54.4734 304.417 55.0588 304.544 55.6557 304.567C56.2525 304.59 56.8487 304.509 57.4086 304.327C57.9685 304.146 58.4807 303.868 58.9149 303.511L63.3569 300.088L63.452 300.005C63.9374 300.23 64.4388 300.428 64.9531 300.597V305.273C64.998 306.274 65.4868 307.222 66.3168 307.917C67.1469 308.611 68.2537 308.999 69.4053 308.999C70.5569 308.999 71.6638 308.611 72.4938 307.917C73.3239 307.222 73.8126 306.274 73.8576 305.273V300.603C74.17 300.502 74.4756 300.396 74.7745 300.271L79.1283 303.541C79.5707 303.873 80.084 304.127 80.639 304.287C81.194 304.447 81.7798 304.51 82.3629 304.473C82.9459 304.436 83.5149 304.299 84.0374 304.071C84.5598 303.842 85.0254 303.527 85.4076 303.142C85.7898 302.757 86.0811 302.31 86.2649 301.827C86.4487 301.344 86.5214 300.834 86.4788 300.326C86.4362 299.819 86.2792 299.324 86.0168 298.869C85.7543 298.414 85.3915 298.009 84.9491 297.676L81.0708 294.768C81.2134 294.502 81.3357 294.23 81.4512 293.958H87.1633C88.3439 293.956 89.4754 293.547 90.3095 292.82C91.1437 292.093 91.6122 291.107 91.6122 290.08C91.6122 289.571 91.4971 289.068 91.2735 288.598C91.0499 288.128 90.7222 287.701 90.3091 287.342C89.896 286.982 89.4056 286.697 88.8658 286.502C88.3261 286.308 87.7476 286.208 87.1633 286.208Z" fill="#C20004"/>
<path d="M87.1633 286.208H81.3968C81.2881 285.948 81.1659 285.699 81.03 285.451L85.2547 282.2C86.0951 281.508 86.5936 280.559 86.6451 279.554C86.6966 278.549 86.297 277.565 85.5306 276.811C84.7643 276.058 83.6914 275.593 82.5385 275.515C81.3856 275.437 80.2431 275.752 79.3524 276.394L74.9103 279.817C74.8435 279.873 74.78 279.933 74.7202 279.994C74.4417 279.882 74.1496 279.782 73.8576 279.687V274.999C73.8126 273.998 73.3239 273.05 72.4938 272.355C71.6638 271.661 70.5569 271.272 69.4053 271.272C68.2537 271.272 67.1469 271.661 66.3168 272.355C65.4868 273.05 64.998 273.998 64.9531 274.999V279.687C64.5456 279.817 64.1448 279.971 63.7509 280.136C63.624 280.003 63.4879 279.877 63.3434 279.758L58.847 276.382C58.4083 276.027 57.8916 275.752 57.3279 275.574C56.7642 275.396 56.165 275.319 55.5663 275.348C54.9676 275.376 54.3817 275.51 53.8437 275.74C53.3056 275.97 52.8265 276.293 52.435 276.688C52.0436 277.083 51.7478 277.543 51.5654 278.04C51.383 278.537 51.3177 279.061 51.3736 279.581C51.4294 280.101 51.6051 280.605 51.8902 281.064C52.1754 281.523 52.564 281.927 53.0329 282.253L57.5225 285.628C57.5617 285.654 57.6025 285.678 57.6448 285.699C57.5633 285.865 57.4886 286.036 57.4206 286.208H51.8375C50.6576 286.208 49.526 286.616 48.6917 287.342C47.8574 288.068 47.3887 289.053 47.3887 290.08C47.3887 291.107 47.8572 292.093 48.6913 292.82C49.5254 293.547 50.657 293.956 51.8375 293.958H57.3663C57.4071 294.064 57.4546 294.177 57.5021 294.283C57.5021 294.283 57.5021 294.283 57.4614 294.283L53.0126 297.706C52.5524 298.037 52.1735 298.446 51.8985 298.908C51.6235 299.369 51.458 299.875 51.4118 300.393C51.3656 300.911 51.4396 301.433 51.6296 301.926C51.8195 302.419 52.1214 302.873 52.5173 303.263C52.9133 303.652 53.3951 303.968 53.9343 304.193C54.4734 304.417 55.0588 304.544 55.6557 304.567C56.2525 304.59 56.8487 304.509 57.4086 304.327C57.9685 304.146 58.4807 303.868 58.9149 303.511L63.3569 300.088L63.452 300.005C63.9374 300.23 64.4388 300.428 64.9531 300.597V305.273C64.998 306.274 65.4868 307.222 66.3168 307.917C67.1469 308.611 68.2537 308.999 69.4053 308.999C70.5569 308.999 71.6638 308.611 72.4938 307.917C73.3239 307.222 73.8126 306.274 73.8576 305.273V300.603C74.17 300.502 74.4756 300.396 74.7745 300.271L79.1283 303.541C79.5707 303.873 80.084 304.127 80.639 304.287C81.194 304.447 81.7798 304.51 82.3629 304.473C82.9459 304.436 83.5149 304.299 84.0374 304.071C84.5598 303.842 85.0254 303.527 85.4076 303.142C85.7898 302.757 86.0811 302.31 86.2649 301.827C86.4487 301.344 86.5214 300.834 86.4788 300.326C86.4362 299.819 86.2792 299.324 86.0168 298.869C85.7543 298.414 85.3915 298.009 84.9491 297.676L81.0708 294.768C81.2134 294.502 81.3357 294.23 81.4512 293.958H87.1633C88.3439 293.956 89.4754 293.547 90.3095 292.82C91.1437 292.093 91.6122 291.107 91.6122 290.08C91.6122 289.571 91.4971 289.068 91.2735 288.598C91.0499 288.128 90.7222 287.701 90.3091 287.342C89.896 286.982 89.4056 286.697 88.8658 286.502C88.3261 286.308 87.7476 286.208 87.1633 286.208Z" fill="#C20004"/>
<path d="M22.0948 280.976C25.3508 280.976 27.9903 278.679 27.9903 275.845C27.9903 273.011 25.3508 270.713 22.0948 270.713C18.8388 270.713 16.1992 273.011 16.1992 275.845C16.1992 278.679 18.8388 280.976 22.0948 280.976Z" fill="white"/>
<path d="M69.504 295.53C72.76 295.53 75.3995 293.233 75.3995 290.399C75.3995 287.565 72.76 285.268 69.504 285.268C66.2479 285.268 63.6084 287.565 63.6084 290.399C63.6084 293.233 66.2479 295.53 69.504 295.53Z" fill="white"/>
<path d="M77.2468 383.159C75.0383 383.159 72.8795 382.589 71.0432 381.521C69.2069 380.453 67.7757 378.936 66.9306 377.16C66.0854 375.384 65.8643 373.43 66.2951 371.544C66.726 369.659 67.7895 367.927 69.3511 366.568C70.9127 365.209 72.9024 364.283 75.0684 363.908C77.2344 363.533 79.4796 363.726 81.52 364.461C83.5603 365.197 85.3042 366.443 86.5312 368.041C87.7582 369.639 88.4131 371.518 88.4131 373.44C88.4095 376.017 87.2319 378.487 85.1386 380.309C83.0453 382.131 80.2072 383.156 77.2468 383.159ZM77.2468 366.086C75.5757 366.086 73.9421 366.518 72.5526 367.326C71.1631 368.134 70.0801 369.282 69.4406 370.626C68.8011 371.97 68.6337 373.449 68.9598 374.875C69.2858 376.302 70.0905 377.612 71.2722 378.641C72.4539 379.669 73.9594 380.369 75.5984 380.653C77.2374 380.937 78.9363 380.791 80.4803 380.235C82.0242 379.678 83.3438 378.736 84.2722 377.526C85.2007 376.317 85.6962 374.895 85.6962 373.44C85.6908 371.491 84.7989 369.624 83.2155 368.245C81.6321 366.867 79.4861 366.091 77.2468 366.086Z" fill="#2A2E32"/>
<path d="M59.6552 399.328C58.1251 399.328 56.6294 398.933 55.3572 398.193C54.0849 397.453 53.0934 396.401 52.5078 395.171C51.9223 393.941 51.7691 392.587 52.0676 391.281C52.3661 389.974 53.1029 388.775 54.1848 387.833C55.2668 386.891 56.6452 386.25 58.1459 385.99C59.6466 385.73 61.2021 385.864 62.6157 386.373C64.0293 386.883 65.2375 387.746 66.0876 388.853C66.9377 389.961 67.3914 391.263 67.3914 392.594C67.3896 394.38 66.574 396.091 65.1235 397.354C63.6731 398.616 61.7064 399.326 59.6552 399.328ZM59.6552 388.226C58.6624 388.226 57.692 388.482 56.8666 388.962C56.0411 389.442 55.3978 390.124 55.0179 390.922C54.638 391.721 54.5386 392.599 54.7322 393.447C54.9259 394.294 55.404 395.072 56.1059 395.683C56.8079 396.294 57.7023 396.71 58.6759 396.879C59.6496 397.048 60.6588 396.961 61.576 396.63C62.4932 396.3 63.2771 395.74 63.8286 395.021C64.3802 394.303 64.6746 393.458 64.6746 392.594C64.6728 391.436 64.1434 390.326 63.2024 389.507C62.2615 388.688 60.9858 388.227 59.6552 388.226Z" fill="#2A2E32"/>
</svg>
