<svg width="588" height="540" viewBox="0 0 588 540" fill="none" xmlns="http://www.w3.org/2000/svg">
<path d="M341.154 11.5516L13.0282 323.634C-10.3104 345.83 -0.872171 384.968 30.025 394.082L464.357 522.207C495.254 531.328 524.428 503.608 516.869 472.265L410.662 32.0574C403.11 0.747754 364.492 -10.6443 341.154 11.5516Z" fill="#B3B3B3"/>
<path d="M337.881 400.62H195.754C174.179 443.22 163.382 490.461 164.309 538.204L366.122 538.386C365.393 513.188 362.338 488.111 356.994 463.476C352.316 442.046 345.924 421.027 337.881 400.62Z" fill="#C20004"/>
<path d="M325.469 229.563H211.845V350.684H325.469V229.563Z" fill="#2A2E32"/>
<path d="M280.671 209.382H253.141C244.414 209.382 236.044 205.915 229.873 199.744C223.703 193.573 220.236 185.204 220.236 176.477V141.692C220.236 133.176 223.618 125.01 229.64 118.989C235.661 112.967 243.828 109.584 252.343 109.584H280.556C291.806 109.584 302.595 114.053 310.55 122.008C318.505 129.963 322.974 140.752 322.974 152.002V167.079C322.974 178.298 318.517 189.058 310.584 196.992C302.65 204.925 291.891 209.382 280.671 209.382Z" fill="#2A2E32"/>
<path d="M314.942 197.753L331.796 142.03C332.032 141.251 332.436 140.534 332.98 139.929C333.524 139.325 334.194 138.847 334.944 138.532C335.694 138.216 336.504 138.069 337.316 138.103C338.129 138.136 338.924 138.348 339.646 138.724L357.846 148.189C358.636 148.6 359.315 149.195 359.825 149.924C360.336 150.654 360.663 151.495 360.778 152.378C360.894 153.261 360.795 154.158 360.489 154.995C360.183 155.831 359.68 156.581 359.022 157.181L314.942 197.753Z" fill="#2A2E32"/>
<path d="M310.622 195.569L358.739 165.612C359.486 165.147 360.329 164.857 361.203 164.763C362.078 164.668 362.963 164.772 363.792 165.066C364.622 165.36 365.374 165.837 365.994 166.462C366.614 167.087 367.085 167.843 367.372 168.674L373.755 187.152C374.058 188.029 374.149 188.966 374.019 189.886C373.889 190.805 373.542 191.68 373.007 192.439C372.472 193.198 371.764 193.819 370.942 194.25C370.12 194.681 369.207 194.911 368.278 194.92L310.622 195.569Z" fill="#2A2E32"/>
<path d="M325.469 199.605C323.524 199.605 321.624 199.029 320.007 197.949C318.391 196.868 317.131 195.333 316.387 193.537C315.643 191.741 315.448 189.764 315.827 187.857C316.207 185.95 317.143 184.199 318.518 182.824C319.892 181.449 321.644 180.513 323.551 180.133C325.458 179.754 327.434 179.949 329.231 180.693C331.027 181.437 332.562 182.697 333.642 184.313C334.722 185.93 335.299 187.831 335.299 189.775C335.295 192.381 334.259 194.879 332.416 196.722C330.573 198.565 328.075 199.602 325.469 199.605ZM325.469 182.649C324.059 182.649 322.682 183.067 321.51 183.85C320.338 184.633 319.425 185.746 318.885 187.048C318.346 188.35 318.205 189.783 318.48 191.165C318.755 192.547 319.433 193.817 320.43 194.814C321.426 195.81 322.696 196.489 324.078 196.764C325.461 197.039 326.894 196.898 328.196 196.358C329.498 195.819 330.611 194.906 331.394 193.734C332.177 192.562 332.595 191.184 332.595 189.775C332.591 187.886 331.839 186.076 330.504 184.74C329.168 183.404 327.358 182.653 325.469 182.649Z" fill="#2A2E32"/>
<path d="M307.681 174.82C308.071 171.129 306.992 167.433 304.678 164.532C302.364 161.631 299 159.757 295.315 159.318L295.403 149.778C295.45 146.752 294.9 143.747 293.783 140.935C292.666 138.123 291.005 135.558 288.896 133.39C286.786 131.221 284.268 129.49 281.488 128.296C278.707 127.102 275.719 126.469 272.693 126.433L237.536 126.182C232.931 126.177 228.511 127.998 225.247 131.246C221.982 134.495 220.138 138.905 220.12 143.511L219.749 186.449C219.697 190.05 220.355 193.627 221.687 196.973C223.018 200.32 224.996 203.371 227.508 205.952C230.02 208.534 233.016 210.595 236.325 212.017C239.634 213.44 243.191 214.196 246.792 214.243H248.415L248.198 238.041L294.652 238.372L294.909 210.186H294.869L295.078 187.517C298.319 187.175 301.343 185.725 303.639 183.411C305.935 181.098 307.362 178.064 307.681 174.82Z" fill="white"/>
<path d="M398.067 293.845L342.35 326.69L376.953 398.247C376.953 398.247 392.57 427.9 421.858 414C427.768 411.143 433.037 407.117 437.349 402.167C441.66 397.217 444.923 391.445 446.941 385.198L477.047 293.845C477.047 293.845 521.277 278.83 527.835 240.184C528.088 238.96 528.109 237.698 527.896 236.466C527.561 234.623 526.721 232.91 525.469 231.517C525.918 230.497 526.28 229.441 526.55 228.36C527.159 225.905 527.74 223.512 525.753 221.484C524.926 220.588 523.785 220.046 522.569 219.97C521.352 219.895 520.153 220.292 519.222 221.078C519.681 218.563 518.992 216.346 517.444 215.372C516.807 214.997 516.071 214.825 515.334 214.878C511.839 215.088 509.297 219.881 508.573 221.22C505.612 226.629 499.358 235.776 490.096 248.602C490.096 248.602 503.421 230.53 496.329 225.554C494.213 224.073 491.685 226.149 490.292 227.623C487.716 230.327 486.722 234.066 484.809 237.176C482.286 241.076 478.914 244.356 474.945 246.769C468.691 250.745 461.768 252.854 456.062 257.702C453.464 259.886 451.147 262.384 449.165 265.139C446.846 268.398 446.028 272.244 444.027 275.537L413.056 326.21L398.067 293.845Z" fill="white"/>
<path d="M406.741 419.05C386.661 419.05 375.884 399.126 375.756 398.876L340.599 326.156L398.668 291.925L413.218 323.37L442.857 274.847C443.681 273.418 444.39 271.926 444.98 270.385C445.773 268.274 446.803 266.26 448.05 264.382C450.094 261.527 452.485 258.938 455.169 256.674C458.739 253.632 462.782 251.631 466.663 249.697C469.239 248.479 471.748 247.125 474.181 245.64C477.991 243.346 481.228 240.213 483.646 236.479C484.314 235.347 484.916 234.178 485.451 232.977C486.472 230.807 487.527 228.569 489.298 226.703C493.118 222.647 495.822 223.573 497.093 224.465C497.783 224.952 498.365 225.577 498.803 226.299C499.24 227.022 499.524 227.827 499.635 228.664C499.829 230.147 499.746 231.653 499.392 233.106C503.192 227.555 505.801 223.458 507.377 220.585L507.417 220.497C508.323 218.84 511.075 213.79 515.246 213.547C516.26 213.462 517.275 213.699 518.147 214.223C518.893 214.735 519.509 215.414 519.947 216.206C520.385 216.999 520.632 217.882 520.668 218.786C521.74 218.517 522.863 218.537 523.924 218.845C524.985 219.153 525.945 219.737 526.706 220.537C529.241 223.113 528.47 226.203 527.855 228.684C527.638 229.568 527.361 230.435 527.024 231.28C528.018 232.566 528.724 234.051 529.091 235.635C529.459 237.218 529.48 238.862 529.153 240.455C526.449 256.566 516.598 271.156 500.758 282.602C493.771 287.663 486.158 291.797 478.109 294.9L448.226 385.618C446.142 392.035 442.783 397.965 438.351 403.053C433.918 408.14 428.504 412.28 422.433 415.224C417.554 417.655 412.192 418.962 406.741 419.05ZM344.108 327.224L378.169 397.659C381.014 402.566 384.797 406.865 389.305 410.308C398.898 417.468 409.655 418.3 421.277 412.776C427.016 409.99 432.134 406.073 436.324 401.261C440.513 396.449 443.687 390.841 445.657 384.773L475.986 292.784L476.628 292.568C477.061 292.419 520.175 277.342 526.517 239.955C526.742 238.884 526.763 237.781 526.577 236.703C526.285 235.107 525.558 233.624 524.475 232.416L523.893 231.74L524.245 230.942C524.664 229.995 525.001 229.013 525.252 228.008C525.881 225.459 526.199 223.83 524.799 222.403C524.218 221.758 523.41 221.362 522.544 221.297C521.678 221.231 520.82 221.502 520.148 222.052L517.187 224.756L517.91 220.821C518.262 218.894 517.795 217.157 516.747 216.515C516.349 216.281 515.888 216.18 515.429 216.224C513.657 216.325 511.764 218.198 509.817 221.775L509.77 221.856C506.964 226.98 501.326 235.377 491.515 248.974L491.211 249.4L489.027 247.804L489.467 247.195C492.171 243.342 497.823 234.1 497.005 229.076C496.95 228.595 496.795 228.132 496.549 227.715C496.303 227.298 495.973 226.937 495.579 226.656C494.227 225.709 492.138 227.663 491.299 228.549C489.825 230.09 488.913 232.044 487.919 234.113C487.335 235.402 486.682 236.659 485.965 237.879C483.342 241.958 479.825 245.386 475.682 247.905C473.156 249.444 470.549 250.846 467.873 252.104C463.938 254.058 460.219 255.897 456.9 258.723C454.407 260.846 452.188 263.272 450.294 265.943C449.167 267.658 448.237 269.496 447.523 271.42C446.875 273.089 446.102 274.708 445.21 276.26L412.92 329.09L397.499 295.772L344.108 327.224Z" fill="#2A2E32"/>
<path d="M293.442 180.222C293.255 180.232 293.068 180.232 292.881 180.222C291.789 180.111 290.755 179.679 289.909 178.98C289.063 178.281 288.442 177.347 288.127 176.296C287.811 175.245 287.814 174.124 288.136 173.075C288.457 172.025 289.082 171.095 289.932 170.401C290.782 169.706 291.819 169.28 292.911 169.175C294.003 169.069 295.103 169.29 296.069 169.81C297.036 170.329 297.827 171.123 298.343 172.092C298.859 173.061 299.075 174.161 298.966 175.253C298.827 176.62 298.186 177.888 297.168 178.811C296.149 179.734 294.824 180.246 293.449 180.249L293.442 180.222ZM293.442 171.825C292.892 171.825 292.353 171.985 291.891 172.285C291.429 172.586 291.065 173.014 290.841 173.517C290.618 174.021 290.545 174.578 290.633 175.122C290.72 175.666 290.963 176.173 291.333 176.581C291.702 176.99 292.182 177.282 292.715 177.423C293.247 177.564 293.809 177.547 294.333 177.375C294.856 177.203 295.318 176.883 295.663 176.453C296.007 176.024 296.22 175.503 296.275 174.955C296.349 174.204 296.122 173.455 295.644 172.871C295.167 172.286 294.477 171.915 293.726 171.838L293.442 171.825Z" fill="#2A2E32"/>
<path d="M249.023 212.924L276.743 212.248C276.923 212.241 277.099 212.3 277.24 212.412C277.381 212.525 277.476 212.684 277.509 212.861C277.542 213.039 277.51 213.222 277.419 213.377C277.328 213.533 277.184 213.651 277.013 213.709L248.908 223.85L249.023 212.924Z" fill="#2A2E32"/>
<path d="M289.291 176.706C288.955 176.708 288.63 176.584 288.38 176.359C288.13 176.134 287.972 175.824 287.939 175.49C287.786 173.989 288.031 172.475 288.65 171.099C289.268 169.724 290.238 168.535 291.461 167.654C292.636 166.852 293.985 166.344 295.397 166.171C296.808 165.998 298.241 166.166 299.574 166.66C299.747 166.719 299.906 166.813 300.041 166.935C300.177 167.057 300.286 167.206 300.363 167.371C300.439 167.537 300.481 167.716 300.487 167.899C300.492 168.081 300.461 168.263 300.394 168.433C300.327 168.603 300.227 168.757 300.099 168.887C299.971 169.017 299.818 169.12 299.649 169.19C299.48 169.259 299.299 169.293 299.117 169.291C298.934 169.288 298.754 169.249 298.587 169.175C297.674 168.848 296.698 168.738 295.735 168.856C294.773 168.973 293.851 169.314 293.043 169.851C292.206 170.454 291.543 171.267 291.12 172.209C290.698 173.15 290.531 174.186 290.636 175.212C290.654 175.389 290.637 175.567 290.586 175.737C290.535 175.908 290.45 176.066 290.338 176.203C290.226 176.341 290.087 176.455 289.931 176.539C289.774 176.623 289.603 176.675 289.426 176.693L289.291 176.706Z" fill="#2A2E32"/>
<path d="M153.127 289.89L208.843 322.734L174.241 394.292C174.241 394.292 158.617 423.945 129.336 410.044C123.424 407.189 118.154 403.165 113.843 398.214C109.531 393.264 106.269 387.49 104.253 381.243L74.1398 289.89C74.1398 289.89 29.9101 274.874 23.3589 236.229C23.1054 235.004 23.0848 233.743 23.298 232.511C23.6287 230.669 24.4643 228.956 25.7116 227.562C25.2623 226.542 24.9004 225.485 24.6299 224.404C24.0214 221.957 23.44 219.557 25.4344 217.528C26.261 216.635 27.4002 216.094 28.6153 216.018C29.8303 215.943 31.0278 216.338 31.9587 217.123C31.4989 214.608 32.1953 212.39 33.7368 211.417C34.3747 211.045 35.1095 210.873 35.8462 210.923C39.3416 211.133 41.8837 215.926 42.6071 217.265C45.5751 222.673 51.8289 231.828 61.0845 244.646C61.0845 244.646 47.7589 226.574 54.851 221.598C56.9672 220.118 59.4957 222.2 60.8952 223.667C63.4711 226.372 64.4582 230.117 66.3715 233.22C68.8979 237.118 72.2693 240.397 76.2357 242.814C82.4895 246.79 89.4126 248.899 95.1256 253.746C97.7215 255.932 100.038 258.43 102.022 261.183C104.334 264.442 105.159 268.282 107.16 271.575L138.125 322.248L153.127 289.89Z" fill="white"/>
<path d="M144.453 415.095C138.999 415.012 133.634 413.704 128.754 411.268C122.684 408.324 117.27 404.184 112.839 399.097C108.408 394.01 105.051 388.08 102.968 381.663L73.0375 290.945C64.9866 287.845 57.3731 283.711 50.3886 278.647C34.5546 267.208 24.7378 252.611 21.9929 236.452C21.6724 234.868 21.6974 233.233 22.066 231.659C22.4347 230.085 23.1385 228.609 24.1293 227.332C23.7995 226.484 23.5217 225.617 23.2977 224.736C22.6825 222.248 21.9455 219.165 24.4471 216.582C25.2089 215.783 26.1689 215.2 27.2295 214.892C28.2901 214.584 29.4132 214.563 30.4845 214.831C30.5222 213.927 30.7696 213.044 31.2073 212.252C31.645 211.46 32.2609 210.781 33.0063 210.268C33.8786 209.744 34.893 209.508 35.9068 209.591C40.0782 209.842 42.8299 214.885 43.7359 216.542L43.7832 216.63C45.3855 219.557 47.9546 223.607 51.7678 229.164C51.4101 227.707 51.3275 226.196 51.5244 224.709C51.6333 223.871 51.9156 223.065 52.3533 222.342C52.791 221.619 53.3744 220.995 54.0665 220.51C55.3375 219.618 58.0419 218.725 61.8618 222.748C63.6264 224.614 64.6878 226.859 65.7087 229.022C66.2408 230.224 66.8436 231.394 67.5139 232.524C69.9214 236.256 73.1466 239.391 76.9453 241.692C79.3798 243.173 81.8892 244.527 84.4634 245.749C88.3711 247.682 92.4142 249.69 95.9568 252.726C98.6409 254.991 101.034 257.58 103.083 260.433C104.327 262.312 105.355 264.326 106.145 266.437C106.742 267.978 107.454 269.472 108.275 270.906L137.922 319.422L152.471 287.977L210.547 322.214L175.39 394.887C175.309 395.164 164.526 415.095 144.453 415.095ZM29.031 217.339C28.0412 217.359 27.0989 217.767 26.4077 218.475C25.0015 219.902 25.3192 221.538 25.9548 224.08C26.2006 225.086 26.5355 226.068 26.9554 227.014L27.3069 227.812L26.7323 228.488C25.6436 229.692 24.9151 231.177 24.6296 232.775C24.4414 233.836 24.4597 234.924 24.6837 235.979C31.0389 273.448 74.1395 288.491 74.579 288.64L75.2145 288.856L105.537 380.844C107.505 386.915 110.679 392.525 114.868 397.338C119.057 402.151 124.176 406.069 129.917 408.855C141.566 414.385 152.349 413.54 161.957 406.326C166.448 402.885 170.216 398.591 173.044 393.69L207.079 323.296L153.729 291.844L138.307 325.121L106.017 272.285C105.121 270.734 104.348 269.116 103.705 267.444C102.988 265.521 102.058 263.685 100.933 261.968C99.0125 259.315 96.7711 256.91 94.2599 254.808C90.9403 251.982 87.2286 250.143 83.2937 248.189C80.6311 246.93 78.0379 245.528 75.5255 243.991C71.3798 241.472 67.8611 238.043 65.2354 233.964C64.516 232.747 63.8659 231.49 63.2883 230.199C62.3147 228.13 61.3953 226.183 59.9079 224.634C59.0695 223.749 56.9737 221.795 55.6215 222.741C55.2283 223.023 54.8983 223.384 54.6527 223.801C54.407 224.218 54.2511 224.681 54.1949 225.162C53.3769 230.185 58.9816 239.36 61.7198 243.261L62.1728 243.889L59.989 245.485L59.6848 245.059C49.8544 231.429 44.2159 223.059 41.4304 217.948L41.3831 217.86C39.4292 214.284 37.5429 212.418 35.7648 212.309C35.3059 212.269 34.8456 212.37 34.4464 212.6C33.3985 213.276 32.932 214.98 33.2903 216.914L34.007 220.842L31.0525 218.137C30.5037 217.625 29.7814 217.34 29.031 217.339Z" fill="#2A2E32"/>
<path d="M225.914 170.912C227.427 170.912 228.653 169.686 228.653 168.174C228.653 166.662 227.427 165.436 225.914 165.436C224.402 165.436 223.176 166.662 223.176 168.174C223.176 169.686 224.402 170.912 225.914 170.912Z" fill="#2A2E32"/>
<path d="M255.284 170.466C256.796 170.466 258.022 169.24 258.022 167.728C258.022 166.215 256.796 164.99 255.284 164.99C253.771 164.99 252.545 166.215 252.545 167.728C252.545 169.24 253.771 170.466 255.284 170.466Z" fill="#2A2E32"/>
<path d="M236.746 180.283C236.591 180.282 236.438 180.254 236.293 180.202C234.264 179.526 232.236 178.525 232.236 176.754C232.259 176.422 232.348 176.099 232.496 175.802C232.645 175.505 232.85 175.24 233.102 175.023C233.276 174.845 233.441 174.658 233.595 174.462C234.281 173.574 234.692 172.504 234.778 171.386L235.914 159.52C235.948 159.162 236.123 158.831 236.401 158.602C236.679 158.372 237.036 158.262 237.395 158.297C237.753 158.331 238.084 158.506 238.313 158.783C238.543 159.061 238.652 159.419 238.618 159.777L237.469 171.649C237.333 173.272 236.732 174.822 235.738 176.111C235.529 176.382 235.346 176.585 235.191 176.754C235.829 177.132 236.51 177.434 237.219 177.653C237.521 177.758 237.777 177.966 237.94 178.242C238.103 178.517 238.163 178.841 238.11 179.157C238.056 179.472 237.892 179.759 237.648 179.965C237.403 180.171 237.093 180.284 236.773 180.283H236.746Z" fill="#2A2E32"/>
<path d="M240.829 192.101C238.757 192.043 236.737 191.439 234.974 190.35C234.818 190.257 234.682 190.133 234.574 189.986C234.467 189.839 234.39 189.671 234.349 189.494C234.308 189.317 234.303 189.133 234.334 188.954C234.366 188.774 234.433 188.603 234.533 188.451C234.632 188.298 234.761 188.167 234.912 188.065C235.064 187.964 235.234 187.894 235.412 187.86C235.591 187.826 235.775 187.828 235.953 187.867C236.131 187.905 236.299 187.98 236.448 188.085C236.495 188.119 239.281 189.87 242.019 189.268C242.768 189.078 243.47 188.738 244.083 188.267C244.696 187.796 245.206 187.205 245.582 186.53C245.774 186.227 246.078 186.012 246.428 185.934C246.778 185.855 247.145 185.919 247.448 186.111C247.751 186.303 247.965 186.607 248.044 186.957C248.123 187.307 248.059 187.674 247.867 187.977C247.174 189.234 246.154 190.28 244.915 191.006C243.676 191.732 242.265 192.11 240.829 192.101Z" fill="#2A2E32"/>
<path d="M195.754 400.62L183.923 343.152C181.909 333.38 182.421 323.255 185.41 313.736L211.845 229.556H235.42L240.829 241.563C252.438 267.342 289.23 266.788 300.061 240.678L304.672 229.556H325.469L351.518 315.142C354.88 326.174 355.046 337.932 351.998 349.054L337.882 400.62H195.754Z" fill="#C20004"/>
<path d="M271.469 145.782H258.407C254.369 145.782 250.497 144.178 247.641 141.323C244.786 138.467 243.182 134.595 243.182 130.557V120.767H271.469V145.782Z" fill="#2A2E32"/>
<path d="M325.469 229.563L353.235 322.301L405.456 291.492C399.686 280.912 393.276 270.693 386.262 260.892C373.883 243.612 367.467 234.883 356.596 230.468C345.041 225.736 333.433 227.379 325.469 229.563Z" fill="#2A2E32"/>
<path d="M307.755 160.535H284.294C282.032 160.534 279.792 160.087 277.703 159.221C275.613 158.354 273.714 157.084 272.115 155.484C270.516 153.884 269.248 151.984 268.383 149.894C267.518 147.804 267.074 145.563 267.075 143.301V135.513H307.761L307.755 160.535Z" fill="#2A2E32"/>
<path d="M299.466 120.767H259.036V145.789H299.466V120.767Z" fill="#2A2E32"/>
<path d="M318.87 254.774C336.636 254.774 351.038 240.372 351.038 222.606C351.038 204.84 336.636 190.438 318.87 190.438C301.104 190.438 286.702 204.84 286.702 222.606C286.702 240.372 301.104 254.774 318.87 254.774Z" fill="#2A2E32"/>
<path d="M295.356 277.2C308.51 277.2 319.174 266.536 319.174 253.381C319.174 240.227 308.51 229.563 295.356 229.563C282.201 229.563 271.537 240.227 271.537 253.381C271.537 266.536 282.201 277.2 295.356 277.2Z" fill="#2A2E32"/>
<path d="M338.118 278.552C351.273 278.552 361.937 267.888 361.937 254.734C361.937 241.579 351.273 230.915 338.118 230.915C324.963 230.915 314.3 241.579 314.3 254.734C314.3 267.888 324.963 278.552 338.118 278.552Z" fill="#2A2E32"/>
<path d="M289.575 359.331H247.732C241.491 359.324 235.508 356.841 231.096 352.428C226.684 348.014 224.203 342.031 224.197 335.79V307.489C224.197 304.458 225.4 301.552 227.541 299.407C229.682 297.262 232.586 296.055 235.616 296.049H301.69C304.72 296.053 307.624 297.258 309.766 299.4C311.908 301.542 313.113 304.446 313.116 307.475V335.776C313.113 342.02 310.632 348.007 306.218 352.423C301.804 356.84 295.819 359.324 289.575 359.331ZM235.616 298.754C233.305 298.757 231.089 299.677 229.456 301.313C227.822 302.948 226.903 305.164 226.902 307.475V335.776C226.907 341.3 229.103 346.596 233.008 350.502C236.913 354.408 242.208 356.606 247.732 356.613H289.575C295.1 356.608 300.397 354.411 304.303 350.504C308.21 346.598 310.407 341.301 310.412 335.776V307.489C310.412 305.174 309.494 302.955 307.858 301.317C306.223 299.679 304.005 298.757 301.69 298.754H235.616Z" fill="white"/>
<path d="M314.299 309.618C327.454 309.618 338.118 298.954 338.118 285.8C338.118 272.645 327.454 261.981 314.299 261.981C301.145 261.981 290.481 272.645 290.481 285.8C290.481 298.954 301.145 309.618 314.299 309.618Z" fill="#2A2E32"/>
<path d="M397.864 350.008C397.619 350.007 397.378 349.94 397.169 349.813C396.959 349.686 396.788 349.505 396.673 349.288C396.559 349.071 396.505 348.828 396.518 348.583C396.532 348.338 396.611 348.102 396.748 347.899L411.926 325.473C412.026 325.325 412.153 325.199 412.302 325.101C412.45 325.003 412.616 324.935 412.791 324.901C412.965 324.867 413.145 324.868 413.319 324.903C413.493 324.939 413.659 325.008 413.806 325.108C413.953 325.207 414.08 325.335 414.178 325.483C414.276 325.631 414.344 325.797 414.378 325.972C414.412 326.146 414.411 326.326 414.375 326.5C414.34 326.674 414.27 326.84 414.171 326.987L398.986 349.413C398.862 349.597 398.695 349.747 398.499 349.851C398.303 349.954 398.085 350.008 397.864 350.008Z" fill="#2A2E32"/>
<path d="M510.757 260.217C510.484 260.217 510.217 260.135 509.991 259.981C509.766 259.827 509.592 259.608 509.493 259.354C509.394 259.099 509.375 258.82 509.438 258.554C509.5 258.289 509.642 258.048 509.844 257.864C518.167 250.278 523.893 231.821 523.948 231.639C523.999 231.469 524.084 231.31 524.197 231.173C524.31 231.036 524.449 230.922 524.606 230.839C524.763 230.755 524.935 230.704 525.112 230.687C525.289 230.67 525.468 230.687 525.638 230.739C525.808 230.791 525.966 230.876 526.103 230.989C526.24 231.102 526.354 231.241 526.437 231.398C526.521 231.555 526.573 231.727 526.59 231.904C526.607 232.081 526.589 232.26 526.537 232.43C526.294 233.214 520.54 251.773 511.663 259.865C511.415 260.091 511.092 260.216 510.757 260.217Z" fill="#2A2E32"/>
<path d="M502.353 252.902C502.073 252.903 501.799 252.817 501.569 252.655C501.34 252.494 501.167 252.265 501.073 252.001C500.979 251.736 500.97 251.449 501.047 251.179C501.124 250.91 501.283 250.67 501.501 250.495C509.202 244.248 517.856 220.842 517.944 220.612C518.082 220.296 518.335 220.045 518.651 219.91C518.968 219.774 519.324 219.765 519.647 219.883C519.97 220.001 520.236 220.238 520.391 220.545C520.546 220.853 520.577 221.208 520.479 221.538C520.114 222.532 511.481 245.877 503.205 252.597C502.965 252.794 502.664 252.901 502.353 252.902Z" fill="#2A2E32"/>
<path d="M153.323 346.08C153.103 346.08 152.887 346.026 152.693 345.924C152.498 345.821 152.332 345.673 152.208 345.492L137.023 323.059C136.915 322.912 136.837 322.745 136.795 322.568C136.753 322.391 136.747 322.207 136.778 322.027C136.809 321.848 136.876 321.676 136.975 321.523C137.073 321.37 137.202 321.239 137.353 321.137C137.504 321.034 137.674 320.964 137.853 320.929C138.032 320.894 138.216 320.896 138.394 320.934C138.572 320.972 138.74 321.046 138.889 321.151C139.038 321.256 139.165 321.39 139.261 321.545L154.445 343.97C154.583 344.174 154.663 344.411 154.675 344.656C154.688 344.902 154.634 345.146 154.519 345.363C154.403 345.58 154.231 345.761 154.021 345.887C153.81 346.014 153.569 346.08 153.323 346.08Z" fill="#2A2E32"/>
<path d="M40.4297 256.268C40.0946 256.268 39.7718 256.142 39.5238 255.917C30.6535 247.804 24.8932 229.266 24.6498 228.481C24.5877 228.309 24.5611 228.126 24.5718 227.943C24.5826 227.76 24.6303 227.581 24.7122 227.418C24.7941 227.254 24.9085 227.108 25.0483 226.99C25.1881 226.872 25.3506 226.783 25.5257 226.729C25.7008 226.676 25.8851 226.658 26.0672 226.678C26.2493 226.698 26.4255 226.754 26.5851 226.844C26.7447 226.934 26.8844 227.055 26.9957 227.201C27.107 227.346 27.1875 227.513 27.2325 227.69C27.2933 227.873 33.0198 246.33 41.3357 253.922C41.5354 254.107 41.675 254.347 41.7362 254.612C41.7974 254.876 41.7775 255.153 41.679 255.407C41.5805 255.66 41.4079 255.877 41.1839 256.031C40.9598 256.185 40.6947 256.268 40.423 256.268H40.4297Z" fill="#2A2E32"/>
<path d="M48.8271 248.946C48.5166 248.946 48.2158 248.838 47.9752 248.642C39.6931 241.928 31.073 218.576 30.6944 217.589C30.6332 217.422 30.6054 217.245 30.6126 217.067C30.6199 216.89 30.6621 216.715 30.7368 216.554C30.8115 216.393 30.9173 216.247 31.0481 216.127C31.1788 216.007 31.332 215.913 31.499 215.852C31.6659 215.79 31.8432 215.763 32.0209 215.77C32.1985 215.777 32.373 215.819 32.5344 215.894C32.6957 215.969 32.8408 216.075 32.9612 216.205C33.0817 216.336 33.1752 216.489 33.2365 216.656C33.3244 216.893 41.9716 240.319 49.679 246.546C49.8951 246.722 50.0514 246.961 50.1266 247.23C50.2017 247.498 50.192 247.783 50.0987 248.046C50.0054 248.309 49.8332 248.537 49.6055 248.698C49.3779 248.859 49.106 248.946 48.8271 248.946Z" fill="#2A2E32"/>
<path d="M265.216 539.644C264.857 539.644 264.513 539.501 264.259 539.248C264.006 538.994 263.863 538.65 263.863 538.292V472.853C263.863 472.494 264.006 472.15 264.259 471.897C264.513 471.643 264.857 471.501 265.216 471.501C265.574 471.501 265.918 471.643 266.172 471.897C266.425 472.15 266.568 472.494 266.568 472.853V538.292C266.568 538.65 266.425 538.994 266.172 539.248C265.918 539.501 265.574 539.644 265.216 539.644Z" fill="white"/>
<path d="M265.216 433.295C264.857 433.295 264.513 433.153 264.259 432.899C264.006 432.646 263.863 432.302 263.863 431.943V400.62C263.863 400.261 264.006 399.917 264.259 399.664C264.513 399.41 264.857 399.268 265.216 399.268C265.574 399.268 265.918 399.41 266.172 399.664C266.425 399.917 266.568 400.261 266.568 400.62V431.943C266.568 432.302 266.425 432.646 266.172 432.899C265.918 433.153 265.574 433.295 265.216 433.295Z" fill="white"/>
<path d="M349.422 435.479C349.343 435.485 349.264 435.485 349.185 435.479C332.479 432.544 323.765 423.309 319.404 416.028C316.544 411.373 314.667 406.182 313.887 400.775C313.869 400.597 313.887 400.418 313.938 400.247C313.99 400.076 314.074 399.917 314.187 399.779C314.3 399.641 314.439 399.527 314.597 399.442C314.754 399.358 314.926 399.305 315.104 399.288C315.281 399.27 315.461 399.287 315.632 399.339C315.803 399.39 315.962 399.475 316.1 399.588C316.238 399.701 316.352 399.84 316.437 399.997C316.521 400.155 316.574 400.327 316.591 400.505C317.372 405.535 319.141 410.36 321.797 414.702C327.733 424.492 337.111 430.577 349.672 432.788C350.031 432.818 350.363 432.99 350.595 433.265C350.827 433.54 350.94 433.896 350.909 434.255C350.879 434.613 350.707 434.945 350.432 435.177C350.157 435.409 349.801 435.523 349.442 435.492L349.422 435.479Z" fill="white"/>
<path d="M186.715 437.277C184.696 437.271 182.68 437.137 180.677 436.878C180.319 436.833 179.993 436.646 179.772 436.36C179.55 436.075 179.452 435.712 179.498 435.354C179.543 434.995 179.73 434.669 180.016 434.448C180.301 434.227 180.664 434.128 181.022 434.174C191.082 435.465 199.182 433.451 205.098 428.204C216.03 418.502 216.023 400.789 216.023 400.613C216.023 400.254 216.166 399.911 216.419 399.657C216.673 399.403 217.017 399.261 217.375 399.261C217.734 399.261 218.078 399.403 218.332 399.657C218.585 399.911 218.728 400.254 218.728 400.613C218.728 401.384 218.728 419.706 206.903 430.232C201.629 434.918 194.855 437.277 186.715 437.277Z" fill="white"/>
<path d="M145.054 288.836L185.85 312.336L211.845 229.563C211.845 229.563 175.803 219.516 145.054 288.836Z" fill="#2A2E32"/>
<path d="M161.869 205.893H57.0753C51.825 205.888 46.7912 203.8 43.0787 200.087C39.3662 196.375 37.2781 191.341 37.2727 186.091V102.256C37.2692 99.6508 37.7791 97.0708 38.7732 94.6631C39.7674 92.2554 41.2264 90.0672 43.0668 88.2237C44.9071 86.3802 47.0928 84.9175 49.4988 83.9192C51.9048 82.921 54.484 82.4067 57.0889 82.4058H161.882C167.133 82.4112 172.167 84.4992 175.879 88.2118C179.592 91.9243 181.68 96.9581 181.685 102.208V186.043C181.689 188.648 181.179 191.228 180.185 193.636C179.19 196.044 177.731 198.232 175.891 200.075C174.051 201.919 171.865 203.381 169.459 204.38C167.053 205.378 164.474 205.892 161.869 205.893ZM57.0889 85.1101C52.5558 85.1155 48.2099 86.9187 45.0045 90.124C41.7991 93.3294 39.996 97.6753 39.9906 102.208V186.043C39.996 190.576 41.7991 194.922 45.0045 198.128C48.2099 201.333 52.5558 203.136 57.0889 203.142H161.882C166.416 203.138 170.763 201.335 173.969 198.13C177.175 194.924 178.977 190.577 178.981 186.043V102.208C178.977 97.6724 177.173 93.3234 173.964 90.1173C170.755 86.9111 166.405 85.1101 161.869 85.1101H57.0889Z" fill="#2A2E32"/>
<path d="M169.718 130.279H134.237C133.879 130.279 133.535 130.137 133.281 129.883C133.027 129.63 132.885 129.286 132.885 128.927C132.885 128.568 133.027 128.225 133.281 127.971C133.535 127.717 133.879 127.575 134.237 127.575H169.718C170.077 127.575 170.421 127.717 170.674 127.971C170.928 128.225 171.07 128.568 171.07 128.927C171.07 129.286 170.928 129.63 170.674 129.883C170.421 130.137 170.077 130.279 169.718 130.279Z" fill="#2A2E32"/>
<path d="M169.718 144.247H134.237C133.879 144.247 133.535 144.105 133.281 143.851C133.027 143.598 132.885 143.254 132.885 142.895C132.885 142.537 133.027 142.193 133.281 141.939C133.535 141.685 133.879 141.543 134.237 141.543H169.718C170.077 141.543 170.421 141.685 170.674 141.939C170.928 142.193 171.07 142.537 171.07 142.895C171.07 143.254 170.928 143.598 170.674 143.851C170.421 144.105 170.077 144.247 169.718 144.247Z" fill="#2A2E32"/>
<path d="M160.463 158.209H134.237C133.879 158.209 133.535 158.066 133.281 157.813C133.027 157.559 132.885 157.215 132.885 156.857C132.885 156.498 133.027 156.154 133.281 155.901C133.535 155.647 133.879 155.505 134.237 155.505H160.463C160.821 155.505 161.165 155.647 161.419 155.901C161.672 156.154 161.815 156.498 161.815 156.857C161.815 157.215 161.672 157.559 161.419 157.813C161.165 158.066 160.821 158.209 160.463 158.209Z" fill="#2A2E32"/>
<path d="M113.948 171.494H67.6289L63.4034 156.62H116.814L113.948 171.494ZM69.6437 168.789H111.717L113.522 159.324H66.9528L69.6437 168.789Z" fill="#2A2E32"/>
<path d="M91.2515 171.494C90.8929 171.494 90.549 171.351 90.2954 171.098C90.0418 170.844 89.8994 170.5 89.8994 170.142V157.972C89.8994 157.613 90.0418 157.269 90.2954 157.016C90.549 156.762 90.8929 156.62 91.2515 156.62C91.6101 156.62 91.9541 156.762 92.2077 157.016C92.4612 157.269 92.6037 157.613 92.6037 157.972V170.142C92.6037 170.5 92.4612 170.844 92.2077 171.098C91.9541 171.351 91.6101 171.494 91.2515 171.494Z" fill="#2A2E32"/>
<path d="M111.487 173.853C113.518 173.853 115.165 172.191 115.165 170.141C115.165 168.092 113.518 166.43 111.487 166.43C109.455 166.43 107.809 168.092 107.809 170.141C107.809 172.191 109.455 173.853 111.487 173.853Z" fill="#2A2E32"/>
<path d="M91.2245 173.853C93.2745 173.853 94.9363 172.191 94.9363 170.141C94.9363 168.092 93.2745 166.43 91.2245 166.43C89.1746 166.43 87.5128 168.092 87.5128 170.141C87.5128 172.191 89.1746 173.853 91.2245 173.853Z" fill="#2A2E32"/>
<path d="M70.0289 173.853C72.0565 173.853 73.7001 172.191 73.7001 170.141C73.7001 168.092 72.0565 166.43 70.0289 166.43C68.0014 166.43 66.3578 168.092 66.3578 170.141C66.3578 172.191 68.0014 173.853 70.0289 173.853Z" fill="#2A2E32"/>
<path d="M58.0284 132.476C57.8191 132.477 57.6124 132.429 57.4247 132.337C57.237 132.244 57.0733 132.109 56.9467 131.942L49.3745 121.929C49.0245 121.463 48.8113 120.908 48.7586 120.327C48.7059 119.746 48.8158 119.162 49.0761 118.64C49.3364 118.118 49.7368 117.679 50.2324 117.372C50.7281 117.064 51.2995 116.901 51.8828 116.899H75.0117C75.9043 116.9 76.7841 117.112 77.5786 117.519C78.3732 117.925 79.0598 118.515 79.5821 119.239L90.0344 130.157C90.2516 130.421 90.3612 130.756 90.3413 131.097C90.3214 131.438 90.1734 131.758 89.927 131.994C89.6806 132.23 89.3541 132.365 89.0129 132.37C88.6717 132.375 88.341 132.252 88.0873 132.023L77.3983 120.875C77.1294 120.483 76.7691 120.162 76.3486 119.941C75.9281 119.72 75.46 119.604 74.9847 119.604H51.8557C51.7739 119.602 51.6934 119.625 51.6238 119.668C51.5543 119.711 51.4987 119.773 51.4636 119.847C51.4277 119.919 51.4124 119.999 51.4196 120.079C51.4267 120.159 51.456 120.236 51.5042 120.3L59.1034 130.306C59.2117 130.448 59.291 130.609 59.3367 130.781C59.3824 130.953 59.3937 131.133 59.3698 131.31C59.3459 131.486 59.2874 131.656 59.1976 131.81C59.1078 131.964 58.9885 132.098 58.8465 132.206C58.6106 132.383 58.3233 132.478 58.0284 132.476Z" fill="#2A2E32"/>
<path d="M91.2513 159.621H116.496L122.798 131.347C122.895 130.899 122.89 130.434 122.784 129.988C122.677 129.542 122.471 129.125 122.182 128.769C121.892 128.413 121.526 128.127 121.11 127.932C120.695 127.737 120.241 127.638 119.782 127.642H91.2513V159.621Z" fill="#C20004"/>
<path d="M63.9105 159.621H91.2515V127.642H57.4877C56.9858 127.641 56.4908 127.759 56.0437 127.987C55.5966 128.215 55.2103 128.546 54.9169 128.954C54.6234 129.361 54.4312 129.832 54.3563 130.328C54.2813 130.825 54.3257 131.332 54.4859 131.807L63.9105 159.621Z" fill="#C20004"/>
<path d="M91.2515 155.856C90.8929 155.856 90.549 155.714 90.2954 155.46C90.0418 155.206 89.8994 154.862 89.8994 154.504V131.084C89.8994 130.726 90.0418 130.382 90.2954 130.128C90.549 129.874 90.8929 129.732 91.2515 129.732C91.6101 129.732 91.9541 129.874 92.2077 130.128C92.4612 130.382 92.6037 130.726 92.6037 131.084V154.477C92.6073 154.657 92.575 154.835 92.5086 155.003C92.4423 155.17 92.3433 155.322 92.2173 155.45C92.0914 155.579 91.9411 155.681 91.7753 155.751C91.6095 155.82 91.4314 155.856 91.2515 155.856Z" fill="#2A2E32"/>
<path d="M80.6233 430.888H37.2049C35.0322 430.887 32.9491 430.023 31.4127 428.486C29.8764 426.95 29.0125 424.867 29.0107 422.694V379.283C29.0143 377.111 29.879 375.03 31.4151 373.495C32.9513 371.96 35.0334 371.097 37.2049 371.095H80.6097C82.7824 371.097 84.8656 371.961 86.4019 373.497C87.9383 375.034 88.8021 377.117 88.8039 379.289V422.701C88.8004 424.87 87.9375 426.95 86.4043 428.484C84.8711 430.019 82.7924 430.883 80.6233 430.888ZM37.2049 373.8C35.7495 373.801 34.3542 374.38 33.325 375.409C32.2958 376.439 31.7169 377.834 31.7151 379.289V422.701C31.7169 424.156 32.2958 425.552 33.325 426.581C34.3542 427.61 35.7495 428.189 37.2049 428.191H80.6097C82.0652 428.189 83.4605 427.61 84.4897 426.581C85.5188 425.552 86.0978 424.156 86.0996 422.701V379.283C86.0978 377.827 85.5188 376.432 84.4897 375.403C83.4605 374.374 82.0652 373.795 80.6097 373.793L37.2049 373.8Z" fill="#2A2E32"/>
<path d="M49.1174 396.252C47.7689 396.254 46.4504 395.855 45.3286 395.107C44.2069 394.358 43.3324 393.294 42.8157 392.048C42.2991 390.803 42.1635 389.432 42.4263 388.109C42.689 386.787 43.3382 385.572 44.2917 384.618C45.2452 383.665 46.4601 383.016 47.7827 382.753C49.1053 382.49 50.4762 382.626 51.7217 383.142C52.9673 383.659 54.0315 384.534 54.7799 385.655C55.5282 386.777 55.9269 388.096 55.9256 389.444C55.9238 391.249 55.2059 392.98 53.9295 394.256C52.6531 395.533 50.9225 396.251 49.1174 396.252ZM49.1174 385.333C48.3041 385.332 47.5087 385.572 46.8318 386.023C46.1549 386.474 45.627 387.115 45.3148 387.866C45.0027 388.617 44.9203 389.444 45.0782 390.242C45.236 391.04 45.627 391.773 46.2016 392.348C46.7762 392.924 47.5086 393.316 48.3062 393.475C49.1037 393.634 49.9306 393.553 50.6821 393.242C51.4336 392.932 52.076 392.405 52.528 391.729C52.98 391.052 53.2212 390.257 53.2212 389.444C53.2212 388.355 52.7891 387.311 52.0197 386.54C51.2502 385.769 50.2064 385.335 49.1174 385.333Z" fill="#2A2E32"/>
<path d="M68.724 417.177C67.3775 417.177 66.0612 416.778 64.9416 416.03C63.822 415.282 62.9494 414.218 62.4341 412.974C61.9188 411.73 61.784 410.361 62.0467 409.041C62.3094 407.72 62.9578 406.507 63.9099 405.555C64.8621 404.603 66.0752 403.954 67.3958 403.691C68.7165 403.429 70.0854 403.564 71.3294 404.079C72.5735 404.594 73.6368 405.467 74.3849 406.586C75.1329 407.706 75.5322 409.022 75.5322 410.369C75.5304 412.174 74.8126 413.905 73.5362 415.181C72.2598 416.457 70.5291 417.175 68.724 417.177ZM68.724 406.265C67.9124 406.265 67.1189 406.506 66.4441 406.957C65.7692 407.408 65.2432 408.048 64.9326 408.798C64.622 409.548 64.5407 410.373 64.699 411.169C64.8574 411.966 65.2482 412.697 65.8222 413.271C66.3961 413.845 67.1273 414.236 67.9234 414.394C68.7195 414.552 69.5446 414.471 70.2945 414.16C71.0444 413.85 71.6853 413.324 72.1363 412.649C72.5872 411.974 72.8279 411.181 72.8279 410.369C72.8297 409.829 72.7248 409.294 72.5194 408.794C72.3139 408.295 72.0119 407.841 71.6307 407.458C71.2494 407.076 70.7964 406.772 70.2976 406.565C69.7988 406.358 69.2641 406.251 68.724 406.251V406.265Z" fill="#2A2E32"/>
<path d="M45.9942 421.186C45.7555 421.182 45.5222 421.114 45.3181 420.99C45.012 420.805 44.7918 420.506 44.7056 420.159C44.6194 419.812 44.6744 419.445 44.8584 419.138L67.5614 381.446C67.747 381.139 68.0471 380.917 68.3958 380.831C68.7445 380.745 69.1131 380.801 69.4206 380.986C69.7281 381.172 69.9493 381.472 70.0356 381.821C70.1218 382.169 70.066 382.538 69.8804 382.846L47.1773 420.531C47.0551 420.734 46.8814 420.902 46.6737 421.017C46.466 421.132 46.2316 421.191 45.9942 421.186Z" fill="#2A2E32"/>
<path d="M562.471 443.308H503.651C499.648 443.305 495.81 441.713 492.98 438.882C490.149 436.052 488.558 432.214 488.554 428.211V311.809C488.561 307.813 490.151 303.983 492.975 301.156C495.799 298.329 499.628 296.736 503.624 296.726H562.444C566.447 296.729 570.285 298.321 573.115 301.151C575.946 303.982 577.537 307.82 577.541 311.823V428.211C577.535 432.209 575.947 436.042 573.123 438.871C570.298 441.7 566.468 443.296 562.471 443.308ZM503.624 299.43C500.339 299.434 497.188 300.74 494.865 303.064C492.542 305.387 491.235 308.537 491.231 311.823V428.211C491.235 431.497 492.542 434.647 494.865 436.97C497.188 439.293 500.339 440.6 503.624 440.604H562.444C565.729 440.6 568.88 439.293 571.203 436.97C573.526 434.647 574.833 431.497 574.836 428.211V311.809C574.829 308.53 573.525 305.388 571.208 303.068C568.891 300.749 565.749 299.441 562.471 299.43H503.624Z" fill="#2A2E32"/>
<path d="M551.011 383.515H515.084C511.626 383.515 508.823 386.318 508.823 389.776V411.471C508.823 414.929 511.626 417.732 515.084 417.732H551.011C554.469 417.732 557.272 414.929 557.272 411.471V389.776C557.272 386.318 554.469 383.515 551.011 383.515Z" fill="#C20004"/>
<path d="M556.007 397.138H510.189C509.83 397.138 509.486 396.995 509.233 396.742C508.979 396.488 508.837 396.144 508.837 395.786C508.837 395.427 508.979 395.083 509.233 394.829C509.486 394.576 509.83 394.433 510.189 394.433H556.007C556.366 394.433 556.71 394.576 556.964 394.829C557.217 395.083 557.36 395.427 557.36 395.786C557.36 396.144 557.217 396.488 556.964 396.742C556.71 396.995 556.366 397.138 556.007 397.138Z" fill="#2A2E32"/>
<path d="M524.312 413.513H518.437C517.191 413.466 516.011 412.938 515.146 412.04C514.281 411.141 513.797 409.943 513.797 408.695C513.797 407.448 514.281 406.25 515.146 405.351C516.011 404.453 517.191 403.925 518.437 403.878H524.312C525.559 403.925 526.739 404.453 527.604 405.351C528.469 406.25 528.952 407.448 528.952 408.695C528.952 409.943 528.469 411.141 527.604 412.04C526.739 412.938 525.559 413.466 524.312 413.513ZM518.437 406.583C517.898 406.613 517.39 406.849 517.019 407.242C516.648 407.635 516.441 408.155 516.441 408.695C516.441 409.236 516.648 409.756 517.019 410.149C517.39 410.542 517.898 410.778 518.437 410.808H524.312C524.852 410.778 525.36 410.542 525.731 410.149C526.102 409.756 526.309 409.236 526.309 408.695C526.309 408.155 526.102 407.635 525.731 407.242C525.36 406.849 524.852 406.613 524.312 406.583H518.437Z" fill="#2A2E32"/>
<path d="M553.046 322.829H512.968C509.51 322.829 506.707 325.632 506.707 329.089V350.785C506.707 354.243 509.51 357.046 512.968 357.046H553.046C556.504 357.046 559.307 354.243 559.307 350.785V329.089C559.307 325.632 556.504 322.829 553.046 322.829Z" fill="#636466"/>
<path d="M533.007 348.581C531.293 348.581 529.617 348.073 528.192 347.12C526.766 346.168 525.655 344.814 524.999 343.231C524.343 341.647 524.172 339.904 524.506 338.223C524.841 336.541 525.666 334.997 526.878 333.785C528.09 332.573 529.635 331.747 531.316 331.413C532.997 331.078 534.74 331.25 536.324 331.906C537.908 332.562 539.261 333.673 540.214 335.098C541.166 336.524 541.674 338.199 541.674 339.914C541.673 342.212 540.759 344.415 539.134 346.041C537.509 347.666 535.305 348.579 533.007 348.581ZM533.007 333.951C531.828 333.951 530.675 334.3 529.694 334.956C528.713 335.611 527.949 336.542 527.498 337.632C527.046 338.721 526.928 339.92 527.158 341.077C527.389 342.234 527.956 343.296 528.79 344.13C529.624 344.964 530.687 345.532 531.844 345.762C533 345.992 534.199 345.874 535.289 345.423C536.379 344.972 537.31 344.207 537.965 343.227C538.62 342.246 538.97 341.093 538.97 339.914C538.968 338.333 538.339 336.817 537.222 335.699C536.104 334.581 534.588 333.952 533.007 333.951Z" fill="#2A2E32"/>
<path d="M511.663 348.581H506.707V345.877H511.663C512.985 345.728 514.205 345.098 515.092 344.107C515.978 343.115 516.468 341.832 516.468 340.502C516.468 339.172 515.978 337.889 515.092 336.897C514.205 335.906 512.985 335.276 511.663 335.127H506.707V332.423H511.663C513.678 332.607 515.552 333.538 516.916 335.033C518.28 336.528 519.036 338.478 519.036 340.502C519.036 342.526 518.28 344.476 516.916 345.971C515.552 347.466 513.678 348.397 511.663 348.581Z" fill="#2A2E32"/>
<path d="M559.388 348.622H554.412C552.389 348.446 550.506 347.519 549.134 346.022C547.762 344.526 547.001 342.57 547.001 340.539C547.001 338.509 547.762 336.553 549.134 335.056C550.506 333.56 552.389 332.632 554.412 332.457H559.368V335.161H554.412C553.084 335.302 551.856 335.93 550.963 336.923C550.07 337.916 549.576 339.204 549.576 340.539C549.576 341.875 550.07 343.163 550.963 344.156C551.856 345.149 553.084 345.776 554.412 345.918H559.368L559.388 348.622Z" fill="#2A2E32"/>
<path d="M568.448 210.734H402.745C397.565 210.719 392.601 208.656 388.938 204.994C385.274 201.331 383.209 196.368 383.193 191.188V89.6532C383.207 84.472 385.272 79.5071 388.935 75.8433C392.599 72.1796 397.564 70.1151 402.745 70.1008H568.448C573.629 70.1151 578.594 72.1796 582.258 75.8433C585.921 79.5071 587.986 84.472 588 89.6532V191.188C587.984 196.368 585.919 201.331 582.255 204.994C578.592 208.656 573.628 210.719 568.448 210.734ZM402.745 72.8119C398.281 72.8262 394.004 74.6058 390.848 77.7624C387.691 80.9189 385.911 85.196 385.897 89.66V191.188C385.903 195.654 387.68 199.936 390.838 203.093C393.997 206.251 398.279 208.026 402.745 208.029H568.448C572.914 208.026 577.196 206.251 580.355 203.093C583.513 199.936 585.29 195.654 585.296 191.188V89.6532C585.281 85.1892 583.502 80.9121 580.345 77.7556C577.189 74.5991 572.912 72.8194 568.448 72.8051L402.745 72.8119Z" fill="#2A2E32"/>
<path d="M469.428 97.3068H417.409C412.051 97.3068 407.708 101.65 407.708 107.009V168.086C407.708 173.445 412.051 177.788 417.409 177.788H469.428C474.786 177.788 479.129 173.445 479.129 168.086V107.009C479.129 101.65 474.786 97.3068 469.428 97.3068Z" fill="#C20004"/>
<path d="M444.771 140.421H442.066V177.795H444.771V140.421Z" fill="#2A2E32"/>
<path d="M510.48 98.9972H497.891C496.006 98.9972 494.477 100.526 494.477 102.411V115C494.477 116.886 496.006 118.414 497.891 118.414H510.48C512.366 118.414 513.894 116.886 513.894 115V102.411C513.894 100.526 512.366 98.9972 510.48 98.9972Z" fill="#636466"/>
<path d="M537.712 98.9972H525.124C523.238 98.9972 521.709 100.526 521.709 102.411V115C521.709 116.886 523.238 118.414 525.124 118.414H537.712C539.598 118.414 541.127 116.886 541.127 115V102.411C541.127 100.526 539.598 98.9972 537.712 98.9972Z" fill="#636466"/>
<path d="M564.952 98.9972H552.363C550.478 98.9972 548.949 100.526 548.949 102.411V115C548.949 116.886 550.478 118.414 552.363 118.414H564.952C566.838 118.414 568.366 116.886 568.366 115V102.411C568.366 100.526 566.838 98.9972 564.952 98.9972Z" fill="#636466"/>
<path d="M568.373 137.453H495.822C495.463 137.453 495.119 137.31 494.866 137.057C494.612 136.803 494.47 136.459 494.47 136.101C494.47 135.742 494.612 135.398 494.866 135.144C495.119 134.891 495.463 134.748 495.822 134.748H568.373C568.732 134.748 569.076 134.891 569.329 135.144C569.583 135.398 569.725 135.742 569.725 136.101C569.725 136.459 569.583 136.803 569.329 137.057C569.076 137.31 568.732 137.453 568.373 137.453Z" fill="#2A2E32"/>
<path d="M568.373 151.765H495.822C495.463 151.765 495.119 151.623 494.866 151.369C494.612 151.116 494.47 150.772 494.47 150.413C494.47 150.055 494.612 149.711 494.866 149.457C495.119 149.203 495.463 149.061 495.822 149.061H568.373C568.732 149.061 569.076 149.203 569.329 149.457C569.583 149.711 569.725 150.055 569.725 150.413C569.725 150.772 569.583 151.116 569.329 151.369C569.076 151.623 568.732 151.765 568.373 151.765Z" fill="#2A2E32"/>
<path d="M543.121 166.078H495.795C495.436 166.078 495.092 165.936 494.839 165.682C494.585 165.429 494.443 165.085 494.443 164.726C494.443 164.367 494.585 164.024 494.839 163.77C495.092 163.516 495.436 163.374 495.795 163.374H543.121C543.48 163.374 543.824 163.516 544.077 163.77C544.331 164.024 544.473 164.367 544.473 164.726C544.473 165.085 544.331 165.429 544.077 165.682C543.824 165.936 543.48 166.078 543.121 166.078Z" fill="#2A2E32"/>
<path d="M456.886 140.421H429.789C429.505 140.421 429.224 140.365 428.962 140.256C428.7 140.147 428.462 139.988 428.261 139.787C428.061 139.586 427.902 139.347 427.794 139.085C427.686 138.822 427.631 138.541 427.632 138.257V124.553C427.632 124.228 427.761 123.917 427.99 123.688C428.22 123.458 428.531 123.329 428.856 123.329H457.813C457.974 123.328 458.134 123.359 458.283 123.42C458.432 123.482 458.568 123.572 458.682 123.685C458.797 123.799 458.887 123.934 458.949 124.083C459.011 124.232 459.043 124.392 459.043 124.553V138.257C459.044 138.541 458.989 138.822 458.881 139.085C458.773 139.347 458.614 139.586 458.414 139.787C458.213 139.988 457.975 140.147 457.713 140.256C457.451 140.365 457.17 140.421 456.886 140.421Z" fill="#C20004"/>
<path d="M443.338 128.238C452.011 128.238 459.043 126.04 459.043 123.329C459.043 120.618 452.011 118.421 443.338 118.421C434.664 118.421 427.632 120.618 427.632 123.329C427.632 126.04 434.664 128.238 443.338 128.238Z" fill="#2A2E32"/>
<path d="M335.758 401.972H197.837C197.478 401.972 197.134 401.83 196.88 401.576C196.627 401.322 196.484 400.978 196.484 400.62C196.484 400.261 196.627 399.917 196.88 399.664C197.134 399.41 197.478 399.268 197.837 399.268H335.758C336.117 399.268 336.461 399.41 336.715 399.664C336.968 399.917 337.111 400.261 337.111 400.62C337.111 400.978 336.968 401.322 336.715 401.576C336.461 401.83 336.117 401.972 335.758 401.972Z" fill="white"/>
</svg>
