<svg width="537" height="430" viewBox="0 0 537 430" fill="none" xmlns="http://www.w3.org/2000/svg">
<path d="M286.09 43.1872L219.86 28.0748C219.332 27.9587 218.832 27.7385 218.389 27.427C217.946 27.1155 217.57 26.719 217.283 26.2606C216.995 25.8022 216.801 25.2911 216.713 24.7571C216.625 24.2231 216.645 23.6769 216.77 23.1505L217.32 20.7325C217.436 20.2039 217.656 19.7037 217.968 19.2611C218.279 18.8185 218.676 18.4424 219.134 18.1547C219.593 17.867 220.104 17.6735 220.638 17.5855C221.172 17.4975 221.718 17.5167 222.244 17.6421L288.468 32.7545L286.09 43.1872Z" fill="#C20004"/>
<path d="M314.312 136.891L293.596 133.061C280.692 130.673 269.264 123.257 261.827 112.444C254.389 101.632 251.551 88.3073 253.937 75.4023L260.892 37.6789C261.541 34.1698 263.557 31.0621 266.497 29.0394C269.436 27.0166 273.059 26.2446 276.569 26.893L360.186 42.3587C362.679 42.8132 365.058 43.755 367.187 45.1301C369.315 46.5052 371.151 48.2866 372.591 50.3724C374.03 52.4582 375.043 54.8073 375.573 57.2853C376.103 59.7633 376.139 62.3215 375.679 64.8134L369.329 99.0661C367.047 111.376 359.969 122.277 349.652 129.37C339.335 136.463 326.624 139.169 314.312 136.891Z" fill="#2A2E32"/>
<path d="M273.349 33.3254C268.798 33.0537 266.136 34.3035 264.689 35.2544C255.744 41.1092 260.729 56.3643 249.93 72.0744C248.862 73.626 247.696 75.1074 246.439 76.5097L243.966 79.179C243.343 79.8535 242.988 80.7328 242.968 81.6511C242.948 82.5694 243.264 83.4634 243.858 84.1644L247.213 88.1038L245.515 108.888C245.359 110.694 244.374 124.156 254.189 132.755L254.868 133.339C258.756 136.428 263.548 138.16 268.513 138.27L284.25 138.753V161.737H336.38L336.896 113.826C336.896 113.826 348.776 111.788 350.936 100.099C351.481 97.1751 351.358 94.1659 350.574 91.2968C349.791 88.4278 348.368 85.7734 346.412 83.5327C342.52 79.1247 335.66 75.3822 324.365 80.6529C320.586 82.1559 316.467 82.5885 312.459 81.9031C308.451 81.2177 304.709 79.4409 301.645 76.7678C293.936 69.867 294.5 59.998 294.588 58.7958C294.588 58.7958 285.84 56.2012 281.635 53.2806C278.049 50.7879 274.144 45.5444 273.349 33.3254Z" fill="white"/>
<path d="M337.745 163.095H282.912V140.07L268.486 139.622C263.227 139.494 258.153 137.656 254.032 134.385C253.788 134.181 253.536 133.978 253.292 133.76C243.274 124.978 243.932 111.387 244.163 108.752L245.814 88.5382L242.825 85.0335C242.012 84.0808 241.577 82.8626 241.604 81.6103C241.63 80.358 242.115 79.1591 242.968 78.2414L245.44 75.5653C246.665 74.2124 247.799 72.7807 248.836 71.2795C254.08 63.6655 255.472 56.2417 256.702 49.6941C257.931 43.1465 259.018 37.3392 263.976 34.0722C266.496 32.4218 269.688 31.7018 273.485 31.9327L274.68 32.0074L274.762 33.1961C275.373 42.6303 277.968 48.9945 282.471 52.1189C286.451 54.8833 294.955 57.4303 295.036 57.4507L296.089 57.7632L296.008 58.8567C295.879 60.5683 295.6 69.4388 302.61 75.7147C305.477 78.2308 308.984 79.9036 312.744 80.5474C316.504 81.1912 320.369 80.7809 323.91 79.3621C336.081 73.7246 343.457 78.0037 347.505 82.5883C349.592 84.9874 351.11 87.8257 351.949 90.8925C352.787 93.9592 352.924 97.1755 352.348 100.302C350.446 110.599 341.481 113.975 338.316 114.858L337.745 163.095ZM285.629 160.378H335.055L335.606 112.65L336.72 112.46C337.168 112.385 347.696 110.422 349.625 99.8199C350.129 97.0993 350.012 94.2999 349.284 91.6304C348.556 88.9609 347.236 86.49 345.42 84.4018C340.414 78.7372 333.534 77.8814 324.962 81.8616L324.881 81.8955C320.869 83.5073 316.489 83.9734 312.228 83.2418C307.967 82.5103 303.993 80.6098 300.748 77.7524C293.793 71.5172 293.155 63.0746 293.202 59.7532C290.73 58.9654 284.373 56.8055 280.875 54.3671C275.869 50.8963 272.914 44.2536 272.093 34.6224C269.754 34.5386 267.442 35.1432 265.443 36.3612C261.456 38.9694 260.526 43.9208 259.33 50.1899C258.114 56.6628 256.613 64.7251 251.037 72.8145C249.938 74.4149 248.735 75.9419 247.437 77.3856L244.944 80.1024C244.547 80.5345 244.322 81.0968 244.311 81.6836C244.299 82.2704 244.503 82.841 244.883 83.2879L248.599 87.6553L246.86 108.996C246.642 111.414 246.038 123.817 255.071 131.729C255.289 131.92 255.513 132.11 255.751 132.286C259.413 135.179 263.916 136.802 268.581 136.912L285.636 137.441L285.629 160.378Z" fill="#2A2E32"/>
<path d="M333.351 105.111C332.276 105.111 331.225 104.792 330.332 104.195C329.438 103.598 328.742 102.75 328.331 101.757C327.919 100.764 327.812 99.6713 328.021 98.6173C328.231 97.5632 328.749 96.5951 329.508 95.8351C330.268 95.0752 331.237 94.5577 332.291 94.3481C333.345 94.1384 334.437 94.246 335.43 94.6573C336.423 95.0685 337.272 95.765 337.869 96.6586C338.466 97.5521 338.784 98.6027 338.784 99.6773C338.784 101.118 338.212 102.501 337.193 103.52C336.174 104.539 334.792 105.111 333.351 105.111ZM333.351 96.9197C332.813 96.9197 332.288 97.0791 331.841 97.3776C331.394 97.6762 331.046 98.1005 330.841 98.5969C330.635 99.0933 330.581 99.6396 330.686 100.167C330.791 100.694 331.05 101.178 331.43 101.558C331.81 101.938 332.294 102.196 332.821 102.301C333.348 102.406 333.894 102.352 334.39 102.147C334.887 101.941 335.311 101.593 335.61 101.146C335.908 100.699 336.068 100.174 336.068 99.6366C336.068 98.916 335.781 98.225 335.272 97.7155C334.762 97.206 334.071 96.9197 333.351 96.9197Z" fill="#2A2E32"/>
<path d="M329.254 101.015C328.902 101.015 328.564 100.879 328.31 100.634C328.057 100.39 327.908 100.056 327.896 99.7044C327.801 96.8992 328.636 94.6307 330.389 92.9598C333.866 89.6385 339.673 90.0596 339.898 90.0868C340.076 90.1006 340.25 90.1494 340.409 90.2304C340.569 90.3115 340.711 90.4232 340.827 90.5591C340.944 90.695 341.032 90.8525 341.088 91.0226C341.143 91.1927 341.165 91.3721 341.151 91.5505C341.137 91.7288 341.088 91.9028 341.007 92.0623C340.926 92.2218 340.814 92.3638 340.678 92.4802C340.543 92.5965 340.385 92.685 340.215 92.7405C340.045 92.796 339.865 92.8174 339.687 92.8036C339.64 92.8036 334.824 92.464 332.216 94.9431C331.614 95.5555 331.154 96.2927 330.869 97.1026C330.583 97.9125 330.48 98.7753 330.565 99.6297C330.576 99.9889 330.444 100.338 330.199 100.6C329.953 100.862 329.614 101.016 329.254 101.029V101.015Z" fill="#2A2E32"/>
<path d="M276.194 80.6124C277.968 80.6124 279.407 79.174 279.407 77.3997C279.407 75.6254 277.968 74.187 276.194 74.187C274.42 74.187 272.981 75.6254 272.981 77.3997C272.981 79.174 274.42 80.6124 276.194 80.6124Z" fill="#2A2E32"/>
<path d="M284.188 137.462H309.116C309.339 137.46 309.556 137.536 309.73 137.676C309.904 137.817 310.024 138.014 310.069 138.233C310.114 138.452 310.081 138.679 309.977 138.877C309.872 139.075 309.702 139.23 309.496 139.316L284.188 150.109V137.462Z" fill="#2A2E32"/>
<path d="M261.089 107.095C258.286 107.054 255.538 106.311 253.095 104.935C252.94 104.846 252.805 104.727 252.696 104.585C252.587 104.444 252.507 104.282 252.461 104.109C252.414 103.937 252.402 103.757 252.426 103.58C252.449 103.403 252.507 103.232 252.596 103.077C252.685 102.923 252.804 102.787 252.945 102.678C253.087 102.569 253.249 102.489 253.421 102.443C253.594 102.397 253.774 102.385 253.951 102.408C254.128 102.431 254.299 102.489 254.453 102.578C254.834 102.795 263.494 107.631 268.303 100.54C268.403 100.393 268.531 100.266 268.681 100.168C268.83 100.07 268.997 100.003 269.172 99.9694C269.347 99.9359 269.528 99.9374 269.702 99.9736C269.877 100.01 270.043 100.08 270.191 100.18C270.338 100.281 270.465 100.409 270.563 100.558C270.661 100.708 270.728 100.875 270.762 101.05C270.795 101.225 270.794 101.406 270.758 101.58C270.721 101.755 270.651 101.921 270.551 102.069C269.537 103.647 268.134 104.939 266.477 105.819C264.82 106.699 262.965 107.138 261.089 107.095Z" fill="#2A2E32"/>
<path d="M375.598 63.6589L260.546 37.4073C263.384 24.9679 271.047 14.1655 281.85 7.37629C292.653 0.587116 305.71 -1.63264 318.15 1.20534L339.396 6.05491C351.834 8.89471 362.635 16.5584 369.424 27.3608C376.213 38.1631 378.434 51.2196 375.598 63.6589Z" fill="#C20004"/>
<path d="M338.06 148.18L280.526 152.173C271.474 152.801 264.645 160.649 265.273 169.701C265.902 178.754 273.749 185.583 282.802 184.954L340.335 180.962C349.387 180.333 356.216 172.486 355.588 163.433C354.96 154.381 347.112 147.552 338.06 148.18Z" fill="#636466"/>
<path d="M374.829 166.539H236.073V343.263H374.829V166.539Z" fill="#636466"/>
<path d="M244.808 224.415H24.9405C15.6676 224.415 8.15039 231.932 8.15039 241.205V355.333C8.15039 364.606 15.6676 372.123 24.9405 372.123H244.808C254.081 372.123 261.598 364.606 261.598 355.333V241.205C261.598 231.932 254.081 224.415 244.808 224.415Z" fill="#C20004"/>
<path d="M315.08 429.197H259.296L354.868 166.539H388.468C427.38 166.539 454.352 205.302 440.91 241.803L391.301 376.076C385.547 391.658 375.156 405.104 361.529 414.601C347.901 424.099 331.69 429.193 315.08 429.197Z" fill="#636466"/>
<path d="M214.828 373.468C214.468 373.468 214.122 373.325 213.868 373.07C213.613 372.815 213.47 372.47 213.47 372.109V293.158C213.47 292.797 213.613 292.452 213.868 292.197C214.122 291.942 214.468 291.799 214.828 291.799C215.188 291.799 215.534 291.942 215.789 292.197C216.043 292.452 216.187 292.797 216.187 293.158V372.109C216.187 372.47 216.043 372.815 215.789 373.07C215.534 373.325 215.188 373.468 214.828 373.468Z" fill="#2A2E32"/>
<path d="M342.241 371.213C354.711 364.645 366.333 365.602 371.325 366.084C378.783 366.81 386.022 369.015 392.618 372.571C393.568 369.44 394.142 366.207 394.33 362.94C394.554 358.994 394.948 342.02 381.934 330.222C372.982 322.072 362.509 320.801 358.515 320.523H212.423C203.479 320.532 194.904 324.091 188.583 330.418C182.261 336.745 178.709 345.322 178.707 354.266V395.447C178.707 404.398 182.263 412.982 188.592 419.312C194.922 425.641 203.506 429.197 212.457 429.197H316.105C317.413 429.197 318.718 429.163 320.017 429.095C319.048 427.86 318.208 426.528 317.511 425.122C310.576 411.055 320.581 393.878 322.632 390.387C327.217 382.265 334.018 375.615 342.241 371.213Z" fill="#636466"/>
<path d="M392.619 372.571C390.309 371.342 365.273 358.552 342.241 371.213C321.947 382.365 309.537 409.778 317.477 425.122C318.204 426.512 319.042 427.84 319.984 429.095C336.379 428.099 352.09 422.168 365.053 412.08C378.017 401.992 387.626 388.22 392.619 372.571Z" fill="#B3B3B3"/>
<path d="M65.7748 247.053H29.437C25.1306 247.053 21.6396 250.544 21.6396 254.85V273.094C21.6396 277.4 25.1306 280.891 29.437 280.891H65.7748C70.0812 280.891 73.5722 277.4 73.5722 273.094V254.85C73.5722 250.544 70.0812 247.053 65.7748 247.053Z" fill="#2A2E32"/>
<path d="M67.765 295.039H25.8848C25.5245 295.039 25.179 294.896 24.9242 294.641C24.6695 294.386 24.5264 294.041 24.5264 293.681C24.5264 293.32 24.6695 292.975 24.9242 292.72C25.179 292.465 25.5245 292.322 25.8848 292.322H67.7446C68.1049 292.322 68.4504 292.465 68.7052 292.72C68.9599 292.975 69.1031 293.32 69.1031 293.681C69.1031 294.041 68.9599 294.386 68.7052 294.641C68.4504 294.896 68.1049 295.039 67.7446 295.039H67.765Z" fill="#2A2E32"/>
<path d="M56.7006 307.828H25.8848C25.5245 307.828 25.179 307.685 24.9242 307.43C24.6695 307.176 24.5264 306.83 24.5264 306.47C24.5264 306.109 24.6695 305.764 24.9242 305.509C25.179 305.254 25.5245 305.111 25.8848 305.111H56.6803C57.0405 305.111 57.3861 305.254 57.6408 305.509C57.8956 305.764 58.0387 306.109 58.0387 306.47C58.0387 306.83 57.8956 307.176 57.6408 307.43C57.3861 307.685 57.0405 307.828 56.6803 307.828H56.7006Z" fill="#2A2E32"/>
<path d="M214.563 294.516C212.266 294.518 210.004 293.963 207.969 292.898C205.934 291.834 204.188 290.291 202.88 288.403L160.09 231.288C159.983 231.145 159.905 230.983 159.861 230.81C159.817 230.637 159.807 230.458 159.832 230.281C159.857 230.104 159.917 229.935 160.008 229.781C160.099 229.628 160.219 229.493 160.362 229.386C160.504 229.279 160.667 229.202 160.84 229.157C161.012 229.113 161.192 229.103 161.369 229.128C161.545 229.154 161.715 229.213 161.869 229.304C162.022 229.395 162.156 229.515 162.264 229.658L205.095 286.814C206.184 288.396 207.652 289.68 209.365 290.55C211.077 291.42 212.981 291.847 214.901 291.793C216.821 291.739 218.697 291.205 220.358 290.241C222.019 289.276 223.413 287.911 224.411 286.27L256.552 229.801C256.641 229.646 256.76 229.51 256.901 229.401C257.043 229.293 257.205 229.213 257.377 229.166C257.55 229.12 257.73 229.108 257.907 229.131C258.084 229.154 258.255 229.212 258.409 229.302C258.564 229.391 258.7 229.51 258.809 229.651C258.917 229.793 258.997 229.954 259.044 230.127C259.09 230.299 259.102 230.479 259.079 230.656C259.056 230.834 258.998 231.004 258.909 231.159L226.755 287.663C225.527 289.697 223.809 291.391 221.757 292.59C219.706 293.788 217.386 294.453 215.011 294.523L214.563 294.516Z" fill="#2A2E32"/>
<path d="M157.496 373.467C157.135 373.467 156.79 373.324 156.535 373.069C156.28 372.815 156.137 372.469 156.137 372.109V245.687C155.56 227.124 167.589 223.273 168.098 223.11C168.269 223.058 168.448 223.04 168.626 223.057C168.804 223.074 168.977 223.126 169.134 223.21C169.292 223.294 169.432 223.408 169.545 223.546C169.659 223.684 169.744 223.843 169.796 224.013C169.848 224.184 169.866 224.364 169.849 224.541C169.832 224.719 169.78 224.892 169.696 225.05C169.612 225.207 169.498 225.347 169.36 225.46C169.223 225.574 169.064 225.659 168.893 225.712C168.465 225.847 158.345 229.209 158.854 245.646V372.109C158.854 372.469 158.711 372.815 158.456 373.069C158.202 373.324 157.856 373.467 157.496 373.467Z" fill="#2A2E32"/>
<path d="M234.104 154.762H61.2511C57.4174 154.762 54.3096 157.87 54.3096 161.703V217.195C54.3096 221.029 57.4174 224.136 61.2511 224.136H234.104C237.937 224.136 241.045 221.029 241.045 217.195V161.703C241.045 157.87 237.937 154.762 234.104 154.762Z" fill="#B3B3B3"/>
<path d="M241.045 186.06H54.3096V192.831H241.045V186.06Z" fill="#2A2E32"/>
<path d="M223.175 97.5107H115.622C110.835 97.5107 106.955 101.391 106.955 106.177V146.366C106.955 151.153 110.835 155.033 115.622 155.033H223.175C227.962 155.033 231.842 151.153 231.842 146.366V106.177C231.842 101.391 227.962 97.5107 223.175 97.5107Z" fill="#C20004"/>
<path d="M231.842 121.677H106.955V126.276H231.842V121.677Z" fill="#636466"/>
<path d="M170.53 97.5107H165.021V155.033H170.53V97.5107Z" fill="#636466"/>
<path d="M215.188 45.4629H163.153C158.543 45.4629 154.806 49.2002 154.806 53.8104V89.1702C154.806 93.7804 158.543 97.5177 163.153 97.5177H215.188C219.798 97.5177 223.535 93.7804 223.535 89.1702V53.8104C223.535 49.2002 219.798 45.4629 215.188 45.4629Z" fill="#C20004"/>
<path d="M188.671 74.1662C185.454 74.1655 182.359 72.9306 180.025 70.7158L156.545 48.6958C156.282 48.449 156.127 48.1078 156.116 47.7473C156.104 47.3869 156.237 47.0366 156.483 46.7736C156.73 46.5106 157.071 46.3564 157.432 46.3449C157.792 46.3335 158.143 46.4657 158.406 46.7125L181.886 68.7393C183.693 70.4517 186.081 71.4173 188.57 71.4425C191.059 71.4677 193.466 70.5506 195.307 68.8751L219.963 46.6921C220.233 46.4516 220.587 46.3283 220.949 46.3493C221.31 46.3703 221.648 46.5339 221.888 46.8042C222.129 47.0744 222.252 47.429 222.231 47.7902C222.21 48.1513 222.046 48.4892 221.776 48.7297L197.121 70.9128C194.804 73.0062 191.793 74.1655 188.671 74.1662Z" fill="#2A2E32"/>
<path d="M164.166 350.083C164.254 351.889 133.832 350.273 131.503 350.15C126.572 349.899 121.647 349.621 116.723 349.288C111.466 348.935 106.168 347.698 100.911 347.848C98.459 347.923 96.0613 348.609 94.798 350.925C91.9453 356.284 102.426 360.04 105.835 361.215C112.403 363.47 117.321 363.538 117.314 364.298C117.314 364.787 115.276 365.297 111.744 365.616C102.534 366.458 85.0377 364.502 68.7842 358.342C65.0349 356.922 61.3128 354.796 57.2987 354.212C56.271 354.024 55.2116 354.114 54.2301 354.472C53.2486 354.83 52.3805 355.444 51.7156 356.25C50.4658 357.927 50.1806 360.909 51.5526 362.6C52.3489 363.431 53.2646 364.138 54.2694 364.699C53.3656 365.095 52.5183 365.609 51.7495 366.227C49.8138 368.061 50.3911 371.437 51.7495 373.427C53.5562 376.096 56.5719 377.828 59.2209 379.499C62.3302 381.457 65.5431 383.246 68.8453 384.858C69.3375 385.072 69.8064 385.336 70.2445 385.646C71.0315 386.282 71.7184 387.033 72.2821 387.874C72.9451 388.708 73.6694 389.491 74.4488 390.217C80.3579 395.922 88.3455 399.38 96.1496 401.567C103.954 403.754 112.145 404.861 120.296 405.846C131.958 407.265 144.143 406.729 155.275 402.728C156.695 402.219 166.686 398.653 166.604 397.077C165.789 381.41 164.976 365.745 164.166 350.083Z" fill="white"/>
<path d="M131.72 407.924C127.837 407.916 123.958 407.671 120.105 407.19C111.384 406.131 103.539 405.071 95.803 402.904C86.294 400.235 78.7888 396.302 73.5249 391.222C72.6962 390.447 71.9265 389.612 71.2223 388.722L70.9778 388.396C70.5709 387.786 70.074 387.241 69.5039 386.78C69.151 386.525 68.7705 386.311 68.3696 386.141C64.9125 384.627 58.6162 380.708 58.555 380.708L57.8758 380.3C55.3356 378.724 52.4421 376.904 50.6286 374.242C48.8151 371.579 48.4416 367.558 50.8256 365.296C51.0911 365.049 51.3749 364.822 51.6746 364.617C51.2445 364.286 50.8506 363.91 50.4996 363.496C48.6793 361.248 49.1004 357.533 50.6354 355.475C51.4405 354.466 52.5024 353.693 53.7095 353.237C54.9166 352.78 56.2244 352.657 57.4955 352.88C60.484 353.315 63.262 354.531 65.9517 355.699C67.0927 356.202 68.1795 356.67 69.273 357.058C85.4314 363.17 102.554 365.079 111.629 364.25H111.792C109.628 363.794 107.494 363.209 105.4 362.498C98.4248 360.107 94.4718 357.513 93.3103 354.565C93.038 353.874 92.9236 353.132 92.9753 352.391C93.027 351.651 93.2436 350.932 93.6092 350.286C94.8929 347.868 97.3312 346.591 100.843 346.489C104.173 346.481 107.498 346.739 110.786 347.263C112.777 347.528 114.862 347.8 116.838 347.942C121.43 348.255 126.252 348.54 131.591 348.812H131.808C151.757 349.844 162.026 349.715 163.357 349.124C163.183 349.232 163.042 349.385 162.949 349.567C162.855 349.749 162.813 349.953 162.828 350.157L165.544 350.021L167.969 397.009C168.024 398.034 168.105 399.583 155.743 404.011C148.021 406.692 139.893 408.016 131.72 407.924ZM56.3272 355.495C55.6585 355.468 54.9925 355.597 54.3827 355.873C53.7729 356.149 53.2362 356.564 52.8157 357.085C51.9259 358.273 51.6475 360.583 52.6119 361.778C53.3008 362.475 54.088 363.068 54.9484 363.537L57.3053 364.855L54.8669 365.996C54.101 366.33 53.3799 366.759 52.7206 367.273C51.3622 368.597 51.9327 371.287 52.904 372.707C54.405 374.914 56.9113 376.476 59.3361 377.977L60.0153 378.392C63.0644 380.309 66.2111 382.066 69.4428 383.655C70.0229 383.905 70.5741 384.217 71.0865 384.586C71.8768 385.203 72.5645 385.941 73.1241 386.773L73.3618 387.085C73.9856 387.866 74.6667 388.6 75.3995 389.279C80.3374 394.034 87.4419 397.756 96.523 400.303C104.076 402.422 111.812 403.461 120.424 404.507C133.248 406.069 144.808 405.044 154.786 401.464C161.721 398.978 164.519 397.389 165.198 396.812L162.889 351.984C159.832 352.425 152.137 352.615 131.645 351.556H131.421C126.075 351.284 121.233 350.999 116.628 350.686C114.542 350.551 112.437 350.272 110.406 350.007C107.276 349.513 104.113 349.264 100.945 349.26C98.4044 349.335 96.8694 350.082 96.0272 351.617C95.8398 351.919 95.7273 352.262 95.699 352.616C95.6706 352.97 95.7273 353.327 95.8641 353.655C96.4347 355.115 98.7168 357.404 106.304 360.012C109.055 360.925 111.87 361.636 114.726 362.138C117.3 362.634 118.72 362.906 118.699 364.4C118.699 365.717 117.585 366.526 111.907 367.049C102.527 367.904 84.8949 365.969 68.3357 359.693C67.181 359.258 66.0128 358.749 64.8921 358.26C62.3654 357.159 59.7572 356.018 57.1355 355.638C56.8794 355.569 56.6182 355.521 56.3544 355.495H56.3272Z" fill="#2A2E32"/>
<path d="M100.225 380.884C93.1542 380.884 84.3041 378.915 73.7831 374.989C66.8888 372.395 60.1668 369.364 53.658 365.915C53.5015 365.829 53.3634 365.713 53.2517 365.573C53.1401 365.434 53.0569 365.274 53.0071 365.102C52.9573 364.931 52.9417 364.751 52.9614 364.573C52.981 364.396 53.0354 364.224 53.1214 364.067C53.2075 363.911 53.3236 363.773 53.463 363.661C53.6024 363.549 53.7625 363.466 53.934 363.416C54.1056 363.366 54.2853 363.351 54.4628 363.371C54.6404 363.39 54.8124 363.445 54.9689 363.531C55.3153 363.721 89.9891 382.549 107.52 377.196C107.864 377.091 108.237 377.127 108.556 377.296C108.874 377.466 109.112 377.755 109.218 378.1C109.323 378.445 109.287 378.817 109.118 379.136C108.948 379.454 108.659 379.692 108.314 379.798C105.686 380.556 102.96 380.922 100.225 380.884Z" fill="#2A2E32"/>
<path d="M98.8861 393.912C85.6891 393.912 70.5223 387.262 69.748 386.916C69.5748 386.851 69.4169 386.751 69.2837 386.622C69.1505 386.494 69.045 386.34 68.9735 386.169C68.9021 385.999 68.8663 385.815 68.8682 385.63C68.8702 385.445 68.9099 385.263 68.985 385.093C69.06 384.924 69.1688 384.772 69.3046 384.647C69.4405 384.521 69.6006 384.425 69.775 384.363C69.9495 384.302 70.1347 384.277 70.3192 384.289C70.5038 384.302 70.6838 384.352 70.8483 384.437C71.0724 384.532 93.14 394.204 106.256 390.237C106.426 390.185 106.606 390.168 106.783 390.185C106.961 390.203 107.133 390.255 107.291 390.34C107.448 390.424 107.587 390.538 107.7 390.676C107.814 390.814 107.898 390.973 107.95 391.144C108.002 391.315 108.02 391.494 108.002 391.672C107.984 391.849 107.932 392.022 107.848 392.179C107.764 392.336 107.649 392.476 107.511 392.589C107.373 392.702 107.214 392.787 107.043 392.839C104.391 393.591 101.643 393.953 98.8861 393.912Z" fill="#2A2E32"/>
<path d="M98.1123 47.7041H68.7568C63.989 47.7041 60.124 51.5691 60.124 56.3369V146.292C60.124 151.059 63.989 154.924 68.7568 154.924H98.1123C102.88 154.924 106.745 151.059 106.745 146.292V56.3369C106.745 51.5691 102.88 47.7041 98.1123 47.7041Z" fill="#636466"/>
<path d="M83.4482 84.178H83.3463C77.6002 84.1441 71.7182 81.305 67.2082 76.3807C64.5191 73.3962 62.4729 69.8902 61.1969 66.0809C59.9209 62.2716 59.4424 58.2405 59.7912 54.2384C59.8058 54.0604 59.8553 53.887 59.937 53.7282C60.0186 53.5693 60.1308 53.4281 60.267 53.3127C60.4033 53.1972 60.561 53.1098 60.7311 53.0554C60.9012 53.0009 61.0804 52.9806 61.2583 52.9954C61.4363 53.01 61.6097 53.0595 61.7686 53.1412C61.9274 53.2228 62.0686 53.335 62.184 53.4712C62.2995 53.6075 62.3869 53.7652 62.4414 53.9353C62.4958 54.1054 62.5162 54.2846 62.5013 54.4625C62.1818 58.0905 62.6128 61.7454 63.7673 65.1996C64.9218 68.6538 66.7751 71.8333 69.2119 74.5401C73.2125 78.9074 78.3677 81.4273 83.3599 81.4544H83.4482C89.0177 81.4544 93.3307 78.3504 95.9661 75.7355C101.094 70.6549 104.551 62.9119 104.578 56.4662C104.578 56.1583 104.578 55.8866 104.578 55.6511C104.571 55.4727 104.599 55.2946 104.661 55.127C104.722 54.9594 104.816 54.8056 104.938 54.6744C105.059 54.5432 105.205 54.4371 105.367 54.3623C105.529 54.2875 105.704 54.2454 105.883 54.2384C106.242 54.2237 106.592 54.3519 106.857 54.5951C107.122 54.8383 107.279 55.1765 107.295 55.5357C107.295 55.8119 107.295 56.1243 107.295 56.473C107.295 63.5979 103.485 72.0949 97.8814 77.6644C93.582 81.9299 88.5898 84.178 83.4482 84.178Z" fill="#2A2E32"/>
<path d="M63.5062 154.368C63.305 154.368 63.1061 154.324 62.9241 154.238C62.742 154.152 62.5813 154.027 62.4535 153.872C62.2261 153.593 62.1185 153.236 62.1542 152.878C62.1898 152.521 62.3658 152.191 62.6436 151.963L82.8977 135.302V82.7652C82.8977 82.4049 83.0409 82.0594 83.2956 81.8046C83.5504 81.5499 83.8959 81.4067 84.2562 81.4067C84.6164 81.4067 84.962 81.5499 85.2167 81.8046C85.4715 82.0594 85.6146 82.4049 85.6146 82.7652V136.606L64.3688 154.082C64.1226 154.274 63.818 154.374 63.5062 154.368Z" fill="#2A2E32"/>
<path d="M104.674 153.756C104.362 153.756 104.06 153.648 103.818 153.451L83.4414 137C83.1781 136.769 83.0144 136.445 82.9845 136.096C82.9545 135.746 83.0607 135.399 83.2808 135.126C83.5009 134.854 83.8179 134.677 84.1656 134.632C84.5132 134.588 84.8646 134.679 85.1463 134.888L105.523 151.338C105.742 151.514 105.901 151.754 105.979 152.024C106.056 152.295 106.047 152.583 105.954 152.848C105.861 153.113 105.688 153.343 105.458 153.506C105.229 153.669 104.955 153.756 104.674 153.756Z" fill="#2A2E32"/>
<path d="M189.174 98.8692C188.814 98.8692 188.468 98.7261 188.213 98.4714C187.959 98.2166 187.815 97.8711 187.815 97.5108V72.7671C187.815 72.4068 187.959 72.0613 188.213 71.8066C188.468 71.5518 188.814 71.4087 189.174 71.4087C189.534 71.4087 189.88 71.5518 190.134 71.8066C190.389 72.0613 190.532 72.4068 190.532 72.7671V97.5108C190.532 97.8711 190.389 98.2166 190.134 98.4714C189.88 98.7261 189.534 98.8692 189.174 98.8692Z" fill="#2A2E32"/>
<path d="M184.161 350.965C184.161 345.068 179.381 340.288 173.484 340.288C167.587 340.288 162.807 345.068 162.807 350.965V397.091C162.807 402.987 167.587 407.768 173.484 407.768C179.381 407.768 184.161 402.987 184.161 397.091V350.965Z" fill="#636466"/>
<path d="M184.141 395.399C183.78 395.399 183.435 395.256 183.18 395.002C182.925 394.747 182.782 394.401 182.782 394.041V350.965C182.782 350.605 182.925 350.26 183.18 350.005C183.435 349.75 183.78 349.607 184.141 349.607C184.501 349.607 184.846 349.75 185.101 350.005C185.356 350.26 185.499 350.605 185.499 350.965V394.041C185.499 394.401 185.356 394.747 185.101 395.002C184.846 395.256 184.501 395.399 184.141 395.399Z" fill="#2A2E32"/>
<path d="M275.047 176.123C274.686 176.131 274.338 175.996 274.077 175.747C273.817 175.498 273.666 175.155 273.658 174.795C273.649 174.435 273.785 174.086 274.034 173.825C274.283 173.565 274.625 173.414 274.985 173.406L345.026 170.546C345.204 170.539 345.382 170.567 345.55 170.629C345.717 170.691 345.871 170.785 346.002 170.906C346.133 171.027 346.239 171.173 346.314 171.335C346.389 171.497 346.431 171.672 346.439 171.851C346.446 172.029 346.418 172.207 346.356 172.375C346.294 172.542 346.2 172.696 346.079 172.827C345.958 172.958 345.812 173.064 345.65 173.139C345.488 173.214 345.313 173.256 345.134 173.263L275.101 176.13L275.047 176.123Z" fill="#2A2E32"/>
<path d="M299.791 321.882H261.571C261.211 321.882 260.866 321.739 260.611 321.484C260.356 321.229 260.213 320.883 260.213 320.523C260.213 320.163 260.356 319.817 260.611 319.563C260.866 319.308 261.211 319.165 261.571 319.165H297.862L324.269 246.584C324.393 246.246 324.646 245.97 324.972 245.818C325.299 245.665 325.673 245.649 326.012 245.773C326.35 245.896 326.626 246.149 326.778 246.476C326.93 246.802 326.947 247.176 326.823 247.515L299.791 321.882Z" fill="#2A2E32"/>
<path d="M281.502 21.6376C279.525 21.2719 277.626 22.5767 277.26 24.5519C276.895 26.5272 278.201 28.4249 280.178 28.7906L300.415 32.534C302.392 32.8997 304.291 31.5949 304.657 29.6197C305.022 27.6444 303.716 25.7467 301.738 25.381L281.502 21.6376Z" fill="#2A2E32"/>
<path d="M480.332 37.5293H425.723C416.885 37.5293 409.721 44.6937 409.721 53.5315V108.14C409.721 116.978 416.885 124.142 425.723 124.142H480.332C489.169 124.142 496.334 116.978 496.334 108.14V53.5315C496.334 44.6937 489.169 37.5293 480.332 37.5293Z" fill="white"/>
<path d="M480.332 125.501H425.723C421.12 125.494 416.707 123.662 413.453 120.406C410.198 117.15 408.368 112.737 408.362 108.134V53.5589C408.368 48.9562 410.198 44.5436 413.453 41.289C416.708 38.0344 421.12 36.2036 425.723 36.1982H480.332C484.934 36.2036 489.347 38.0344 492.601 41.289C495.856 44.5436 497.687 48.9562 497.692 53.5589V108.161C497.68 112.759 495.846 117.166 492.592 120.415C489.339 123.665 484.93 125.494 480.332 125.501ZM425.723 38.8879C423.798 38.8897 421.892 39.2706 420.115 40.0088C418.337 40.7471 416.722 41.8282 415.363 43.1906C414.003 44.5529 412.925 46.1697 412.19 47.9487C411.455 49.7277 411.077 51.6341 411.079 53.5589V108.161C411.083 112.044 412.627 115.767 415.372 118.514C418.117 121.26 421.84 122.806 425.723 122.811H480.332C484.215 122.806 487.938 121.26 490.683 118.514C493.428 115.767 494.972 112.044 494.975 108.161V53.5589C494.972 49.6762 493.428 45.9536 490.682 43.2081C487.937 40.4627 484.214 38.9187 480.332 38.9151L425.723 38.8879Z" fill="#2A2E32"/>
<path d="M472.501 63.9644H433.561C430.29 63.9644 427.639 66.6161 427.639 69.8871V102.876C427.639 106.147 430.29 108.799 433.561 108.799H472.501C475.772 108.799 478.423 106.147 478.423 102.876V69.8871C478.423 66.6161 475.772 63.9644 472.501 63.9644Z" fill="#B3B3B3"/>
<path d="M478.417 79.9869H427.639C427.278 79.9869 426.933 79.8437 426.678 79.589C426.423 79.3342 426.28 78.9887 426.28 78.6284C426.28 78.2682 426.423 77.9226 426.678 77.6679C426.933 77.4131 427.278 77.27 427.639 77.27H478.417C478.777 77.27 479.122 77.4131 479.377 77.6679C479.632 77.9226 479.775 78.2682 479.775 78.6284C479.775 78.9887 479.632 79.3342 479.377 79.589C479.122 79.8437 478.777 79.9869 478.417 79.9869Z" fill="#2A2E32"/>
<path d="M455.147 65.323H453.041C440.53 65.323 436.944 60.9692 436.142 57.3151C435.992 56.6463 435.988 55.9528 436.13 55.2823C436.273 54.6117 436.559 53.98 436.969 53.4303C437.378 52.8806 437.902 52.4261 438.504 52.0977C439.106 51.7694 439.771 51.5751 440.455 51.5282C448.538 50.9712 454.04 62.8914 454.277 63.4008L455.147 65.323ZM440.971 54.2382H440.625C440.335 54.2594 440.053 54.3425 439.797 54.4819C439.542 54.6214 439.319 54.8139 439.144 55.0465C438.967 55.2849 438.842 55.5585 438.779 55.8491C438.716 56.1396 438.715 56.4403 438.778 56.731C439.538 60.161 443.763 62.1986 450.759 62.5518C448.81 59.1557 445.067 54.2382 440.971 54.2382Z" fill="#2A2E32"/>
<path d="M452.857 65.3229H450.745L451.614 63.4008C451.845 62.8914 457.347 50.9644 465.436 51.5282C466.121 51.5742 466.787 51.7678 467.39 52.0957C467.993 52.4236 468.517 52.878 468.928 53.4278C469.338 53.9776 469.625 54.6097 469.768 55.2807C469.911 55.9517 469.907 56.6457 469.756 57.315C468.948 60.9692 465.335 65.3229 452.857 65.3229ZM464.913 54.2382C460.838 54.2382 457.075 59.1693 455.119 62.5653C462.122 62.2122 466.347 60.1745 467.101 56.7445C467.166 56.454 467.167 56.1526 467.104 55.8616C467.041 55.5705 466.914 55.2969 466.734 55.06C466.561 54.8254 466.339 54.6315 466.083 54.4919C465.827 54.3523 465.544 54.2703 465.253 54.2518L464.913 54.2382Z" fill="#2A2E32"/>
<path d="M466.557 89.1765C466.319 89.1763 466.085 89.1134 465.879 88.9942C465.672 88.875 465.501 88.7036 465.382 88.4973L452.728 66.681L440.672 87.7026C440.492 88.0152 440.195 88.2434 439.847 88.337C439.499 88.4306 439.127 88.382 438.815 88.2019C438.502 88.0217 438.274 87.7248 438.18 87.3765C438.087 87.0281 438.135 86.6568 438.316 86.3442L452.715 61.2134L467.732 87.105C467.913 87.4158 467.962 87.7856 467.871 88.1331C467.779 88.4806 467.553 88.7777 467.243 88.9592C467.038 89.092 466.801 89.1671 466.557 89.1765Z" fill="#2A2E32"/>
<path d="M453.245 110.157C452.885 110.157 452.539 110.014 452.285 109.76C452.03 109.505 451.887 109.159 451.887 108.799V65.3907C451.887 65.0304 452.03 64.6849 452.285 64.4301C452.539 64.1753 452.885 64.0322 453.245 64.0322C453.605 64.0322 453.951 64.1753 454.206 64.4301C454.46 64.6849 454.604 65.0304 454.604 65.3907V108.799C454.604 109.159 454.46 109.505 454.206 109.76C453.951 110.014 453.605 110.157 453.245 110.157Z" fill="#2A2E32"/>
<path d="M93.5342 131.804H20.5258C9.93992 131.804 1.3584 140.386 1.3584 150.972C1.3584 161.557 9.93992 170.139 20.5258 170.139H93.5342C104.12 170.139 112.702 161.557 112.702 150.972C112.702 140.386 104.12 131.804 93.5342 131.804Z" fill="white"/>
<path d="M93.5275 171.497H20.5258C15.082 171.497 9.86119 169.335 6.01186 165.485C2.16253 161.636 0 156.415 0 150.972C0 145.528 2.16253 140.307 6.01186 136.458C9.86119 132.608 15.082 130.446 20.5258 130.446H93.5275C98.9713 130.446 104.192 132.608 108.041 136.458C111.891 140.307 114.053 145.528 114.053 150.972C114.053 156.415 111.891 161.636 108.041 165.485C104.192 169.335 98.9713 171.497 93.5275 171.497ZM20.5258 133.163C15.8026 133.163 11.2728 135.039 7.93297 138.379C4.59314 141.719 2.71685 146.248 2.71685 150.972C2.71685 155.695 4.59314 160.225 7.93297 163.564C11.2728 166.904 15.8026 168.781 20.5258 168.781H93.5275C98.2507 168.781 102.78 166.904 106.12 163.564C109.46 160.225 111.336 155.695 111.336 150.972C111.336 146.248 109.46 141.719 106.12 138.379C102.78 135.039 98.2507 133.163 93.5275 133.163H20.5258Z" fill="#2A2E32"/>
<path d="M26.6931 157.213C30.1405 157.213 32.9351 154.419 32.9351 150.971C32.9351 147.524 30.1405 144.729 26.6931 144.729C23.2458 144.729 20.4512 147.524 20.4512 150.971C20.4512 154.419 23.2458 157.213 26.6931 157.213Z" fill="#636466"/>
<path d="M57.0271 157.213C60.4745 157.213 63.2691 154.419 63.2691 150.971C63.2691 147.524 60.4745 144.729 57.0271 144.729C53.5798 144.729 50.7852 147.524 50.7852 150.971C50.7852 154.419 53.5798 157.213 57.0271 157.213Z" fill="#636466"/>
<path d="M87.3601 157.213C90.8075 157.213 93.6021 154.419 93.6021 150.971C93.6021 147.524 90.8075 144.729 87.3601 144.729C83.9128 144.729 81.1182 147.524 81.1182 150.971C81.1182 154.419 83.9128 157.213 87.3601 157.213Z" fill="#636466"/>
<path d="M512.696 213.208H380.216C367.604 213.208 357.381 223.431 357.381 236.043V381.075C357.381 393.686 367.604 403.91 380.216 403.91H512.696C525.308 403.91 535.531 393.686 535.531 381.075V236.043C535.531 223.431 525.308 213.208 512.696 213.208Z" fill="white"/>
<path d="M512.696 405.268H380.216C373.802 405.261 367.652 402.71 363.117 398.174C358.581 393.639 356.03 387.489 356.022 381.075V236.043C356.03 229.628 358.581 223.479 363.117 218.943C367.652 214.408 373.802 211.856 380.216 211.849H512.696C519.111 211.856 525.26 214.408 529.796 218.943C534.331 223.479 536.883 229.628 536.89 236.043V381.075C536.883 387.489 534.331 393.639 529.796 398.174C525.26 402.71 519.111 405.261 512.696 405.268ZM380.216 214.566C374.522 214.573 369.064 216.838 365.038 220.864C361.012 224.89 358.746 230.349 358.739 236.043V381.075C358.745 386.769 361.009 392.229 365.036 396.255C369.062 400.282 374.522 402.546 380.216 402.551H512.696C518.39 402.544 523.849 400.279 527.875 396.253C531.901 392.227 534.166 386.769 534.173 381.075V236.043C534.166 230.349 531.901 224.89 527.875 220.864C523.849 216.838 518.39 214.573 512.696 214.566H380.216Z" fill="#2A2E32"/>
<path d="M401.93 284.925H384.209C379.067 284.925 374.897 289.094 374.897 294.237V311.958C374.897 317.101 379.067 321.27 384.209 321.27H401.93C407.073 321.27 411.242 317.101 411.242 311.958V294.237C411.242 289.094 407.073 284.925 401.93 284.925Z" fill="#C20004"/>
<path d="M401.93 340.104H384.209C379.067 340.104 374.897 344.274 374.897 349.417V367.137C374.897 372.28 379.067 376.449 384.209 376.449H401.93C407.073 376.449 411.242 372.28 411.242 367.137V349.417C411.242 344.274 407.073 340.104 401.93 340.104Z" fill="#C20004"/>
<path d="M515.671 294.258H433.636C433.275 294.258 432.93 294.115 432.675 293.86C432.42 293.605 432.277 293.26 432.277 292.899C432.277 292.539 432.42 292.194 432.675 291.939C432.93 291.684 433.275 291.541 433.636 291.541H515.671C516.031 291.541 516.377 291.684 516.632 291.939C516.886 292.194 517.029 292.539 517.029 292.899C517.029 293.26 516.886 293.605 516.632 293.86C516.377 294.115 516.031 294.258 515.671 294.258Z" fill="#2A2E32"/>
<path d="M484.203 314.268H433.636C433.275 314.268 432.93 314.124 432.675 313.87C432.42 313.615 432.277 313.269 432.277 312.909C432.277 312.549 432.42 312.203 432.675 311.949C432.93 311.694 433.275 311.551 433.636 311.551H484.203C484.563 311.551 484.909 311.694 485.164 311.949C485.418 312.203 485.562 312.549 485.562 312.909C485.562 313.269 485.418 313.615 485.164 313.87C484.909 314.124 484.563 314.268 484.203 314.268Z" fill="#2A2E32"/>
<path d="M515.671 349.627H433.636C433.275 349.627 432.93 349.484 432.675 349.229C432.42 348.974 432.277 348.629 432.277 348.269C432.277 347.908 432.42 347.563 432.675 347.308C432.93 347.053 433.275 346.91 433.636 346.91H515.671C516.031 346.91 516.377 347.053 516.632 347.308C516.886 347.563 517.029 347.908 517.029 348.269C517.029 348.629 516.886 348.974 516.632 349.229C516.377 349.484 516.031 349.627 515.671 349.627Z" fill="#2A2E32"/>
<path d="M484.203 369.637H433.636C433.275 369.637 432.93 369.494 432.675 369.239C432.42 368.984 432.277 368.639 432.277 368.278C432.277 367.918 432.42 367.573 432.675 367.318C432.93 367.063 433.275 366.92 433.636 366.92H484.203C484.563 366.92 484.909 367.063 485.164 367.318C485.418 367.573 485.562 367.918 485.562 368.278C485.562 368.639 485.418 368.984 485.164 369.239C484.909 369.494 484.563 369.637 484.203 369.637Z" fill="#2A2E32"/>
<path d="M392.611 233.217H393.528C396.421 233.217 399.196 234.367 401.241 236.412C403.287 238.458 404.436 241.232 404.436 244.125V255.964H381.703V244.125C381.703 241.232 382.852 238.458 384.898 236.412C386.944 234.367 389.718 233.217 392.611 233.217Z" fill="#C20004"/>
<path d="M406.012 253.757H380.128C378.087 253.757 376.433 255.411 376.433 257.452V257.757C376.433 259.798 378.087 261.452 380.128 261.452H406.012C408.053 261.452 409.707 259.798 409.707 257.757V257.452C409.707 255.411 408.053 253.757 406.012 253.757Z" fill="#C20004"/>
<path d="M393.073 266.003C395.586 266.003 397.624 263.965 397.624 261.452C397.624 258.939 395.586 256.901 393.073 256.901C390.56 256.901 388.522 258.939 388.522 261.452C388.522 263.965 390.56 266.003 393.073 266.003Z" fill="#C20004"/>
<path d="M392.944 228.211H393.202C394.009 228.211 394.783 228.532 395.354 229.103C395.925 229.673 396.245 230.447 396.245 231.254V237.931H389.908V231.254C389.908 230.448 390.228 229.676 390.797 229.105C391.366 228.535 392.138 228.213 392.944 228.211Z" fill="#C20004"/>
</svg>
