<svg width="508" height="505" viewBox="0 0 508 505" fill="none" xmlns="http://www.w3.org/2000/svg">
<path d="M313.972 1.35875H432.44C439.353 1.35875 445.984 4.10406 450.873 8.99112C455.763 13.8782 458.512 20.507 458.515 27.4201V288.237C458.515 295.738 455.535 302.932 450.231 308.236C444.927 313.54 437.734 316.52 430.233 316.52H359.126C358.25 305.54 358.911 294.491 361.089 283.694C371.549 232.284 413.932 203.547 426.973 195.396C412.394 193.125 398.364 188.166 385.595 180.773C306.664 134.668 313.449 10.2904 314.06 1.33838" fill="#C20004"/>
<path d="M458.515 211.133C458.358 211.132 458.202 211.104 458.053 211.051C446.722 206.936 435.961 201.394 426.029 194.56C395.607 173.539 374.184 140.848 362.359 97.3786C354.283 67.6902 352.667 40.2568 352.742 22.4683C352.742 22.108 352.885 21.7625 353.14 21.5077C353.394 21.253 353.74 21.1099 354.1 21.1099C354.46 21.1099 354.806 21.253 355.061 21.5077C355.315 21.7625 355.459 22.108 355.459 22.4683C355.384 40.087 356.98 67.2555 364.967 96.6518C376.623 139.476 397.685 171.657 427.564 192.305C437.302 199.01 447.856 204.445 458.97 208.477C459.271 208.586 459.524 208.798 459.684 209.075C459.843 209.352 459.9 209.677 459.844 209.992C459.788 210.307 459.623 210.592 459.377 210.797C459.132 211.002 458.822 211.114 458.502 211.113L458.515 211.133Z" fill="#2A2E32"/>
<path d="M458.522 211.133C458.306 211.133 458.092 211.082 457.899 210.982C457.707 210.883 457.541 210.739 457.415 210.563C448.324 197.879 440.425 184.383 433.819 170.245C420.114 140.752 412.157 108.918 410.373 76.4456C410.363 76.2672 410.388 76.0886 410.446 75.9198C410.505 75.7511 410.597 75.5956 410.715 75.4622C410.834 75.3288 410.978 75.2201 411.139 75.1424C411.3 75.0646 411.475 75.0193 411.653 75.0091C411.832 74.9988 412.01 75.0238 412.179 75.0826C412.348 75.1414 412.503 75.2328 412.637 75.3517C412.77 75.4706 412.879 75.6146 412.956 75.7755C413.034 75.9364 413.079 76.111 413.09 76.2894C414.853 108.417 422.727 139.913 436.292 169.09C442.82 183.08 450.633 196.434 459.629 208.98C459.839 209.273 459.924 209.637 459.865 209.992C459.807 210.348 459.61 210.665 459.317 210.875C459.087 211.045 458.808 211.136 458.522 211.133V211.133Z" fill="#2A2E32"/>
<path d="M232.026 1.35875H113.564C106.65 1.35875 100.019 4.10384 95.1288 8.99071C90.2381 13.8776 87.4878 20.5063 87.4824 27.4201V288.237C87.4824 295.738 90.4622 302.932 95.7661 308.236C101.07 313.54 108.264 316.52 115.765 316.52H186.872C187.751 305.54 187.09 294.491 184.909 283.694C174.449 232.284 132.066 203.547 119.025 195.396C133.604 193.125 147.634 188.166 160.403 180.773C239.334 134.668 232.549 10.2904 231.944 1.33838" fill="#C20004"/>
<path d="M87.4823 211.133C87.1624 211.134 86.8523 211.023 86.6067 210.818C86.361 210.613 86.1957 210.328 86.1396 210.013C86.0836 209.698 86.1406 209.373 86.3005 209.096C86.4604 208.819 86.7129 208.607 87.0136 208.498C98.1279 204.465 108.682 199.031 118.42 192.326C148.306 171.678 169.361 139.497 181.017 96.6723C189.018 67.276 190.614 40.1076 190.526 22.4888C190.526 22.1285 190.669 21.783 190.923 21.5282C191.178 21.2735 191.524 21.1304 191.884 21.1304C192.244 21.1304 192.59 21.2735 192.845 21.5282C193.099 21.783 193.242 22.1285 193.242 22.4888C193.317 40.2774 191.707 67.7107 183.625 97.3991C171.84 140.848 150.391 173.539 119.969 194.56C110.037 201.394 99.2757 206.936 87.9442 211.052C87.7961 211.105 87.6398 211.133 87.4823 211.133V211.133Z" fill="#2A2E32"/>
<path d="M87.4824 211.133C87.197 211.133 86.9189 211.042 86.6877 210.875C86.3951 210.665 86.1978 210.348 86.1392 209.992C86.0806 209.637 86.1655 209.273 86.3753 208.98C95.3712 196.432 103.186 183.078 109.72 169.09C123.275 139.922 131.147 108.438 132.915 76.3231C132.936 75.9628 133.099 75.6255 133.368 75.3854C133.637 75.1453 133.991 75.0221 134.351 75.0428C134.712 75.0635 135.049 75.2265 135.289 75.4959C135.529 75.7653 135.652 76.119 135.632 76.4793C133.843 108.952 125.883 140.786 112.179 170.278C105.574 184.417 97.6748 197.914 88.5827 210.597C88.4541 210.766 88.2876 210.903 88.0964 210.996C87.9053 211.089 87.695 211.136 87.4824 211.133Z" fill="#2A2E32"/>
<path d="M433.615 317.905H113.482C106.338 317.898 99.4885 315.056 94.4379 310.003C89.3873 304.949 86.5485 298.098 86.5449 290.954V26.9307C86.5539 19.7899 89.3951 12.9441 94.4451 7.89536C99.4951 2.84662 106.342 0.0071892 113.482 0H433.615C440.756 0.0071892 447.603 2.84662 452.653 7.89536C457.703 12.9441 460.544 19.7899 460.553 26.9307V290.954C460.549 298.098 457.711 304.949 452.66 310.003C447.609 315.056 440.76 317.898 433.615 317.905V317.905ZM113.482 2.7508C107.062 2.75799 100.907 5.31118 96.3662 9.85042C91.8257 14.3897 89.2708 20.5444 89.2618 26.9647V290.954C89.269 297.376 91.8231 303.532 96.3638 308.073C100.904 312.613 107.061 315.167 113.482 315.175H433.615C440.037 315.167 446.193 312.613 450.734 308.073C455.275 303.532 457.829 297.376 457.836 290.954V26.9307C457.827 20.5104 455.272 14.3557 450.732 9.81647C446.191 5.27723 440.036 2.72404 433.615 2.71685L113.482 2.7508Z" fill="#C20004"/>
<path d="M241.426 153.855C224.84 168.078 219.263 188.95 226.558 204.117C231.564 214.515 241.243 219.372 245.522 221.185L287.252 211.119L276.745 170.367L241.426 153.855Z" fill="#2A2E32"/>
<path d="M188.821 417.715H3.5928C3.23252 417.715 2.88701 417.572 2.63226 417.317C2.3775 417.063 2.23438 416.717 2.23438 416.357C2.23438 415.997 2.3775 415.651 2.63226 415.396C2.88701 415.142 3.23252 414.999 3.5928 414.999H188.821C189.181 414.999 189.526 415.142 189.781 415.396C190.036 415.651 190.179 415.997 190.179 416.357C190.179 416.717 190.036 417.063 189.781 417.317C189.526 417.572 189.181 417.715 188.821 417.715Z" fill="#2A2E32"/>
<path d="M354.616 102.812C366.801 141.426 383.972 157.027 398.086 163.942C406.236 167.935 416.594 170.611 425.642 180.969C435.409 192.156 438.119 205.964 438.832 216.119L339.219 207.887L318.618 109.666L354.616 102.812Z" fill="#2A2E32"/>
<path d="M265.438 70.9727L295.668 65.206C309.184 62.6279 323.169 65.5242 334.549 73.2579C345.929 80.9916 353.77 92.9291 356.349 106.444L358.778 119.181L237.231 142.367L232.777 119.016C230.739 108.314 233.035 97.2408 239.16 88.2314C245.285 79.222 254.737 73.0141 265.438 70.9727V70.9727Z" fill="#2A2E32"/>
<path d="M341.759 143.429C341.394 139.152 339.355 135.191 336.087 132.407C332.819 129.624 328.584 128.242 324.303 128.561L320.16 106.752C317.443 92.1487 303.574 82.5378 289.256 85.2886L249.502 92.9365C238.723 95.0149 231.672 105.611 233.744 116.607L242.981 165.605C246.269 183.007 262.753 194.458 279.801 191.178L281.642 190.825L286.77 217.993L339.287 207.886L333.221 175.719H333.167L330.375 160.776C333.981 159.639 337.083 157.291 339.157 154.13C341.231 150.969 342.15 147.189 341.759 143.429Z" fill="white"/>
<path d="M285.684 219.575L280.562 192.407L280.06 192.502C275.87 193.314 271.561 193.285 267.383 192.417C263.205 191.548 259.242 189.857 255.724 187.442C252.064 184.955 248.936 181.765 246.52 178.058C244.104 174.351 242.449 170.202 241.65 165.85L232.406 116.851C230.199 105.142 237.724 93.8126 249.271 91.6052L289.032 83.9572C292.576 83.271 296.221 83.296 299.755 84.0305C303.289 84.7651 306.642 86.1947 309.619 88.2363C312.715 90.3394 315.362 93.0372 317.406 96.1727C319.45 99.3081 320.851 102.819 321.526 106.5L325.445 127.148H325.642C330.039 127.202 334.261 128.882 337.494 131.864C340.726 134.847 342.739 138.921 343.145 143.3V143.3C343.533 147.163 342.65 151.048 340.63 154.364C338.61 157.68 335.563 160.246 331.952 161.673L334.295 174.191L334.58 175.461L340.897 208.959L285.684 219.575ZM282.729 189.235L287.85 216.404L337.698 206.82L332.135 177.301L331.836 175.943L328.814 159.798L329.982 159.445C333.277 158.395 336.112 156.244 338.01 153.353C339.908 150.462 340.755 147.006 340.408 143.565C339.62 135.374 332.434 129.247 324.412 129.919L323.197 130.021L318.829 107.016C318.22 103.686 316.954 100.51 315.106 97.6727C313.258 94.8357 310.864 92.3945 308.064 90.4912C305.383 88.6489 302.362 87.359 299.177 86.6966C295.992 86.0342 292.708 86.0127 289.514 86.6333L249.76 94.2812C239.728 96.2102 233.147 106.113 235.076 116.362L244.32 165.361C245.048 169.359 246.564 173.173 248.779 176.58C250.995 179.987 253.866 182.92 257.225 185.207C260.448 187.421 264.079 188.971 267.908 189.769C271.736 190.566 275.684 190.595 279.523 189.853L282.729 189.235Z" fill="#2A2E32"/>
<path d="M326.056 151.539C324.993 151.538 323.953 151.229 323.063 150.648C322.172 150.067 321.47 149.241 321.04 148.268C320.611 147.296 320.473 146.22 320.643 145.171C320.814 144.122 321.285 143.145 322.001 142.358C322.716 141.572 323.644 141.01 324.672 140.741C325.701 140.473 326.785 140.508 327.794 140.844C328.802 141.18 329.691 141.801 330.354 142.632C331.016 143.464 331.422 144.47 331.523 145.528V145.528C331.662 146.975 331.22 148.418 330.295 149.54C329.371 150.662 328.039 151.371 326.592 151.512C326.414 151.531 326.235 151.54 326.056 151.539ZM326.056 143.28H325.784C325.421 143.314 325.069 143.42 324.747 143.592C324.425 143.763 324.141 143.996 323.909 144.278C323.559 144.7 323.342 145.217 323.286 145.763C323.23 146.309 323.338 146.859 323.596 147.344C323.854 147.828 324.25 148.225 324.734 148.483C325.218 148.742 325.768 148.85 326.314 148.795C327.045 148.725 327.718 148.367 328.186 147.8C328.653 147.233 328.877 146.504 328.807 145.773V145.773C328.733 145.041 328.374 144.367 327.808 143.898C327.317 143.498 326.703 143.28 326.069 143.28H326.056Z" fill="#2A2E32"/>
<path d="M281.54 189.527L313.266 182.484C313.468 182.439 313.68 182.468 313.863 182.565C314.046 182.662 314.189 182.82 314.266 183.012C314.344 183.204 314.35 183.418 314.285 183.614C314.22 183.811 314.088 183.978 313.911 184.087L283.435 198.927L281.54 189.527Z" fill="#2A2E32"/>
<path d="M322.299 149.121C322.009 149.121 321.727 149.028 321.493 148.855C321.26 148.683 321.088 148.44 321.002 148.163C320.503 146.525 320.442 144.785 320.826 143.117C321.21 141.448 322.025 139.909 323.189 138.654C326.674 134.939 331.469 135.652 332.019 135.747C332.195 135.777 332.364 135.842 332.515 135.937C332.666 136.033 332.797 136.157 332.901 136.303C333.004 136.45 333.077 136.615 333.116 136.789C333.155 136.964 333.159 137.144 333.128 137.321C333.098 137.497 333.032 137.665 332.936 137.816C332.84 137.967 332.715 138.097 332.568 138.2C332.422 138.302 332.256 138.375 332.082 138.413C331.907 138.451 331.726 138.455 331.55 138.423C331.394 138.423 327.747 137.792 325.193 140.515C324.352 141.42 323.764 142.531 323.488 143.735C323.211 144.939 323.256 146.194 323.617 147.375C323.669 147.546 323.688 147.726 323.671 147.903C323.654 148.081 323.602 148.254 323.518 148.412C323.434 148.569 323.32 148.709 323.182 148.823C323.044 148.936 322.885 149.021 322.714 149.073C322.579 149.111 322.439 149.127 322.299 149.121V149.121Z" fill="#2A2E32"/>
<path d="M249.8 149.366C251.556 149.366 252.979 147.943 252.979 146.187C252.979 144.431 251.556 143.008 249.8 143.008C248.045 143.008 246.622 144.431 246.622 146.187C246.622 147.943 248.045 149.366 249.8 149.366Z" fill="#2A2E32"/>
<path d="M281.112 142.879C282.868 142.879 284.291 141.456 284.291 139.701C284.291 137.945 282.868 136.522 281.112 136.522C279.357 136.522 277.934 137.945 277.934 139.701C277.934 141.456 279.357 142.879 281.112 142.879Z" fill="#2A2E32"/>
<path d="M264.573 157.34H264.376C261.986 156.993 259.5 156.396 259.153 154.501C259.106 154.14 259.132 153.775 259.229 153.425C259.326 153.075 259.492 152.748 259.717 152.463C259.846 152.259 259.995 152.015 260.158 151.695C260.757 150.494 260.993 149.144 260.838 147.81L259.459 134.056C259.441 133.878 259.458 133.698 259.51 133.526C259.562 133.354 259.647 133.195 259.761 133.056C259.874 132.917 260.014 132.802 260.172 132.717C260.33 132.633 260.503 132.58 260.681 132.562C260.86 132.544 261.04 132.562 261.212 132.613C261.383 132.665 261.543 132.75 261.682 132.864C261.821 132.977 261.936 133.117 262.02 133.275C262.105 133.433 262.158 133.606 262.176 133.785L263.534 147.559C263.744 149.398 263.418 151.259 262.597 152.918C262.373 153.353 262.183 153.658 262.026 153.916V153.964C262.91 154.323 263.841 154.552 264.791 154.643C265.151 154.668 265.486 154.836 265.723 155.108C265.96 155.381 266.079 155.736 266.054 156.097C266.029 156.457 265.861 156.792 265.589 157.029C265.316 157.266 264.961 157.385 264.6 157.36L264.573 157.34Z" fill="#2A2E32"/>
<path d="M269.987 170.734C268.364 170.723 266.756 170.434 265.232 169.878C264.895 169.743 264.626 169.479 264.483 169.146C264.341 168.812 264.336 168.435 264.471 168.098C264.606 167.762 264.87 167.492 265.204 167.35C265.537 167.207 265.914 167.203 266.251 167.338C266.305 167.338 269.959 168.771 273.043 167.426C273.883 167.026 274.631 166.458 275.242 165.757C275.853 165.056 276.314 164.237 276.595 163.351C276.659 163.184 276.755 163.031 276.878 162.902C277.001 162.772 277.148 162.668 277.311 162.595C277.474 162.522 277.65 162.482 277.828 162.477C278.007 162.472 278.184 162.502 278.351 162.566C278.518 162.63 278.67 162.726 278.8 162.849C278.93 162.972 279.034 163.119 279.107 163.282C279.18 163.445 279.22 163.62 279.225 163.799C279.23 163.977 279.199 164.155 279.136 164.322C278.723 165.544 278.065 166.668 277.202 167.626C276.339 168.584 275.289 169.355 274.116 169.892C272.813 170.455 271.407 170.742 269.987 170.734V170.734Z" fill="#2A2E32"/>
<path d="M203.804 424.42L276.731 426.315L433.16 430.39C418.376 353.449 403.592 276.51 388.808 199.573C346.789 202.24 304.973 207.478 263.595 215.256C262.726 215.419 258.922 215.935 253.869 216.907C237.805 220.099 213.727 224.881 201.929 238.098C191.014 250.324 191.952 268.248 192.848 281.955C195.66 324.915 199.124 372.29 203.804 424.42Z" fill="#636466"/>
<path d="M352.98 87.9309C367.497 87.9309 379.265 76.1624 379.265 61.6454C379.265 47.1283 367.497 35.3599 352.98 35.3599C338.463 35.3599 326.694 47.1283 326.694 61.6454C326.694 76.1624 338.463 87.9309 352.98 87.9309Z" fill="#2A2E32"/>
<path d="M492.924 436.503L399.193 461.341L340.054 205.904L386.186 199.261C403.824 196.727 421.758 201.113 436.235 211.502C450.711 221.891 460.608 237.476 463.854 254.997L492.924 436.503Z" fill="#636466"/>
<path d="M344.225 219.637L283.918 229.146L279.251 203.838C279.043 202.714 279.288 201.552 279.933 200.608C280.578 199.663 281.571 199.013 282.695 198.799L332.413 189.29C333.5 189.081 334.626 189.296 335.559 189.891C336.493 190.486 337.163 191.415 337.433 192.489L344.225 219.637Z" fill="#636466"/>
<path d="M351.079 326.17L373.206 311.508C380.846 306.445 390.185 304.625 399.167 306.448C408.15 308.27 416.04 313.586 421.103 321.227L486.954 420.604C492.484 428.949 494.472 439.148 492.481 448.958C490.491 458.769 484.684 467.386 476.34 472.916V472.916C463.537 481.4 447.888 484.45 432.836 481.396C417.785 478.342 404.562 469.433 396.079 456.63L341.366 374.063C336.304 366.424 334.484 357.087 336.305 348.105C338.127 339.124 343.441 331.234 351.079 326.17V326.17Z" fill="#636466"/>
<path d="M300.381 215.106C300.053 215.11 299.734 214.994 299.484 214.78C299.234 214.567 299.07 214.27 299.023 213.945L296.578 197.222C296.525 196.862 296.618 196.496 296.836 196.204C297.054 195.913 297.379 195.719 297.739 195.667C298.099 195.615 298.466 195.708 298.757 195.926C299.049 196.143 299.242 196.468 299.295 196.829L301.733 213.524C301.759 213.7 301.75 213.88 301.706 214.053C301.662 214.226 301.585 214.389 301.479 214.532C301.372 214.676 301.238 214.796 301.085 214.888C300.931 214.979 300.762 215.04 300.585 215.065L300.381 215.106Z" fill="#2A2E32"/>
<path d="M319.053 211.527C318.724 211.53 318.405 211.415 318.155 211.201C317.906 210.988 317.742 210.691 317.694 210.366L315.229 193.643C315.203 193.465 315.212 193.283 315.257 193.108C315.301 192.934 315.379 192.77 315.487 192.625C315.595 192.481 315.73 192.359 315.885 192.267C316.04 192.175 316.212 192.114 316.39 192.088C316.568 192.062 316.75 192.072 316.925 192.116C317.1 192.16 317.264 192.239 317.408 192.347C317.553 192.454 317.674 192.59 317.767 192.745C317.859 192.899 317.92 193.071 317.945 193.249L320.411 209.972C320.433 210.149 320.42 210.328 320.372 210.5C320.324 210.672 320.243 210.833 320.134 210.974C320.024 211.114 319.888 211.232 319.732 211.32C319.577 211.408 319.406 211.464 319.229 211.486L319.053 211.527Z" fill="#2A2E32"/>
<path d="M470.191 396.667C469.966 396.667 469.745 396.611 469.547 396.504C469.349 396.397 469.18 396.243 469.057 396.055L422.931 326.45C420.717 322.782 414.373 313.972 402.759 310.318C397.019 308.546 390.926 308.242 385.038 309.435C384.861 309.475 384.678 309.48 384.5 309.448C384.322 309.417 384.151 309.35 383.999 309.251C383.847 309.153 383.716 309.025 383.614 308.875C383.512 308.725 383.441 308.557 383.406 308.379C383.37 308.201 383.37 308.018 383.406 307.841C383.442 307.663 383.513 307.495 383.615 307.345C383.717 307.195 383.848 307.068 384.001 306.969C384.153 306.871 384.323 306.804 384.501 306.773C390.836 305.487 397.393 305.816 403.567 307.731C416.071 311.656 422.877 321.118 425.227 324.996L471.318 394.554C471.517 394.854 471.589 395.221 471.517 395.574C471.446 395.926 471.238 396.236 470.938 396.436C470.717 396.584 470.457 396.664 470.191 396.667V396.667Z" fill="#2A2E32"/>
<path d="M377.601 430.125C377.376 430.125 377.155 430.069 376.957 429.962C376.759 429.855 376.59 429.701 376.467 429.513L350.548 390.397C349.495 388.801 348.32 387.137 346.853 385.161C336.42 371.081 334.899 361.959 334.77 361.062C330.471 340.55 342.506 331.856 343.022 331.517C343.318 331.309 343.683 331.228 344.039 331.291C344.394 331.353 344.71 331.554 344.917 331.849C345.125 332.145 345.206 332.51 345.143 332.866C345.081 333.221 344.88 333.537 344.585 333.744C344.109 334.077 333.5 341.854 337.439 360.553V360.655C337.439 360.743 338.737 369.661 348.986 383.544C350.48 385.582 351.703 387.26 352.762 388.896L378.688 428.012C378.824 428.217 378.903 428.455 378.915 428.701C378.926 428.947 378.871 429.192 378.755 429.409C378.638 429.626 378.465 429.807 378.253 429.933C378.042 430.059 377.8 430.125 377.553 430.125H377.601Z" fill="#2A2E32"/>
<path d="M278.606 471.625H182.749L177.315 443.186H286.695L278.606 471.625ZM184.997 468.908H276.555L283.095 445.903H180.589L184.997 468.908Z" fill="#2A2E32"/>
<path d="M229.607 471.624C229.247 471.624 228.902 471.481 228.647 471.226C228.392 470.972 228.249 470.626 228.249 470.266V444.564C228.249 444.204 228.392 443.859 228.647 443.604C228.902 443.349 229.247 443.206 229.607 443.206C229.968 443.206 230.313 443.349 230.568 443.604C230.823 443.859 230.966 444.204 230.966 444.564V470.266C230.966 470.626 230.823 470.972 230.568 471.226C230.313 471.481 229.968 471.624 229.607 471.624Z" fill="#2A2E32"/>
<path d="M186.735 478.152C191.038 478.152 194.526 474.633 194.526 470.293C194.526 465.953 191.038 462.435 186.735 462.435C182.433 462.435 178.945 465.953 178.945 470.293C178.945 474.633 182.433 478.152 186.735 478.152Z" fill="#2A2E32"/>
<path d="M229.669 478.152C234.009 478.152 237.527 474.633 237.527 470.293C237.527 465.953 234.009 462.435 229.669 462.435C225.328 462.435 221.81 465.953 221.81 470.293C221.81 474.633 225.328 478.152 229.669 478.152Z" fill="#2A2E32"/>
<path d="M274.599 478.152C278.898 478.152 282.382 474.633 282.382 470.293C282.382 465.953 278.898 462.435 274.599 462.435C270.3 462.435 266.815 465.953 266.815 470.293C266.815 474.633 270.3 478.152 274.599 478.152Z" fill="#2A2E32"/>
<path d="M305.767 384.685C305.472 384.686 305.185 384.588 304.952 384.407C304.665 384.19 304.476 383.867 304.426 383.511C304.377 383.154 304.471 382.792 304.687 382.505L320.798 361.28C321.066 360.918 321.228 360.488 321.267 360.04C321.305 359.591 321.218 359.14 321.015 358.738C320.812 358.336 320.502 357.998 320.118 357.762C319.734 357.526 319.293 357.401 318.842 357.401H269.83C268.58 357.401 267.347 357.703 266.239 358.283C265.131 358.863 264.179 359.702 263.466 360.73L256.443 370.857C256.341 371.003 256.212 371.129 256.062 371.225C255.912 371.322 255.744 371.388 255.568 371.42C255.393 371.452 255.212 371.449 255.038 371.411C254.863 371.373 254.698 371.301 254.551 371.2C254.405 371.098 254.279 370.968 254.183 370.818C254.086 370.668 254.02 370.501 253.988 370.325C253.956 370.149 253.959 369.969 253.997 369.795C254.035 369.62 254.107 369.455 254.208 369.308L261.231 359.181C262.195 357.793 263.481 356.659 264.978 355.876C266.476 355.093 268.14 354.684 269.83 354.685H318.842C319.798 354.683 320.736 354.948 321.55 355.45C322.364 355.951 323.022 356.67 323.451 357.524C323.88 358.379 324.062 359.336 323.977 360.289C323.893 361.241 323.544 362.151 322.972 362.917L306.854 384.149C306.727 384.316 306.562 384.452 306.374 384.545C306.185 384.638 305.978 384.686 305.767 384.685V384.685Z" fill="#2A2E32"/>
<path d="M186.552 429.567L165.089 371.522C164.435 369.749 164.511 367.789 165.3 366.073C166.09 364.356 167.528 363.023 169.3 362.366L201.603 350.419C202.482 350.094 203.415 349.946 204.35 349.982C205.286 350.018 206.205 350.239 207.055 350.63C207.906 351.022 208.67 351.577 209.306 352.265C209.941 352.952 210.435 353.758 210.759 354.637L230.803 408.845C231.832 411.634 231.712 414.718 230.469 417.419C229.226 420.12 226.962 422.218 224.174 423.251L195.708 433.778C194.83 434.103 193.897 434.252 192.962 434.216C192.027 434.18 191.108 433.961 190.258 433.569C189.407 433.178 188.643 432.624 188.007 431.937C187.371 431.25 186.877 430.445 186.552 429.567V429.567Z" fill="white"/>
<path d="M193.229 435.585C191.497 435.576 189.809 435.041 188.388 434.05C186.967 433.059 185.882 431.659 185.276 430.036L163.813 371.991C163.04 369.884 163.135 367.557 164.076 365.52C165.017 363.482 166.727 361.902 168.832 361.123L201.135 349.176C203.246 348.397 205.579 348.487 207.623 349.427C209.667 350.367 211.254 352.079 212.037 354.189L232.08 408.397C233.235 411.524 233.1 414.982 231.707 418.01C230.314 421.038 227.776 423.39 224.65 424.548L196.177 435.076C195.233 435.421 194.234 435.594 193.229 435.585V435.585ZM204.097 351.363C203.401 351.361 202.711 351.482 202.059 351.723L169.803 363.63C168.371 364.163 167.208 365.242 166.572 366.632C165.935 368.021 165.876 369.607 166.407 371.04L187.87 429.079C188.405 430.51 189.485 431.671 190.874 432.308C192.263 432.944 193.847 433.004 195.28 432.475L223.753 421.947C226.205 421.041 228.196 419.198 229.289 416.823C230.382 414.449 230.487 411.738 229.581 409.286L209.53 355.078C209.123 353.974 208.387 353.021 207.421 352.347C206.456 351.673 205.308 351.311 204.131 351.309L204.097 351.363Z" fill="#2A2E32"/>
<path d="M264.892 430.193L210.161 401.312C209.328 400.877 208.589 400.282 207.987 399.56C207.385 398.839 206.931 398.005 206.652 397.107C206.373 396.21 206.274 395.266 206.361 394.33C206.448 393.394 206.719 392.485 207.159 391.654L223.236 361.191C223.672 360.361 224.267 359.624 224.988 359.023C225.709 358.423 226.541 357.971 227.437 357.692C228.333 357.414 229.275 357.315 230.209 357.402C231.143 357.488 232.051 357.758 232.881 358.196L283.992 385.168C286.622 386.557 288.593 388.933 289.471 391.774C290.35 394.616 290.065 397.69 288.678 400.321L274.51 427.17C274.077 428 273.485 428.737 272.767 429.339C272.05 429.94 271.221 430.394 270.328 430.675C269.434 430.955 268.494 431.057 267.562 430.975C266.629 430.892 265.722 430.626 264.892 430.193V430.193Z" fill="white"/>
<path d="M268.193 432.346C266.818 432.346 265.463 432.01 264.247 431.368L209.516 402.488C207.528 401.435 206.038 399.637 205.375 397.487C204.711 395.337 204.928 393.012 205.978 391.022L222.048 360.56C223.1 358.571 224.898 357.082 227.047 356.417C229.197 355.752 231.522 355.967 233.513 357.014L284.63 384.006C287.573 385.567 289.778 388.229 290.762 391.412C291.746 394.594 291.429 398.037 289.881 400.986L275.712 427.829C274.989 429.195 273.907 430.338 272.582 431.134C271.257 431.93 269.739 432.349 268.193 432.346ZM265.517 428.95C266.87 429.661 268.451 429.807 269.911 429.355C271.372 428.903 272.593 427.89 273.308 426.538L287.476 399.696C288.692 397.383 288.941 394.682 288.17 392.186C287.398 389.69 285.669 387.601 283.36 386.377L232.243 359.419C231.573 359.065 230.84 358.848 230.086 358.778C229.332 358.708 228.571 358.787 227.848 359.011C227.125 359.235 226.452 359.599 225.87 360.083C225.287 360.566 224.805 361.16 224.452 361.83L208.375 392.293C207.666 393.646 207.521 395.226 207.973 396.686C208.425 398.145 209.436 399.367 210.786 400.083L265.517 428.95Z" fill="#2A2E32"/>
<path d="M299.233 380.216H171.277C170.332 380.216 169.4 380.427 168.548 380.834C167.696 381.242 166.946 381.836 166.354 382.572C165.762 383.308 165.343 384.167 165.128 385.087C164.912 386.006 164.906 386.962 165.109 387.885L178.014 446.406H285.948L305.421 388.842C305.753 387.86 305.846 386.812 305.693 385.786C305.54 384.76 305.145 383.785 304.54 382.942C303.936 382.099 303.139 381.412 302.216 380.938C301.293 380.464 300.271 380.217 299.233 380.216V380.216Z" fill="#C20004"/>
<path d="M229.607 438.513C229.247 438.513 228.902 438.37 228.647 438.115C228.392 437.861 228.249 437.515 228.249 437.155V387.572C228.249 387.212 228.392 386.867 228.647 386.612C228.902 386.357 229.247 386.214 229.607 386.214C229.968 386.214 230.313 386.357 230.568 386.612C230.823 386.867 230.966 387.212 230.966 387.572V437.155C230.966 437.515 230.823 437.861 230.568 438.115C230.313 438.37 229.968 438.513 229.607 438.513Z" fill="#2A2E32"/>
<path d="M251.736 369.526C251.392 369.526 251.06 369.396 250.808 369.162C250.555 368.927 250.402 368.606 250.378 368.262L248.34 338.574C248.316 338.216 248.434 337.862 248.67 337.591C248.905 337.32 249.238 337.153 249.597 337.127C249.775 337.114 249.953 337.136 250.123 337.193C250.292 337.249 250.449 337.338 250.584 337.454C250.719 337.571 250.829 337.713 250.909 337.873C250.989 338.032 251.037 338.206 251.05 338.384L253.088 368.072C253.101 368.25 253.078 368.429 253.022 368.598C252.966 368.767 252.877 368.924 252.761 369.059C252.644 369.194 252.502 369.305 252.342 369.385C252.183 369.465 252.009 369.513 251.831 369.526H251.736Z" fill="#2A2E32"/>
<path d="M238.064 340.34C234.391 340.334 230.853 338.958 228.14 336.483C225.427 334.007 223.734 330.609 223.393 326.952L220.628 296.388C220.273 292.494 221.479 288.618 223.98 285.612C226.482 282.606 230.074 280.717 233.968 280.358L310.671 273.091L314.849 318.55C315.026 320.479 314.822 322.423 314.248 324.272C313.674 326.121 312.741 327.839 311.503 329.328C310.265 330.816 308.746 332.046 307.032 332.947C305.318 333.849 303.444 334.403 301.516 334.58L239.422 340.278C238.967 340.319 238.512 340.34 238.064 340.34ZM308.219 276.052L234.219 283.041C231.044 283.336 228.115 284.879 226.077 287.332C224.04 289.785 223.059 292.947 223.352 296.123L226.11 326.687C226.408 329.86 227.951 332.786 230.402 334.822C232.852 336.859 236.011 337.842 239.184 337.555L301.278 331.856C304.452 331.562 307.38 330.019 309.417 327.568C311.455 325.116 312.436 321.956 312.145 318.781L308.219 276.052Z" fill="white"/>
<path d="M316.513 290.39H295.851C294.403 290.379 292.958 290.531 291.545 290.846C288.692 291.525 285.079 293.08 286.587 296.755C286.934 297.562 287.441 298.291 288.075 298.899C288.71 299.506 289.46 299.981 290.281 300.293C297.182 303.01 321.58 312.913 327 318.347L344.483 333.289L384.93 309.517C379.67 299.251 373.358 289.558 366.095 280.596C359.167 272.059 350.711 261.463 340.706 256.471C335.225 253.754 328.752 253.652 322.822 254.569C315.637 255.685 308.528 257.246 301.536 259.242C295.423 261.008 289.168 262.916 284.556 267.589L277.716 273.811C277.378 274.095 277.142 274.481 277.042 274.911C276.942 275.341 276.985 275.791 277.163 276.195C277.342 276.598 277.646 276.933 278.031 277.149C278.417 277.364 278.861 277.449 279.299 277.39L308.736 274.599C310.236 274.457 311.743 274.785 313.047 275.538C314.352 276.292 315.39 277.433 316.017 278.803L319.325 286.043C319.539 286.513 319.632 287.028 319.595 287.543C319.557 288.058 319.391 288.555 319.11 288.988C318.83 289.421 318.445 289.777 317.991 290.022C317.537 290.267 317.029 290.394 316.513 290.39V290.39Z" fill="white"/>
<path d="M345.23 280.032C344.978 280.033 344.731 279.963 344.516 279.831C344.301 279.699 344.127 279.51 344.014 279.285C338.58 268.323 332.033 262.726 327.516 259.955C322.646 256.96 319.012 256.559 318.971 256.559C318.611 256.522 318.28 256.343 318.052 256.063C317.823 255.782 317.715 255.422 317.752 255.061C317.789 254.701 317.968 254.37 318.249 254.142C318.529 253.913 318.89 253.805 319.25 253.842C319.929 253.91 335.306 255.724 346.418 278.083C346.579 278.406 346.604 278.779 346.489 279.12C346.375 279.461 346.129 279.743 345.807 279.903C345.627 279.99 345.43 280.035 345.23 280.032V280.032Z" fill="#2A2E32"/>
<path d="M236.019 303.479C235.659 303.497 235.306 303.372 235.038 303.131C234.77 302.89 234.609 302.552 234.59 302.191C234.571 301.831 234.696 301.478 234.937 301.21C235.179 300.942 235.517 300.781 235.877 300.762L289.453 295.056C289.813 295.018 290.174 295.125 290.455 295.353C290.737 295.581 290.916 295.912 290.954 296.272C290.992 296.632 290.885 296.993 290.657 297.274C290.429 297.556 290.099 297.735 289.738 297.773L236.162 303.479H236.019Z" fill="white"/>
<path d="M238.043 317.742C237.865 317.752 237.687 317.726 237.518 317.666C237.35 317.606 237.195 317.514 237.062 317.395C236.929 317.275 236.821 317.131 236.744 316.97C236.667 316.808 236.623 316.633 236.614 316.455C236.604 316.277 236.63 316.098 236.69 315.93C236.749 315.761 236.842 315.606 236.961 315.474C237.081 315.341 237.225 315.233 237.386 315.156C237.548 315.079 237.722 315.035 237.901 315.025L291.477 309.32C291.655 309.301 291.836 309.318 292.008 309.369C292.18 309.42 292.34 309.504 292.479 309.617C292.619 309.73 292.735 309.869 292.82 310.027C292.906 310.184 292.959 310.357 292.978 310.536C292.997 310.714 292.98 310.894 292.929 311.066C292.878 311.238 292.794 311.399 292.681 311.538C292.568 311.677 292.429 311.793 292.271 311.879C292.114 311.964 291.941 312.018 291.762 312.037L238.186 317.742H238.043Z" fill="white"/>
<path d="M23.3513 124.561C30.4823 124.561 36.2631 118.78 36.2631 111.649C36.2631 104.518 30.4823 98.7373 23.3513 98.7373C16.2203 98.7373 10.4395 104.518 10.4395 111.649C10.4395 118.78 16.2203 124.561 23.3513 124.561Z" fill="#636466"/>
<path d="M37.8255 209.326C50.7146 209.326 61.1632 198.878 61.1632 185.989C61.1632 173.1 50.7146 162.651 37.8255 162.651C24.9364 162.651 14.4878 173.1 14.4878 185.989C14.4878 198.878 24.9364 209.326 37.8255 209.326Z" fill="#C20004"/>
<path d="M31.8619 165.103C31.2623 165.104 30.6703 164.969 30.13 164.709C29.5951 164.452 29.1228 164.081 28.7462 163.622C28.3696 163.164 28.0978 162.628 27.9497 162.053L19.6973 129.254C19.5096 128.512 19.5371 127.731 19.7765 127.004C20.0159 126.277 20.4573 125.633 21.0492 125.147C21.6411 124.661 22.3591 124.354 23.1191 124.261C23.8792 124.168 24.65 124.293 25.3415 124.622L64.2875 143.124C64.9804 143.45 65.5662 143.966 65.9765 144.612C66.3868 145.259 66.6047 146.009 66.6047 146.775C66.6047 147.54 66.3868 148.29 65.9765 148.937C65.5662 149.583 64.9804 150.099 64.2875 150.425L33.6211 164.689C33.0737 164.958 32.4721 165.1 31.8619 165.103V165.103ZM23.5756 126.938C23.2707 126.943 22.9764 127.051 22.7401 127.244C22.5431 127.403 22.3965 127.616 22.3181 127.858C22.2398 128.099 22.233 128.357 22.2986 128.602L30.5646 161.388C30.6113 161.576 30.6993 161.752 30.8223 161.902C30.9452 162.053 31.1 162.174 31.2755 162.257C31.451 162.34 31.6428 162.383 31.837 162.383C32.0312 162.383 32.223 162.34 32.3985 162.257V162.257L63.0649 147.994C63.2907 147.886 63.4814 147.717 63.6148 147.505C63.7483 147.293 63.8191 147.048 63.8191 146.798C63.8191 146.548 63.7483 146.303 63.6148 146.092C63.4814 145.88 63.2907 145.711 63.0649 145.603L24.1189 127.101C23.9513 127.009 23.7661 126.954 23.5756 126.938Z" fill="#2A2E32"/>
<path d="M167.011 210.685H1.35842C0.998147 210.685 0.652626 210.542 0.397872 210.287C0.143118 210.032 0 209.687 0 209.327C0 208.966 0.143118 208.621 0.397872 208.366C0.652626 208.111 0.998147 207.968 1.35842 207.968H167.011C167.372 207.968 167.717 208.111 167.972 208.366C168.227 208.621 168.37 208.966 168.37 209.327C168.37 209.687 168.227 210.032 167.972 210.287C167.717 210.542 167.372 210.685 167.011 210.685Z" fill="#2A2E32"/>
<path d="M72.9404 207.941H156.579C153.59 199.225 147.952 191.661 140.455 186.306C132.957 180.951 123.973 178.072 114.76 178.072C105.546 178.072 96.5622 180.951 89.0644 186.306C81.5666 191.661 75.9294 199.225 72.9404 207.941V207.941Z" fill="#B3B3B3"/>
<path d="M127.386 195.729C122.868 195.729 118.452 194.389 114.696 191.879C110.939 189.369 108.012 185.802 106.283 181.628C104.554 177.454 104.101 172.861 104.983 168.431C105.864 164 108.04 159.93 111.234 156.735C114.429 153.541 118.499 151.365 122.93 150.484C127.361 149.602 131.953 150.055 136.127 151.784C140.301 153.513 143.868 156.44 146.378 160.197C148.888 163.953 150.228 168.369 150.228 172.887C150.221 178.943 147.812 184.748 143.53 189.031C139.247 193.313 133.442 195.722 127.386 195.729V195.729ZM127.386 153.339C123.52 153.339 119.74 154.486 116.526 156.633C113.311 158.781 110.806 161.834 109.326 165.406C107.847 168.978 107.459 172.909 108.214 176.7C108.968 180.492 110.83 183.975 113.564 186.709C116.297 189.443 119.78 191.305 123.572 192.059C127.364 192.813 131.295 192.426 134.866 190.947C138.438 189.467 141.491 186.962 143.639 183.747C145.787 180.532 146.934 176.753 146.934 172.887C146.926 167.705 144.865 162.737 141.2 159.072C137.536 155.408 132.568 153.346 127.386 153.339V153.339Z" fill="#2A2E32"/>
<path d="M89.0783 234.308C86.79 234.288 84.5113 234.007 82.2862 233.473C74.3326 231.612 65.9851 226.83 58.8602 220.004C51.7353 213.178 46.5461 205.061 44.3251 197.23C42.0157 189.079 43.1296 182.07 47.4562 177.533C56.1501 168.425 75.4194 172.649 90.4028 186.96C97.5549 193.786 102.717 201.903 104.945 209.734C107.254 217.885 106.14 224.894 101.814 229.431C98.7028 232.651 94.315 234.308 89.0783 234.308ZM60.1914 175.896C55.9532 175.896 52.3194 177.152 49.7995 179.795C46.3084 183.449 45.4797 189.304 47.4562 196.313C49.4939 203.615 54.3706 211.181 61.1016 217.606C67.8326 224.032 75.6096 228.521 82.9994 230.246C90.0836 231.897 95.9044 230.797 99.3956 227.136C102.887 223.475 103.722 217.627 101.739 210.617C99.7012 203.316 94.8312 195.756 88.1003 189.324C79.0532 180.712 68.471 175.916 60.1914 175.916V175.896Z" fill="#2A2E32"/>
<path d="M76.907 367.705C76.5999 367.703 76.3025 367.598 76.0632 367.405C75.8239 367.213 75.6569 366.945 75.5893 366.646C71.9691 350.874 76.3297 332.556 80.6291 319.977C83.4092 311.813 86.8412 303.886 90.892 296.272C90.9755 296.111 91.0908 295.967 91.2309 295.851C91.371 295.734 91.5331 295.647 91.7075 295.595C91.882 295.542 92.0651 295.525 92.2462 295.545C92.4273 295.565 92.6026 295.621 92.7616 295.71C92.9206 295.799 93.0602 295.918 93.1719 296.062C93.2836 296.206 93.3653 296.371 93.412 296.547C93.4587 296.723 93.4696 296.907 93.4439 297.087C93.4182 297.268 93.3565 297.441 93.2624 297.597C89.2872 305.083 85.9188 312.876 83.1897 320.901C79.0125 333.126 74.7607 350.901 78.2314 366.041C78.3107 366.391 78.248 366.759 78.0571 367.063C77.8662 367.367 77.5625 367.583 77.2126 367.664C77.113 367.691 77.0102 367.705 76.907 367.705V367.705Z" fill="#2A2E32"/>
<path d="M79.8144 366.136C79.7489 366.143 79.6829 366.143 79.6174 366.136C79.4408 366.11 79.2709 366.05 79.1176 365.959C78.9643 365.867 78.8305 365.746 78.7239 365.603C78.6173 365.46 78.5399 365.297 78.4963 365.124C78.4527 364.951 78.4436 364.771 78.4695 364.594C80.0493 353.597 85.318 343.461 93.4122 335.85C93.6752 335.603 94.0255 335.471 94.3859 335.483C94.7464 335.494 95.0876 335.648 95.3344 335.911C95.5811 336.174 95.7134 336.525 95.7019 336.885C95.6904 337.246 95.5362 337.587 95.2732 337.833C87.6101 345.021 82.6207 354.602 81.1253 365.002C81.0731 365.314 80.9136 365.598 80.6743 365.805C80.4349 366.012 80.1308 366.129 79.8144 366.136V366.136Z" fill="#2A2E32"/>
<path d="M77.2466 382.648C76.9044 382.649 76.5744 382.521 76.3226 382.289C76.0707 382.057 75.9156 381.739 75.8882 381.398C74.5936 365.589 71.8656 349.93 67.7377 334.614C63.8246 320.183 58.6847 306.112 52.3739 292.557C52.2879 292.394 52.2358 292.216 52.2208 292.032C52.2058 291.849 52.2283 291.664 52.2869 291.49C52.3454 291.315 52.4389 291.154 52.5615 291.017C52.6841 290.88 52.8333 290.769 53.0001 290.691C53.1669 290.613 53.3478 290.57 53.5317 290.564C53.7157 290.558 53.899 290.59 54.0704 290.657C54.2417 290.724 54.3977 290.826 54.5287 290.955C54.6598 291.084 54.7632 291.239 54.8327 291.409C61.2107 305.104 66.4052 319.32 70.3594 333.901C74.5407 349.377 77.3052 365.203 78.6187 381.181C78.6468 381.539 78.5318 381.894 78.2989 382.167C78.0659 382.441 77.7339 382.611 77.3757 382.641L77.2466 382.648Z" fill="#2A2E32"/>
<path d="M49.0049 336.183C54.5972 341.45 59.7471 347.168 64.4026 353.279C67.6051 357.479 70.5689 361.855 73.2799 366.388" fill="white"/>
<path d="M73.2798 367.746C73.0427 367.744 72.8102 367.681 72.6052 367.562C72.4003 367.443 72.2301 367.272 72.1116 367.067C65.5131 356.033 57.4244 345.963 48.0742 337.14C47.9445 337.018 47.8401 336.871 47.7672 336.708C47.6942 336.545 47.654 336.369 47.649 336.191C47.6439 336.012 47.6741 335.834 47.7377 335.668C47.8014 335.501 47.8973 335.348 48.0199 335.218C48.1425 335.088 48.2896 334.984 48.4525 334.911C48.6155 334.838 48.7913 334.798 48.9697 334.793C49.1482 334.788 49.326 334.818 49.4928 334.882C49.6596 334.945 49.8123 335.041 49.9421 335.164C59.4794 344.15 67.7243 354.416 74.4413 365.667C74.5599 365.873 74.6226 366.106 74.6233 366.343C74.624 366.58 74.5625 366.813 74.445 367.019C74.3276 367.225 74.1582 367.397 73.9538 367.517C73.7493 367.638 73.517 367.702 73.2798 367.705V367.746Z" fill="#2A2E32"/>
<path d="M108.525 288.149H103.858C103.77 287.911 103.668 287.674 103.56 287.47L106.956 284.448C107.339 284.144 107.656 283.766 107.889 283.336C108.121 282.906 108.263 282.433 108.307 281.946C108.351 281.459 108.295 280.969 108.143 280.504C107.99 280.039 107.745 279.611 107.422 279.244C107.099 278.877 106.704 278.58 106.262 278.371C105.821 278.162 105.341 278.045 104.852 278.027C104.364 278.01 103.877 278.091 103.421 278.268C102.965 278.445 102.55 278.712 102.201 279.055L98.6081 282.233C98.547 282.288 98.5062 282.349 98.4519 282.403C98.2277 282.294 97.9968 282.206 97.7727 282.118V277.757C97.7324 276.829 97.3351 275.952 96.6638 275.309C95.9925 274.666 95.0989 274.307 94.1694 274.307C93.24 274.307 92.3465 274.666 91.6751 275.309C91.0038 275.952 90.6066 276.829 90.5662 277.757V282.125C90.235 282.245 89.9108 282.383 89.595 282.539C89.491 282.417 89.3799 282.301 89.2622 282.193L85.5808 279.021C85.229 278.681 84.8116 278.416 84.3541 278.242C83.8965 278.069 83.4084 277.991 82.9196 278.012C82.4308 278.034 81.9515 278.155 81.5111 278.368C81.0706 278.581 80.6782 278.882 80.3579 279.252C80.0375 279.622 79.7959 280.053 79.6478 280.519C79.4997 280.986 79.4482 281.477 79.4965 281.964C79.5448 282.451 79.6919 282.923 79.9287 283.351C80.1655 283.779 80.4871 284.155 80.8739 284.454L84.5144 287.592C84.545 287.616 84.5767 287.639 84.6095 287.66C84.5416 287.816 84.4873 287.973 84.4261 288.129H79.9094C79.4367 288.129 78.9686 288.222 78.5318 288.403C78.0951 288.584 77.6982 288.849 77.3639 289.183C77.0297 289.517 76.7645 289.914 76.5836 290.351C76.4027 290.788 76.3096 291.256 76.3096 291.729V291.729C76.3087 292.202 76.4011 292.671 76.5816 293.108C76.7621 293.546 77.0272 293.944 77.3615 294.279C77.6959 294.613 78.093 294.879 78.5302 295.061C78.9674 295.242 79.4361 295.335 79.9094 295.335H84.3854C84.4194 295.437 84.4533 295.539 84.4941 295.634H84.4601L80.8603 298.82C80.477 299.123 80.1595 299.501 79.9271 299.931C79.6948 300.361 79.5524 300.834 79.5088 301.321C79.4652 301.808 79.5211 302.299 79.6733 302.763C79.8255 303.228 80.0707 303.656 80.394 304.023C80.7172 304.39 81.1118 304.687 81.5536 304.896C81.9954 305.105 82.4751 305.222 82.9636 305.24C83.4521 305.258 83.9391 305.176 84.3949 304.999C84.8507 304.822 85.2658 304.555 85.6148 304.213L89.2146 301.034L89.2893 300.952C89.6826 301.157 90.0887 301.336 90.5051 301.489V305.809C90.5454 306.737 90.9427 307.614 91.614 308.257C92.2853 308.9 93.1789 309.259 94.1083 309.259C95.0378 309.259 95.9313 308.9 96.6026 308.257C97.274 307.614 97.6712 306.737 97.7115 305.809V301.489C97.9628 301.394 98.2074 301.292 98.4519 301.183L101.977 304.219C102.705 304.783 103.621 305.047 104.537 304.956C105.453 304.865 106.3 304.427 106.903 303.731C107.506 303.035 107.819 302.134 107.778 301.215C107.737 300.295 107.346 299.426 106.684 298.786L103.546 296.069C103.662 295.823 103.764 295.572 103.852 295.315H108.477C108.95 295.315 109.419 295.222 109.856 295.04C110.293 294.859 110.691 294.593 111.025 294.258C111.359 293.923 111.624 293.526 111.805 293.088C111.985 292.65 112.078 292.182 112.077 291.708V291.708C112.066 290.769 111.689 289.871 111.025 289.206C110.361 288.541 109.464 288.162 108.525 288.149V288.149Z" fill="#B3B3B3"/>
<path d="M108.525 288.149H103.858C103.77 287.911 103.668 287.674 103.56 287.47L106.956 284.448C107.339 284.144 107.656 283.766 107.889 283.336C108.121 282.906 108.263 282.433 108.307 281.946C108.351 281.459 108.295 280.969 108.143 280.504C107.99 280.039 107.745 279.611 107.422 279.244C107.099 278.877 106.704 278.58 106.262 278.371C105.821 278.162 105.341 278.045 104.852 278.027C104.364 278.01 103.877 278.091 103.421 278.268C102.965 278.445 102.55 278.712 102.201 279.055L98.6081 282.233C98.547 282.288 98.5062 282.349 98.4519 282.403C98.2277 282.294 97.9968 282.206 97.7727 282.118V277.757C97.7324 276.829 97.3351 275.952 96.6638 275.309C95.9925 274.666 95.0989 274.307 94.1694 274.307C93.24 274.307 92.3465 274.666 91.6751 275.309C91.0038 275.952 90.6066 276.829 90.5662 277.757V282.125C90.235 282.245 89.9108 282.383 89.595 282.539C89.491 282.417 89.3799 282.301 89.2622 282.193L85.5808 279.021C85.229 278.681 84.8116 278.416 84.3541 278.242C83.8965 278.069 83.4084 277.991 82.9196 278.012C82.4308 278.034 81.9515 278.155 81.5111 278.368C81.0706 278.581 80.6782 278.882 80.3579 279.252C80.0375 279.622 79.7959 280.053 79.6478 280.519C79.4997 280.986 79.4482 281.477 79.4965 281.964C79.5448 282.451 79.6919 282.923 79.9287 283.351C80.1655 283.779 80.4871 284.155 80.8739 284.454L84.5144 287.592C84.545 287.616 84.5767 287.639 84.6095 287.66C84.5416 287.816 84.4873 287.973 84.4261 288.129H79.9094C79.4367 288.129 78.9686 288.222 78.5318 288.403C78.0951 288.584 77.6982 288.849 77.3639 289.183C77.0297 289.517 76.7645 289.914 76.5836 290.351C76.4027 290.788 76.3096 291.256 76.3096 291.729V291.729C76.3087 292.202 76.4011 292.671 76.5816 293.108C76.7621 293.546 77.0272 293.944 77.3615 294.279C77.6959 294.613 78.093 294.879 78.5302 295.061C78.9674 295.242 79.4361 295.335 79.9094 295.335H84.3854C84.4194 295.437 84.4533 295.539 84.4941 295.634H84.4601L80.8603 298.82C80.477 299.123 80.1595 299.501 79.9271 299.931C79.6948 300.361 79.5524 300.834 79.5088 301.321C79.4652 301.808 79.5211 302.299 79.6733 302.763C79.8255 303.228 80.0707 303.656 80.394 304.023C80.7172 304.39 81.1118 304.687 81.5536 304.896C81.9954 305.105 82.4751 305.222 82.9636 305.24C83.4521 305.258 83.9391 305.176 84.3949 304.999C84.8507 304.822 85.2658 304.555 85.6148 304.213L89.2146 301.034L89.2893 300.952C89.6826 301.157 90.0887 301.336 90.5051 301.489V305.809C90.5454 306.737 90.9427 307.614 91.614 308.257C92.2853 308.9 93.1789 309.259 94.1083 309.259C95.0378 309.259 95.9313 308.9 96.6026 308.257C97.274 307.614 97.6712 306.737 97.7115 305.809V301.489C97.9628 301.394 98.2074 301.292 98.4519 301.183L101.977 304.219C102.705 304.783 103.621 305.047 104.537 304.956C105.453 304.865 106.3 304.427 106.903 303.731C107.506 303.035 107.819 302.134 107.778 301.215C107.737 300.295 107.346 299.426 106.684 298.786L103.546 296.069C103.662 295.823 103.764 295.572 103.852 295.315H108.477C108.95 295.315 109.419 295.222 109.856 295.04C110.293 294.859 110.691 294.593 111.025 294.258C111.359 293.923 111.624 293.526 111.805 293.088C111.985 292.65 112.078 292.182 112.077 291.708V291.708C112.066 290.769 111.689 289.871 111.025 289.206C110.361 288.541 109.464 288.162 108.525 288.149V288.149Z" fill="#B3B3B3"/>
<path d="M108.525 288.149H103.858C103.77 287.911 103.668 287.674 103.56 287.47L106.956 284.448C107.339 284.144 107.656 283.766 107.889 283.336C108.121 282.906 108.263 282.433 108.307 281.946C108.351 281.459 108.295 280.969 108.143 280.504C107.99 280.039 107.745 279.611 107.422 279.244C107.099 278.877 106.704 278.58 106.262 278.371C105.821 278.162 105.341 278.045 104.852 278.027C104.364 278.01 103.877 278.091 103.421 278.268C102.965 278.445 102.55 278.712 102.201 279.055L98.6081 282.233C98.547 282.288 98.5062 282.349 98.4519 282.403C98.2277 282.294 97.9968 282.206 97.7727 282.118V277.757C97.7324 276.829 97.3351 275.952 96.6638 275.309C95.9925 274.666 95.0989 274.307 94.1694 274.307C93.24 274.307 92.3465 274.666 91.6751 275.309C91.0038 275.952 90.6066 276.829 90.5662 277.757V282.125C90.235 282.245 89.9108 282.383 89.595 282.539C89.491 282.417 89.3799 282.301 89.2622 282.193L85.5808 279.021C85.229 278.681 84.8116 278.416 84.3541 278.242C83.8965 278.069 83.4084 277.991 82.9196 278.012C82.4308 278.034 81.9515 278.155 81.5111 278.368C81.0706 278.581 80.6782 278.882 80.3579 279.252C80.0375 279.622 79.7959 280.053 79.6478 280.519C79.4997 280.986 79.4482 281.477 79.4965 281.964C79.5448 282.451 79.6919 282.923 79.9287 283.351C80.1655 283.779 80.4871 284.155 80.8739 284.454L84.5144 287.592C84.545 287.616 84.5767 287.639 84.6095 287.66C84.5416 287.816 84.4873 287.973 84.4261 288.129H79.9094C79.4367 288.129 78.9686 288.222 78.5318 288.403C78.0951 288.584 77.6982 288.849 77.3639 289.183C77.0297 289.517 76.7645 289.914 76.5836 290.351C76.4027 290.788 76.3096 291.256 76.3096 291.729V291.729C76.3087 292.202 76.4011 292.671 76.5816 293.108C76.7621 293.546 77.0272 293.944 77.3615 294.279C77.6959 294.613 78.093 294.879 78.5302 295.061C78.9674 295.242 79.4361 295.335 79.9094 295.335H84.3854C84.4194 295.437 84.4533 295.539 84.4941 295.634H84.4601L80.8603 298.82C80.477 299.123 80.1595 299.501 79.9271 299.931C79.6948 300.361 79.5524 300.834 79.5088 301.321C79.4652 301.808 79.5211 302.299 79.6733 302.763C79.8255 303.228 80.0707 303.656 80.394 304.023C80.7172 304.39 81.1118 304.687 81.5536 304.896C81.9954 305.105 82.4751 305.222 82.9636 305.24C83.4521 305.258 83.9391 305.176 84.3949 304.999C84.8507 304.822 85.2658 304.555 85.6148 304.213L89.2146 301.034L89.2893 300.952C89.6826 301.157 90.0887 301.336 90.5051 301.489V305.809C90.5454 306.737 90.9427 307.614 91.614 308.257C92.2853 308.9 93.1789 309.259 94.1083 309.259C95.0378 309.259 95.9313 308.9 96.6026 308.257C97.274 307.614 97.6712 306.737 97.7115 305.809V301.489C97.9628 301.394 98.2074 301.292 98.4519 301.183L101.977 304.219C102.705 304.783 103.621 305.047 104.537 304.956C105.453 304.865 106.3 304.427 106.903 303.731C107.506 303.035 107.819 302.134 107.778 301.215C107.737 300.295 107.346 299.426 106.684 298.786L103.546 296.069C103.662 295.823 103.764 295.572 103.852 295.315H108.477C108.95 295.315 109.419 295.222 109.856 295.04C110.293 294.859 110.691 294.593 111.025 294.258C111.359 293.923 111.624 293.526 111.805 293.088C111.985 292.65 112.078 292.182 112.077 291.708V291.708C112.066 290.769 111.689 289.871 111.025 289.206C110.361 288.541 109.464 288.162 108.525 288.149V288.149Z" fill="#B3B3B3"/>
<path d="M108.525 288.149H103.858C103.77 287.911 103.668 287.674 103.56 287.47L106.956 284.448C107.339 284.144 107.656 283.766 107.889 283.336C108.121 282.906 108.263 282.433 108.307 281.946C108.351 281.459 108.295 280.969 108.143 280.504C107.99 280.039 107.745 279.611 107.422 279.244C107.099 278.877 106.704 278.58 106.262 278.371C105.821 278.162 105.341 278.045 104.852 278.027C104.364 278.01 103.877 278.091 103.421 278.268C102.965 278.445 102.55 278.712 102.201 279.055L98.6081 282.233C98.547 282.288 98.5062 282.349 98.4519 282.403C98.2277 282.294 97.9968 282.206 97.7727 282.118V277.757C97.7324 276.829 97.3351 275.952 96.6638 275.309C95.9925 274.666 95.0989 274.307 94.1694 274.307C93.24 274.307 92.3465 274.666 91.6751 275.309C91.0038 275.952 90.6066 276.829 90.5662 277.757V282.125C90.235 282.245 89.9108 282.383 89.595 282.539C89.491 282.417 89.3799 282.301 89.2622 282.193L85.5808 279.021C85.229 278.681 84.8116 278.416 84.3541 278.242C83.8965 278.069 83.4084 277.991 82.9196 278.012C82.4308 278.034 81.9515 278.155 81.5111 278.368C81.0706 278.581 80.6782 278.882 80.3579 279.252C80.0375 279.622 79.7959 280.053 79.6478 280.519C79.4997 280.986 79.4482 281.477 79.4965 281.964C79.5448 282.451 79.6919 282.923 79.9287 283.351C80.1655 283.779 80.4871 284.155 80.8739 284.454L84.5144 287.592C84.545 287.616 84.5767 287.639 84.6095 287.66C84.5416 287.816 84.4873 287.973 84.4261 288.129H79.9094C79.4367 288.129 78.9686 288.222 78.5318 288.403C78.0951 288.584 77.6982 288.849 77.3639 289.183C77.0297 289.517 76.7645 289.914 76.5836 290.351C76.4027 290.788 76.3096 291.256 76.3096 291.729V291.729C76.3087 292.202 76.4011 292.671 76.5816 293.108C76.7621 293.546 77.0272 293.944 77.3615 294.279C77.6959 294.613 78.093 294.879 78.5302 295.061C78.9674 295.242 79.4361 295.335 79.9094 295.335H84.3854C84.4194 295.437 84.4533 295.539 84.4941 295.634H84.4601L80.8603 298.82C80.477 299.123 80.1595 299.501 79.9271 299.931C79.6948 300.361 79.5524 300.834 79.5088 301.321C79.4652 301.808 79.5211 302.299 79.6733 302.763C79.8255 303.228 80.0707 303.656 80.394 304.023C80.7172 304.39 81.1118 304.687 81.5536 304.896C81.9954 305.105 82.4751 305.222 82.9636 305.24C83.4521 305.258 83.9391 305.176 84.3949 304.999C84.8507 304.822 85.2658 304.555 85.6148 304.213L89.2146 301.034L89.2893 300.952C89.6826 301.157 90.0887 301.336 90.5051 301.489V305.809C90.5454 306.737 90.9427 307.614 91.614 308.257C92.2853 308.9 93.1789 309.259 94.1083 309.259C95.0378 309.259 95.9313 308.9 96.6026 308.257C97.274 307.614 97.6712 306.737 97.7115 305.809V301.489C97.9628 301.394 98.2074 301.292 98.4519 301.183L101.977 304.219C102.705 304.783 103.621 305.047 104.537 304.956C105.453 304.865 106.3 304.427 106.903 303.731C107.506 303.035 107.819 302.134 107.778 301.215C107.737 300.295 107.346 299.426 106.684 298.786L103.546 296.069C103.662 295.823 103.764 295.572 103.852 295.315H108.477C108.95 295.315 109.419 295.222 109.856 295.04C110.293 294.859 110.691 294.593 111.025 294.258C111.359 293.923 111.624 293.526 111.805 293.088C111.985 292.65 112.078 292.182 112.077 291.708V291.708C112.066 290.769 111.689 289.871 111.025 289.206C110.361 288.541 109.464 288.162 108.525 288.149V288.149Z" fill="#B3B3B3"/>
<path d="M108.525 288.149H103.858C103.77 287.911 103.668 287.674 103.56 287.47L106.956 284.448C107.339 284.144 107.656 283.766 107.889 283.336C108.121 282.906 108.263 282.433 108.307 281.946C108.351 281.459 108.295 280.969 108.143 280.504C107.99 280.039 107.745 279.611 107.422 279.244C107.099 278.877 106.704 278.58 106.262 278.371C105.821 278.162 105.341 278.045 104.852 278.027C104.364 278.01 103.877 278.091 103.421 278.268C102.965 278.445 102.55 278.712 102.201 279.055L98.6081 282.233C98.547 282.288 98.5062 282.349 98.4519 282.403C98.2277 282.294 97.9968 282.206 97.7727 282.118V277.757C97.7324 276.829 97.3351 275.952 96.6638 275.309C95.9925 274.666 95.0989 274.307 94.1694 274.307C93.24 274.307 92.3465 274.666 91.6751 275.309C91.0038 275.952 90.6066 276.829 90.5662 277.757V282.125C90.235 282.245 89.9108 282.383 89.595 282.539C89.491 282.417 89.3799 282.301 89.2622 282.193L85.5808 279.021C85.229 278.681 84.8116 278.416 84.3541 278.242C83.8965 278.069 83.4084 277.991 82.9196 278.012C82.4308 278.034 81.9515 278.155 81.5111 278.368C81.0706 278.581 80.6782 278.882 80.3579 279.252C80.0375 279.622 79.7959 280.053 79.6478 280.519C79.4997 280.986 79.4482 281.477 79.4965 281.964C79.5448 282.451 79.6919 282.923 79.9287 283.351C80.1655 283.779 80.4871 284.155 80.8739 284.454L84.5144 287.592C84.545 287.616 84.5767 287.639 84.6095 287.66C84.5416 287.816 84.4873 287.973 84.4261 288.129H79.9094C79.4367 288.129 78.9686 288.222 78.5318 288.403C78.0951 288.584 77.6982 288.849 77.3639 289.183C77.0297 289.517 76.7645 289.914 76.5836 290.351C76.4027 290.788 76.3096 291.256 76.3096 291.729V291.729C76.3087 292.202 76.4011 292.671 76.5816 293.108C76.7621 293.546 77.0272 293.944 77.3615 294.279C77.6959 294.613 78.093 294.879 78.5302 295.061C78.9674 295.242 79.4361 295.335 79.9094 295.335H84.3854C84.4194 295.437 84.4533 295.539 84.4941 295.634H84.4601L80.8603 298.82C80.477 299.123 80.1595 299.501 79.9271 299.931C79.6948 300.361 79.5524 300.834 79.5088 301.321C79.4652 301.808 79.5211 302.299 79.6733 302.763C79.8255 303.228 80.0707 303.656 80.394 304.023C80.7172 304.39 81.1118 304.687 81.5536 304.896C81.9954 305.105 82.4751 305.222 82.9636 305.24C83.4521 305.258 83.9391 305.176 84.3949 304.999C84.8507 304.822 85.2658 304.555 85.6148 304.213L89.2146 301.034L89.2893 300.952C89.6826 301.157 90.0887 301.336 90.5051 301.489V305.809C90.5454 306.737 90.9427 307.614 91.614 308.257C92.2853 308.9 93.1789 309.259 94.1083 309.259C95.0378 309.259 95.9313 308.9 96.6026 308.257C97.274 307.614 97.6712 306.737 97.7115 305.809V301.489C97.9628 301.394 98.2074 301.292 98.4519 301.183L101.977 304.219C102.705 304.783 103.621 305.047 104.537 304.956C105.453 304.865 106.3 304.427 106.903 303.731C107.506 303.035 107.819 302.134 107.778 301.215C107.737 300.295 107.346 299.426 106.684 298.786L103.546 296.069C103.662 295.823 103.764 295.572 103.852 295.315H108.477C108.95 295.315 109.419 295.222 109.856 295.04C110.293 294.859 110.691 294.593 111.025 294.258C111.359 293.923 111.624 293.526 111.805 293.088C111.985 292.65 112.078 292.182 112.077 291.708V291.708C112.066 290.769 111.689 289.871 111.025 289.206C110.361 288.541 109.464 288.162 108.525 288.149V288.149Z" fill="#B3B3B3"/>
<path d="M108.525 288.149H103.858C103.77 287.911 103.668 287.674 103.56 287.47L106.956 284.448C107.339 284.144 107.656 283.766 107.889 283.336C108.121 282.906 108.263 282.433 108.307 281.946C108.351 281.459 108.295 280.969 108.143 280.504C107.99 280.039 107.745 279.611 107.422 279.244C107.099 278.877 106.704 278.58 106.262 278.371C105.821 278.162 105.341 278.045 104.852 278.027C104.364 278.01 103.877 278.091 103.421 278.268C102.965 278.445 102.55 278.712 102.201 279.055L98.6081 282.233C98.547 282.288 98.5062 282.349 98.4519 282.403C98.2277 282.294 97.9968 282.206 97.7727 282.118V277.757C97.7324 276.829 97.3351 275.952 96.6638 275.309C95.9925 274.666 95.0989 274.307 94.1694 274.307C93.24 274.307 92.3465 274.666 91.6751 275.309C91.0038 275.952 90.6066 276.829 90.5662 277.757V282.125C90.235 282.245 89.9108 282.383 89.595 282.539C89.491 282.417 89.3799 282.301 89.2622 282.193L85.5808 279.021C85.229 278.681 84.8116 278.416 84.3541 278.242C83.8965 278.069 83.4084 277.991 82.9196 278.012C82.4308 278.034 81.9515 278.155 81.5111 278.368C81.0706 278.581 80.6782 278.882 80.3579 279.252C80.0375 279.622 79.7959 280.053 79.6478 280.519C79.4997 280.986 79.4482 281.477 79.4965 281.964C79.5448 282.451 79.6919 282.923 79.9287 283.351C80.1655 283.779 80.4871 284.155 80.8739 284.454L84.5144 287.592C84.545 287.616 84.5767 287.639 84.6095 287.66C84.5416 287.816 84.4873 287.973 84.4261 288.129H79.9094C79.4367 288.129 78.9686 288.222 78.5318 288.403C78.0951 288.584 77.6982 288.849 77.3639 289.183C77.0297 289.517 76.7645 289.914 76.5836 290.351C76.4027 290.788 76.3096 291.256 76.3096 291.729V291.729C76.3087 292.202 76.4011 292.671 76.5816 293.108C76.7621 293.546 77.0272 293.944 77.3615 294.279C77.6959 294.613 78.093 294.879 78.5302 295.061C78.9674 295.242 79.4361 295.335 79.9094 295.335H84.3854C84.4194 295.437 84.4533 295.539 84.4941 295.634H84.4601L80.8603 298.82C80.477 299.123 80.1595 299.501 79.9271 299.931C79.6948 300.361 79.5524 300.834 79.5088 301.321C79.4652 301.808 79.5211 302.299 79.6733 302.763C79.8255 303.228 80.0707 303.656 80.394 304.023C80.7172 304.39 81.1118 304.687 81.5536 304.896C81.9954 305.105 82.4751 305.222 82.9636 305.24C83.4521 305.258 83.9391 305.176 84.3949 304.999C84.8507 304.822 85.2658 304.555 85.6148 304.213L89.2146 301.034L89.2893 300.952C89.6826 301.157 90.0887 301.336 90.5051 301.489V305.809C90.5454 306.737 90.9427 307.614 91.614 308.257C92.2853 308.9 93.1789 309.259 94.1083 309.259C95.0378 309.259 95.9313 308.9 96.6026 308.257C97.274 307.614 97.6712 306.737 97.7115 305.809V301.489C97.9628 301.394 98.2074 301.292 98.4519 301.183L101.977 304.219C102.705 304.783 103.621 305.047 104.537 304.956C105.453 304.865 106.3 304.427 106.903 303.731C107.506 303.035 107.819 302.134 107.778 301.215C107.737 300.295 107.346 299.426 106.684 298.786L103.546 296.069C103.662 295.823 103.764 295.572 103.852 295.315H108.477C108.95 295.315 109.419 295.222 109.856 295.04C110.293 294.859 110.691 294.593 111.025 294.258C111.359 293.923 111.624 293.526 111.805 293.088C111.985 292.65 112.078 292.182 112.077 291.708V291.708C112.066 290.769 111.689 289.871 111.025 289.206C110.361 288.541 109.464 288.162 108.525 288.149V288.149Z" fill="#B3B3B3"/>
<path d="M108.525 288.149H103.858C103.77 287.911 103.668 287.674 103.56 287.47L106.956 284.448C107.339 284.144 107.656 283.766 107.889 283.336C108.121 282.906 108.263 282.433 108.307 281.946C108.351 281.459 108.295 280.969 108.143 280.504C107.99 280.039 107.745 279.611 107.422 279.244C107.099 278.877 106.704 278.58 106.262 278.371C105.821 278.162 105.341 278.045 104.852 278.027C104.364 278.01 103.877 278.091 103.421 278.268C102.965 278.445 102.55 278.712 102.201 279.055L98.6081 282.233C98.547 282.288 98.5062 282.349 98.4519 282.403C98.2277 282.294 97.9968 282.206 97.7727 282.118V277.757C97.7324 276.829 97.3351 275.952 96.6638 275.309C95.9925 274.666 95.0989 274.307 94.1694 274.307C93.24 274.307 92.3465 274.666 91.6751 275.309C91.0038 275.952 90.6066 276.829 90.5662 277.757V282.125C90.235 282.245 89.9108 282.383 89.595 282.539C89.491 282.417 89.3799 282.301 89.2622 282.193L85.5808 279.021C85.229 278.681 84.8116 278.416 84.3541 278.242C83.8965 278.069 83.4084 277.991 82.9196 278.012C82.4308 278.034 81.9515 278.155 81.5111 278.368C81.0706 278.581 80.6782 278.882 80.3579 279.252C80.0375 279.622 79.7959 280.053 79.6478 280.519C79.4997 280.986 79.4482 281.477 79.4965 281.964C79.5448 282.451 79.6919 282.923 79.9287 283.351C80.1655 283.779 80.4871 284.155 80.8739 284.454L84.5144 287.592C84.545 287.616 84.5767 287.639 84.6095 287.66C84.5416 287.816 84.4873 287.973 84.4261 288.129H79.9094C79.4367 288.129 78.9686 288.222 78.5318 288.403C78.0951 288.584 77.6982 288.849 77.3639 289.183C77.0297 289.517 76.7645 289.914 76.5836 290.351C76.4027 290.788 76.3096 291.256 76.3096 291.729V291.729C76.3087 292.202 76.4011 292.671 76.5816 293.108C76.7621 293.546 77.0272 293.944 77.3615 294.279C77.6959 294.613 78.093 294.879 78.5302 295.061C78.9674 295.242 79.4361 295.335 79.9094 295.335H84.3854C84.4194 295.437 84.4533 295.539 84.4941 295.634H84.4601L80.8603 298.82C80.477 299.123 80.1595 299.501 79.9271 299.931C79.6948 300.361 79.5524 300.834 79.5088 301.321C79.4652 301.808 79.5211 302.299 79.6733 302.763C79.8255 303.228 80.0707 303.656 80.394 304.023C80.7172 304.39 81.1118 304.687 81.5536 304.896C81.9954 305.105 82.4751 305.222 82.9636 305.24C83.4521 305.258 83.9391 305.176 84.3949 304.999C84.8507 304.822 85.2658 304.555 85.6148 304.213L89.2146 301.034L89.2893 300.952C89.6826 301.157 90.0887 301.336 90.5051 301.489V305.809C90.5454 306.737 90.9427 307.614 91.614 308.257C92.2853 308.9 93.1789 309.259 94.1083 309.259C95.0378 309.259 95.9313 308.9 96.6026 308.257C97.274 307.614 97.6712 306.737 97.7115 305.809V301.489C97.9628 301.394 98.2074 301.292 98.4519 301.183L101.977 304.219C102.705 304.783 103.621 305.047 104.537 304.956C105.453 304.865 106.3 304.427 106.903 303.731C107.506 303.035 107.819 302.134 107.778 301.215C107.737 300.295 107.346 299.426 106.684 298.786L103.546 296.069C103.662 295.823 103.764 295.572 103.852 295.315H108.477C108.95 295.315 109.419 295.222 109.856 295.04C110.293 294.859 110.691 294.593 111.025 294.258C111.359 293.923 111.624 293.526 111.805 293.088C111.985 292.65 112.078 292.182 112.077 291.708V291.708C112.066 290.769 111.689 289.871 111.025 289.206C110.361 288.541 109.464 288.162 108.525 288.149V288.149Z" fill="#B3B3B3"/>
<path d="M60.0419 327.74L55.9123 329.907C55.7222 329.739 55.5252 329.576 55.3214 329.418L56.9447 325.152C57.1124 324.71 57.1913 324.239 57.177 323.766C57.1626 323.293 57.0552 322.827 56.8609 322.396C56.6667 321.965 56.3894 321.576 56.0448 321.251C55.7002 320.927 55.2952 320.674 54.8528 320.506C54.4104 320.339 53.9393 320.26 53.4664 320.274C52.9934 320.289 52.528 320.396 52.0966 320.59C51.6652 320.784 51.2763 321.062 50.9521 321.406C50.6278 321.751 50.3746 322.156 50.207 322.598L48.5021 327.088C48.4778 327.159 48.4574 327.232 48.441 327.305C48.1897 327.305 47.9452 327.346 47.6939 327.373L45.6562 323.522C45.1947 322.708 44.4344 322.104 43.5363 321.84C42.6381 321.576 41.6724 321.671 40.8433 322.106C40.0142 322.541 39.3867 323.281 39.0934 324.17C38.8001 325.059 38.864 326.028 39.2717 326.871L41.3093 330.728C41.0682 330.99 40.8415 331.264 40.6301 331.55C40.4836 331.484 40.3312 331.432 40.175 331.394L35.4952 330.307C35.0345 330.2 34.5573 330.185 34.0907 330.263C33.6241 330.34 33.1773 330.508 32.7759 330.759C32.3744 331.009 32.0262 331.335 31.751 331.72C31.4758 332.105 31.2791 332.54 31.172 333C31.065 333.461 31.0498 333.938 31.1272 334.405C31.2046 334.872 31.3731 335.318 31.6232 335.72C31.8733 336.121 32.2 336.469 32.5847 336.745C32.9693 337.02 33.4044 337.217 33.8651 337.324L38.5449 338.41C38.5833 338.414 38.6219 338.414 38.6604 338.41C38.6604 338.58 38.6943 338.75 38.7147 338.913L34.7209 341.012C33.8761 341.457 33.2423 342.219 32.9584 343.13C32.6744 344.042 32.7636 345.029 33.2063 345.875V345.875C33.4253 346.294 33.725 346.667 34.0883 346.97C34.4516 347.273 34.8712 347.502 35.3231 347.643C35.775 347.784 36.2502 347.834 36.7215 347.79C37.1928 347.747 37.6509 347.611 38.0694 347.39L42.0293 345.311L42.267 345.529V345.569L40.5554 350.045C40.2576 350.929 40.3139 351.894 40.7123 352.737C41.1106 353.58 41.8202 354.237 42.692 354.568C43.5638 354.899 44.5301 354.88 45.388 354.514C46.2459 354.148 46.9287 353.464 47.2931 352.606L48.998 348.11C48.998 348.076 48.998 348.042 48.998 348.008C49.4522 348.006 49.9058 347.977 50.3564 347.919L52.394 351.737C52.8556 352.551 53.6158 353.154 54.514 353.418C55.4121 353.683 56.3778 353.587 57.2069 353.152C58.036 352.717 58.6636 351.977 58.9569 351.088C59.2501 350.199 59.1862 349.231 58.7786 348.388L56.741 344.564C56.9176 344.367 57.0942 344.163 57.2572 343.953L61.7875 345.006C62.7065 345.189 63.6609 345.007 64.4484 344.499C65.2359 343.992 65.7948 343.197 66.0067 342.284C66.2186 341.371 66.0668 340.412 65.5836 339.609C65.1003 338.806 64.3235 338.223 63.4176 337.982L59.3831 337.045C59.3831 336.78 59.3424 336.509 59.3084 336.237L63.3837 334.091C64.2285 333.646 64.8623 332.884 65.1462 331.972C65.4302 331.06 65.341 330.073 64.8983 329.227V329.227C64.4513 328.386 63.6886 327.757 62.778 327.479C61.8674 327.2 60.8833 327.294 60.0419 327.74V327.74Z" fill="#B3B3B3"/>
<path d="M60.0419 327.74L55.9123 329.907C55.7222 329.739 55.5252 329.576 55.3214 329.418L56.9447 325.152C57.1124 324.71 57.1913 324.239 57.177 323.766C57.1626 323.293 57.0552 322.827 56.8609 322.396C56.6667 321.965 56.3894 321.576 56.0448 321.251C55.7002 320.927 55.2952 320.674 54.8528 320.506C54.4104 320.339 53.9393 320.26 53.4664 320.274C52.9934 320.289 52.528 320.396 52.0966 320.59C51.6652 320.784 51.2763 321.062 50.9521 321.406C50.6278 321.751 50.3746 322.156 50.207 322.598L48.5021 327.088C48.4778 327.159 48.4574 327.232 48.441 327.305C48.1897 327.305 47.9452 327.346 47.6939 327.373L45.6562 323.522C45.1947 322.708 44.4344 322.104 43.5363 321.84C42.6381 321.576 41.6724 321.671 40.8433 322.106C40.0142 322.541 39.3867 323.281 39.0934 324.17C38.8001 325.059 38.864 326.028 39.2717 326.871L41.3093 330.728C41.0682 330.99 40.8415 331.264 40.6301 331.55C40.4836 331.484 40.3312 331.432 40.175 331.394L35.4952 330.307C35.0345 330.2 34.5573 330.185 34.0907 330.263C33.6241 330.34 33.1773 330.508 32.7759 330.759C32.3744 331.009 32.0262 331.335 31.751 331.72C31.4758 332.105 31.2791 332.54 31.172 333C31.065 333.461 31.0498 333.938 31.1272 334.405C31.2046 334.872 31.3731 335.318 31.6232 335.72C31.8733 336.121 32.2 336.469 32.5847 336.745C32.9693 337.02 33.4044 337.217 33.8651 337.324L38.5449 338.41C38.5833 338.414 38.6219 338.414 38.6604 338.41C38.6604 338.58 38.6943 338.75 38.7147 338.913L34.7209 341.012C33.8761 341.457 33.2423 342.219 32.9584 343.13C32.6744 344.042 32.7636 345.029 33.2063 345.875V345.875C33.4253 346.294 33.725 346.667 34.0883 346.97C34.4516 347.273 34.8712 347.502 35.3231 347.643C35.775 347.784 36.2502 347.834 36.7215 347.79C37.1928 347.747 37.6509 347.611 38.0694 347.39L42.0293 345.311L42.267 345.529V345.569L40.5554 350.045C40.2576 350.929 40.3139 351.894 40.7123 352.737C41.1106 353.58 41.8202 354.237 42.692 354.568C43.5638 354.899 44.5301 354.88 45.388 354.514C46.2459 354.148 46.9287 353.464 47.2931 352.606L48.998 348.11C48.998 348.076 48.998 348.042 48.998 348.008C49.4522 348.006 49.9058 347.977 50.3564 347.919L52.394 351.737C52.8556 352.551 53.6158 353.154 54.514 353.418C55.4121 353.683 56.3778 353.587 57.2069 353.152C58.036 352.717 58.6636 351.977 58.9569 351.088C59.2501 350.199 59.1862 349.231 58.7786 348.388L56.741 344.564C56.9176 344.367 57.0942 344.163 57.2572 343.953L61.7875 345.006C62.7065 345.189 63.6609 345.007 64.4484 344.499C65.2359 343.992 65.7948 343.197 66.0067 342.284C66.2186 341.371 66.0668 340.412 65.5836 339.609C65.1003 338.806 64.3235 338.223 63.4176 337.982L59.3831 337.045C59.3831 336.78 59.3424 336.509 59.3084 336.237L63.3837 334.091C64.2285 333.646 64.8623 332.884 65.1462 331.972C65.4302 331.06 65.341 330.073 64.8983 329.227V329.227C64.4513 328.386 63.6886 327.757 62.778 327.479C61.8674 327.2 60.8833 327.294 60.0419 327.74V327.74Z" fill="#B3B3B3"/>
<path d="M60.0419 327.74L55.9123 329.907C55.7222 329.739 55.5252 329.576 55.3214 329.418L56.9447 325.152C57.1124 324.71 57.1913 324.239 57.177 323.766C57.1626 323.293 57.0552 322.827 56.8609 322.396C56.6667 321.965 56.3894 321.576 56.0448 321.251C55.7002 320.927 55.2952 320.674 54.8528 320.506C54.4104 320.339 53.9393 320.26 53.4664 320.274C52.9934 320.289 52.528 320.396 52.0966 320.59C51.6652 320.784 51.2763 321.062 50.9521 321.406C50.6278 321.751 50.3746 322.156 50.207 322.598L48.5021 327.088C48.4778 327.159 48.4574 327.232 48.441 327.305C48.1897 327.305 47.9452 327.346 47.6939 327.373L45.6562 323.522C45.1947 322.708 44.4344 322.104 43.5363 321.84C42.6381 321.576 41.6724 321.671 40.8433 322.106C40.0142 322.541 39.3867 323.281 39.0934 324.17C38.8001 325.059 38.864 326.028 39.2717 326.871L41.3093 330.728C41.0682 330.99 40.8415 331.264 40.6301 331.55C40.4836 331.484 40.3312 331.432 40.175 331.394L35.4952 330.307C35.0345 330.2 34.5573 330.185 34.0907 330.263C33.6241 330.34 33.1773 330.508 32.7759 330.759C32.3744 331.009 32.0262 331.335 31.751 331.72C31.4758 332.105 31.2791 332.54 31.172 333C31.065 333.461 31.0498 333.938 31.1272 334.405C31.2046 334.872 31.3731 335.318 31.6232 335.72C31.8733 336.121 32.2 336.469 32.5847 336.745C32.9693 337.02 33.4044 337.217 33.8651 337.324L38.5449 338.41C38.5833 338.414 38.6219 338.414 38.6604 338.41C38.6604 338.58 38.6943 338.75 38.7147 338.913L34.7209 341.012C33.8761 341.457 33.2423 342.219 32.9584 343.13C32.6744 344.042 32.7636 345.029 33.2063 345.875V345.875C33.4253 346.294 33.725 346.667 34.0883 346.97C34.4516 347.273 34.8712 347.502 35.3231 347.643C35.775 347.784 36.2502 347.834 36.7215 347.79C37.1928 347.747 37.6509 347.611 38.0694 347.39L42.0293 345.311L42.267 345.529V345.569L40.5554 350.045C40.2576 350.929 40.3139 351.894 40.7123 352.737C41.1106 353.58 41.8202 354.237 42.692 354.568C43.5638 354.899 44.5301 354.88 45.388 354.514C46.2459 354.148 46.9287 353.464 47.2931 352.606L48.998 348.11C48.998 348.076 48.998 348.042 48.998 348.008C49.4522 348.006 49.9058 347.977 50.3564 347.919L52.394 351.737C52.8556 352.551 53.6158 353.154 54.514 353.418C55.4121 353.683 56.3778 353.587 57.2069 353.152C58.036 352.717 58.6636 351.977 58.9569 351.088C59.2501 350.199 59.1862 349.231 58.7786 348.388L56.741 344.564C56.9176 344.367 57.0942 344.163 57.2572 343.953L61.7875 345.006C62.7065 345.189 63.6609 345.007 64.4484 344.499C65.2359 343.992 65.7948 343.197 66.0067 342.284C66.2186 341.371 66.0668 340.412 65.5836 339.609C65.1003 338.806 64.3235 338.223 63.4176 337.982L59.3831 337.045C59.3831 336.78 59.3424 336.509 59.3084 336.237L63.3837 334.091C64.2285 333.646 64.8623 332.884 65.1462 331.972C65.4302 331.06 65.341 330.073 64.8983 329.227V329.227C64.4513 328.386 63.6886 327.757 62.778 327.479C61.8674 327.2 60.8833 327.294 60.0419 327.74V327.74Z" fill="#B3B3B3"/>
<path d="M60.0419 327.74L55.9123 329.907C55.7222 329.739 55.5252 329.576 55.3214 329.418L56.9447 325.152C57.1124 324.71 57.1913 324.239 57.177 323.766C57.1626 323.293 57.0552 322.827 56.8609 322.396C56.6667 321.965 56.3894 321.576 56.0448 321.251C55.7002 320.927 55.2952 320.674 54.8528 320.506C54.4104 320.339 53.9393 320.26 53.4664 320.274C52.9934 320.289 52.528 320.396 52.0966 320.59C51.6652 320.784 51.2763 321.062 50.9521 321.406C50.6278 321.751 50.3746 322.156 50.207 322.598L48.5021 327.088C48.4778 327.159 48.4574 327.232 48.441 327.305C48.1897 327.305 47.9452 327.346 47.6939 327.373L45.6562 323.522C45.1947 322.708 44.4344 322.104 43.5363 321.84C42.6381 321.576 41.6724 321.671 40.8433 322.106C40.0142 322.541 39.3867 323.281 39.0934 324.17C38.8001 325.059 38.864 326.028 39.2717 326.871L41.3093 330.728C41.0682 330.99 40.8415 331.264 40.6301 331.55C40.4836 331.484 40.3312 331.432 40.175 331.394L35.4952 330.307C35.0345 330.2 34.5573 330.185 34.0907 330.263C33.6241 330.34 33.1773 330.508 32.7759 330.759C32.3744 331.009 32.0262 331.335 31.751 331.72C31.4758 332.105 31.2791 332.54 31.172 333C31.065 333.461 31.0498 333.938 31.1272 334.405C31.2046 334.872 31.3731 335.318 31.6232 335.72C31.8733 336.121 32.2 336.469 32.5847 336.745C32.9693 337.02 33.4044 337.217 33.8651 337.324L38.5449 338.41C38.5833 338.414 38.6219 338.414 38.6604 338.41C38.6604 338.58 38.6943 338.75 38.7147 338.913L34.7209 341.012C33.8761 341.457 33.2423 342.219 32.9584 343.13C32.6744 344.042 32.7636 345.029 33.2063 345.875V345.875C33.4253 346.294 33.725 346.667 34.0883 346.97C34.4516 347.273 34.8712 347.502 35.3231 347.643C35.775 347.784 36.2502 347.834 36.7215 347.79C37.1928 347.747 37.6509 347.611 38.0694 347.39L42.0293 345.311L42.267 345.529V345.569L40.5554 350.045C40.2576 350.929 40.3139 351.894 40.7123 352.737C41.1106 353.58 41.8202 354.237 42.692 354.568C43.5638 354.899 44.5301 354.88 45.388 354.514C46.2459 354.148 46.9287 353.464 47.2931 352.606L48.998 348.11C48.998 348.076 48.998 348.042 48.998 348.008C49.4522 348.006 49.9058 347.977 50.3564 347.919L52.394 351.737C52.8556 352.551 53.6158 353.154 54.514 353.418C55.4121 353.683 56.3778 353.587 57.2069 353.152C58.036 352.717 58.6636 351.977 58.9569 351.088C59.2501 350.199 59.1862 349.231 58.7786 348.388L56.741 344.564C56.9176 344.367 57.0942 344.163 57.2572 343.953L61.7875 345.006C62.7065 345.189 63.6609 345.007 64.4484 344.499C65.2359 343.992 65.7948 343.197 66.0067 342.284C66.2186 341.371 66.0668 340.412 65.5836 339.609C65.1003 338.806 64.3235 338.223 63.4176 337.982L59.3831 337.045C59.3831 336.78 59.3424 336.509 59.3084 336.237L63.3837 334.091C64.2285 333.646 64.8623 332.884 65.1462 331.972C65.4302 331.06 65.341 330.073 64.8983 329.227V329.227C64.4513 328.386 63.6886 327.757 62.778 327.479C61.8674 327.2 60.8833 327.294 60.0419 327.74V327.74Z" fill="#B3B3B3"/>
<path d="M60.0419 327.74L55.9123 329.907C55.7222 329.739 55.5252 329.576 55.3214 329.418L56.9447 325.152C57.1124 324.71 57.1913 324.239 57.177 323.766C57.1626 323.293 57.0552 322.827 56.8609 322.396C56.6667 321.965 56.3894 321.576 56.0448 321.251C55.7002 320.927 55.2952 320.674 54.8528 320.506C54.4104 320.339 53.9393 320.26 53.4664 320.274C52.9934 320.289 52.528 320.396 52.0966 320.59C51.6652 320.784 51.2763 321.062 50.9521 321.406C50.6278 321.751 50.3746 322.156 50.207 322.598L48.5021 327.088C48.4778 327.159 48.4574 327.232 48.441 327.305C48.1897 327.305 47.9452 327.346 47.6939 327.373L45.6562 323.522C45.1947 322.708 44.4344 322.104 43.5363 321.84C42.6381 321.576 41.6724 321.671 40.8433 322.106C40.0142 322.541 39.3867 323.281 39.0934 324.17C38.8001 325.059 38.864 326.028 39.2717 326.871L41.3093 330.728C41.0682 330.99 40.8415 331.264 40.6301 331.55C40.4836 331.484 40.3312 331.432 40.175 331.394L35.4952 330.307C35.0345 330.2 34.5573 330.185 34.0907 330.263C33.6241 330.34 33.1773 330.508 32.7759 330.759C32.3744 331.009 32.0262 331.335 31.751 331.72C31.4758 332.105 31.2791 332.54 31.172 333C31.065 333.461 31.0498 333.938 31.1272 334.405C31.2046 334.872 31.3731 335.318 31.6232 335.72C31.8733 336.121 32.2 336.469 32.5847 336.745C32.9693 337.02 33.4044 337.217 33.8651 337.324L38.5449 338.41C38.5833 338.414 38.6219 338.414 38.6604 338.41C38.6604 338.58 38.6943 338.75 38.7147 338.913L34.7209 341.012C33.8761 341.457 33.2423 342.219 32.9584 343.13C32.6744 344.042 32.7636 345.029 33.2063 345.875V345.875C33.4253 346.294 33.725 346.667 34.0883 346.97C34.4516 347.273 34.8712 347.502 35.3231 347.643C35.775 347.784 36.2502 347.834 36.7215 347.79C37.1928 347.747 37.6509 347.611 38.0694 347.39L42.0293 345.311L42.267 345.529V345.569L40.5554 350.045C40.2576 350.929 40.3139 351.894 40.7123 352.737C41.1106 353.58 41.8202 354.237 42.692 354.568C43.5638 354.899 44.5301 354.88 45.388 354.514C46.2459 354.148 46.9287 353.464 47.2931 352.606L48.998 348.11C48.998 348.076 48.998 348.042 48.998 348.008C49.4522 348.006 49.9058 347.977 50.3564 347.919L52.394 351.737C52.8556 352.551 53.6158 353.154 54.514 353.418C55.4121 353.683 56.3778 353.587 57.2069 353.152C58.036 352.717 58.6636 351.977 58.9569 351.088C59.2501 350.199 59.1862 349.231 58.7786 348.388L56.741 344.564C56.9176 344.367 57.0942 344.163 57.2572 343.953L61.7875 345.006C62.7065 345.189 63.6609 345.007 64.4484 344.499C65.2359 343.992 65.7948 343.197 66.0067 342.284C66.2186 341.371 66.0668 340.412 65.5836 339.609C65.1003 338.806 64.3235 338.223 63.4176 337.982L59.3831 337.045C59.3831 336.78 59.3424 336.509 59.3084 336.237L63.3837 334.091C64.2285 333.646 64.8623 332.884 65.1462 331.972C65.4302 331.06 65.341 330.073 64.8983 329.227V329.227C64.4513 328.386 63.6886 327.757 62.778 327.479C61.8674 327.2 60.8833 327.294 60.0419 327.74V327.74Z" fill="#B3B3B3"/>
<path d="M60.0419 327.74L55.9123 329.907C55.7222 329.739 55.5252 329.576 55.3214 329.418L56.9447 325.152C57.1124 324.71 57.1913 324.239 57.177 323.766C57.1626 323.293 57.0552 322.827 56.8609 322.396C56.6667 321.965 56.3894 321.576 56.0448 321.251C55.7002 320.927 55.2952 320.674 54.8528 320.506C54.4104 320.339 53.9393 320.26 53.4664 320.274C52.9934 320.289 52.528 320.396 52.0966 320.59C51.6652 320.784 51.2763 321.062 50.9521 321.406C50.6278 321.751 50.3746 322.156 50.207 322.598L48.5021 327.088C48.4778 327.159 48.4574 327.232 48.441 327.305C48.1897 327.305 47.9452 327.346 47.6939 327.373L45.6562 323.522C45.1947 322.708 44.4344 322.104 43.5363 321.84C42.6381 321.576 41.6724 321.671 40.8433 322.106C40.0142 322.541 39.3867 323.281 39.0934 324.17C38.8001 325.059 38.864 326.028 39.2717 326.871L41.3093 330.728C41.0682 330.99 40.8415 331.264 40.6301 331.55C40.4836 331.484 40.3312 331.432 40.175 331.394L35.4952 330.307C35.0345 330.2 34.5573 330.185 34.0907 330.263C33.6241 330.34 33.1773 330.508 32.7759 330.759C32.3744 331.009 32.0262 331.335 31.751 331.72C31.4758 332.105 31.2791 332.54 31.172 333C31.065 333.461 31.0498 333.938 31.1272 334.405C31.2046 334.872 31.3731 335.318 31.6232 335.72C31.8733 336.121 32.2 336.469 32.5847 336.745C32.9693 337.02 33.4044 337.217 33.8651 337.324L38.5449 338.41C38.5833 338.414 38.6219 338.414 38.6604 338.41C38.6604 338.58 38.6943 338.75 38.7147 338.913L34.7209 341.012C33.8761 341.457 33.2423 342.219 32.9584 343.13C32.6744 344.042 32.7636 345.029 33.2063 345.875V345.875C33.4253 346.294 33.725 346.667 34.0883 346.97C34.4516 347.273 34.8712 347.502 35.3231 347.643C35.775 347.784 36.2502 347.834 36.7215 347.79C37.1928 347.747 37.6509 347.611 38.0694 347.39L42.0293 345.311L42.267 345.529V345.569L40.5554 350.045C40.2576 350.929 40.3139 351.894 40.7123 352.737C41.1106 353.58 41.8202 354.237 42.692 354.568C43.5638 354.899 44.5301 354.88 45.388 354.514C46.2459 354.148 46.9287 353.464 47.2931 352.606L48.998 348.11C48.998 348.076 48.998 348.042 48.998 348.008C49.4522 348.006 49.9058 347.977 50.3564 347.919L52.394 351.737C52.8556 352.551 53.6158 353.154 54.514 353.418C55.4121 353.683 56.3778 353.587 57.2069 353.152C58.036 352.717 58.6636 351.977 58.9569 351.088C59.2501 350.199 59.1862 349.231 58.7786 348.388L56.741 344.564C56.9176 344.367 57.0942 344.163 57.2572 343.953L61.7875 345.006C62.7065 345.189 63.6609 345.007 64.4484 344.499C65.2359 343.992 65.7948 343.197 66.0067 342.284C66.2186 341.371 66.0668 340.412 65.5836 339.609C65.1003 338.806 64.3235 338.223 63.4176 337.982L59.3831 337.045C59.3831 336.78 59.3424 336.509 59.3084 336.237L63.3837 334.091C64.2285 333.646 64.8623 332.884 65.1462 331.972C65.4302 331.06 65.341 330.073 64.8983 329.227V329.227C64.4513 328.386 63.6886 327.757 62.778 327.479C61.8674 327.2 60.8833 327.294 60.0419 327.74V327.74Z" fill="#B3B3B3"/>
<path d="M60.0419 327.74L55.9123 329.907C55.7222 329.739 55.5252 329.576 55.3214 329.418L56.9447 325.152C57.1124 324.71 57.1913 324.239 57.177 323.766C57.1626 323.293 57.0552 322.827 56.8609 322.396C56.6667 321.965 56.3894 321.576 56.0448 321.251C55.7002 320.927 55.2952 320.674 54.8528 320.506C54.4104 320.339 53.9393 320.26 53.4664 320.274C52.9934 320.289 52.528 320.396 52.0966 320.59C51.6652 320.784 51.2763 321.062 50.9521 321.406C50.6278 321.751 50.3746 322.156 50.207 322.598L48.5021 327.088C48.4778 327.159 48.4574 327.232 48.441 327.305C48.1897 327.305 47.9452 327.346 47.6939 327.373L45.6562 323.522C45.1947 322.708 44.4344 322.104 43.5363 321.84C42.6381 321.576 41.6724 321.671 40.8433 322.106C40.0142 322.541 39.3867 323.281 39.0934 324.17C38.8001 325.059 38.864 326.028 39.2717 326.871L41.3093 330.728C41.0682 330.99 40.8415 331.264 40.6301 331.55C40.4836 331.484 40.3312 331.432 40.175 331.394L35.4952 330.307C35.0345 330.2 34.5573 330.185 34.0907 330.263C33.6241 330.34 33.1773 330.508 32.7759 330.759C32.3744 331.009 32.0262 331.335 31.751 331.72C31.4758 332.105 31.2791 332.54 31.172 333C31.065 333.461 31.0498 333.938 31.1272 334.405C31.2046 334.872 31.3731 335.318 31.6232 335.72C31.8733 336.121 32.2 336.469 32.5847 336.745C32.9693 337.02 33.4044 337.217 33.8651 337.324L38.5449 338.41C38.5833 338.414 38.6219 338.414 38.6604 338.41C38.6604 338.58 38.6943 338.75 38.7147 338.913L34.7209 341.012C33.8761 341.457 33.2423 342.219 32.9584 343.13C32.6744 344.042 32.7636 345.029 33.2063 345.875V345.875C33.4253 346.294 33.725 346.667 34.0883 346.97C34.4516 347.273 34.8712 347.502 35.3231 347.643C35.775 347.784 36.2502 347.834 36.7215 347.79C37.1928 347.747 37.6509 347.611 38.0694 347.39L42.0293 345.311L42.267 345.529V345.569L40.5554 350.045C40.2576 350.929 40.3139 351.894 40.7123 352.737C41.1106 353.58 41.8202 354.237 42.692 354.568C43.5638 354.899 44.5301 354.88 45.388 354.514C46.2459 354.148 46.9287 353.464 47.2931 352.606L48.998 348.11C48.998 348.076 48.998 348.042 48.998 348.008C49.4522 348.006 49.9058 347.977 50.3564 347.919L52.394 351.737C52.8556 352.551 53.6158 353.154 54.514 353.418C55.4121 353.683 56.3778 353.587 57.2069 353.152C58.036 352.717 58.6636 351.977 58.9569 351.088C59.2501 350.199 59.1862 349.231 58.7786 348.388L56.741 344.564C56.9176 344.367 57.0942 344.163 57.2572 343.953L61.7875 345.006C62.7065 345.189 63.6609 345.007 64.4484 344.499C65.2359 343.992 65.7948 343.197 66.0067 342.284C66.2186 341.371 66.0668 340.412 65.5836 339.609C65.1003 338.806 64.3235 338.223 63.4176 337.982L59.3831 337.045C59.3831 336.78 59.3424 336.509 59.3084 336.237L63.3837 334.091C64.2285 333.646 64.8623 332.884 65.1462 331.972C65.4302 331.06 65.341 330.073 64.8983 329.227V329.227C64.4513 328.386 63.6886 327.757 62.778 327.479C61.8674 327.2 60.8833 327.294 60.0419 327.74V327.74Z" fill="#B3B3B3"/>
<path d="M50.1736 293.515C57.5109 293.515 63.459 287.567 63.459 280.229C63.459 272.892 57.5109 266.944 50.1736 266.944C42.8363 266.944 36.8882 272.892 36.8882 280.229C36.8882 287.567 42.8363 293.515 50.1736 293.515Z" fill="#C20004"/>
<path d="M95.4291 345.577C100.617 345.577 104.823 341.371 104.823 336.183C104.823 330.995 100.617 326.79 95.4291 326.79C90.2412 326.79 86.0356 330.995 86.0356 336.183C86.0356 341.371 90.2412 345.577 95.4291 345.577Z" fill="#C20004"/>
<path d="M92.8886 386.472L93.4999 369.301C93.5182 368.791 93.4335 368.282 93.2509 367.806C93.0684 367.329 92.7917 366.894 92.4374 366.526C92.0831 366.158 91.6584 365.866 91.1887 365.666C90.7189 365.466 90.2137 365.362 89.7031 365.362H62.1203C61.6071 365.362 61.0992 365.467 60.6275 365.669C60.1557 365.871 59.7299 366.167 59.3756 366.538C59.0214 366.909 58.7461 367.349 58.5664 367.83C58.3868 368.31 58.3065 368.823 58.3303 369.335L59.0503 385.48C59.1273 387.147 58.7504 388.805 57.9597 390.275C57.1691 391.745 55.9943 392.973 54.5607 393.828C48.1624 397.635 42.8751 403.054 39.2271 409.544C35.5791 416.035 33.6981 423.369 33.7721 430.814C33.8461 438.259 35.8725 445.554 39.6488 451.97C43.4251 458.387 48.8191 463.7 55.2918 467.379C61.7646 471.058 69.0895 472.974 76.5347 472.936C83.9799 472.898 91.2847 470.906 97.7192 467.161C104.154 463.415 109.493 458.047 113.203 451.592C116.913 445.137 118.864 437.821 118.862 430.376C118.862 414.374 110.188 401.245 97.1609 394.14C95.809 393.382 94.6938 392.264 93.9396 390.91C93.1853 389.557 92.8215 388.02 92.8886 386.472V386.472Z" fill="white"/>
<path d="M76.3434 474.28C75.9902 474.28 75.6302 474.28 75.2702 474.28C65.7491 474.052 56.5605 470.733 49.0904 464.825C41.6203 458.917 36.2737 450.741 33.8572 441.529C31.4407 432.316 32.0852 422.568 35.6936 413.754C39.302 404.941 45.6785 397.539 53.8615 392.666C55.0915 391.94 56.1013 390.894 56.7832 389.639C57.4651 388.385 57.7933 386.968 57.733 385.541L57.0062 369.396C56.9741 368.7 57.0834 368.005 57.3276 367.352C57.5719 366.699 57.9459 366.103 58.4271 365.599C58.9083 365.095 59.4868 364.694 60.1274 364.419C60.7681 364.145 61.4577 364.004 62.1546 364.003H89.7374C90.4299 364.006 91.1149 364.147 91.7518 364.419C92.3887 364.691 92.9645 365.088 93.4452 365.586C93.9259 366.085 94.3017 366.674 94.5503 367.321C94.799 367.967 94.9154 368.657 94.8927 369.349L94.2746 386.519C94.2241 387.817 94.5329 389.104 95.1669 390.238C95.8008 391.371 96.7354 392.308 97.8676 392.945C111.9 400.599 120.282 414.591 120.282 430.376C120.282 442.019 115.657 453.185 107.425 461.419C99.1926 469.652 88.0271 474.278 76.3841 474.28H76.3434ZM62.1207 366.72C61.7911 366.722 61.4652 366.79 61.1624 366.92C60.8597 367.051 60.5863 367.241 60.3587 367.479C60.1311 367.717 59.9539 367.999 59.8377 368.308C59.7215 368.616 59.6686 368.945 59.6823 369.274L60.4091 385.419C60.497 387.332 60.0639 389.234 59.156 390.92C58.2481 392.607 56.8994 394.016 55.2539 394.996C47.577 399.566 41.5946 406.509 38.2093 414.777C34.8239 423.045 34.2192 432.189 36.4864 440.831C38.7537 449.473 43.7698 457.143 50.778 462.684C57.7863 468.225 66.4065 471.337 75.3381 471.55C80.8276 471.68 86.2876 470.712 91.3973 468.701C96.5069 466.691 101.163 463.679 105.092 459.842C109.02 456.006 112.142 451.423 114.274 446.363C116.405 441.302 117.503 435.867 117.504 430.376C117.504 415.603 109.659 402.528 96.516 395.329C94.9415 394.45 93.6407 393.154 92.7572 391.582C91.8738 390.011 91.4422 388.226 91.5102 386.424L92.1215 369.254C92.1333 368.926 92.079 368.599 91.9619 368.292C91.8448 367.986 91.6672 367.706 91.4396 367.47C91.2121 367.233 90.9393 367.045 90.6376 366.916C90.3358 366.788 90.0112 366.721 89.6831 366.72H62.1207Z" fill="#2A2E32"/>
<path d="M94.2271 296.748C96.8604 296.748 98.9951 294.613 98.9951 291.98C98.9951 289.346 96.8604 287.211 94.2271 287.211C91.5937 287.211 89.459 289.346 89.459 291.98C89.459 294.613 91.5937 296.748 94.2271 296.748Z" fill="white"/>
<path d="M48.4551 342.384C51.0884 342.384 53.2231 340.249 53.2231 337.616C53.2231 334.982 51.0884 332.848 48.4551 332.848C45.8217 332.848 43.687 334.982 43.687 337.616C43.687 340.249 45.8217 342.384 48.4551 342.384Z" fill="white"/>
<path d="M51.6538 464.975C53.3111 463.067 60.8979 454.787 73.5176 453.653C89.6693 452.193 100.211 463.685 101.365 464.975" fill="white"/>
<path d="M100.34 465.871C99.2193 464.615 88.9903 453.646 73.6402 455.004C62.3788 456.016 55.2267 462.937 52.6729 465.871L50.6353 464.085C53.3996 460.913 61.1562 453.408 73.4024 452.308C89.7443 450.834 100.408 461.85 102.378 464.078L100.34 465.871Z" fill="#2A2E32"/>
<path d="M337.161 127.611L309.401 133.044C304.111 133.349 298.916 131.539 294.96 128.013C291.004 124.487 288.61 119.534 288.305 114.244L287.918 107.567L330.192 98.9072L337.161 127.611Z" fill="#2A2E32"/>
<path d="M237.765 95.1265L330.863 77.367L336.385 106.316L272.236 118.553C264.558 120.018 256.613 118.372 250.148 113.979C243.684 109.586 239.229 102.804 237.765 95.1265V95.1265Z" fill="#2A2E32"/>
</svg>
