<svg width="20" height="20" viewBox="0 0 20 20" fill="none" xmlns="http://www.w3.org/2000/svg">
<path d="M4.28571 1.25C4.28571 0.559766 4.92411 0 5.71429 0C6.50446 0 7.14286 0.559766 7.14286 1.25V2.5H12.8571V1.25C12.8571 0.559766 13.4955 0 14.2857 0C15.0759 0 15.7143 0.559766 15.7143 1.25V2.5H17.8571C19.0402 2.5 20 3.33945 20 4.375V6.25H0V4.375C0 3.33945 0.959375 2.5 2.14286 2.5H4.28571V1.25ZM20 18.125C20 19.1602 19.0402 20 17.8571 20H2.14286C0.959375 20 0 19.1602 0 18.125V7.5H20V18.125Z" fill="black"/>
</svg>
