<svg width="35" height="30" viewBox="0 0 35 30" fill="none" xmlns="http://www.w3.org/2000/svg">
<path d="M17.5101 10.297L22.7285 5.02485C24.7197 3.01322 27.9646 2.99691 29.9759 4.9884C31.9982 6.99088 32.0013 10.2577 29.9827 12.264L19.9064 22.2789L22.3708 24.7718L32.4538 14.7502C35.8532 11.3715 35.8481 5.86987 32.4423 2.49752C29.0552 -0.856332 23.5904 -0.828848 20.2372 2.5589L17.5101 5.31405L14.7972 2.57321C11.4362 -0.822441 5.95869 -0.849988 2.56369 2.51169C-0.838872 5.88084 -0.856797 11.3733 2.52369 14.7646L17.4117 29.7002L19.8799 27.2476L15.9137 23.2356L15.9155 23.2339L5.00633 12.2898C2.99582 10.2729 3.00648 7.00634 5.03011 5.00257C7.04926 3.00325 10.307 3.01963 12.3059 5.03916L17.5101 10.297Z" fill="url(#paint0_linear_731_4383)"/>
<defs>
<linearGradient id="paint0_linear_731_4383" x1="-0.0853758" y1="-0.0340158" x2="22.4671" y2="29.6628" gradientUnits="userSpaceOnUse">
<stop offset="0.458333" stop-color="#9E9EB1"/>
<stop offset="1" stop-color="#9595AE" stop-opacity="0.13"/>
</linearGradient>
</defs>
</svg>
