<svg width="147" height="20" viewBox="0 0 147 20" fill="none" xmlns="http://www.w3.org/2000/svg">
<path d="M11.3223 1.88975C11.0505 1.99113 10.8937 2.18468 10.4232 3.06025C10.1096 3.63168 9.47186 4.78375 9.01186 5.62246L8.17549 7.15242L7.29731 7.26302C6.11595 7.42892 2.16413 7.92661 2.07004 7.92661C2.03868 7.92661 1.86095 8.03721 1.68322 8.16624C1.45322 8.34136 1.35913 8.47961 1.35913 8.69159C1.35913 8.94044 1.65186 9.23537 3.68004 11.0234L5.99049 13.0787L5.70822 14.581C4.83004 19.1063 4.84049 18.8944 5.35277 19.2077C5.82322 19.5026 6.0114 19.4473 8.53095 18.2492C9.50322 17.7791 10.6114 17.263 10.9982 17.0879L11.7091 16.7745L14.4482 18.0649C17.3337 19.4197 17.6369 19.5119 18.0969 19.1801C18.2955 19.0418 18.3478 18.922 18.3269 18.5994C18.3164 18.2308 17.9714 16.24 17.6264 14.5165C17.5532 14.1109 17.4591 13.604 17.4173 13.4013L17.3546 13.0142L19.5709 11.1432C20.7837 10.1109 21.8396 9.1432 21.9023 8.99574C22.08 8.63629 21.9232 8.23998 21.5469 8.07408C21.39 8.00034 20.5641 7.85288 19.7069 7.7515C16.7064 7.37362 15.3159 7.16163 15.1905 7.06025C15.1278 7.00495 14.49 5.89896 13.7896 4.60864C13.0891 3.31832 12.42 2.16624 12.2946 2.06486C11.9914 1.78836 11.7196 1.74228 11.3223 1.88975ZM13.3191 4.85749C14.3959 6.77454 14.835 7.475 15.0128 7.54873C15.1487 7.60403 16.1732 7.7515 17.2709 7.88974C18.3791 8.01878 19.7591 8.20311 20.3341 8.28606C21.9023 8.50726 21.9232 8.45196 19.1319 10.8575L16.8109 12.8483L16.8841 13.3552C16.9678 13.9819 17.3859 16.2768 17.6578 17.6409C17.7728 18.1939 17.8355 18.7008 17.8041 18.7653C17.7205 18.9681 17.3755 18.922 16.79 18.6271C16.4973 18.4796 15.2532 17.899 14.03 17.3275C12.305 16.5349 11.7405 16.3137 11.5419 16.3506C11.3955 16.3874 10.6323 16.71 9.84822 17.0879C5.4364 19.1524 5.46777 19.1432 5.57231 18.3598C5.63504 17.8897 6.05322 15.6685 6.38777 14.0464C6.50277 13.4842 6.56549 12.9681 6.53413 12.8944C6.50277 12.8206 5.50959 11.9358 4.32822 10.9312C1.97595 8.922 1.78777 8.72845 1.97595 8.53491C2.09095 8.41509 3.34549 8.22154 6.53413 7.83445C7.40186 7.73306 8.20686 7.60403 8.34277 7.55795C8.52049 7.49343 8.94913 6.8114 10.005 4.91279C10.7891 3.50265 11.4791 2.32293 11.5419 2.28606C11.6046 2.24919 11.7091 2.22154 11.7614 2.23997C11.8241 2.24919 12.5246 3.42892 13.3191 4.85749Z" fill="black"/>
<path d="M42.3223 1.88975C42.0505 1.99113 41.8937 2.18468 41.4232 3.06025C41.1096 3.63168 40.4719 4.78375 40.0119 5.62246L39.1755 7.15242L38.2973 7.26302C37.1159 7.42892 33.1641 7.92661 33.07 7.92661C33.0387 7.92661 32.8609 8.03721 32.6832 8.16624C32.4532 8.34136 32.3591 8.47961 32.3591 8.69159C32.3591 8.94044 32.6519 9.23537 34.68 11.0234L36.9905 13.0787L36.7082 14.581C35.83 19.1063 35.8405 18.8944 36.3528 19.2077C36.8232 19.5026 37.0114 19.4473 39.5309 18.2492C40.5032 17.7791 41.6114 17.263 41.9982 17.0879L42.7091 16.7745L45.4482 18.0649C48.3337 19.4197 48.6369 19.5119 49.0969 19.1801C49.2955 19.0418 49.3478 18.922 49.3269 18.5994C49.3164 18.2308 48.9714 16.24 48.6264 14.5165C48.5532 14.1109 48.4591 13.604 48.4173 13.4013L48.3546 13.0142L50.5709 11.1432C51.7837 10.1109 52.8396 9.1432 52.9023 8.99574C53.08 8.63629 52.9232 8.23998 52.5469 8.07408C52.39 8.00034 51.5641 7.85288 50.7069 7.7515C47.7064 7.37362 46.3159 7.16163 46.1905 7.06025C46.1278 7.00495 45.49 5.89896 44.7896 4.60864C44.0891 3.31832 43.42 2.16624 43.2946 2.06486C42.9914 1.78836 42.7196 1.74228 42.3223 1.88975ZM44.3191 4.85749C45.3959 6.77454 45.835 7.475 46.0128 7.54873C46.1487 7.60403 47.1732 7.7515 48.2709 7.88974C49.3791 8.01878 50.7591 8.20311 51.3341 8.28606C52.9023 8.50726 52.9232 8.45196 50.1319 10.8575L47.8109 12.8483L47.8841 13.3552C47.9678 13.9819 48.3859 16.2768 48.6578 17.6409C48.7728 18.1939 48.8355 18.7008 48.8041 18.7653C48.7205 18.9681 48.3755 18.922 47.79 18.6271C47.4973 18.4796 46.2532 17.899 45.03 17.3275C43.305 16.5349 42.7405 16.3137 42.5419 16.3506C42.3955 16.3874 41.6323 16.71 40.8482 17.0879C36.4364 19.1524 36.4678 19.1432 36.5723 18.3598C36.635 17.8897 37.0532 15.6685 37.3878 14.0464C37.5028 13.4842 37.5655 12.9681 37.5341 12.8944C37.5028 12.8206 36.5096 11.9358 35.3282 10.9312C32.9759 8.922 32.7878 8.72845 32.9759 8.53491C33.0909 8.41509 34.3455 8.22154 37.5341 7.83445C38.4019 7.73306 39.2069 7.60403 39.3428 7.55795C39.5205 7.49343 39.9491 6.8114 41.005 4.91279C41.7891 3.50265 42.4791 2.32293 42.5419 2.28606C42.6046 2.24919 42.7091 2.22154 42.7614 2.23997C42.8241 2.24919 43.5246 3.42892 44.3191 4.85749Z" fill="black"/>
<path d="M73.3223 1.88975C73.0505 1.99113 72.8937 2.18468 72.4232 3.06025C72.1096 3.63168 71.4719 4.78375 71.0119 5.62246L70.1755 7.15242L69.2973 7.26302C68.1159 7.42892 64.1641 7.92661 64.07 7.92661C64.0387 7.92661 63.8609 8.03721 63.6832 8.16624C63.4532 8.34136 63.3591 8.47961 63.3591 8.69159C63.3591 8.94044 63.6519 9.23537 65.68 11.0234L67.9905 13.0787L67.7082 14.581C66.83 19.1063 66.8405 18.8944 67.3528 19.2077C67.8232 19.5026 68.0114 19.4473 70.5309 18.2492C71.5032 17.7791 72.6114 17.263 72.9982 17.0879L73.7091 16.7745L76.4482 18.0649C79.3337 19.4197 79.6369 19.5119 80.0969 19.1801C80.2955 19.0418 80.3478 18.922 80.3269 18.5994C80.3164 18.2308 79.9714 16.24 79.6264 14.5165C79.5532 14.1109 79.4591 13.604 79.4173 13.4013L79.3546 13.0142L81.5709 11.1432C82.7837 10.1109 83.8396 9.1432 83.9023 8.99574C84.08 8.63629 83.9232 8.23998 83.5469 8.07408C83.39 8.00034 82.5641 7.85288 81.7069 7.7515C78.7064 7.37362 77.3159 7.16163 77.1905 7.06025C77.1278 7.00495 76.49 5.89896 75.7896 4.60864C75.0891 3.31832 74.42 2.16624 74.2946 2.06486C73.9914 1.78836 73.7196 1.74228 73.3223 1.88975ZM75.3191 4.85749C76.3959 6.77454 76.835 7.475 77.0128 7.54873C77.1487 7.60403 78.1732 7.7515 79.2709 7.88974C80.3791 8.01878 81.7591 8.20311 82.3341 8.28606C83.9023 8.50726 83.9232 8.45196 81.1319 10.8575L78.8109 12.8483L78.8841 13.3552C78.9678 13.9819 79.3859 16.2768 79.6578 17.6409C79.7728 18.1939 79.8355 18.7008 79.8041 18.7653C79.7205 18.9681 79.3755 18.922 78.79 18.6271C78.4973 18.4796 77.2532 17.899 76.03 17.3275C74.305 16.5349 73.7405 16.3137 73.5419 16.3506C73.3955 16.3874 72.6323 16.71 71.8482 17.0879C67.4364 19.1524 67.4678 19.1432 67.5723 18.3598C67.635 17.8897 68.0532 15.6685 68.3878 14.0464C68.5028 13.4842 68.5655 12.9681 68.5341 12.8944C68.5028 12.8206 67.5096 11.9358 66.3282 10.9312C63.9759 8.922 63.7878 8.72845 63.9759 8.53491C64.0909 8.41509 65.3455 8.22154 68.5341 7.83445C69.4019 7.73306 70.2069 7.60403 70.3428 7.55795C70.5205 7.49343 70.9491 6.8114 72.005 4.91279C72.7891 3.50265 73.4791 2.32293 73.5419 2.28606C73.6046 2.24919 73.7091 2.22154 73.7614 2.23997C73.8241 2.24919 74.5246 3.42892 75.3191 4.85749Z" fill="black"/>
<path d="M104.322 1.88975C104.05 1.99113 103.894 2.18468 103.423 3.06025C103.11 3.63168 102.472 4.78375 102.012 5.62246L101.175 7.15242L100.297 7.26302C99.1159 7.42892 95.1641 7.92661 95.07 7.92661C95.0387 7.92661 94.8609 8.03721 94.6832 8.16624C94.4532 8.34136 94.3591 8.47961 94.3591 8.69159C94.3591 8.94044 94.6519 9.23537 96.68 11.0234L98.9905 13.0787L98.7082 14.581C97.83 19.1063 97.8405 18.8944 98.3528 19.2077C98.8232 19.5026 99.0114 19.4473 101.531 18.2492C102.503 17.7791 103.611 17.263 103.998 17.0879L104.709 16.7745L107.448 18.0649C110.334 19.4197 110.637 19.5119 111.097 19.1801C111.295 19.0418 111.348 18.922 111.327 18.5994C111.316 18.2308 110.971 16.24 110.626 14.5165C110.553 14.1109 110.459 13.604 110.417 13.4013L110.355 13.0142L112.571 11.1432C113.784 10.1109 114.84 9.1432 114.902 8.99574C115.08 8.63629 114.923 8.23998 114.547 8.07408C114.39 8.00034 113.564 7.85288 112.707 7.7515C109.706 7.37362 108.316 7.16163 108.19 7.06025C108.128 7.00495 107.49 5.89896 106.79 4.60864C106.089 3.31832 105.42 2.16624 105.295 2.06486C104.991 1.78836 104.72 1.74228 104.322 1.88975ZM106.319 4.85749C107.396 6.77454 107.835 7.475 108.013 7.54873C108.149 7.60403 109.173 7.7515 110.271 7.88974C111.379 8.01878 112.759 8.20311 113.334 8.28606C114.902 8.50726 114.923 8.45196 112.132 10.8575L109.811 12.8483L109.884 13.3552C109.968 13.9819 110.386 16.2768 110.658 17.6409C110.773 18.1939 110.835 18.7008 110.804 18.7653C110.72 18.9681 110.375 18.922 109.79 18.6271C109.497 18.4796 108.253 17.899 107.03 17.3275C105.305 16.5349 104.74 16.3137 104.542 16.3506C104.395 16.3874 103.632 16.71 102.848 17.0879C98.4364 19.1524 98.4678 19.1432 98.5723 18.3598C98.635 17.8897 99.0532 15.6685 99.3878 14.0464C99.5028 13.4842 99.5655 12.9681 99.5341 12.8944C99.5028 12.8206 98.5096 11.9358 97.3282 10.9312C94.9759 8.922 94.7878 8.72845 94.9759 8.53491C95.0909 8.41509 96.3455 8.22154 99.5341 7.83445C100.402 7.73306 101.207 7.60403 101.343 7.55795C101.52 7.49343 101.949 6.8114 103.005 4.91279C103.789 3.50265 104.479 2.32293 104.542 2.28606C104.605 2.24919 104.709 2.22154 104.761 2.23997C104.824 2.24919 105.525 3.42892 106.319 4.85749Z" fill="black"/>
<path d="M135.322 1.88975C135.05 1.99113 134.894 2.18468 134.423 3.06025C134.11 3.63168 133.472 4.78375 133.012 5.62246L132.175 7.15242L131.297 7.26302C130.116 7.42892 126.164 7.92661 126.07 7.92661C126.039 7.92661 125.861 8.03721 125.683 8.16624C125.453 8.34136 125.359 8.47961 125.359 8.69159C125.359 8.94044 125.652 9.23537 127.68 11.0234L129.99 13.0787L129.708 14.581C128.83 19.1063 128.84 18.8944 129.353 19.2077C129.823 19.5026 130.011 19.4473 132.531 18.2492C133.503 17.7791 134.611 17.263 134.998 17.0879L135.709 16.7745L138.448 18.0649C141.334 19.4197 141.637 19.5119 142.097 19.1801C142.295 19.0418 142.348 18.922 142.327 18.5994C142.316 18.2308 141.971 16.24 141.626 14.5165C141.553 14.1109 141.459 13.604 141.417 13.4013L141.355 13.0142L143.571 11.1432C144.784 10.1109 145.84 9.1432 145.902 8.99574C146.08 8.63629 145.923 8.23998 145.547 8.07408C145.39 8.00034 144.564 7.85288 143.707 7.7515C140.706 7.37362 139.316 7.16163 139.19 7.06025C139.128 7.00495 138.49 5.89896 137.79 4.60864C137.089 3.31832 136.42 2.16624 136.295 2.06486C135.991 1.78836 135.72 1.74228 135.322 1.88975ZM137.319 4.85749C138.396 6.77454 138.835 7.475 139.013 7.54873C139.149 7.60403 140.173 7.7515 141.271 7.88974C142.379 8.01878 143.759 8.20311 144.334 8.28606C145.902 8.50726 145.923 8.45196 143.132 10.8575L140.811 12.8483L140.884 13.3552C140.968 13.9819 141.386 16.2768 141.658 17.6409C141.773 18.1939 141.835 18.7008 141.804 18.7653C141.72 18.9681 141.375 18.922 140.79 18.6271C140.497 18.4796 139.253 17.899 138.03 17.3275C136.305 16.5349 135.74 16.3137 135.542 16.3506C135.395 16.3874 134.632 16.71 133.848 17.0879C129.436 19.1524 129.468 19.1432 129.572 18.3598C129.635 17.8897 130.053 15.6685 130.388 14.0464C130.503 13.4842 130.565 12.9681 130.534 12.8944C130.503 12.8206 129.51 11.9358 128.328 10.9312C125.976 8.922 125.788 8.72845 125.976 8.53491C126.091 8.41509 127.345 8.22154 130.534 7.83445C131.402 7.73306 132.207 7.60403 132.343 7.55795C132.52 7.49343 132.949 6.8114 134.005 4.91279C134.789 3.50265 135.479 2.32293 135.542 2.28606C135.605 2.24919 135.709 2.22154 135.761 2.23997C135.824 2.24919 136.525 3.42892 137.319 4.85749Z" fill="black"/>
</svg>
