<svg width="16" height="20" viewBox="0 0 16 20" fill="none" xmlns="http://www.w3.org/2000/svg">
<path d="M7.58108 0.0159187C6.38059 0.103712 5.19671 0.650429 4.38254 1.50043C2.52157 3.42392 2.59218 6.36901 4.54039 8.18075C5.56226 9.13052 6.85829 9.60541 8.2374 9.53757C10.3435 9.43381 12.1006 8.13287 12.7444 6.19741C12.9231 5.65468 12.9771 5.25163 12.948 4.56524C12.9148 3.66735 12.6987 2.98495 12.2044 2.21875C11.9303 1.79175 11.2366 1.10137 10.8004 0.822026C9.82837 0.199488 8.75249 -0.0718756 7.58108 0.0159187ZM8.83142 0.885877C9.5999 1.03752 10.3435 1.42062 10.8959 1.94738C12.4744 3.45185 12.5409 5.89013 11.0413 7.45446C10.547 7.96526 9.99868 8.30446 9.30081 8.52794C7.336 9.15447 5.2424 8.31643 4.31192 6.53661C3.26928 4.5413 4.15822 2.12297 6.28505 1.16921C6.59659 1.02954 7.10753 0.881886 7.41492 0.837989C7.76385 0.790101 8.47833 0.814045 8.83142 0.885877Z" fill="black"/>
<path d="M7.02018 10.9061C4.65658 11.1894 2.66268 12.3906 1.34173 14.3261C0.527552 15.5193 0 17.2033 0 18.612C0 18.9791 0.00415395 18.9991 0.120465 19.1108L0.240929 19.2266H8.00466H15.7684L15.8889 19.1068C16.0052 18.9911 16.0052 18.9831 15.9969 18.5601C15.9553 16.1258 14.7507 13.8073 12.7859 12.3826C11.1492 11.1934 9.06808 10.6627 7.02018 10.9061ZM8.47821 11.6843C9.74102 11.7721 10.8792 12.1312 11.8595 12.7498C13.762 13.9549 14.9168 15.8664 15.137 18.177L15.1619 18.4284H7.99636H0.83079L0.855714 18.2369C0.955409 17.3709 1.0551 16.908 1.27526 16.2934C2.21406 13.6876 4.62335 11.8838 7.43557 11.6883C7.6765 11.6683 7.88005 11.6523 7.89251 11.6523C7.90497 11.6484 8.16667 11.6643 8.47821 11.6843Z" fill="black"/>
</svg>
