<svg width="26" height="27" viewBox="0 0 26 27" fill="none" xmlns="http://www.w3.org/2000/svg">
<path fill-rule="evenodd" clip-rule="evenodd" d="M10.1111 0V2.69999H15.8889V0H18.7778V2.69999H24.5556C25.3533 2.69999 26 3.3044 26 4.04999V25.65C26 26.3956 25.3533 27 24.5556 27H23.1111L23.1111 13.5L2.8889 13.5L2.88889 24.3H20.2222V27H1.44445C0.646701 27 0 26.3956 0 25.65V4.04999C0 3.3044 0.6467 2.69999 1.44444 2.69999H7.22224V0H10.1111ZM10.1111 8.1H7.22224V5.39999H2.88889V10.8H23.1111V5.39999H18.7778V8.1H15.8889V5.39999H10.1111V8.1Z" fill="#9E9EB1"/>
</svg>
