<svg width="466" height="528" viewBox="0 0 466 528" fill="none" xmlns="http://www.w3.org/2000/svg">
<path d="M466 417.785H0.012207V527.733H466V417.785Z" fill="#C20004"/>
<path d="M325.947 491.906C325.886 491.912 325.824 491.912 325.763 491.906C325.604 491.882 325.451 491.827 325.313 491.744C325.175 491.661 325.055 491.552 324.96 491.422C324.864 491.293 324.796 491.145 324.757 490.989C324.718 490.833 324.711 490.671 324.735 490.512L380.66 120.794C380.911 119.134 380.801 117.438 380.336 115.824C379.872 114.21 379.064 112.715 377.969 111.441C376.874 110.168 375.517 109.146 373.99 108.445C372.464 107.744 370.804 107.381 369.124 107.381H301.052C298.314 107.379 295.664 108.34 293.564 110.096C291.464 111.851 290.048 114.29 289.565 116.984L223.241 485.924C223.221 486.089 223.167 486.249 223.083 486.392C222.999 486.536 222.887 486.661 222.753 486.76C222.619 486.859 222.466 486.929 222.304 486.967C222.142 487.004 221.973 487.008 221.81 486.979C221.646 486.949 221.49 486.886 221.351 486.794C221.212 486.702 221.094 486.583 221.003 486.444C220.912 486.304 220.85 486.148 220.822 485.984C220.793 485.82 220.799 485.652 220.837 485.49L287.161 116.549C287.743 113.289 289.453 110.338 291.993 108.213C294.533 106.088 297.74 104.925 301.052 104.928H369.094C371.126 104.928 373.134 105.367 374.981 106.214C376.828 107.062 378.471 108.298 379.796 109.839C381.121 111.38 382.098 113.188 382.66 115.141C383.222 117.095 383.356 119.146 383.052 121.155L327.158 490.866C327.114 491.156 326.967 491.42 326.745 491.611C326.523 491.802 326.24 491.907 325.947 491.906Z" fill="#2A2E32"/>
<path d="M365.754 225.396H269.055C268.73 225.396 268.419 225.267 268.19 225.038C267.96 224.808 267.832 224.497 267.832 224.173C267.832 223.848 267.96 223.537 268.19 223.308C268.419 223.078 268.73 222.949 269.055 222.949H365.754C366.078 222.949 366.389 223.078 366.619 223.308C366.848 223.537 366.977 223.848 366.977 224.173C366.977 224.497 366.848 224.808 366.619 225.038C366.389 225.267 366.078 225.396 365.754 225.396Z" fill="#2A2E32"/>
<path d="M347.948 346.396H247.634C247.31 346.396 246.998 346.267 246.769 346.038C246.54 345.808 246.411 345.497 246.411 345.173C246.411 344.848 246.54 344.537 246.769 344.308C246.998 344.078 247.31 343.949 247.634 343.949H347.948C348.272 343.949 348.583 344.078 348.813 344.308C349.042 344.537 349.171 344.848 349.171 345.173C349.171 345.497 349.042 345.808 348.813 346.038C348.583 346.267 348.272 346.396 347.948 346.396Z" fill="#2A2E32"/>
<path d="M422.388 491.906C422.087 491.908 421.797 491.799 421.571 491.601C421.345 491.402 421.201 491.128 421.165 490.829L378.739 133.492C378.7 133.168 378.792 132.841 378.994 132.584C379.196 132.327 379.491 132.161 379.816 132.122C380.14 132.083 380.467 132.175 380.724 132.377C380.981 132.578 381.147 132.874 381.186 133.199L423.624 490.542C423.661 490.864 423.57 491.188 423.369 491.442C423.169 491.697 422.875 491.861 422.553 491.9L422.388 491.906Z" fill="#2A2E32"/>
<path d="M289.608 180.561C293.263 180.561 296.226 177.598 296.226 173.942C296.226 170.287 293.263 167.324 289.608 167.324C285.952 167.324 282.989 170.287 282.989 173.942C282.989 177.598 285.952 180.561 289.608 180.561Z" fill="#636466"/>
<path d="M336.1 208.135C340.833 208.135 344.669 204.298 344.669 199.566C344.669 194.833 340.833 190.996 336.1 190.996C331.367 190.996 327.53 194.833 327.53 199.566C327.53 204.298 331.367 208.135 336.1 208.135Z" fill="#C20004"/>
<path d="M297.026 224.02C303.634 224.02 308.99 218.664 308.99 212.056C308.99 205.448 303.634 200.092 297.026 200.092C290.419 200.092 285.062 205.448 285.062 212.056C285.062 218.664 290.419 224.02 297.026 224.02Z" fill="#C20004"/>
<path d="M294.672 201.444C293.864 201.437 293.082 201.165 292.445 200.668C291.808 200.172 291.352 199.479 291.149 198.697L287.748 185.241C287.579 184.572 287.604 183.869 287.819 183.214C288.035 182.559 288.433 181.979 288.966 181.542C289.499 181.104 290.145 180.827 290.83 180.744C291.514 180.66 292.208 180.773 292.831 181.069L308.814 188.66C309.438 188.953 309.965 189.418 310.335 190C310.704 190.583 310.901 191.258 310.901 191.947C310.901 192.637 310.704 193.312 310.335 193.895C309.965 194.477 309.438 194.942 308.814 195.235L296.207 201.083C295.728 201.313 295.204 201.436 294.672 201.444ZM291.271 183.155C290.997 183.159 290.732 183.256 290.519 183.43C290.34 183.573 290.207 183.765 290.137 183.982C290.066 184.199 290.061 184.433 290.121 184.653L293.522 198.11C293.564 198.28 293.644 198.438 293.754 198.573C293.865 198.709 294.004 198.818 294.162 198.894C294.32 198.969 294.492 199.009 294.667 199.01C294.842 199.011 295.015 198.973 295.174 198.899L307.756 193.033C307.959 192.936 308.131 192.784 308.251 192.593C308.371 192.403 308.435 192.182 308.435 191.957C308.435 191.731 308.371 191.511 308.251 191.32C308.131 191.13 307.959 190.977 307.756 190.88L291.773 183.289C291.617 183.209 291.446 183.163 291.271 183.155Z" fill="#2A2E32"/>
<path d="M315.169 222.956H356.616C355.134 218.638 352.34 214.891 348.624 212.238C344.909 209.585 340.458 208.159 335.892 208.159C331.327 208.159 326.876 209.585 323.16 212.238C319.445 214.891 316.651 218.638 315.169 222.956Z" fill="#B3B3B3"/>
<path d="M342.125 217.31C339.805 217.31 337.538 216.622 335.61 215.334C333.682 214.045 332.179 212.214 331.291 210.071C330.404 207.929 330.172 205.571 330.624 203.297C331.077 201.022 332.193 198.933 333.833 197.293C335.473 195.653 337.562 194.536 339.837 194.084C342.112 193.631 344.469 193.863 346.612 194.751C348.754 195.638 350.586 197.141 351.874 199.07C353.163 200.998 353.85 203.265 353.85 205.584C353.847 208.693 352.611 211.674 350.412 213.872C348.214 216.07 345.233 217.307 342.125 217.31ZM342.125 196.305C340.289 196.305 338.495 196.849 336.969 197.869C335.444 198.888 334.254 200.338 333.552 202.033C332.85 203.729 332.666 205.594 333.024 207.394C333.382 209.194 334.266 210.848 335.563 212.145C336.861 213.443 338.514 214.327 340.314 214.685C342.114 215.043 343.98 214.859 345.676 214.157C347.371 213.454 348.82 212.265 349.84 210.739C350.859 209.213 351.404 207.419 351.404 205.584C351.4 203.124 350.422 200.766 348.682 199.026C346.943 197.287 344.585 196.308 342.125 196.305Z" fill="#2A2E32"/>
<path d="M323.163 236.43C321.99 236.422 320.823 236.278 319.683 236.002C315.67 235.066 311.48 232.662 307.89 229.231C304.299 225.8 301.694 221.726 300.55 217.762C299.363 213.566 299.938 209.963 302.195 207.609C304.452 205.254 308.018 204.501 312.257 205.492C316.27 206.428 320.46 208.832 324.056 212.269C327.653 215.707 330.252 219.775 331.396 223.738C332.583 227.928 332.008 231.531 329.745 233.886C328.154 235.568 325.879 236.43 323.163 236.43ZM308.813 207.511C307.93 207.462 307.047 207.595 306.218 207.902C305.388 208.209 304.631 208.684 303.994 209.297C302.366 211.003 301.987 213.768 302.929 217.095C303.932 220.643 306.293 224.325 309.578 227.457C312.863 230.589 316.649 232.785 320.239 233.623C323.604 234.406 326.356 233.904 327.977 232.198C329.598 230.491 329.983 227.726 329.041 224.405C328.038 220.851 325.677 217.169 322.393 214.037C319.108 210.899 315.322 208.71 311.725 207.872C310.773 207.642 309.799 207.521 308.82 207.511H308.813Z" fill="#2A2E32"/>
<path d="M295.822 299.193C295.571 299.194 295.326 299.117 295.121 298.973C294.915 298.83 294.758 298.627 294.672 298.392C290.188 286.158 280.922 276.243 280.83 276.145C280.643 275.904 280.552 275.602 280.577 275.298C280.601 274.994 280.738 274.71 280.961 274.502C281.184 274.293 281.476 274.176 281.781 274.172C282.087 274.168 282.382 274.279 282.61 274.482C283.007 274.898 292.311 284.88 296.972 297.56C297.027 297.711 297.053 297.871 297.046 298.032C297.04 298.193 297.002 298.351 296.934 298.497C296.866 298.643 296.771 298.774 296.652 298.883C296.534 298.992 296.395 299.077 296.244 299.132C296.108 299.176 295.965 299.197 295.822 299.193Z" fill="#2A2E32"/>
<path d="M300.226 300.459C299.901 300.459 299.59 300.33 299.361 300.101C299.131 299.872 299.002 299.56 299.002 299.236V288.581C299.002 288.256 299.131 287.945 299.361 287.716C299.59 287.486 299.901 287.357 300.226 287.357C300.55 287.357 300.861 287.486 301.091 287.716C301.32 287.945 301.449 288.256 301.449 288.581V299.236C301.449 299.397 301.417 299.556 301.356 299.704C301.295 299.853 301.204 299.987 301.091 300.101C300.977 300.215 300.842 300.305 300.694 300.366C300.546 300.428 300.386 300.459 300.226 300.459Z" fill="#2A2E32"/>
<path d="M323.163 315.262C323.163 312.715 322.151 310.273 320.35 308.472C318.549 306.671 316.107 305.659 313.56 305.659H311.419V298.398H284.927V305.677H282.793C281.532 305.677 280.283 305.926 279.118 306.408C277.953 306.891 276.894 307.598 276.002 308.49C275.11 309.382 274.403 310.44 273.92 311.606C273.438 312.771 273.189 314.019 273.189 315.281C273.189 317.827 274.201 320.27 276.002 322.071C277.803 323.872 280.246 324.884 282.793 324.884C280.247 324.884 277.805 325.895 276.004 327.694C274.204 329.494 273.191 331.935 273.189 334.481C273.189 335.742 273.438 336.991 273.92 338.156C274.403 339.321 275.11 340.38 276.002 341.271C276.894 342.163 277.953 342.87 279.118 343.353C280.283 343.836 281.532 344.084 282.793 344.084H313.547C314.809 344.084 316.057 343.836 317.222 343.353C318.387 342.87 319.446 342.163 320.338 341.271C321.23 340.38 321.937 339.321 322.42 338.156C322.902 336.991 323.151 335.742 323.151 334.481C323.149 331.935 322.136 329.494 320.336 327.694C318.535 325.895 316.093 324.884 313.547 324.884C314.811 324.885 316.063 324.638 317.23 324.154C318.398 323.671 319.459 322.963 320.352 322.069C321.246 321.175 321.954 320.114 322.436 318.946C322.918 317.778 323.165 316.526 323.163 315.262Z" fill="#636466"/>
<path d="M313.945 323.686H303.1V326.132H313.945V323.686Z" fill="#2A2E32"/>
<path d="M287.894 323.624H282.211V326.071H287.894V323.624Z" fill="#2A2E32"/>
<path d="M298.17 300.655C305.616 300.655 311.651 299.398 311.651 297.848C311.651 296.297 305.616 295.04 298.17 295.04C290.725 295.04 284.689 296.297 284.689 297.848C284.689 299.398 290.725 300.655 298.17 300.655Z" fill="#2A2E32"/>
<path d="M300.225 288.588C303.738 288.588 306.587 285.74 306.587 282.227C306.587 278.713 303.738 275.865 300.225 275.865C296.712 275.865 293.864 278.713 293.864 282.227C293.864 285.74 296.712 288.588 300.225 288.588Z" fill="#C20004"/>
<path d="M279.429 279.523C283.192 279.523 286.243 276.472 286.243 272.709C286.243 268.945 283.192 265.895 279.429 265.895C275.665 265.895 272.615 268.945 272.615 272.709C272.615 276.472 275.665 279.523 279.429 279.523Z" fill="#C20004"/>
<path d="M269.243 446.528L222.535 468.169C221.303 468.74 220.767 470.202 221.337 471.434L222.24 473.382C222.811 474.614 224.273 475.15 225.505 474.58L272.213 452.938C273.445 452.367 273.981 450.905 273.41 449.673L272.508 447.725C271.937 446.493 270.475 445.957 269.243 446.528Z" fill="#2A2E32"/>
<path d="M271.526 431.682L248.282 437.798L216.879 452.344L222.238 463.91C222.728 464.968 223.618 465.787 224.712 466.188C225.806 466.59 227.015 466.54 228.073 466.051L269.403 446.9L271.526 431.682Z" fill="white"/>
<path d="M266.168 455.75L292.604 443.516C293.574 443.063 294.325 442.245 294.693 441.239C295.061 440.234 295.016 439.124 294.568 438.152C292.718 434.161 289.36 431.068 285.231 429.552C281.101 428.037 276.539 428.224 272.547 430.072C268.556 431.921 265.463 435.279 263.948 439.409C262.433 443.538 262.62 448.1 264.467 452.092L266.168 455.75Z" fill="#2A2E32"/>
<path d="M127.209 500.476C126.911 500.479 126.623 500.373 126.398 500.178C126.172 499.983 126.026 499.713 125.986 499.418L109.526 377.806C109.504 377.645 109.514 377.482 109.556 377.325C109.597 377.168 109.669 377.021 109.767 376.892C109.866 376.763 109.988 376.655 110.128 376.574C110.268 376.492 110.423 376.439 110.584 376.417C110.745 376.396 110.908 376.406 111.065 376.447C111.221 376.489 111.368 376.561 111.497 376.659C111.626 376.757 111.735 376.88 111.816 377.02C111.898 377.16 111.951 377.315 111.972 377.476L128.42 499.088C128.464 499.409 128.378 499.734 128.182 499.992C127.986 500.25 127.695 500.42 127.374 500.464L127.209 500.476Z" fill="#2A2E32"/>
<path d="M37.9233 500.475H37.7521C37.4309 500.429 37.1409 500.258 36.9459 499.999C36.7509 499.74 36.6669 499.414 36.7122 499.093L53.9062 377.468C53.9517 377.144 54.1241 376.851 54.3856 376.653C54.6472 376.456 54.9764 376.371 55.3008 376.416C55.6253 376.462 55.9184 376.634 56.1157 376.896C56.313 377.157 56.3983 377.486 56.3529 377.811L39.1344 499.423C39.0932 499.715 38.9479 499.982 38.7254 500.175C38.5029 500.368 38.2181 500.475 37.9233 500.475Z" fill="#2A2E32"/>
<path d="M121.123 460.166H44.7009C44.3764 460.166 44.0653 460.037 43.8358 459.808C43.6064 459.579 43.4775 459.268 43.4775 458.943C43.4775 458.619 43.6064 458.307 43.8358 458.078C44.0653 457.849 44.3764 457.72 44.7009 457.72H121.123C121.447 457.72 121.758 457.849 121.988 458.078C122.217 458.307 122.346 458.619 122.346 458.943C122.346 459.268 122.217 459.579 121.988 459.808C121.758 460.037 121.447 460.166 121.123 460.166Z" fill="#2A2E32"/>
<path d="M44.7071 377.641H118.756C123.424 377.641 127.209 373.856 127.209 369.187V357.394C127.209 352.726 123.424 348.941 118.756 348.941H44.7071C40.0385 348.941 36.2538 352.726 36.2538 357.394V369.187C36.2538 373.856 40.0385 377.641 44.7071 377.641Z" fill="#B3B3B3"/>
<path d="M42.0951 315.911H117.985V284.881H47.3432C44.9595 290.19 43.3131 295.8 42.4499 301.555C41.7527 306.308 41.6336 311.129 42.0951 315.911Z" fill="#2A2E32"/>
<path d="M194.571 492.543H143.093C141.735 492.543 140.634 493.644 140.634 495.002V497.149C140.634 498.507 141.735 499.608 143.093 499.608H194.571C195.929 499.608 197.03 498.507 197.03 497.149V495.002C197.03 493.644 195.929 492.543 194.571 492.543Z" fill="#2A2E32"/>
<path d="M202.897 480.003L179.231 475.782H144.623V488.566C144.623 489.733 145.086 490.851 145.911 491.676C146.736 492.501 147.855 492.964 149.021 492.964H194.572L202.897 480.003Z" fill="white"/>
<path d="M232.238 451.658L246.466 441.259C250.886 438.03 253.844 433.179 254.691 427.771C255.539 422.363 254.206 416.84 250.986 412.413L188.688 326.987C183.951 320.493 176.829 316.146 168.888 314.902C160.947 313.659 152.836 315.621 146.342 320.357C139.847 325.093 135.5 332.215 134.257 340.157C133.013 348.098 134.975 356.208 139.711 362.703L201.013 446.77C204.506 451.559 209.758 454.764 215.614 455.68C221.469 456.597 227.449 455.15 232.238 451.658Z" fill="#2A2E32"/>
<path d="M84.3984 359.407H192.664V338.133C192.664 329.949 189.413 322.1 183.626 316.313C177.838 310.526 169.989 307.274 161.805 307.274H42.0098V317.018C42.0098 322.585 43.1062 328.097 45.2364 333.24C47.3666 338.383 50.489 343.055 54.4251 346.992C58.3613 350.928 63.0342 354.05 68.177 356.18C73.3198 358.311 78.8319 359.407 84.3984 359.407Z" fill="#2A2E32"/>
<path d="M154.373 478.78H171.977C177.457 478.78 182.713 476.603 186.588 472.728C190.462 468.853 192.639 463.598 192.639 458.118V356.795H132.023V456.43C132.022 459.365 132.6 462.272 133.723 464.984C134.846 467.696 136.492 470.16 138.567 472.236C140.643 474.311 143.107 475.957 145.819 477.08C148.531 478.203 151.438 478.781 154.373 478.78Z" fill="#2A2E32"/>
<path d="M224.972 452.08C224.776 452.081 224.583 452.035 224.408 451.945C224.233 451.856 224.083 451.726 223.969 451.566L190.248 403.715C190.156 403.583 190.092 403.433 190.058 403.276C190.024 403.118 190.021 402.956 190.05 402.797C190.079 402.639 190.139 402.487 190.227 402.352C190.314 402.217 190.427 402.1 190.56 402.008C190.692 401.917 190.841 401.852 190.999 401.818C191.156 401.785 191.319 401.782 191.478 401.811C191.636 401.84 191.787 401.9 191.923 401.987C192.058 402.075 192.175 402.188 192.266 402.32L225.969 450.153C226.062 450.284 226.128 450.433 226.164 450.589C226.199 450.746 226.204 450.909 226.176 451.067C226.149 451.226 226.091 451.377 226.005 451.513C225.919 451.649 225.807 451.767 225.676 451.859C225.469 452.003 225.224 452.08 224.972 452.08Z" fill="white"/>
<path d="M151.217 479.77C150.893 479.77 150.581 479.641 150.352 479.412C150.123 479.182 149.994 478.871 149.994 478.547V354.268C149.99 350.315 148.419 346.526 145.624 343.731C142.829 340.936 139.04 339.365 135.087 339.361H87.5117C81.865 339.355 76.4515 337.109 72.4587 333.116C68.4659 329.123 66.2199 323.71 66.2134 318.063V307.273C66.2134 306.949 66.3423 306.638 66.5717 306.408C66.8011 306.179 67.1123 306.05 67.4367 306.05C67.7612 306.05 68.0723 306.179 68.3017 306.408C68.5312 306.638 68.6601 306.949 68.6601 307.273V318.063C68.6649 323.061 70.6526 327.853 74.1869 331.388C77.7212 334.922 82.5134 336.91 87.5117 336.915H135.087C139.688 336.921 144.098 338.751 147.351 342.004C150.604 345.257 152.434 349.667 152.44 354.268V478.547C152.44 478.871 152.311 479.182 152.082 479.412C151.853 479.641 151.541 479.77 151.217 479.77Z" fill="white"/>
<path d="M187.905 499.608H217.045C218.115 499.608 219.142 499.183 219.899 498.425C220.656 497.668 221.082 496.642 221.082 495.571C221.082 491.172 219.335 486.954 216.225 483.843C213.116 480.732 208.898 478.984 204.499 478.982C200.1 478.982 195.88 480.73 192.77 483.841C189.659 486.952 187.911 491.171 187.911 495.571L187.905 499.608Z" fill="#2A2E32"/>
<path d="M191.244 436.005C190.92 436.005 190.609 435.876 190.379 435.647C190.15 435.418 190.021 435.106 190.021 434.782V334.309C190.021 333.985 190.15 333.674 190.379 333.444C190.609 333.215 190.92 333.086 191.244 333.086C191.569 333.086 191.88 333.215 192.109 333.444C192.339 333.674 192.468 333.985 192.468 334.309V434.782C192.468 435.106 192.339 435.418 192.109 435.647C191.88 435.876 191.569 436.005 191.244 436.005Z" fill="white"/>
<path d="M152.201 315.911L186.889 266.286C186.889 266.286 216.249 265.234 227.216 243.122C227.592 242.43 227.833 241.672 227.926 240.89C228.058 239.718 227.864 238.532 227.363 237.464C227.819 236.932 228.228 236.361 228.586 235.758C229.394 234.394 230.177 233.054 229.345 231.476C229.011 230.786 228.422 230.251 227.703 229.984C226.984 229.718 226.189 229.739 225.485 230.045C226.219 228.614 226.207 227.139 225.442 226.289C225.129 225.945 224.717 225.708 224.262 225.61C222.115 225.103 219.717 227.531 219.032 228.204C216.267 230.938 210.842 235.317 202.939 241.373C202.939 241.373 214.243 232.889 210.891 228.607C209.882 227.329 207.985 228.124 206.878 228.754C204.835 229.929 203.557 231.996 201.844 233.525C199.617 235.42 196.991 236.788 194.162 237.526C189.672 238.792 185.115 238.804 180.791 240.7C178.828 241.551 176.979 242.642 175.286 243.948C173.304 245.496 172.111 247.661 170.307 249.282L142.463 274.232L152.201 315.911Z" fill="white"/>
<path d="M151.638 318.858L141.081 273.797L165.114 252.266C167.756 249.899 168.912 248.865 169.499 248.406L169.462 248.37C170.203 247.665 170.89 246.907 171.518 246.1C172.392 244.947 173.395 243.899 174.509 242.975C176.284 241.607 178.221 240.465 180.277 239.574C183.023 238.351 185.843 237.886 188.577 237.421C190.336 237.154 192.08 236.794 193.801 236.344C196.455 235.659 198.919 234.379 201.006 232.601C201.601 232.048 202.167 231.464 202.701 230.851C203.699 229.61 204.896 228.541 206.242 227.689C209.643 225.744 211.282 227.145 211.827 227.842C212.187 228.298 212.449 228.823 212.596 229.386C212.742 229.948 212.77 230.535 212.677 231.108C212.617 231.551 212.51 231.985 212.359 232.405C214.995 230.246 216.904 228.582 218.176 227.328C219.099 226.411 221.779 223.762 224.543 224.411C225.249 224.566 225.89 224.935 226.378 225.469C226.733 225.899 226.991 226.4 227.137 226.938C227.282 227.475 227.311 228.038 227.222 228.588C227.905 228.688 228.553 228.949 229.114 229.35C229.675 229.751 230.131 230.281 230.446 230.894C231.602 233.096 230.519 234.919 229.657 236.399C229.391 236.846 229.099 237.277 228.782 237.69C229.161 238.768 229.291 239.918 229.161 241.054C229.05 241.987 228.762 242.89 228.311 243.715C223.711 253.018 215.081 260.101 203.367 264.169C198.263 265.943 192.954 267.059 187.568 267.49L151.638 318.858ZM143.797 274.653L152.77 312.962L186.234 265.08H186.846C187.134 265.08 215.637 263.784 226.127 242.596C226.513 241.895 226.726 241.113 226.748 240.314C226.77 239.515 226.602 238.723 226.256 238.002L225.926 237.286L226.439 236.675C226.85 236.197 227.216 235.683 227.534 235.139C228.409 233.671 228.758 232.937 228.268 232.044C228.081 231.634 227.742 231.312 227.322 231.145C226.903 230.979 226.435 230.981 226.017 231.151L222.751 232.711L224.403 229.487C224.886 228.539 224.941 227.555 224.537 227.096C224.388 226.943 224.196 226.839 223.987 226.796C223.326 226.643 222.09 226.906 219.944 229.029L219.901 229.072C217.283 231.665 212.396 235.653 204.071 242.063L203.673 242.369L202.193 240.418L202.572 240.13C204.878 238.326 209.851 233.873 210.249 230.815C210.297 230.565 210.291 230.307 210.232 230.059C210.173 229.811 210.062 229.579 209.906 229.377C209.417 228.766 207.784 229.653 207.459 229.836C206.344 230.567 205.351 231.469 204.517 232.509C203.926 233.192 203.297 233.841 202.633 234.454C200.273 236.485 197.48 237.949 194.468 238.736C192.655 239.218 190.817 239.6 188.962 239.88C186.259 240.338 183.708 240.773 181.237 241.855C179.366 242.665 177.603 243.705 175.989 244.95C175.02 245.763 174.146 246.682 173.383 247.691C172.681 248.595 171.91 249.443 171.077 250.229L143.797 274.653Z" fill="#2A2E32"/>
<path d="M227.131 237.74C227.131 237.74 220.219 248.09 213.54 251.301L227.131 237.74Z" fill="white"/>
<path d="M214.072 252.402L213.008 250.194C219.314 247.136 226.042 237.159 226.11 237.062L228.147 238.419C227.859 238.854 220.972 249.087 214.072 252.402Z" fill="#2A2E32"/>
<path d="M225.485 230.038C225.485 230.038 215.87 242.883 209.802 245.36L225.485 230.038Z" fill="white"/>
<path d="M210.274 246.492L209.338 244.229C215.026 241.893 224.416 229.433 224.507 229.311L226.465 230.772C226.061 231.311 216.574 243.899 210.274 246.492Z" fill="#2A2E32"/>
<path d="M87.4137 179.062L100.956 177.656C107.129 177.014 112.794 173.947 116.706 169.13C120.619 164.312 122.458 158.139 121.82 151.965L120.511 139.408C120.23 136.689 119.416 134.052 118.115 131.648C116.814 129.244 115.052 127.12 112.93 125.398C110.807 123.675 108.366 122.388 105.746 121.61C103.126 120.832 100.378 120.577 97.6591 120.862L87.1262 121.957C79.5056 122.751 72.5121 126.539 67.6823 132.487C62.8526 138.435 60.5818 146.057 61.3688 153.678L61.852 158.315C62.4906 164.455 65.5423 170.091 70.336 173.982C75.1297 177.873 81.2727 179.701 87.4137 179.062Z" fill="#2A2E32"/>
<path d="M72.3299 162.829C71.9886 160.752 72.4845 158.624 73.709 156.912C74.9335 155.201 76.7868 154.044 78.8626 153.696C79.2312 153.64 79.603 153.607 79.9758 153.598L78.0674 132.759L107.856 131.046C110.92 130.873 113.939 131.839 116.333 133.759C118.727 135.679 120.327 138.416 120.823 141.445L121.435 145.115C122.027 148.705 123.6 152.062 125.979 154.816C126.487 155.382 126.762 156.119 126.748 156.879C126.735 157.639 126.434 158.366 125.906 158.914L124.028 160.841L125.313 168.603C125.568 170.145 125.486 171.724 125.073 173.232C124.66 174.74 123.926 176.14 122.921 177.337C121.915 178.535 120.663 179.5 119.249 180.167C117.835 180.834 116.294 181.188 114.731 181.203L107.018 181.276L107.629 194.391L83.2238 195.534C82.8609 190.98 82.502 186.423 82.1472 181.864C81.8903 177.704 81.6355 173.545 81.3826 169.386C79.3145 169.704 77.2044 169.194 75.5097 167.966C73.8151 166.739 72.6726 164.893 72.3299 162.829Z" fill="white"/>
<path d="M82.1289 196.801L80.9423 181.938L80.2572 170.689H80.1471C77.9857 170.675 75.8985 169.899 74.2536 168.497C72.6086 167.095 71.5115 165.157 71.1556 163.025C70.7625 160.632 71.3325 158.181 72.7412 156.208C74.1498 154.234 76.2824 152.898 78.673 152.492L76.7585 131.61L107.831 129.824C111.194 129.629 114.509 130.685 117.139 132.789C119.77 134.893 121.528 137.896 122.077 141.219L122.689 144.889C123.247 148.26 124.729 151.411 126.97 153.991C127.687 154.788 128.073 155.828 128.053 156.899C128.033 157.971 127.606 158.995 126.86 159.765L125.411 161.245L126.597 168.395C126.883 170.112 126.793 171.87 126.334 173.549C125.875 175.227 125.058 176.787 123.939 178.119C122.821 179.452 121.426 180.527 119.852 181.269C118.279 182.012 116.563 182.405 114.823 182.421L108.382 182.482L108.993 195.554L82.1289 196.801ZM82.5571 167.949L83.4012 181.773L84.386 194.245L106.406 193.217L105.794 180.054L114.774 179.968C116.161 179.956 117.529 179.643 118.783 179.052C120.038 178.461 121.15 177.605 122.042 176.543C122.934 175.481 123.586 174.238 123.952 172.9C124.318 171.563 124.39 170.161 124.163 168.793L122.774 160.419L125.086 158.052C125.396 157.72 125.569 157.283 125.569 156.829C125.569 156.375 125.396 155.937 125.086 155.605C122.553 152.677 120.874 149.106 120.236 145.287L119.624 141.617C119.177 138.889 117.734 136.424 115.575 134.698C113.416 132.972 110.695 132.107 107.935 132.27L79.3948 133.91L81.3093 154.792L80.0003 154.822C79.685 154.83 79.3704 154.856 79.0584 154.902C77.3909 155.284 75.9315 156.286 74.9767 157.705C74.022 159.125 73.6436 160.854 73.9187 162.543C74.1937 164.231 75.1014 165.751 76.4572 166.794C77.8131 167.837 79.5152 168.324 81.2175 168.157L82.5571 167.949Z" fill="#2A2E32"/>
<path d="M109.85 155.579C110.914 155.579 111.776 154.716 111.776 153.652C111.776 152.588 110.914 151.726 109.85 151.726C108.786 151.726 107.923 152.588 107.923 153.652C107.923 154.716 108.786 155.579 109.85 155.579Z" fill="#2A2E32"/>
<path d="M81.474 166.034C80.8197 166.032 80.1797 165.843 79.6293 165.49C79.0788 165.136 78.6409 164.632 78.3671 164.038C78.0934 163.444 77.9952 162.784 78.0841 162.136C78.173 161.488 78.4454 160.879 78.869 160.38C79.2927 159.882 79.8501 159.515 80.4754 159.322C81.1007 159.13 81.768 159.121 82.3985 159.295C83.029 159.469 83.5966 159.82 84.0342 160.307C84.4719 160.793 84.7614 161.394 84.8687 162.04C84.9439 162.484 84.9303 162.94 84.8288 163.379C84.7272 163.819 84.5397 164.234 84.277 164.6C84.0144 164.967 83.6817 165.278 83.2982 165.516C82.9148 165.754 82.4881 165.913 82.0428 165.985C81.8552 166.019 81.6647 166.036 81.474 166.034ZM81.474 161.618C81.4191 161.612 81.3637 161.612 81.3088 161.618C81.1811 161.638 81.0586 161.684 80.9486 161.752C80.8385 161.82 80.743 161.91 80.6675 162.015C80.5919 162.12 80.5378 162.239 80.5083 162.365C80.4787 162.491 80.4743 162.621 80.4953 162.749C80.5479 162.997 80.6921 163.215 80.899 163.361C81.0039 163.436 81.1229 163.491 81.2488 163.52C81.3748 163.549 81.5054 163.553 81.633 163.532C81.8899 163.489 82.1191 163.345 82.2704 163.133C82.4218 162.921 82.4829 162.658 82.4404 162.401C82.4203 162.272 82.3748 162.149 82.3065 162.039C82.2382 161.929 82.1486 161.833 82.0428 161.758C81.8761 161.655 81.6818 161.606 81.4862 161.618H81.474Z" fill="#2A2E32"/>
<path d="M105.543 193.399C102.351 192.714 101.457 193.21 87.1934 192.555L68.8433 191.711C63.4106 191.8 58.1546 193.655 53.8697 196.996C44.9699 204.073 44.5906 214.795 44.5601 216.361C45.4776 239.197 46.3971 262.032 47.3187 284.868L129.105 285.419C130.707 281.7 132.958 276.366 135.527 269.907C141.932 253.826 145.137 245.678 145.063 240.547C144.892 228.54 137.473 219.75 130.573 211.572C124.897 204.813 117.404 195.944 105.543 193.399Z" fill="#C20004"/>
<path d="M83.75 163.886H83.7072C83.5465 163.88 83.3885 163.843 83.2422 163.777C83.0959 163.71 82.9641 163.615 82.8545 163.498C82.7448 163.38 82.6595 163.242 82.6032 163.091C82.547 162.941 82.521 162.78 82.5267 162.62C82.5464 162.056 82.4178 161.496 82.1538 160.997C81.8898 160.498 81.4995 160.077 81.022 159.776C80.5608 159.511 80.0441 159.357 79.5131 159.328C78.9821 159.298 78.4515 159.393 77.9636 159.604C77.6692 159.741 77.3324 159.756 77.0272 159.645C76.7221 159.533 76.4737 159.305 76.3366 159.011C76.1995 158.717 76.185 158.38 76.2963 158.075C76.4075 157.769 76.6355 157.521 76.9299 157.384C77.7867 157.002 78.7226 156.831 79.6592 156.885C80.5958 156.939 81.5057 157.217 82.3126 157.696C83.1547 158.225 83.8426 158.967 84.3075 159.846C84.7724 160.725 84.9978 161.712 84.9611 162.705C84.9501 163.02 84.818 163.319 84.5924 163.539C84.3668 163.759 84.0651 163.883 83.75 163.886Z" fill="#2A2E32"/>
<path d="M109.159 131.015C109.159 131.015 113.832 156.656 79.927 154.778L78.1348 132.758L109.159 131.015Z" fill="#2A2E32"/>
<path d="M106.693 180.047C106.803 182.494 106.917 184.94 107.036 187.387L93.0651 181.166C92.9666 181.125 92.8855 181.05 92.8354 180.956C92.7853 180.861 92.7693 180.752 92.7902 180.647C92.811 180.543 92.8674 180.448 92.9498 180.38C93.0322 180.312 93.1355 180.274 93.2425 180.273L106.693 180.047Z" fill="#2A2E32"/>
<path d="M111.887 171.93C110.381 171.884 108.919 171.417 107.665 170.581C106.412 169.745 105.419 168.575 104.798 167.202C104.666 166.915 104.601 166.602 104.608 166.287C104.615 165.972 104.694 165.662 104.838 165.381C104.982 165.101 105.189 164.857 105.441 164.668C105.694 164.479 105.986 164.35 106.296 164.29L116.083 162.425C116.38 162.374 116.685 162.387 116.977 162.465C117.268 162.543 117.539 162.682 117.772 162.875C118.004 163.067 118.192 163.307 118.323 163.579C118.454 163.851 118.524 164.148 118.53 164.45C118.566 167.508 116.915 170.328 114.419 171.416C113.62 171.761 112.757 171.936 111.887 171.93ZM107.244 166.603C108.657 169.123 111.569 169.997 113.453 169.172C114.951 168.523 115.973 166.841 116.083 164.89L107.244 166.603Z" fill="#2A2E32"/>
<path d="M165.897 259.557H117.758C112.971 259.557 109.091 263.437 109.091 268.224V316.362C109.091 321.149 112.971 325.03 117.758 325.03H165.897C170.683 325.03 174.564 321.149 174.564 316.362V268.224C174.564 263.437 170.683 259.557 165.897 259.557Z" fill="#B3B3B3"/>
<path d="M141.828 324.871C141.503 324.871 141.192 324.742 140.963 324.513C140.733 324.283 140.604 323.972 140.604 323.648V261.025C140.604 260.701 140.733 260.389 140.963 260.16C141.192 259.931 141.503 259.802 141.828 259.802C142.152 259.802 142.463 259.931 142.693 260.16C142.922 260.389 143.051 260.701 143.051 261.025V323.648C143.051 323.972 142.922 324.283 142.693 324.513C142.463 324.742 142.152 324.871 141.828 324.871Z" fill="#2A2E32"/>
<path d="M108.525 186.695L81.4604 188.133L81.9837 197.985L109.049 196.548L108.525 186.695Z" fill="#C20004"/>
<path d="M64.0542 153.984C64.0542 153.984 42.4133 149.959 22.4607 162.675C13.4352 168.401 6.47452 176.859 2.59367 186.818C0.758666 191.51 -0.495255 196.966 0.189814 202.244C1.67617 213.774 13.5915 220.925 24.1733 216.123C30.7855 213.126 38.2784 205.364 44.7927 187.625C44.7927 187.625 51.2458 168.664 66.0421 167.44L64.0542 153.984Z" fill="#2A2E32"/>
<path d="M153.325 219.937L93.0426 250.639C91.4442 251.453 90.8084 253.409 91.6225 255.007L94.9259 261.494C95.74 263.092 97.6957 263.728 99.2941 262.914L159.577 232.212C161.175 231.397 161.811 229.442 160.997 227.843L157.693 221.357C156.879 219.759 154.924 219.123 153.325 219.937Z" fill="#B3B3B3"/>
<path d="M127.667 248.475L115.807 254.909C113.651 256.094 111.35 256.992 108.962 257.582C104.938 258.555 99.7874 258.806 98.6803 254.267C98.6803 254.267 95.4507 248.56 111.201 242.456C111.598 242.243 111.913 241.906 112.099 241.496C112.285 241.086 112.331 240.626 112.229 240.187C112.127 239.749 111.884 239.356 111.537 239.069C111.19 238.783 110.758 238.619 110.308 238.602C108.408 238.572 106.509 238.74 104.644 239.104C102.733 239.617 100.871 240.297 99.0779 241.135C93.6745 243.714 89.0007 247.601 85.4805 252.444C84.2007 254.179 82.5685 255.624 80.6911 256.683L63.1607 266.531C70.2132 242.205 75.3084 224.222 77.278 217.445C77.9673 215.147 78.2711 212.752 78.1771 210.355C78.1282 209.273 77.8774 203.492 74.5071 199.388C70.5007 194.525 62.7264 192.788 57.044 194.354C47.5264 196.984 43.624 208.967 36.1494 231.941C32.1368 244.26 29.4822 256.549 28.2955 262.017C26.4055 270.758 24.5705 279.082 26.7113 287.97C28.0937 293.707 30.9074 299.39 36.0148 302.65C38.2548 304.057 40.7663 304.976 43.3854 305.348C46.4431 305.782 49.5568 305.596 52.5412 304.801C55.5256 304.007 58.3196 302.62 60.7568 300.723L86.3613 281.15C89.894 278.447 93.8935 276.418 98.1604 275.162L104.675 273.259C109.265 271.906 113.378 269.278 116.535 265.681L129.551 250.848C129.786 250.596 129.93 250.272 129.961 249.929C129.992 249.586 129.908 249.242 129.722 248.952C129.5 248.631 129.167 248.405 128.787 248.317C128.407 248.229 128.008 248.285 127.667 248.475Z" fill="white"/>
<path d="M46.5905 306.821C45.454 306.821 44.3192 306.735 43.1957 306.564C40.4057 306.168 37.7312 305.186 35.348 303.683C29.372 299.848 26.699 293.168 25.5123 288.244C23.3287 279.161 25.1331 270.818 27.0415 261.979L27.0966 261.747C29.2184 251.555 31.8498 241.477 34.981 231.549C42.688 207.859 46.5599 195.968 56.7136 193.166C62.3409 191.607 70.8187 192.983 75.4429 198.598C78.6052 202.439 79.278 207.571 79.4004 210.287C79.5081 212.814 79.1875 215.341 78.4523 217.762C77.7244 220.276 76.5683 224.306 75.0514 229.622C72.568 238.277 69.2344 249.935 65.1668 263.985L80.0793 255.593C81.8073 254.619 83.3085 253.289 84.4833 251.691C88.1158 246.673 92.9542 242.65 98.5517 239.996C100.41 239.13 102.34 238.428 104.32 237.898H104.424C106.376 237.517 108.362 237.343 110.351 237.378C111.071 237.402 111.762 237.664 112.318 238.122C112.873 238.58 113.262 239.209 113.423 239.911C113.584 240.613 113.509 241.349 113.209 242.003C112.909 242.658 112.401 243.195 111.764 243.531L111.635 243.592C102.84 246.957 100.515 250.125 99.8668 251.697C99.7165 252.002 99.6287 252.334 99.6087 252.673C99.5888 253.012 99.637 253.352 99.7506 253.673L99.8301 253.819V253.96C100.521 256.804 103.5 257.63 108.638 256.37C110.926 255.803 113.13 254.942 115.195 253.807L127.068 247.397C127.641 247.061 128.317 246.944 128.97 247.067C129.622 247.191 130.209 247.546 130.62 248.068C131.032 248.589 131.241 249.242 131.208 249.906C131.176 250.57 130.904 251.199 130.444 251.679L117.458 266.481C114.147 270.255 109.833 273.012 105.017 274.433L98.4906 276.359C94.3577 277.572 90.4826 279.533 87.0585 282.146L61.4601 301.719C57.1921 304.995 51.9705 306.786 46.5905 306.821ZM61.3684 195.014C60.0203 195.004 58.6769 195.175 57.3742 195.521C48.4927 197.968 44.7554 209.449 37.3176 232.307C34.2127 242.161 31.6037 252.164 29.5004 262.279L29.4454 262.505C27.6104 271.069 25.8488 279.143 27.904 287.681C28.9866 292.171 31.3905 298.239 36.6814 301.634C38.7751 302.953 41.1245 303.814 43.5749 304.16C46.4693 304.561 49.4148 304.379 52.2376 303.623C55.0603 302.868 57.7033 301.555 60.0105 299.762L85.6088 280.189C89.262 277.394 93.3985 275.295 97.8116 273.998L104.338 272.072C108.71 270.784 112.625 268.281 115.63 264.854L128.652 250.015C128.706 249.962 128.743 249.893 128.756 249.819C128.769 249.744 128.758 249.667 128.725 249.599C128.67 249.536 128.594 249.495 128.511 249.483C128.428 249.47 128.344 249.488 128.273 249.532L116.4 255.942C114.15 257.174 111.751 258.111 109.262 258.731C100.582 260.823 98.1847 257.135 97.5364 254.639C97.0602 253.462 97.0602 252.146 97.5364 250.969C98.7964 247.452 103.219 244.192 110.681 241.286C110.832 241.203 110.95 241.072 111.017 240.913C111.083 240.754 111.094 240.577 111.048 240.412C111.014 240.23 110.916 240.066 110.773 239.948C110.63 239.831 110.45 239.768 110.265 239.769C108.47 239.745 106.676 239.905 104.913 240.247C103.088 240.737 101.31 241.386 99.5977 242.186C94.3604 244.673 89.8367 248.443 86.4468 253.147C85.0643 255.019 83.3033 256.58 81.2782 257.728L61.1421 269.056L61.9739 266.181C66.4208 250.841 70.048 238.185 72.6904 228.949C74.2134 223.627 75.3695 219.59 76.0974 217.089C76.7503 214.919 77.0376 212.655 76.9476 210.391C76.8436 207.981 76.2625 203.442 73.5467 200.152C70.6657 196.647 65.7357 195.014 61.3684 195.014Z" fill="#2A2E32"/>
<path d="M49.3431 275.179C49.066 275.189 48.7937 275.104 48.571 274.939C48.3482 274.774 48.1882 274.538 48.1171 274.27C48.046 274.002 48.068 273.718 48.1797 273.464C48.2913 273.21 48.4858 273.001 48.7314 272.873L62.5918 265.441C62.8782 265.288 63.2137 265.254 63.5245 265.348C63.8354 265.442 64.0962 265.656 64.2495 265.942C64.4028 266.229 64.436 266.564 64.342 266.875C64.2479 267.186 64.0342 267.447 63.7479 267.6L49.9181 275.032C49.7413 275.127 49.5439 275.178 49.3431 275.179Z" fill="#2A2E32"/>
<path d="M235.016 67.5119C232.003 67.5119 229.059 66.6186 226.554 64.9451C224.049 63.2715 222.097 60.8928 220.945 58.1098C219.792 55.3268 219.49 52.2645 220.078 49.31C220.665 46.3556 222.116 43.6418 224.246 41.5117C226.376 39.3817 229.09 37.9311 232.044 37.3434C234.999 36.7558 238.061 37.0574 240.844 38.2101C243.627 39.3629 246.006 41.3151 247.679 43.8197C249.353 46.3244 250.246 49.269 250.246 52.2813C250.241 56.3192 248.635 60.1904 245.78 63.0456C242.925 65.9008 239.054 67.507 235.016 67.5119ZM235.016 39.4975C232.487 39.4975 230.016 40.2472 227.913 41.6519C225.811 43.0566 224.173 45.0532 223.205 47.3892C222.237 49.7251 221.984 52.2955 222.477 54.7754C222.971 57.2552 224.188 59.5331 225.976 61.3209C227.764 63.1088 230.042 64.3263 232.522 64.8196C235.002 65.3129 237.572 65.0597 239.908 64.0921C242.244 63.1245 244.24 61.486 245.645 59.3837C247.05 57.2814 247.8 54.8098 247.8 52.2813C247.796 48.8918 246.448 45.6421 244.052 43.2454C241.655 40.8486 238.405 39.5007 235.016 39.4975Z" fill="#C20004"/>
<path d="M239.016 4.49178C239.016 2.27909 237.224 0.485352 235.013 0.485352C232.802 0.485352 231.009 2.27909 231.009 4.49178V31.2951C231.009 33.5078 232.802 35.3015 235.013 35.3015C237.224 35.3015 239.016 33.5078 239.016 31.2951V4.49178Z" fill="#2A2E32"/>
<path d="M234.38 25.5873C225.127 25.7238 216.083 28.3525 208.199 33.1965C200.316 38.0405 193.884 44.9206 189.581 53.1125C189.435 53.3917 189.363 53.7039 189.373 54.019C189.383 54.334 189.473 54.6412 189.636 54.911C189.799 55.1808 190.029 55.4041 190.303 55.5594C190.577 55.7147 190.887 55.7968 191.202 55.7977H278.83C279.146 55.7973 279.456 55.7154 279.731 55.5598C280.006 55.4041 280.236 55.1801 280.399 54.9094C280.562 54.6387 280.653 54.3305 280.662 54.0146C280.671 53.6987 280.598 53.3858 280.45 53.1063C276.043 44.7277 269.411 37.7262 261.283 32.8713C253.155 28.0165 243.846 25.4962 234.38 25.5873Z" fill="#B3B3B3"/>
<path d="M208.102 47.7735C202.218 47.7735 197.428 43.8099 197.355 43.7487C197.107 43.5394 196.952 43.2401 196.924 42.9166C196.897 42.5932 196.999 42.272 197.208 42.0238C197.417 41.7756 197.717 41.6207 198.04 41.5932C198.364 41.5656 198.685 41.6677 198.933 41.877C199.312 42.1889 208.169 49.48 215.699 41.9504L216.439 41.2042L217.289 41.8158C219.205 43.1192 221.324 44.0968 223.559 44.709C228.146 45.9324 232.012 44.9843 235.064 41.9382L235.786 41.2164L236.624 41.7914C236.991 42.0483 245.799 47.957 251.818 41.9382L252.576 41.1797L253.427 41.8281C255.234 43.1153 257.249 44.0816 259.384 44.6845C263.758 45.8773 267.501 44.9476 270.517 41.9382C270.628 41.8152 270.763 41.716 270.913 41.6467C271.064 41.5774 271.227 41.5395 271.392 41.5351C271.558 41.5307 271.723 41.56 271.877 41.6213C272.031 41.6826 272.171 41.7745 272.288 41.8914C272.406 42.0084 272.498 42.148 272.56 42.3018C272.622 42.4555 272.651 42.6202 272.648 42.7859C272.644 42.9516 272.607 43.1148 272.538 43.2655C272.469 43.4163 272.37 43.5516 272.248 43.6631C264.908 51.0398 255.623 46.1526 252.797 44.3543C247.292 49.0091 239.952 46.6664 236.067 44.3543C228.727 50.8135 219.552 46.0914 216.702 44.3543C214.372 46.542 211.298 47.7641 208.102 47.7735Z" fill="#2A2E32"/>
<path d="M168.319 173.336C167.957 173.334 167.596 173.281 167.249 173.177C166.652 172.994 166.113 172.66 165.684 172.206C165.255 171.753 164.951 171.196 164.802 170.59L158.624 146.184C158.468 145.56 158.48 144.906 158.66 144.288C158.839 143.67 159.178 143.111 159.644 142.667C160.109 142.223 160.684 141.911 161.31 141.762C161.936 141.612 162.59 141.631 163.206 141.817L188.052 149.353C188.668 149.54 189.224 149.887 189.661 150.359C190.099 150.831 190.404 151.411 190.544 152.04C190.684 152.668 190.654 153.323 190.458 153.936C190.262 154.55 189.907 155.1 189.428 155.531L170.741 172.394C170.08 173 169.216 173.336 168.319 173.336ZM162.129 144.105C161.829 144.112 161.541 144.229 161.322 144.435C161.168 144.579 161.055 144.762 160.997 144.964C160.939 145.167 160.937 145.381 160.991 145.585L167.188 169.984C167.235 170.185 167.334 170.369 167.476 170.519C167.618 170.668 167.797 170.777 167.995 170.835C168.19 170.897 168.399 170.906 168.599 170.861C168.799 170.816 168.983 170.718 169.133 170.578L187.813 153.714C187.97 153.574 188.086 153.394 188.151 153.194C188.215 152.994 188.225 152.78 188.179 152.574C188.134 152.369 188.035 152.179 187.892 152.025C187.749 151.871 187.568 151.757 187.367 151.696L162.515 144.16C162.391 144.118 162.26 144.099 162.129 144.105Z" fill="#636466"/>
<path d="M194.021 217.629C201.801 217.629 208.108 211.322 208.108 203.542C208.108 195.762 201.801 189.455 194.021 189.455C186.241 189.455 179.935 195.762 179.935 203.542C179.935 211.322 186.241 217.629 194.021 217.629Z" fill="#B3B3B3"/>
<path d="M211.275 138.753L200.491 159.094C198.741 162.395 199.998 166.49 203.299 168.24L223.641 179.024C226.942 180.774 231.037 179.517 232.787 176.216L243.57 155.874C245.321 152.573 244.063 148.478 240.762 146.728L220.421 135.944C217.12 134.194 213.025 135.452 211.275 138.753Z" fill="#C20004"/>
<path d="M194.022 218.851C193.759 218.851 193.505 218.766 193.294 218.61C193.084 218.454 192.929 218.234 192.853 217.983C188.358 203.101 198.444 195.351 204.408 193.314C204.715 193.21 205.051 193.233 205.342 193.377C205.633 193.521 205.854 193.775 205.958 194.082C206.062 194.389 206.04 194.725 205.896 195.016C205.752 195.307 205.498 195.529 205.191 195.633C204.579 195.847 190.272 200.972 195.196 217.273C195.289 217.584 195.255 217.919 195.101 218.205C194.948 218.49 194.687 218.703 194.376 218.796C194.261 218.832 194.142 218.851 194.022 218.851Z" fill="#2A2E32"/>
<path d="M182.479 212.796C182.241 212.795 182.008 212.724 181.809 212.593C181.61 212.461 181.454 212.275 181.36 212.056C181.266 211.837 181.237 211.595 181.279 211.36C181.32 211.125 181.429 210.908 181.592 210.734C183.935 208.288 185.067 205.731 184.956 203.174C184.785 199.229 181.702 196.446 181.672 196.446C181.543 196.342 181.437 196.213 181.359 196.068C181.282 195.922 181.234 195.762 181.22 195.597C181.206 195.433 181.226 195.267 181.277 195.11C181.329 194.953 181.412 194.809 181.521 194.685C181.63 194.561 181.763 194.46 181.912 194.389C182.061 194.318 182.223 194.278 182.388 194.271C182.553 194.264 182.718 194.29 182.872 194.349C183.026 194.407 183.167 194.496 183.287 194.611C183.446 194.745 187.171 198.06 187.397 203.058C187.544 206.312 186.174 209.468 183.366 212.435C183.25 212.551 183.112 212.643 182.959 212.705C182.807 212.767 182.644 212.798 182.479 212.796Z" fill="#2A2E32"/>
<path d="M437.258 407.13H363.123C360.407 407.13 358.206 409.332 358.206 412.048V422.63C358.206 425.346 360.407 427.547 363.123 427.547H437.258C439.974 427.547 442.175 425.346 442.175 422.63V412.048C442.175 409.332 439.974 407.13 437.258 407.13Z" fill="#B3B3B3"/>
<path d="M363.198 427.883C363.007 427.882 362.82 427.837 362.65 427.751C362.48 427.665 362.332 427.54 362.219 427.387C362.122 427.259 362.052 427.112 362.013 426.957C361.973 426.801 361.964 426.639 361.987 426.48C362.009 426.321 362.063 426.168 362.145 426.03C362.227 425.892 362.335 425.771 362.464 425.674L373.663 417.319L362.451 408.658C362.194 408.46 362.026 408.168 361.984 407.846C361.942 407.524 362.03 407.199 362.228 406.942C362.426 406.685 362.718 406.517 363.04 406.475C363.361 406.433 363.687 406.521 363.944 406.719L377.706 417.356L363.932 427.638C363.72 427.797 363.462 427.883 363.198 427.883Z" fill="#2A2E32"/>
<path d="M441.081 418.561H375.681C375.357 418.561 375.046 418.432 374.816 418.203C374.587 417.973 374.458 417.662 374.458 417.338C374.458 417.013 374.587 416.702 374.816 416.473C375.046 416.243 375.357 416.114 375.681 416.114H441.081C441.405 416.114 441.717 416.243 441.946 416.473C442.175 416.702 442.304 417.013 442.304 417.338C442.304 417.662 442.175 417.973 441.946 418.203C441.717 418.432 441.405 418.561 441.081 418.561Z" fill="#2A2E32"/>
<path d="M447.026 427.589H349.747C345.362 427.589 341.807 431.143 341.807 435.528V485.6C341.807 489.984 345.362 493.539 349.747 493.539H447.026C451.411 493.539 454.966 489.984 454.966 485.6V435.528C454.966 431.143 451.411 427.589 447.026 427.589Z" fill="#636466"/>
<path d="M434.071 493.362C433.747 493.362 433.435 493.233 433.206 493.004C432.977 492.774 432.848 492.463 432.848 492.139V458.283C432.848 457.958 432.977 457.647 433.206 457.418C433.435 457.188 433.747 457.06 434.071 457.06C434.395 457.06 434.707 457.188 434.936 457.418C435.165 457.647 435.294 457.958 435.294 458.283V492.139C435.294 492.463 435.165 492.774 434.936 493.004C434.707 493.233 434.395 493.362 434.071 493.362Z" fill="#2A2E32"/>
<path d="M367.68 437.7H351.171C349.327 437.7 347.832 439.195 347.832 441.04V449.469C347.832 451.313 349.327 452.808 351.171 452.808H367.68C369.525 452.808 371.02 451.313 371.02 449.469V441.04C371.02 439.195 369.525 437.7 367.68 437.7Z" fill="white"/>
<path d="M368.427 460.35H349.734C349.41 460.35 349.098 460.221 348.869 459.992C348.64 459.762 348.511 459.451 348.511 459.127C348.511 458.802 348.64 458.491 348.869 458.262C349.098 458.032 349.41 457.903 349.734 457.903H368.427C368.751 457.903 369.062 458.032 369.292 458.262C369.521 458.491 369.65 458.802 369.65 459.127C369.65 459.451 369.521 459.762 369.292 459.992C369.062 460.221 368.751 460.35 368.427 460.35Z" fill="#2A2E32"/>
<path d="M363.484 466.064H349.734C349.41 466.064 349.098 465.935 348.869 465.706C348.64 465.476 348.511 465.165 348.511 464.841C348.511 464.516 348.64 464.205 348.869 463.975C349.098 463.746 349.41 463.617 349.734 463.617H363.484C363.809 463.617 364.12 463.746 364.349 463.975C364.579 464.205 364.708 464.516 364.708 464.841C364.708 465.165 364.579 465.476 364.349 465.706C364.12 465.935 363.809 466.064 363.484 466.064Z" fill="#2A2E32"/>
<path d="M433.961 459.506C432.836 459.508 431.728 459.236 430.732 458.714C429.735 458.192 428.881 457.435 428.242 456.509L409.8 431.681C409.704 431.553 409.635 431.406 409.595 431.25C409.556 431.094 409.548 430.932 409.571 430.773C409.594 430.614 409.649 430.461 409.731 430.323C409.813 430.185 409.922 430.065 410.051 429.969C410.18 429.873 410.327 429.803 410.482 429.764C410.638 429.724 410.8 429.716 410.959 429.739C411.118 429.763 411.271 429.817 411.409 429.9C411.547 429.982 411.668 430.091 411.764 430.22L430.206 455.084C430.63 455.71 431.206 456.219 431.879 456.565C432.552 456.911 433.301 457.082 434.058 457.062C434.814 457.043 435.553 456.834 436.208 456.454C436.862 456.074 437.411 455.535 437.803 454.888L451.388 430.421C451.545 430.138 451.809 429.928 452.121 429.838C452.433 429.749 452.768 429.787 453.051 429.944C453.335 430.102 453.545 430.365 453.635 430.677C453.724 430.989 453.686 431.324 453.529 431.608L439.919 456.075C439.319 457.079 438.477 457.915 437.469 458.508C436.461 459.1 435.32 459.429 434.151 459.463L433.961 459.506Z" fill="#2A2E32"/>
<path d="M408.479 493.975C408.154 493.975 407.843 493.846 407.614 493.616C407.384 493.387 407.255 493.076 407.255 492.751V437.701C406.986 428.966 412.76 427.107 413.035 427.034C413.34 426.956 413.662 426.999 413.936 427.153C414.21 427.308 414.414 427.561 414.505 427.861C414.597 428.161 414.57 428.486 414.43 428.766C414.29 429.047 414.047 429.263 413.751 429.37C413.549 429.437 409.469 430.863 409.702 437.664V492.751C409.702 493.076 409.573 493.387 409.344 493.616C409.114 493.846 408.803 493.975 408.479 493.975Z" fill="#2A2E32"/>
<path d="M90.0197 197.915C89.6296 197.915 89.2539 197.767 88.9696 197.5C88.6854 197.232 88.514 196.867 88.4906 196.477L88.0563 188.948C88.0446 188.747 88.0726 188.546 88.1387 188.356C88.2048 188.166 88.3077 187.991 88.4414 187.84C88.5752 187.69 88.7373 187.568 88.9183 187.48C89.0994 187.392 89.2959 187.341 89.4967 187.33C89.6976 187.318 89.8987 187.346 90.0887 187.412C90.2787 187.478 90.4538 187.581 90.604 187.715C90.7543 187.849 90.8767 188.011 90.9643 188.192C91.0519 188.373 91.103 188.569 91.1146 188.77L91.555 196.3C91.5666 196.501 91.5384 196.702 91.4721 196.892C91.4057 197.082 91.3025 197.257 91.1684 197.407C91.0343 197.557 90.8719 197.679 90.6906 197.766C90.5092 197.853 90.3124 197.904 90.1115 197.915H90.0197Z" fill="#2A2E32"/>
<path d="M99.7146 197.412C99.3255 197.411 98.9514 197.262 98.6684 196.995C98.3854 196.728 98.2149 196.363 98.1916 195.974L97.7573 188.438C97.7346 188.033 97.8739 187.635 98.1446 187.332C98.4153 187.029 98.7953 186.846 99.2008 186.824C99.6064 186.801 100.004 186.94 100.307 187.211C100.61 187.482 100.793 187.862 100.816 188.267L101.25 195.797C101.273 196.202 101.135 196.599 100.865 196.902C100.596 197.205 100.217 197.388 99.8125 197.412H99.7146Z" fill="#2A2E32"/>
</svg>
