<svg width="587" height="515" viewBox="0 0 587 515" fill="none" xmlns="http://www.w3.org/2000/svg">
<path d="M281.613 514.999C378.442 514.999 456.938 500.471 456.938 482.548C456.938 464.626 378.442 450.098 281.613 450.098C184.784 450.098 106.289 464.626 106.289 482.548C106.289 500.471 184.784 514.999 281.613 514.999Z" fill="#B3B3B3"/>
<path d="M177.003 417.203L176.089 419.57C175.511 421.067 176.054 422.843 177.301 423.536L224.602 449.828C225.85 450.521 227.33 449.87 227.908 448.373L228.822 446.006C229.401 444.509 228.858 442.734 227.61 442.04L180.309 415.749C179.061 415.055 177.581 415.706 177.003 417.203Z" fill="black"/>
<path d="M178.001 397.673L201.539 405.104L233.335 422.782L227.908 436.841C227.41 438.126 226.508 439.122 225.399 439.609C224.29 440.097 223.065 440.037 221.993 439.442L180.138 416.183L178.001 397.673Z" fill="white"/>
<path d="M223.857 441.411C223.033 441.412 222.219 441.196 221.472 440.78L179.004 417.186L176.526 395.637L202.072 403.729L234.982 422.091L229.03 437.503C228.566 438.676 227.833 439.667 226.917 440.359C226.001 441.051 224.94 441.416 223.857 441.411ZM181.277 415.173L222.513 438.097C222.898 438.314 223.315 438.438 223.74 438.46C224.164 438.483 224.589 438.404 224.988 438.228C225.387 438.053 225.753 437.784 226.065 437.437C226.377 437.091 226.629 436.674 226.806 436.21L231.718 423.495L201.118 406.486L179.481 399.657L181.277 415.173Z" fill="black"/>
<path d="M183.446 426.936L156.674 412.074C155.689 411.527 154.926 410.533 154.552 409.311C154.178 408.089 154.224 406.739 154.679 405.557C156.553 400.71 159.955 396.954 164.136 395.115C168.318 393.275 172.937 393.503 176.979 395.749C178.98 396.861 180.779 398.435 182.273 400.381C183.767 402.328 184.927 404.608 185.686 407.092C186.446 409.577 186.789 412.216 186.698 414.86C186.607 417.503 186.083 420.099 185.155 422.5L183.446 426.936Z" fill="black"/>
<path d="M394.158 113.626L380.425 114.629C374.151 115.086 367.981 112.535 363.274 107.536C358.568 102.538 355.708 95.5013 355.326 87.9741L354.551 72.659C354.384 69.3458 354.762 66.0253 355.664 62.8875C356.567 59.7496 357.976 56.8559 359.811 54.3715C361.646 51.8872 363.871 49.861 366.359 48.4087C368.847 46.9564 371.549 46.1066 374.311 45.9077L385.015 45.1274C392.76 44.5705 400.373 47.7249 406.18 53.8975C411.988 60.07 415.515 68.7558 415.987 78.0464L416.272 83.6939C416.648 91.1809 414.529 98.5406 410.382 104.154C406.235 109.767 400.399 113.174 394.158 113.626Z" fill="black"/>
<path d="M159.678 484.512C159.383 484.517 159.096 484.395 158.869 484.169C158.642 483.943 158.489 483.627 158.439 483.278L125.219 254.398L74.5495 483.159C74.4576 483.527 74.2503 483.839 73.9712 484.027C73.6922 484.216 73.3629 484.268 73.0527 484.172C72.7425 484.076 72.4754 483.839 72.3075 483.512C72.1396 483.184 72.084 482.792 72.1523 482.416L125.715 240.547L160.898 482.795C160.955 483.18 160.882 483.576 160.697 483.897C160.511 484.219 160.227 484.439 159.907 484.512C159.831 484.52 159.754 484.52 159.678 484.512Z" fill="black"/>
<path d="M352.638 226.785H101.786C98.7788 226.785 96.3411 229.71 96.3411 233.317V240.941C96.3411 244.548 98.7788 247.473 101.786 247.473H352.638C355.645 247.473 358.082 244.548 358.082 240.941V233.317C358.082 229.71 355.645 226.785 352.638 226.785Z" fill="black"/>
<path d="M335.349 11.2656H290.849C284.387 11.2656 279.148 17.5502 279.148 25.3026C279.148 33.0551 284.387 39.3397 290.849 39.3397H335.349C341.811 39.3397 347.05 33.0551 347.05 25.3026C347.05 17.5502 341.811 11.2656 335.349 11.2656Z" fill="white"/>
<path d="M335.355 40.8181H290.849C289.126 40.8633 287.413 40.4953 285.811 39.7357C284.208 38.9761 282.748 37.8402 281.517 36.3946C280.285 34.949 279.306 33.2228 278.638 31.3174C277.97 29.412 277.626 27.3657 277.626 25.2986C277.626 23.2315 277.97 21.1852 278.638 19.2798C279.306 17.3743 280.285 15.6482 281.517 14.2026C282.748 12.757 284.208 11.6211 285.811 10.8615C287.413 10.1019 289.126 9.73388 290.849 9.77911H335.355C337.078 9.73388 338.791 10.1019 340.393 10.8615C341.996 11.6211 343.456 12.757 344.688 14.2026C345.919 15.6482 346.898 17.3743 347.566 19.2798C348.234 21.1852 348.578 23.2315 348.578 25.2986C348.578 27.3657 348.234 29.412 347.566 31.3174C346.898 33.2228 345.919 34.949 344.688 36.3946C343.456 37.8402 341.996 38.9761 340.393 39.7357C338.791 40.4953 337.078 40.8633 335.355 40.8181ZM290.849 12.7515C289.454 12.7107 288.066 13.0052 286.768 13.6174C285.469 14.2297 284.286 15.1474 283.287 16.3165C282.289 17.4856 281.495 18.8826 280.953 20.4251C280.411 21.9677 280.132 23.6247 280.132 25.2986C280.132 26.9725 280.411 28.6295 280.953 30.172C281.495 31.7146 282.289 33.1116 283.287 34.2807C284.286 35.4498 285.469 36.3675 286.768 36.9798C288.066 37.592 289.454 37.8864 290.849 37.8457H335.355C336.75 37.8864 338.138 37.592 339.436 36.9798C340.735 36.3675 341.919 35.4498 342.917 34.2807C343.916 33.1116 344.709 31.7146 345.251 30.172C345.793 28.6295 346.072 26.9725 346.072 25.2986C346.072 23.6247 345.793 21.9677 345.251 20.4251C344.709 18.8826 343.916 17.4856 342.917 16.3165C341.919 15.1474 340.735 14.2297 339.436 13.6174C338.138 13.0052 336.75 12.7107 335.355 12.7515H290.849Z" fill="black"/>
<path d="M298.468 32.0643L295.297 30.0579C295.25 30.0286 295.198 30.0133 295.145 30.0133C295.092 30.0133 295.04 30.0286 294.993 30.0579L291.821 32.0643C291.767 32.0967 291.707 32.1106 291.647 32.1044C291.586 32.0982 291.529 32.0721 291.48 32.0291C291.431 31.986 291.393 31.9277 291.371 31.8604C291.348 31.7932 291.341 31.7197 291.351 31.6481L291.97 27.4125C291.978 27.349 291.973 27.2844 291.955 27.2237C291.938 27.163 291.909 27.1081 291.871 27.0632L289.307 24.0909C289.263 24.0406 289.232 23.9765 289.217 23.9061C289.203 23.8356 289.205 23.7617 289.224 23.6927C289.242 23.6236 289.277 23.5623 289.323 23.5158C289.37 23.4693 289.426 23.4394 289.486 23.4295L293.036 22.8053C293.087 22.7977 293.136 22.7747 293.179 22.7384C293.221 22.702 293.255 22.6535 293.277 22.5973L294.869 18.7406C294.895 18.6745 294.936 18.6186 294.988 18.5794C295.039 18.5403 295.099 18.5195 295.16 18.5195C295.221 18.5195 295.281 18.5403 295.333 18.5794C295.384 18.6186 295.425 18.6745 295.451 18.7406L297.037 22.5973C297.061 22.6536 297.096 22.7021 297.139 22.7384C297.183 22.7746 297.233 22.7976 297.285 22.8053L300.828 23.4295C300.888 23.4394 300.944 23.4693 300.991 23.5158C301.037 23.5623 301.072 23.6236 301.091 23.6927C301.109 23.7617 301.112 23.8356 301.097 23.9061C301.082 23.9765 301.051 24.0406 301.008 24.0909L298.443 27.0632C298.406 27.1084 298.378 27.1637 298.362 27.2244C298.345 27.2851 298.342 27.3496 298.35 27.4125L298.97 31.6481C298.984 31.7249 298.98 31.8053 298.956 31.8787C298.932 31.9522 298.891 32.0154 298.836 32.0603C298.782 32.1051 298.718 32.1294 298.653 32.1301C298.587 32.1308 298.523 32.1079 298.468 32.0643Z" fill="#C20004"/>
<path d="M316.426 32.0643L313.254 30.0579C313.207 30.0286 313.155 30.0133 313.103 30.0133C313.05 30.0133 312.998 30.0286 312.951 30.0579L309.779 32.0643C309.725 32.0988 309.664 32.1143 309.602 32.109C309.541 32.1038 309.482 32.0781 309.433 32.0347C309.383 31.9914 309.344 31.9321 309.321 31.8638C309.298 31.7955 309.292 31.7207 309.302 31.6481L309.922 27.4125C309.932 27.3496 309.928 27.2848 309.912 27.2238C309.896 27.1629 309.867 27.1077 309.829 27.0632L307.264 24.0909C307.221 24.0406 307.19 23.9765 307.175 23.9061C307.16 23.8357 307.163 23.7617 307.181 23.6927C307.2 23.6236 307.235 23.5623 307.281 23.5158C307.328 23.4693 307.384 23.4394 307.444 23.4295L310.993 22.8053C311.045 22.7978 311.094 22.7747 311.136 22.7384C311.179 22.702 311.212 22.6535 311.235 22.5973L312.821 18.7406C312.848 18.6748 312.89 18.6194 312.942 18.5807C312.994 18.542 313.054 18.5215 313.115 18.5215C313.176 18.5215 313.236 18.542 313.288 18.5807C313.34 18.6194 313.382 18.6748 313.409 18.7406L314.995 22.5973C315.017 22.6535 315.051 22.702 315.093 22.7384C315.136 22.7747 315.185 22.7978 315.236 22.8053L318.786 23.4295C318.846 23.4394 318.902 23.4693 318.949 23.5158C318.995 23.5623 319.03 23.6236 319.048 23.6927C319.067 23.7617 319.069 23.8357 319.055 23.9061C319.04 23.9765 319.009 24.0406 318.965 24.0909L316.401 27.0632C316.363 27.1077 316.334 27.1629 316.318 27.2238C316.302 27.2848 316.298 27.3496 316.308 27.4125L316.928 31.6481C316.942 31.7249 316.937 31.8053 316.914 31.8787C316.89 31.9522 316.848 32.0154 316.794 32.0603C316.74 32.1051 316.676 32.1294 316.611 32.1301C316.545 32.1308 316.48 32.1079 316.426 32.0643Z" fill="#C20004"/>
<path d="M334.383 32.0643L331.211 30.0579C331.164 30.0286 331.112 30.0133 331.06 30.0133C331.007 30.0133 330.955 30.0286 330.908 30.0579L327.736 32.0643C327.682 32.0988 327.621 32.1143 327.559 32.109C327.498 32.1038 327.439 32.0781 327.39 32.0347C327.34 31.9914 327.301 31.9321 327.278 31.8638C327.255 31.7955 327.249 31.7207 327.259 31.6481L327.879 27.4125C327.888 27.3496 327.884 27.2851 327.867 27.2244C327.851 27.1637 327.823 27.1084 327.786 27.0632L325.221 24.0909C325.178 24.0406 325.147 23.9765 325.132 23.9061C325.117 23.8356 325.12 23.7617 325.138 23.6927C325.157 23.6236 325.192 23.5623 325.238 23.5158C325.285 23.4693 325.341 23.4394 325.401 23.4295L328.944 22.8053C328.996 22.797 329.046 22.7738 329.089 22.7376C329.132 22.7014 329.168 22.6532 329.192 22.5973L330.778 18.7406C330.804 18.6745 330.845 18.6186 330.897 18.5794C330.948 18.5403 331.008 18.5195 331.069 18.5195C331.13 18.5195 331.19 18.5403 331.241 18.5794C331.293 18.6186 331.334 18.6745 331.36 18.7406L332.946 22.5973C332.97 22.6532 333.005 22.7014 333.048 22.7376C333.092 22.7738 333.141 22.797 333.193 22.8053L336.743 23.4295C336.803 23.4394 336.859 23.4693 336.906 23.5158C336.952 23.5623 336.987 23.6236 337.005 23.6927C337.024 23.7617 337.026 23.8356 337.012 23.9061C336.997 23.9765 336.966 24.0406 336.922 24.0909L334.352 27.0632C334.314 27.1084 334.286 27.1637 334.27 27.2244C334.254 27.2851 334.25 27.3496 334.259 27.4125L334.878 31.6481C334.892 31.7239 334.887 31.8027 334.863 31.8747C334.839 31.9468 334.799 32.0089 334.746 32.0533C334.693 32.0978 334.63 32.1225 334.566 32.1244C334.501 32.1263 334.437 32.1054 334.383 32.0643Z" fill="#C20004"/>
<path d="M304.235 53.9785H146.589C140.014 53.9785 134.684 60.3729 134.684 68.2608V185.142C134.684 193.03 140.014 199.424 146.589 199.424H304.235C310.81 199.424 316.141 193.03 316.141 185.142V68.2608C316.141 60.3729 310.81 53.9785 304.235 53.9785Z" fill="black"/>
<path d="M295.055 66.5293H155.769C150.757 66.5293 146.695 71.4033 146.695 77.4156V178.915C146.695 184.927 150.757 189.801 155.769 189.801H295.055C300.067 189.801 304.13 184.927 304.13 178.915V77.4156C304.13 71.4033 300.067 66.5293 295.055 66.5293Z" fill="white"/>
<path d="M236.401 87.127H196.869C193.359 87.127 190.513 90.5404 190.513 94.7511V165.441C190.513 169.652 193.359 173.066 196.869 173.066H236.401C239.911 173.066 242.756 169.652 242.756 165.441V94.7511C242.756 90.5404 239.911 87.127 236.401 87.127Z" fill="#636466"/>
<path d="M176.366 84.7949H162.41C160.942 84.7949 159.752 86.2222 159.752 87.9828V104.725C159.752 106.485 160.942 107.913 162.41 107.913H176.366C177.833 107.913 179.023 106.485 179.023 104.725V87.9828C179.023 86.2222 177.833 84.7949 176.366 84.7949Z" fill="#636466"/>
<path d="M175.851 118.783H162.924C161.172 118.783 159.752 120.487 159.752 122.588V138.096C159.752 140.197 161.172 141.901 162.924 141.901H175.851C177.603 141.901 179.023 140.197 179.023 138.096V122.588C179.023 120.487 177.603 118.783 175.851 118.783Z" fill="#B3B3B3"/>
<path d="M175.814 152.765H162.961C161.189 152.765 159.752 154.488 159.752 156.614V172.033C159.752 174.159 161.189 175.882 162.961 175.882H175.814C177.586 175.882 179.023 174.159 179.023 172.033V156.614C179.023 154.488 177.586 152.765 175.814 152.765Z" fill="#C20004"/>
<path d="M294.367 90.2927H253.014C252.685 90.2927 252.37 90.1361 252.138 89.8574C251.906 89.5787 251.775 89.2007 251.775 88.8065C251.775 88.4123 251.906 88.0343 252.138 87.7556C252.37 87.4769 252.685 87.3203 253.014 87.3203H294.367C294.696 87.3203 295.011 87.4769 295.243 87.7556C295.476 88.0343 295.606 88.4123 295.606 88.8065C295.606 89.2007 295.476 89.5787 295.243 89.8574C295.011 90.1361 294.696 90.2927 294.367 90.2927Z" fill="black"/>
<path d="M294.367 104.049H253.014C252.685 104.049 252.37 103.892 252.138 103.613C251.906 103.335 251.775 102.957 251.775 102.562C251.775 102.168 251.906 101.79 252.138 101.511C252.37 101.233 252.685 101.076 253.014 101.076H294.367C294.696 101.076 295.011 101.233 295.243 101.511C295.476 101.79 295.606 102.168 295.606 102.562C295.606 102.957 295.476 103.335 295.243 103.613C295.011 103.892 294.696 104.049 294.367 104.049Z" fill="black"/>
<path d="M281.526 117.736H253.033C252.704 117.736 252.389 117.579 252.157 117.301C251.924 117.022 251.794 116.644 251.794 116.25C251.794 115.856 251.924 115.478 252.157 115.199C252.389 114.92 252.704 114.764 253.033 114.764H281.526C281.855 114.764 282.17 114.92 282.402 115.199C282.635 115.478 282.765 115.856 282.765 116.25C282.765 116.644 282.635 117.022 282.402 117.301C282.17 117.579 281.855 117.736 281.526 117.736Z" fill="black"/>
<path d="M274.546 128.079H257.313C254.279 128.079 251.819 131.03 251.819 134.67C251.819 138.311 254.279 141.262 257.313 141.262H274.546C277.58 141.262 280.04 138.311 280.04 134.67C280.04 131.03 277.58 128.079 274.546 128.079Z" fill="#B3B3B3"/>
<path d="M291.512 140.868C294.362 140.868 296.672 138.097 296.672 134.678C296.672 131.26 294.362 128.488 291.512 128.488C288.662 128.488 286.352 131.26 286.352 134.678C286.352 138.097 288.662 140.868 291.512 140.868Z" fill="#2A2E32"/>
<path d="M227.047 226.784H183.885L201.558 199.424H246.491L227.047 226.784Z" fill="black"/>
<path d="M413.689 322.636C413.586 322.636 413.485 322.621 413.385 322.591C413.227 322.543 413.079 322.459 412.948 322.342C412.818 322.226 412.708 322.079 412.624 321.912C412.541 321.744 412.486 321.558 412.462 321.365C412.439 321.172 412.447 320.975 412.487 320.785L428.791 243.504C428.873 243.122 429.078 242.794 429.362 242.593C429.645 242.393 429.983 242.335 430.302 242.434C430.621 242.532 430.894 242.779 431.061 243.119C431.228 243.459 431.276 243.865 431.194 244.247L414.89 321.529C414.821 321.847 414.665 322.128 414.447 322.328C414.23 322.529 413.963 322.637 413.689 322.636Z" fill="black"/>
<path d="M324.15 481.264C324.094 481.271 324.038 481.271 323.983 481.264C323.821 481.238 323.665 481.175 323.524 481.077C323.383 480.979 323.26 480.849 323.161 480.693C323.062 480.538 322.989 480.361 322.947 480.172C322.906 479.983 322.895 479.786 322.917 479.592L339.598 331.858C339.62 331.663 339.673 331.475 339.756 331.304C339.838 331.134 339.947 330.984 340.077 330.865C340.208 330.745 340.356 330.657 340.515 330.606C340.673 330.556 340.839 330.543 341.001 330.569C341.164 330.595 341.321 330.659 341.463 330.757C341.605 330.856 341.73 330.987 341.829 331.143C341.929 331.299 342.002 331.478 342.045 331.668C342.087 331.858 342.098 332.057 342.076 332.252L325.376 479.979C325.336 480.334 325.189 480.661 324.964 480.897C324.738 481.133 324.449 481.264 324.15 481.264Z" fill="black"/>
<path d="M431.885 163.86L419.32 230.261C418.261 235.86 421.185 241.429 425.853 242.7L435.312 245.276C439.98 246.547 444.622 243.039 445.682 237.439L458.247 171.039C459.306 165.44 456.382 159.871 451.714 158.6L442.255 156.024C437.587 154.753 432.945 158.261 431.885 163.86Z" fill="#C20004"/>
<path d="M414.562 481.264C414.262 481.267 413.97 481.14 413.742 480.904C413.514 480.669 413.365 480.343 413.323 479.986L395.911 332.244C395.865 331.85 395.951 331.45 396.151 331.132C396.351 330.814 396.648 330.605 396.976 330.55C397.305 330.494 397.638 330.598 397.903 330.838C398.168 331.078 398.343 331.434 398.389 331.828L415.795 479.569C415.841 479.96 415.756 480.356 415.558 480.671C415.361 480.986 415.067 481.194 414.742 481.249C414.683 481.262 414.622 481.267 414.562 481.264Z" fill="black"/>
<path d="M408.795 432.294H329.675C329.347 432.294 329.031 432.137 328.799 431.858C328.567 431.58 328.436 431.202 328.436 430.807C328.436 430.413 328.567 430.035 328.799 429.757C329.031 429.478 329.347 429.321 329.675 429.321H408.795C409.124 429.321 409.439 429.478 409.671 429.757C409.904 430.035 410.034 430.413 410.034 430.807C410.034 431.202 409.904 431.58 409.671 431.858C409.439 432.137 409.124 432.294 408.795 432.294Z" fill="black"/>
<path d="M407.699 297.17H332.71C327.983 297.17 324.15 301.768 324.15 307.439V321.766C324.15 327.438 327.983 332.036 332.71 332.036H407.699C412.427 332.036 416.26 327.438 416.26 321.766V307.439C416.26 301.768 412.427 297.17 407.699 297.17Z" fill="#C20004"/>
<path d="M418.539 71.5C428.682 71.5 436.905 61.6356 436.905 49.4673C436.905 37.299 428.682 27.4346 418.539 27.4346C408.395 27.4346 400.173 37.299 400.173 49.4673C400.173 61.6356 408.395 71.5 418.539 71.5Z" fill="black"/>
<path d="M452.261 59.1502C465.877 59.1502 476.914 45.9089 476.914 29.5751C476.914 13.2412 465.877 0 452.261 0C438.645 0 427.607 13.2412 427.607 29.5751C427.607 45.9089 438.645 59.1502 452.261 59.1502Z" fill="black"/>
<path d="M406.54 91.1703C406.54 88.6082 405.692 86.1511 404.182 84.3394C402.672 82.5278 400.623 81.5101 398.488 81.5101C398.11 81.5146 397.734 81.5493 397.36 81.6141L395.818 56.2598L365.757 60.1313C362.67 60.5258 359.813 62.2765 357.737 65.0465C355.662 67.8164 354.514 71.4097 354.514 75.1343V79.2139C354.541 83.9418 353.445 88.5812 351.355 92.5895L351.299 92.6861V92.7233C351.071 93.1362 350.919 93.6027 350.853 94.0917C350.787 94.5807 350.809 95.0809 350.917 95.5591C351.024 96.0372 351.216 96.4823 351.479 96.8646C351.741 97.247 352.069 97.5578 352.439 97.7763L354.533 99.0099V108.566C354.532 110.466 354.875 112.343 355.537 114.068C356.199 115.794 357.165 117.327 358.369 118.562C359.572 119.797 360.984 120.705 362.507 121.223C364.031 121.741 365.63 121.857 367.194 121.563L374.912 120.121L376.461 136.001L401.034 132.523L399.367 115.573H399.442L398.543 100.823C400.668 100.805 402.701 99.7808 404.199 97.9727C405.697 96.1646 406.539 93.7195 406.54 91.1703Z" fill="white"/>
<path d="M375.377 137.651L373.822 121.883L367.38 123.086C365.639 123.413 363.86 123.283 362.165 122.706C360.47 122.128 358.899 121.118 357.56 119.743C356.222 118.368 355.147 116.662 354.411 114.741C353.674 112.821 353.293 110.732 353.294 108.618V99.9763L351.888 99.1515C351.364 98.8457 350.901 98.4099 350.528 97.8732C350.156 97.3365 349.882 96.7109 349.726 96.0379C349.57 95.3504 349.537 94.6314 349.628 93.9274C349.718 93.2234 349.931 92.55 350.252 91.9509L350.321 91.8246C352.293 88.0525 353.325 83.682 353.294 79.2292V75.1496C353.287 71.0581 354.545 67.1088 356.824 64.0648C359.103 61.0207 362.241 59.0979 365.633 58.6678L396.97 54.6328L398.519 80.0391C400.833 80.0952 403.046 81.1853 404.725 83.0961C406.404 85.0068 407.429 87.6006 407.598 90.3698C407.767 93.1389 407.068 95.8839 405.639 98.0676C404.209 100.251 402.152 101.716 399.869 102.176L400.755 116.822L402.427 133.824L375.377 137.651ZM375.996 118.45L377.557 134.352L399.671 131.223L398.011 114.333H398.135L397.224 99.3595H398.55C400.357 99.3536 402.088 98.4868 403.362 96.9497C404.637 95.4126 405.35 93.3311 405.345 91.1632C405.34 88.9954 404.617 86.9186 403.336 85.3899C402.055 83.8611 400.32 83.0056 398.513 83.0115C398.193 83.0153 397.875 83.0451 397.559 83.1007L396.245 83.3236L394.672 57.9173L365.881 61.6328C363.097 61.9856 360.522 63.5633 358.651 66.061C356.781 68.5588 355.748 71.7994 355.753 75.157V79.2366C355.784 84.2557 354.617 89.1806 352.39 93.4297L352.328 93.5486C352.192 93.7969 352.101 94.0768 352.062 94.37C352.022 94.6633 352.035 94.9632 352.098 95.2502C352.159 95.5191 352.268 95.7692 352.416 95.9833C352.565 96.1975 352.75 96.3707 352.959 96.4912L355.753 98.126V108.611C355.753 110.295 356.058 111.959 356.645 113.489C357.232 115.019 358.088 116.379 359.154 117.474C360.22 118.57 361.472 119.376 362.822 119.837C364.172 120.297 365.59 120.402 366.977 120.144L375.996 118.45Z" fill="black"/>
<path d="M362.462 110.119C362.146 110.119 361.831 110.086 361.52 110.022C360.323 109.774 359.213 109.113 358.324 108.12C358.078 107.854 357.929 107.481 357.912 107.084C357.894 106.687 358.009 106.297 358.231 106.002C358.453 105.706 358.763 105.528 359.094 105.508C359.426 105.487 359.75 105.624 359.996 105.89C360.535 106.488 361.202 106.893 361.923 107.057C364.215 107.51 366.017 104.828 366.036 104.828C366.243 104.535 366.536 104.35 366.854 104.311C367.173 104.271 367.491 104.381 367.743 104.618C367.996 104.854 368.162 105.198 368.207 105.578C368.253 105.958 368.174 106.344 367.987 106.656C367.857 106.827 365.67 110.119 362.462 110.119Z" fill="black"/>
<path d="M367.535 89.9735C368.612 89.9735 369.486 88.9255 369.486 87.6327C369.486 86.34 368.612 85.292 367.535 85.292C366.457 85.292 365.583 86.34 365.583 87.6327C365.583 88.9255 366.457 89.9735 367.535 89.9735Z" fill="black"/>
<path d="M397.67 96.1861C397.011 96.1861 396.367 95.9516 395.819 95.5124C395.271 95.0731 394.844 94.4487 394.591 93.7182C394.339 92.9877 394.273 92.1838 394.402 91.4083C394.53 90.6328 394.848 89.9205 395.314 89.3614C395.78 88.8023 396.374 88.4215 397.02 88.2672C397.667 88.113 398.337 88.1922 398.946 88.4947C399.554 88.7973 400.075 89.3097 400.441 89.9672C400.807 90.6246 401.003 91.3976 401.003 92.1883C401.003 93.2486 400.652 94.2654 400.027 95.0152C399.402 95.7649 398.554 96.1861 397.67 96.1861ZM397.67 91.1628C397.501 91.1628 397.336 91.223 397.195 91.3356C397.055 91.4483 396.945 91.6085 396.88 91.7958C396.816 91.9832 396.799 92.1894 396.832 92.3883C396.865 92.5873 396.946 92.77 397.066 92.9134C397.185 93.0568 397.338 93.1545 397.503 93.194C397.669 93.2336 397.841 93.2133 397.997 93.1357C398.154 93.0581 398.287 92.9266 398.381 92.758C398.475 92.5894 398.525 92.3911 398.525 92.1883C398.525 91.9163 398.435 91.6555 398.275 91.4631C398.114 91.2708 397.897 91.1628 397.67 91.1628Z" fill="black"/>
<path d="M377.725 131.987L415.423 129.937C421.062 129.558 426.597 131.869 430.822 136.364C436.255 142.309 440.504 153.225 434.589 173.066L426.263 191.68L379.187 184.844L371.053 203.822L341.506 207.872C340.776 207.969 338.515 203.302 338.199 202.715C335.847 198.416 334.316 193.546 333.714 188.455C332.165 173.95 341.147 162.298 348.103 151.694C355.487 140.384 365.299 132.664 377.725 131.987Z" fill="#B3B3B3"/>
<path d="M395.651 94.3288C395.36 94.3354 395.077 94.2193 394.85 94.0005C394.624 93.7818 394.469 93.4745 394.412 93.1324C394.244 92.1324 394.297 91.0971 394.567 90.1296C394.836 89.1621 395.313 88.2963 395.948 87.6186C396.563 87.002 397.292 86.5694 398.074 86.3562C398.855 86.1431 399.668 86.1555 400.445 86.3925C400.602 86.4447 400.749 86.5335 400.878 86.6538C401.006 86.7741 401.113 86.9236 401.194 87.0937C401.274 87.2638 401.325 87.4512 401.345 87.6452C401.365 87.8391 401.353 88.0359 401.309 88.2242C401.266 88.4126 401.192 88.5888 401.092 88.7428C400.991 88.8968 400.867 89.0257 400.725 89.1219C400.583 89.2182 400.427 89.28 400.265 89.3038C400.103 89.3277 399.939 89.3131 399.782 89.2609C399.403 89.1503 399.007 89.1458 398.626 89.2476C398.245 89.3493 397.888 89.5547 397.583 89.8479C397.274 90.1809 397.043 90.605 396.913 91.0781C396.783 91.5512 396.757 92.057 396.84 92.5453C396.873 92.7366 396.874 92.9337 396.843 93.1253C396.812 93.317 396.75 93.4995 396.66 93.6623C396.57 93.8252 396.454 93.9652 396.32 94.0745C396.185 94.1837 396.033 94.26 395.874 94.299C395.8 94.3146 395.726 94.3245 395.651 94.3288Z" fill="black"/>
<path d="M365.769 60.1469C365.769 60.1469 365.367 90.0861 397.614 81.5851L395.83 56.2754L365.769 60.1469Z" fill="black"/>
<path d="M367.987 100.637C362.87 100.637 358.695 94.8478 358.695 87.7216C358.695 80.5953 362.864 74.8066 367.987 74.8066C373.11 74.8066 377.278 80.6028 377.278 87.7216C377.278 94.8404 373.11 100.637 367.987 100.637ZM367.987 77.779C364.233 77.779 361.173 82.2376 361.173 87.7216C361.173 93.2056 364.227 97.6642 367.987 97.6642C371.747 97.6642 374.801 93.2056 374.801 87.7216C374.801 82.2376 371.753 77.779 367.987 77.779Z" fill="black"/>
<path d="M410.431 257.042H363.081V219.338H406.832C409.923 231.542 411.15 244.315 410.455 257.042H410.431Z" fill="black"/>
<path d="M291.06 226.784H266.666C265.307 226.787 263.967 226.41 262.75 225.684C261.533 224.958 260.474 223.903 259.656 222.601C258.839 221.299 258.285 219.786 258.038 218.183C257.791 216.58 257.859 214.93 258.236 213.364C258.747 211.259 259.814 209.411 261.276 208.096C262.738 206.782 264.517 206.072 266.344 206.074H291.376C293.138 206.073 294.856 206.734 296.289 207.964C297.722 209.194 298.798 210.932 299.366 212.933C299.811 214.513 299.936 216.198 299.73 217.848C299.523 219.498 298.992 221.065 298.18 222.419C297.368 223.774 296.298 224.876 295.06 225.635C293.822 226.394 292.45 226.788 291.06 226.784Z" fill="#F2F2F2"/>
<path d="M378.455 184.844L370.44 203.822L324.274 209.336C322.548 209.543 320.808 209.143 319.269 208.184L299.28 195.73C299.28 195.73 292.299 191.041 282.208 196.094L265.211 205.346C264.497 205.716 263.898 206.345 263.498 207.145C263.098 207.944 262.917 208.875 262.981 209.804V209.849C263.023 210.229 263.133 210.595 263.303 210.92C263.473 211.245 263.699 211.523 263.966 211.734C264.234 211.945 264.536 212.085 264.852 212.145C265.168 212.204 265.491 212.181 265.799 212.078L283.794 206.022L275.363 215.169C274.122 216.503 273.256 218.266 272.886 220.215C272.316 223.388 273.003 227.69 279.854 229.652C279.854 229.652 283.007 236.006 288.371 232.625C288.402 232.625 289.164 233.435 289.226 233.487C290.063 234.262 290.959 234.941 291.902 235.515C294.854 237.276 298.085 238.261 301.379 238.406C303.424 238.525 305.344 237.455 305.61 234.794L307.332 235.01C312.701 235.669 318.046 236.615 323.369 237.849L364.085 247.293C375.234 249.188 383.213 246.327 387.282 244.395C399.176 238.755 406.881 228.723 413.063 215.979L424.832 191.673L378.455 184.844Z" fill="white"/>
<path d="M371.363 249.419C368.875 249.413 366.392 249.197 363.93 248.773H363.868L323.128 239.291C317.875 238.072 312.517 237.129 307.202 236.467L306.533 236.385C305.777 238.667 303.807 240.027 301.311 239.878C297.84 239.719 294.437 238.678 291.326 236.824C290.318 236.203 289.359 235.477 288.458 234.654L288.216 234.401L288.173 234.357C283.837 236.534 280.504 233.383 279.073 230.931C271.349 228.501 271.108 222.987 271.64 219.881C272.067 217.621 273.077 215.58 274.527 214.048L279.061 209.129L266.09 213.476C265.614 213.636 265.114 213.673 264.625 213.583C264.135 213.493 263.668 213.279 263.253 212.954C262.838 212.63 262.486 212.203 262.22 211.702C261.954 211.201 261.781 210.638 261.711 210.05C261.6 208.799 261.822 207.538 262.347 206.449C262.871 205.359 263.67 204.497 264.628 203.987L281.694 194.72C292.255 189.429 299.577 194.208 299.886 194.416L319.814 206.84C321.146 207.674 322.654 208.021 324.15 207.836L369.635 202.404L377.737 183.225L426.883 190.477L414.141 216.738C407.03 231.384 398.655 240.614 387.747 245.786C382.526 248.229 376.966 249.462 371.363 249.419ZM364.283 245.83C372.397 247.205 379.985 246.261 386.824 243.021C397.317 238.043 405.079 229.475 411.985 215.244L422.838 192.877L379.186 186.45L371.257 205.22L324.416 210.816C322.45 211.051 320.47 210.594 318.717 209.5L298.753 197.054C298.456 196.86 292.088 192.773 282.728 197.47L265.718 206.699C265.245 206.936 264.845 207.344 264.573 207.866C264.302 208.388 264.171 208.998 264.201 209.612C264.219 209.784 264.268 209.95 264.344 210.099C264.42 210.247 264.521 210.374 264.642 210.471C264.762 210.568 264.898 210.633 265.041 210.662C265.184 210.69 265.331 210.682 265.471 210.637L288.538 202.879L276.218 216.255C275.154 217.369 274.408 218.856 274.087 220.506C273.412 224.258 275.444 226.844 280.133 228.182L280.641 228.33L280.907 228.873C281.173 229.393 283.62 233.918 287.789 231.288C288.569 230.797 289.083 231.347 289.864 232.18L290.006 232.336C290.785 233.039 291.614 233.659 292.484 234.186C295.28 235.842 298.337 236.769 301.454 236.906C302.265 236.95 304.173 236.831 304.39 234.602L304.532 233.116L307.474 233.48C312.857 234.141 318.29 235.1 323.617 236.341L364.283 245.83Z" fill="black"/>
<path d="M308.063 471.625H255.932C254.556 471.625 253.441 472.962 253.441 474.612V477.221C253.441 478.87 254.556 480.208 255.932 480.208H308.063C309.438 480.208 310.553 478.87 310.553 477.221V474.612C310.553 472.962 309.438 471.625 308.063 471.625Z" fill="black"/>
<path d="M247.501 456.4L271.461 451.272H306.508V466.773C306.508 468.19 306.039 469.549 305.204 470.551C304.368 471.553 303.236 472.116 302.054 472.116H255.919L247.501 456.4Z" fill="white"/>
<path d="M302.054 473.602H255.256L245.451 455.33L271.467 449.786H307.753V466.773C307.752 468.585 307.15 470.322 306.082 471.602C305.013 472.883 303.565 473.602 302.054 473.602ZM256.607 470.63H302.054C302.907 470.628 303.723 470.221 304.326 469.498C304.928 468.775 305.268 467.795 305.269 466.773V452.759H271.572L249.545 457.47L256.607 470.63Z" fill="black"/>
<path d="M217.781 421.958L203.379 409.325C201.158 407.383 199.279 404.935 197.847 402.121C196.415 399.307 195.459 396.182 195.034 392.925C194.609 389.668 194.723 386.343 195.369 383.139C196.016 379.935 197.182 376.915 198.801 374.251L261.55 271.021C263.924 267.113 266.917 263.805 270.357 261.285C273.798 258.766 277.618 257.084 281.6 256.336C285.583 255.588 289.649 255.788 293.567 256.926C297.484 258.063 301.177 260.116 304.433 262.965C307.69 265.814 310.448 269.404 312.548 273.531C314.649 277.658 316.051 282.242 316.674 287.019C317.298 291.796 317.131 296.674 316.182 301.374C315.234 306.074 313.523 310.503 311.148 314.41L249.403 416.02C245.865 421.838 240.547 425.731 234.617 426.845C228.686 427.958 222.63 426.2 217.781 421.958Z" fill="black"/>
<path d="M367.504 309.885H257.864V284.04C257.866 274.096 261.16 264.561 267.021 257.531C272.883 250.5 280.832 246.551 289.121 246.551H410.431V258.388C410.431 272.046 405.908 285.144 397.858 294.802C389.807 304.459 378.889 309.885 367.504 309.885Z" fill="black"/>
<path d="M296.641 454.906H278.838C273.288 454.906 267.965 452.261 264.04 447.554C260.115 442.847 257.909 436.462 257.907 429.804V306.711H319.293V427.753C319.294 431.321 318.709 434.854 317.57 438.15C316.432 441.447 314.763 444.441 312.659 446.963C310.555 449.485 308.058 451.484 305.309 452.847C302.56 454.21 299.615 454.91 296.641 454.906Z" fill="black"/>
<path d="M225.14 422.477C224.913 422.476 224.691 422.401 224.498 422.26C224.305 422.118 224.147 421.915 224.043 421.674C223.939 421.433 223.892 421.162 223.908 420.891C223.923 420.62 224 420.359 224.13 420.137L256.873 364.405C257.063 364.082 257.352 363.864 257.676 363.797C258 363.73 258.333 363.82 258.602 364.048C258.87 364.276 259.052 364.622 259.108 365.011C259.164 365.4 259.089 365.799 258.899 366.121L226.156 421.853C226.04 422.047 225.888 422.205 225.711 422.314C225.534 422.423 225.338 422.479 225.14 422.477Z" fill="white"/>
<path d="M299.837 456.118C299.508 456.118 299.193 455.961 298.961 455.682C298.729 455.404 298.598 455.026 298.598 454.631V303.65C298.601 298.059 300.454 292.699 303.748 288.745C307.043 284.791 311.511 282.567 316.171 282.561H364.351C369.413 282.555 374.266 280.14 377.845 275.847C381.424 271.553 383.437 265.731 383.442 259.659V246.551C383.442 246.156 383.572 245.778 383.805 245.5C384.037 245.221 384.352 245.064 384.681 245.064C385.009 245.064 385.324 245.221 385.557 245.5C385.789 245.778 385.92 246.156 385.92 246.551V259.659C385.913 266.519 383.639 273.095 379.595 277.946C375.552 282.797 370.069 285.525 364.351 285.533H316.171C312.168 285.539 308.331 287.45 305.501 290.846C302.67 294.243 301.079 298.848 301.076 303.65V454.631C301.076 455.026 300.945 455.404 300.713 455.682C300.481 455.961 300.166 456.118 299.837 456.118Z" fill="white"/>
<path d="M279.842 231.117C279.575 231.115 279.315 231.01 279.102 230.817C278.889 230.624 278.733 230.354 278.659 230.046C275.784 218.239 286.333 210.942 286.445 210.867C286.586 210.77 286.743 210.706 286.905 210.681C287.066 210.656 287.231 210.669 287.388 210.721C287.546 210.772 287.694 210.859 287.823 210.979C287.952 211.098 288.061 211.247 288.142 211.417C288.224 211.587 288.276 211.774 288.297 211.969C288.318 212.163 288.307 212.36 288.264 212.549C288.222 212.738 288.149 212.915 288.049 213.07C287.949 213.226 287.825 213.356 287.684 213.453C286.069 214.648 284.619 216.137 283.385 217.867C280.907 221.449 280.096 225.261 281.062 229.214C281.154 229.593 281.117 229.999 280.959 230.345C280.801 230.691 280.535 230.947 280.22 231.057C280.097 231.098 279.969 231.118 279.842 231.117Z" fill="black"/>
<path d="M288.365 234.089C288.163 234.088 287.964 234.028 287.786 233.914C287.608 233.8 287.456 233.636 287.343 233.435C286.673 232.345 286.209 231.093 285.983 229.766C285.756 228.44 285.772 227.07 286.03 225.752C287.269 219.495 293.568 215.237 293.841 215.059C293.983 214.95 294.143 214.877 294.309 214.845C294.476 214.813 294.647 214.822 294.81 214.872C294.974 214.922 295.128 215.011 295.261 215.135C295.395 215.258 295.507 215.413 295.589 215.59C295.671 215.767 295.722 215.963 295.739 216.164C295.755 216.366 295.738 216.569 295.686 216.763C295.635 216.956 295.552 217.134 295.441 217.287C295.33 217.44 295.195 217.564 295.042 217.652C294.943 217.726 289.418 221.486 288.439 226.443C288.264 227.359 288.258 228.31 288.422 229.229C288.586 230.148 288.915 231.013 289.387 231.763C289.514 231.986 289.589 232.247 289.602 232.517C289.615 232.787 289.566 233.057 289.461 233.296C289.356 233.535 289.198 233.736 289.005 233.875C288.812 234.015 288.59 234.089 288.365 234.089Z" fill="black"/>
<path d="M305.604 236.318C305.299 236.321 305.005 236.189 304.776 235.948C304.548 235.707 304.401 235.373 304.365 235.01C304.123 232.632 300.091 229.809 298.171 228.835L296.461 227.958L302.395 221.07C302.634 220.817 302.945 220.684 303.263 220.699C303.582 220.714 303.883 220.876 304.105 221.15C304.326 221.425 304.451 221.791 304.453 222.173C304.456 222.556 304.335 222.924 304.117 223.203L300.791 227.067C302.965 228.464 306.471 231.228 306.818 234.654C306.856 235.044 306.765 235.436 306.563 235.745C306.361 236.054 306.065 236.255 305.74 236.303L305.604 236.318Z" fill="black"/>
<path d="M262.677 480.216H233.174C232.088 480.216 231.046 479.698 230.279 478.777C229.511 477.856 229.079 476.607 229.079 475.304C229.081 469.96 230.851 464.835 234.001 461.056C237.152 457.277 241.423 455.153 245.878 455.151C250.334 455.151 254.607 457.275 257.757 461.054C260.907 464.833 262.677 469.959 262.677 475.304V480.216Z" fill="black"/>
<path d="M376.04 87.0826C375.711 87.1042 375.389 86.9684 375.144 86.705C374.899 86.4417 374.751 86.0723 374.733 85.6781C374.715 85.2839 374.828 84.8973 375.047 84.6033C375.267 84.3092 375.575 84.1319 375.903 84.1102L395.44 81.5168C395.769 81.4734 396.098 81.5884 396.356 81.8365C396.614 82.0845 396.779 82.4453 396.815 82.8395C396.852 83.2336 396.756 83.6289 396.549 83.9383C396.342 84.2476 396.041 84.4458 395.713 84.4892L376.176 87.0751L376.04 87.0826Z" fill="black"/>
<path d="M375.061 118.634L375.934 127.552L388.868 117.319C388.959 117.249 389.027 117.144 389.061 117.02C389.095 116.897 389.092 116.764 389.054 116.643C389.015 116.522 388.943 116.42 388.849 116.355C388.756 116.29 388.647 116.266 388.54 116.286L375.061 118.634Z" fill="black"/>
<path d="M378.455 186.33C378.285 186.332 378.116 186.292 377.96 186.211C377.663 186.049 377.431 185.753 377.315 185.387C377.199 185.021 377.208 184.615 377.34 184.257L382.42 170.228C382.483 170.046 382.575 169.881 382.692 169.743C382.809 169.604 382.947 169.495 383.1 169.421C383.252 169.348 383.415 169.311 383.579 169.314C383.743 169.316 383.905 169.358 384.055 169.436C384.206 169.514 384.342 169.628 384.456 169.77C384.57 169.911 384.659 170.079 384.718 170.263C384.777 170.446 384.806 170.642 384.801 170.839C384.797 171.036 384.76 171.23 384.693 171.409L379.607 185.439C379.51 185.707 379.348 185.935 379.143 186.093C378.939 186.252 378.699 186.334 378.455 186.33Z" fill="black"/>
<path d="M258.261 400.623C257.932 400.623 257.617 400.466 257.385 400.187C257.152 399.909 257.022 399.531 257.022 399.137V278.221C257.022 277.826 257.152 277.448 257.385 277.17C257.617 276.891 257.932 276.734 258.261 276.734C258.589 276.734 258.905 276.891 259.137 277.17C259.369 277.448 259.5 277.826 259.5 278.221V399.137C259.5 399.531 259.369 399.909 259.137 400.187C258.905 400.466 258.589 400.623 258.261 400.623Z" fill="white"/>
<path d="M572.059 85.2695H459.391C451.823 85.2695 445.689 92.6287 445.689 101.707V184.249C445.689 193.327 451.823 200.687 459.391 200.687H572.059C579.627 200.687 585.761 193.327 585.761 184.249V101.707C585.761 92.6287 579.627 85.2695 572.059 85.2695Z" fill="white"/>
<path d="M572.059 202.173H459.39C455.429 202.167 451.632 200.277 448.831 196.917C446.03 193.557 444.455 189.001 444.45 184.249V101.707C444.455 96.9548 446.03 92.3994 448.831 89.0393C451.632 85.6793 455.429 83.7891 459.39 83.7832H572.059C576.02 83.7891 579.817 85.6793 582.618 89.0393C585.419 92.3994 586.995 96.9548 587 101.707V184.249C586.995 189.001 585.419 193.557 582.618 196.917C579.817 200.277 576.02 202.167 572.059 202.173ZM459.39 86.7556C456.086 86.7595 452.918 88.3359 450.581 91.139C448.245 93.942 446.931 97.7425 446.927 101.707V184.249C446.931 188.213 448.245 192.014 450.581 194.817C452.918 197.62 456.086 199.196 459.39 199.2H572.059C575.363 199.194 578.53 197.617 580.866 194.815C583.203 192.012 584.517 188.213 584.522 184.249V101.707C584.519 97.7425 583.205 93.942 580.868 91.139C578.532 88.3359 575.363 86.7595 572.059 86.7556H459.39Z" fill="black"/>
<path d="M522.064 127.469C524.374 127.469 526.246 125.224 526.246 122.453C526.246 119.683 524.374 117.438 522.064 117.438C519.755 117.438 517.883 119.683 517.883 122.453C517.883 125.224 519.755 127.469 522.064 127.469Z" fill="#B3B3B3"/>
<path d="M536.547 127.469C538.856 127.469 540.728 125.224 540.728 122.453C540.728 119.683 538.856 117.438 536.547 117.438C534.238 117.438 532.366 119.683 532.366 122.453C532.366 125.224 534.238 127.469 536.547 127.469Z" fill="#B3B3B3"/>
<path d="M551.036 127.469C553.345 127.469 555.217 125.224 555.217 122.453C555.217 119.683 553.345 117.438 551.036 117.438C548.726 117.438 546.854 119.683 546.854 122.453C546.854 125.224 548.726 127.469 551.036 127.469Z" fill="#B3B3B3"/>
<path d="M565.524 127.469C567.834 127.469 569.706 125.224 569.706 122.453C569.706 119.683 567.834 117.438 565.524 117.438C563.215 117.438 561.343 119.683 561.343 122.453C561.343 125.224 563.215 127.469 565.524 127.469Z" fill="#B3B3B3"/>
<path d="M481.653 146.954C486.138 146.954 489.774 142.592 489.774 137.212C489.774 131.831 486.138 127.47 481.653 127.47C477.168 127.47 473.532 131.831 473.532 137.212C473.532 142.592 477.168 146.954 481.653 146.954Z" fill="#636466"/>
<path d="M480.935 151.932C478.229 151.91 475.562 152.713 473.185 154.265C470.808 155.817 468.798 158.067 467.344 160.805C471.252 164.514 476.054 166.609 481.035 166.776C486.016 166.944 490.909 165.175 494.983 161.734C493.589 158.739 491.549 156.25 489.078 154.525C486.606 152.801 483.794 151.906 480.935 151.932Z" fill="#636466"/>
<path d="M569.705 142.689H517.054C516.725 142.689 516.41 142.533 516.178 142.254C515.945 141.975 515.815 141.597 515.815 141.203C515.815 140.809 515.945 140.431 516.178 140.152C516.41 139.873 516.725 139.717 517.054 139.717H569.705C570.034 139.717 570.349 139.873 570.581 140.152C570.814 140.431 570.944 140.809 570.944 141.203C570.944 141.597 570.814 141.975 570.581 142.254C570.349 142.533 570.034 142.689 569.705 142.689Z" fill="black"/>
<path d="M569.705 154.355H517.054C516.725 154.355 516.41 154.199 516.178 153.92C515.945 153.641 515.815 153.263 515.815 152.869C515.815 152.475 515.945 152.097 516.178 151.818C516.41 151.539 516.725 151.383 517.054 151.383H569.705C570.034 151.383 570.349 151.539 570.581 151.818C570.814 152.097 570.944 152.475 570.944 152.869C570.944 153.263 570.814 153.641 570.581 153.92C570.349 154.199 570.034 154.355 569.705 154.355Z" fill="black"/>
<path d="M550.15 166.037H517.078C516.75 166.037 516.435 165.88 516.202 165.602C515.97 165.323 515.839 164.945 515.839 164.551C515.839 164.156 515.97 163.778 516.202 163.5C516.435 163.221 516.75 163.064 517.078 163.064H550.15C550.478 163.064 550.793 163.221 551.026 163.5C551.258 163.778 551.389 164.156 551.389 164.551C551.389 164.945 551.258 165.323 551.026 165.602C550.793 165.88 550.478 166.037 550.15 166.037Z" fill="black"/>
<path d="M481.164 167.478C476.843 167.478 472.619 165.941 469.026 163.061C465.433 160.181 462.633 156.088 460.979 151.299C459.326 146.51 458.893 141.24 459.736 136.156C460.579 131.072 462.66 126.402 465.715 122.737C468.771 119.072 472.664 116.575 476.902 115.564C481.14 114.553 485.532 115.072 489.524 117.056C493.517 119.039 496.929 122.399 499.329 126.709C501.73 131.019 503.011 136.086 503.011 141.269C503.005 148.218 500.701 154.88 496.605 159.793C492.509 164.707 486.956 167.47 481.164 167.478ZM481.164 118.04C477.333 118.04 473.587 119.403 470.402 121.957C467.217 124.511 464.734 128.14 463.268 132.386C461.802 136.633 461.419 141.305 462.167 145.813C462.915 150.32 464.76 154.461 467.47 157.71C470.179 160.96 473.631 163.172 477.389 164.068C481.147 164.964 485.041 164.502 488.581 162.742C492.12 160.983 495.144 158.003 497.272 154.181C499.4 150.359 500.535 145.865 500.533 141.269C500.527 135.11 498.484 129.205 494.853 124.85C491.221 120.495 486.298 118.046 481.164 118.04Z" fill="black"/>
<path d="M507.242 246.551H466.372C461.186 246.551 456.981 251.594 456.981 257.816V306.845C456.981 313.067 461.186 318.111 466.372 318.111H507.242C512.428 318.111 516.633 313.067 516.633 306.845V257.816C516.633 251.594 512.428 246.551 507.242 246.551Z" fill="white"/>
<path d="M507.242 319.597H466.359C463.54 319.595 460.837 318.251 458.843 315.86C456.849 313.47 455.727 310.227 455.724 306.845V257.801C455.727 254.419 456.849 251.177 458.843 248.786C460.837 246.396 463.54 245.052 466.359 245.05H507.242C510.061 245.052 512.764 246.396 514.758 248.786C516.752 251.177 517.874 254.419 517.878 257.801V306.845C517.874 310.227 516.752 313.47 514.758 315.86C512.764 318.251 510.061 319.595 507.242 319.597ZM466.359 248.037C464.197 248.039 462.124 249.07 460.595 250.903C459.065 252.736 458.205 255.222 458.201 257.816V306.86C458.205 309.454 459.065 311.94 460.595 313.773C462.124 315.607 464.197 316.637 466.359 316.639H507.242C509.404 316.637 511.477 315.607 513.006 313.773C514.536 311.94 515.397 309.454 515.4 306.86V257.816C515.397 255.222 514.536 252.736 513.006 250.903C511.477 249.07 509.404 248.039 507.242 248.037H466.359Z" fill="black"/>
<path d="M477.267 299.265V282.449C477.262 282.147 477.325 281.849 477.451 281.587C477.576 281.325 477.759 281.109 477.98 280.963C479.937 279.648 485.32 275.271 485.946 266.406C486.175 263.203 487.346 261.694 488.578 261.33C490.003 260.914 491.471 262.698 491.675 262.935C495.027 267.126 491.527 276.735 491.205 277.597L495.634 277.455C496.5 277.429 497.363 277.607 498.173 277.981C498.982 278.355 499.722 278.916 500.35 279.633C500.978 280.35 501.483 281.209 501.834 282.16C502.185 283.111 502.377 284.136 502.398 285.176L502.553 292.785C502.574 293.84 502.42 294.889 502.098 295.87C501.776 296.852 501.294 297.747 500.68 298.501C500.066 299.256 499.332 299.856 498.522 300.265C497.712 300.675 496.841 300.885 495.962 300.885H478.655C478.293 300.885 477.946 300.716 477.687 300.413C477.428 300.111 477.277 299.699 477.267 299.265Z" fill="#636466"/>
<path d="M477.422 278.815H473.284C472.443 278.815 471.76 279.634 471.76 280.643V300.558C471.76 301.568 472.443 302.386 473.284 302.386H477.422C478.264 302.386 478.946 301.568 478.946 300.558V280.643C478.946 279.634 478.264 278.815 477.422 278.815Z" fill="#B3B3B3"/>
<path d="M128.229 56.72C136.436 56.72 143.089 48.7387 143.089 38.8932C143.089 29.0477 136.436 21.0664 128.229 21.0664C120.022 21.0664 113.369 29.0477 113.369 38.8932C113.369 48.7387 120.022 56.72 128.229 56.72Z" fill="#C20004"/>
<path d="M129.058 90.5836C136.538 73.5419 134.24 54.4441 123.923 47.9275C113.607 41.4109 99.1805 49.9433 91.7001 66.985C84.2198 84.0267 86.5186 103.125 96.8347 109.641C107.151 116.158 121.578 107.625 129.058 90.5836Z" fill="#C20004"/>
<path d="M125.726 153.694C128.763 127.935 117.076 104.653 99.624 101.692C82.1716 98.7315 65.5622 117.213 62.5257 142.972C59.4892 168.731 71.1755 192.013 88.6278 194.974C106.08 197.935 122.69 179.453 125.726 153.694Z" fill="#C20004"/>
<path d="M15.3875 113.798C22.9753 113.798 29.1265 106.418 29.1265 97.3158C29.1265 88.2131 22.9753 80.834 15.3875 80.834C7.79961 80.834 1.64844 88.2131 1.64844 97.3158C1.64844 106.418 7.79961 113.798 15.3875 113.798Z" fill="#C20004"/>
<path d="M30.1536 164.382C40.5028 161.475 46.3372 146.028 43.1851 129.881C40.0329 113.733 29.088 103 18.7388 105.908C8.38966 108.815 2.55529 124.262 5.70741 140.409C8.85952 156.557 19.8045 167.29 30.1536 164.382Z" fill="#C20004"/>
<path d="M43.1044 237.076C58.1308 233.972 67.7309 213.472 64.5467 191.288C61.3625 169.105 46.5999 153.637 31.5734 156.741C16.547 159.845 6.94702 180.345 10.1312 202.529C13.3154 224.713 28.078 240.18 43.1044 237.076Z" fill="#C20004"/>
<path d="M60.9342 310.524C60.6308 310.527 60.3371 310.396 60.1087 310.156C59.8804 309.917 59.7333 309.585 59.6954 309.224C52.3799 239.603 32.2235 179.101 32.0191 178.528C31.9525 178.346 31.917 178.15 31.9149 177.95C31.9128 177.751 31.944 177.554 32.0068 177.37C32.0695 177.185 32.1625 177.018 32.2802 176.878C32.3979 176.737 32.5379 176.627 32.692 176.552C32.846 176.478 33.0108 176.442 33.1768 176.446C33.3427 176.449 33.5063 176.493 33.6579 176.574C33.8095 176.655 33.946 176.772 34.0593 176.917C34.1725 177.063 34.2602 177.234 34.3172 177.421C34.5216 178.023 54.7957 238.838 62.1917 308.852C62.2125 309.046 62.2011 309.244 62.1581 309.433C62.1152 309.621 62.0415 309.798 61.9413 309.953C61.8411 310.108 61.7165 310.237 61.5745 310.334C61.4325 310.431 61.2759 310.493 61.1139 310.516L60.9342 310.524Z" fill="black"/>
<path d="M75.8995 311.289C75.5709 311.289 75.2558 311.133 75.0235 310.854C74.7911 310.575 74.6606 310.197 74.6606 309.803C74.5057 239.952 82.7132 183.946 89.6199 149.228C97.115 111.576 104.777 90.1301 104.839 89.9295C104.973 89.5732 105.218 89.2943 105.522 89.1532C105.825 89.012 106.163 89.0199 106.462 89.1752C106.761 89.3305 106.996 89.6207 107.118 89.983C107.24 90.3452 107.238 90.7505 107.113 91.111C107.038 91.3191 99.4565 112.586 92.0109 150.023C85.1414 184.562 76.9835 240.331 77.1445 309.788C77.1445 310.182 77.014 310.56 76.7817 310.839C76.5493 311.118 76.2342 311.274 75.9057 311.274L75.8995 311.289Z" fill="black"/>
<path d="M83.017 309.803H51.7728C42.341 309.803 34.6951 318.975 34.6951 330.29V471.923C34.6951 483.238 42.341 492.41 51.7728 492.41H83.017C92.4488 492.41 100.095 483.238 100.095 471.923V330.29C100.095 318.975 92.4488 309.803 83.017 309.803Z" fill="#636466"/>
<path d="M37.8787 482.653C37.6362 482.653 37.3989 482.568 37.1963 482.409C36.9937 482.249 36.8347 482.021 36.7389 481.754C36.6068 481.396 36.5977 480.99 36.7137 480.624C36.8297 480.258 37.0613 479.962 37.3583 479.8C47.0512 474.764 57.481 472.086 68.043 471.923C78.6049 471.76 89.0888 474.114 98.8866 478.848C99.1813 479.003 99.4142 479.29 99.5359 479.647C99.6576 480.005 99.6586 480.405 99.5386 480.763C99.4187 481.122 99.1872 481.41 98.8933 481.567C98.5993 481.724 98.2659 481.738 97.9637 481.605C88.4685 477.018 78.3088 474.737 68.0733 474.895C57.8379 475.053 47.7305 477.647 38.337 482.527C38.1924 482.604 38.0368 482.646 37.8787 482.653Z" fill="black"/>
<path d="M91.0261 340.099H44.6925C44.3639 340.099 44.0488 339.943 43.8165 339.664C43.5841 339.385 43.4536 339.007 43.4536 338.613C43.4536 338.219 43.5841 337.841 43.8165 337.562C44.0488 337.284 44.3639 337.127 44.6925 337.127H91.0261C91.3546 337.127 91.6697 337.284 91.9021 337.562C92.1344 337.841 92.2649 338.219 92.2649 338.613C92.2649 339.007 92.1344 339.385 91.9021 339.664C91.6697 339.943 91.3546 340.099 91.0261 340.099Z" fill="black"/>
<path d="M79.1393 474.888C78.8107 474.888 78.4956 474.731 78.2632 474.453C78.0309 474.174 77.9004 473.796 77.9004 473.402V339.051C77.9004 338.656 78.0309 338.278 78.2632 338C78.4956 337.721 78.8107 337.564 79.1393 337.564C79.4678 337.564 79.7829 337.721 80.0153 338C80.2476 338.278 80.3781 338.656 80.3781 339.051V473.402C80.3781 473.796 80.2476 474.174 80.0153 474.453C79.7829 474.731 79.4678 474.888 79.1393 474.888Z" fill="black"/>
<path d="M56.5484 474.888C56.2199 474.888 55.9048 474.731 55.6724 474.453C55.4401 474.174 55.3096 473.796 55.3096 473.402V339.051C55.3096 338.656 55.4401 338.278 55.6724 338C55.9048 337.721 56.2199 337.564 56.5484 337.564C56.877 337.564 57.1921 337.721 57.4244 338C57.6568 338.278 57.7873 338.656 57.7873 339.051V473.402C57.7873 473.796 57.6568 474.174 57.4244 474.453C57.1921 474.731 56.877 474.888 56.5484 474.888Z" fill="black"/>
</svg>
