<svg width="480" height="466" viewBox="0 0 480 466" fill="none" xmlns="http://www.w3.org/2000/svg">
<path d="M311.3 416.303L244.437 423.296C242.914 423.455 241.809 424.818 241.969 426.34L242.703 433.359C242.862 434.881 244.225 435.986 245.747 435.827L312.611 428.835C314.133 428.675 315.238 427.312 315.079 425.79L314.345 418.771C314.186 417.249 312.823 416.144 311.3 416.303Z" fill="#2A2E32"/>
<path d="M315.594 379.85L268.613 379.544L204.767 410.998C202.707 412.014 201.131 413.801 200.381 415.972C199.632 418.144 199.771 420.523 200.766 422.592L317.271 405.3L315.594 379.85Z" fill="#2A2E32"/>
<path d="M316.117 405.768L202.254 423.094C203.034 424.736 204.314 426.088 205.91 426.958C207.505 427.828 209.335 428.17 211.138 427.937L309.026 415.297C311.095 415.029 312.986 413.983 314.313 412.372C315.64 410.761 316.304 408.706 316.171 406.623L316.117 405.768Z" fill="white"/>
<path d="M210.017 429.37C208.132 429.369 206.287 428.833 204.695 427.824C203.103 426.816 201.83 425.375 201.024 423.671L200.237 422.021L317.407 404.205L317.557 406.535C317.706 408.962 316.929 411.355 315.382 413.231C313.835 415.107 311.634 416.326 309.223 416.641L211.308 429.261C210.88 429.324 210.449 429.361 210.017 429.37ZM204.522 424.12C205.307 425.033 206.306 425.738 207.43 426.169C208.554 426.601 209.767 426.746 210.961 426.592L308.849 413.952C310.468 413.738 311.957 412.956 313.052 411.746C314.147 410.535 314.776 408.975 314.826 407.343L204.522 424.12Z" fill="#2A2E32"/>
<path d="M261.793 401.665C261.605 401.665 261.42 401.625 261.248 401.549C261.076 401.473 260.922 401.362 260.795 401.224L250.471 390.03C250.35 389.899 250.256 389.745 250.194 389.577C250.133 389.409 250.105 389.231 250.113 389.052C250.12 388.874 250.163 388.698 250.238 388.536C250.314 388.374 250.42 388.229 250.552 388.108C250.816 387.865 251.166 387.736 251.525 387.75C251.884 387.764 252.223 387.92 252.468 388.183L262.792 399.376C262.913 399.507 263.008 399.661 263.07 399.829C263.132 399.996 263.16 400.174 263.153 400.353C263.146 400.531 263.104 400.707 263.029 400.869C262.954 401.031 262.848 401.177 262.717 401.298C262.466 401.533 262.136 401.664 261.793 401.665Z" fill="white"/>
<path d="M251.279 407.792C251.092 407.792 250.906 407.754 250.734 407.679C250.563 407.604 250.408 407.495 250.281 407.357L239.977 396.157C239.85 396.027 239.751 395.873 239.685 395.704C239.619 395.535 239.587 395.354 239.592 395.173C239.597 394.991 239.638 394.812 239.713 394.647C239.788 394.482 239.896 394.333 240.029 394.21C240.163 394.087 240.32 393.992 240.49 393.931C240.661 393.869 240.843 393.843 241.024 393.853C241.205 393.863 241.383 393.909 241.546 393.988C241.709 394.068 241.855 394.18 241.974 394.316L252.278 405.489C252.399 405.621 252.493 405.775 252.554 405.943C252.616 406.111 252.643 406.289 252.636 406.467C252.628 406.646 252.585 406.821 252.51 406.983C252.435 407.145 252.328 407.291 252.196 407.412C251.949 407.65 251.622 407.785 251.279 407.792Z" fill="white"/>
<path d="M306.302 384.345H277.775C273.558 384.345 269.514 382.67 266.532 379.688C263.55 376.706 261.875 372.662 261.875 368.445V206.582H322.203V368.445C322.201 372.662 320.525 376.705 317.544 379.686C314.562 382.668 310.519 384.344 306.302 384.345Z" fill="#C20004"/>
<path d="M477.796 464.812H350.94C350.58 464.812 350.234 464.668 349.979 464.414C349.725 464.159 349.582 463.813 349.582 463.453C349.582 463.093 349.725 462.747 349.979 462.493C350.234 462.238 350.58 462.095 350.94 462.095H477.796C478.157 462.095 478.502 462.238 478.757 462.493C479.012 462.747 479.155 463.093 479.155 463.453C479.155 463.813 479.012 464.159 478.757 464.414C478.502 464.668 478.157 464.812 477.796 464.812Z" fill="#2A2E32"/>
<path d="M109.093 464.615H59.1101C58.7499 464.615 58.4043 464.472 58.1496 464.217C57.8948 463.963 57.7517 463.617 57.7517 463.257C57.7517 462.897 57.8948 462.551 58.1496 462.296C58.4043 462.042 58.7499 461.898 59.1101 461.898H109.093C109.454 461.898 109.799 462.042 110.054 462.296C110.309 462.551 110.452 462.897 110.452 463.257C110.452 463.617 110.309 463.963 110.054 464.217C109.799 464.472 109.454 464.615 109.093 464.615Z" fill="#2A2E32"/>
<path d="M448.495 441.82H394.695C394.335 441.82 393.989 441.677 393.734 441.423C393.48 441.168 393.336 440.822 393.336 440.462C393.336 440.102 393.48 439.756 393.734 439.501C393.989 439.247 394.335 439.104 394.695 439.104H448.495C448.856 439.104 449.201 439.247 449.456 439.501C449.711 439.756 449.854 440.102 449.854 440.462C449.854 440.822 449.711 441.168 449.456 441.423C449.201 441.677 448.856 441.82 448.495 441.82Z" fill="#2A2E32"/>
<path d="M408.625 313.388C408.344 313.388 408.07 313.3 407.841 313.138C407.611 312.975 407.438 312.745 407.345 312.48C407.252 312.214 407.243 311.926 407.32 311.656C407.398 311.386 407.557 311.146 407.776 310.97L442.505 283.122C442.643 283.004 442.804 282.915 442.977 282.86C443.151 282.805 443.333 282.786 443.515 282.803C443.696 282.82 443.872 282.873 444.032 282.96C444.192 283.046 444.333 283.164 444.447 283.306C444.561 283.448 444.645 283.611 444.694 283.786C444.743 283.962 444.757 284.145 444.734 284.325C444.712 284.506 444.653 284.68 444.561 284.837C444.47 284.995 444.348 285.132 444.203 285.241L409.474 313.089C409.234 313.282 408.934 313.388 408.625 313.388Z" fill="#2A2E32"/>
<path d="M349.629 83.8965H308.89C305.165 83.8965 302.146 86.9161 302.146 90.6411V116.546C302.146 120.271 305.165 123.291 308.89 123.291H349.629C353.354 123.291 356.374 120.271 356.374 116.546V90.6411C356.374 86.9161 353.354 83.8965 349.629 83.8965Z" fill="white"/>
<path d="M349.622 124.649H308.87C306.721 124.647 304.661 123.793 303.142 122.274C301.623 120.755 300.768 118.695 300.767 116.546V90.6411C300.768 88.4926 301.623 86.4326 303.142 84.9134C304.661 83.3942 306.721 82.5399 308.87 82.5381H349.622C351.769 82.5488 353.824 83.4057 355.343 84.9228C356.861 86.4399 357.72 88.4947 357.732 90.6411V116.546C357.72 118.693 356.861 120.747 355.343 122.265C353.824 123.782 351.769 124.639 349.622 124.649ZM308.87 85.2549C307.442 85.2567 306.073 85.8248 305.063 86.8345C304.053 87.8442 303.485 89.2132 303.483 90.6411V116.546C303.485 117.974 304.053 119.343 305.063 120.353C306.073 121.363 307.442 121.931 308.87 121.932H349.622C351.051 121.932 352.422 121.365 353.433 120.355C354.444 119.345 355.013 117.975 355.015 116.546V90.6411C355.013 89.212 354.444 87.842 353.433 86.8321C352.422 85.8222 351.051 85.2549 349.622 85.2549H308.87Z" fill="#2A2E32"/>
<path d="M365.115 58.7158L344.746 93.9969C342.883 97.2228 343.988 101.348 347.214 103.21L369.649 116.163C372.875 118.025 377 116.92 378.862 113.694L399.232 78.413C401.094 75.1871 399.989 71.0621 396.763 69.1997L374.328 56.2471C371.103 54.3846 366.978 55.4899 365.115 58.7158Z" fill="white"/>
<path d="M373.007 118.421C371.59 118.42 370.199 118.045 368.973 117.334L346.559 104.381C345.637 103.849 344.829 103.141 344.18 102.297C343.532 101.452 343.057 100.489 342.781 99.4606C342.505 98.4325 342.435 97.3602 342.574 96.3048C342.713 95.2495 343.058 94.2319 343.591 93.3101L363.967 58.0386C364.498 57.1153 365.205 56.3058 366.049 55.6566C366.894 55.0073 367.858 54.5312 368.886 54.2554C369.915 53.9797 370.988 53.9097 372.043 54.0496C373.099 54.1894 374.117 54.5364 375.038 55.0705L397.452 68.0163C399.313 69.093 400.671 70.8643 401.228 72.9413C401.784 75.0182 401.494 77.2312 400.42 79.0942L380.044 114.366C379.331 115.601 378.305 116.626 377.07 117.337C375.834 118.049 374.433 118.423 373.007 118.421ZM370.331 114.984C371.569 115.695 373.039 115.887 374.418 115.516C375.797 115.146 376.972 114.243 377.687 113.007L398.063 77.7358C398.778 76.498 398.971 75.0274 398.602 73.6469C398.233 72.2664 397.331 71.089 396.094 70.3731L373.68 57.4206C373.066 57.0662 372.389 56.8362 371.686 56.7437C370.984 56.6512 370.27 56.6981 369.585 56.8817C368.901 57.0652 368.26 57.3819 367.698 57.8135C367.136 58.2451 366.664 58.7832 366.31 59.3971L345.934 94.6685C345.579 95.281 345.347 95.9576 345.254 96.6595C345.161 97.3614 345.207 98.0749 345.39 98.7589C345.573 99.4429 345.889 100.084 346.321 100.646C346.752 101.207 347.29 101.678 347.904 102.031L370.331 114.984Z" fill="#2A2E32"/>
<path d="M374.842 85.5812C374.538 85.581 374.243 85.4792 374.004 85.2919C373.765 85.1047 373.596 84.8428 373.523 84.5481C373.451 84.2534 373.479 83.9428 373.603 83.666C373.728 83.3891 373.941 83.1619 374.21 83.0206L398.492 70.2853C398.811 70.1178 399.185 70.0842 399.529 70.1918C399.874 70.2994 400.161 70.5395 400.329 70.8593C400.496 71.179 400.53 71.5522 400.422 71.8968C400.315 72.2413 400.075 72.529 399.755 72.6965L375.473 85.425C375.278 85.5274 375.062 85.5811 374.842 85.5812Z" fill="#2A2E32"/>
<path d="M360.889 80.886L330.486 108.003C327.706 110.482 327.463 114.746 329.942 117.526L347.185 136.858C349.665 139.638 353.928 139.882 356.708 137.402L387.111 110.286C389.891 107.806 390.135 103.543 387.655 100.763L370.412 81.4301C367.933 78.6502 363.669 78.4066 360.889 80.886Z" fill="white"/>
<path d="M352.231 140.495C352.074 140.495 351.918 140.495 351.762 140.495C350.697 140.435 349.654 140.165 348.694 139.698C347.734 139.232 346.877 138.579 346.172 137.778L328.954 118.454C328.247 117.658 327.703 116.731 327.354 115.725C327.006 114.719 326.859 113.654 326.922 112.591C326.985 111.528 327.257 110.488 327.722 109.531C328.187 108.573 328.837 107.716 329.633 107.01L360.035 79.8954C361.644 78.4703 363.752 77.7414 365.898 77.8688C368.043 77.9961 370.05 78.9692 371.479 80.5746L388.718 99.905C389.425 100.701 389.969 101.628 390.317 102.634C390.666 103.64 390.813 104.705 390.75 105.768C390.687 106.831 390.415 107.871 389.95 108.829C389.485 109.787 388.835 110.643 388.039 111.35L357.617 138.437C356.138 139.765 354.219 140.499 352.231 140.495ZM365.373 80.561C364.053 80.5557 362.778 81.0397 361.794 81.9195L331.392 109.027C330.325 109.979 329.68 111.316 329.598 112.744C329.517 114.172 330.006 115.573 330.958 116.641L348.203 135.971C348.674 136.499 349.244 136.93 349.881 137.237C350.518 137.545 351.21 137.724 351.916 137.765C352.623 137.805 353.33 137.706 353.998 137.473C354.666 137.24 355.282 136.877 355.81 136.406L386.212 109.292C386.74 108.821 387.17 108.251 387.478 107.613C387.786 106.976 387.965 106.285 388.005 105.578C388.045 104.872 387.946 104.164 387.713 103.496C387.48 102.828 387.117 102.212 386.646 101.685L369.401 82.3542C368.932 81.8252 368.363 81.3943 367.726 81.0866C367.09 80.7788 366.399 80.6002 365.693 80.561H365.373Z" fill="#2A2E32"/>
<path d="M347.415 371.936H347.293L236.269 362.652L235.95 362.394L88.9816 246.635C88.7364 246.447 88.5567 246.186 88.468 245.889C88.3794 245.593 88.3863 245.276 88.4877 244.984C88.5892 244.692 88.78 244.439 89.0332 244.261C89.2865 244.083 89.5892 243.989 89.8986 243.993H303.891L356.122 360.777C356.269 361.107 356.279 361.481 356.15 361.818C356.021 362.155 355.763 362.427 355.433 362.574C355.27 362.646 355.094 362.686 354.915 362.691C354.737 362.695 354.559 362.665 354.392 362.601C354.055 362.472 353.783 362.214 353.637 361.884L302.125 246.71H93.4576L237.315 359.982L347.524 369.199C347.884 369.214 348.224 369.371 348.468 369.635C348.713 369.9 348.842 370.252 348.828 370.612C348.813 370.972 348.656 371.312 348.391 371.557C348.126 371.801 347.775 371.93 347.415 371.916V371.936Z" fill="#2A2E32"/>
<path d="M236.791 362.699C236.553 362.7 236.319 362.64 236.112 362.522C235.957 362.434 235.82 362.316 235.71 362.175C235.601 362.034 235.52 361.873 235.473 361.701C235.425 361.529 235.412 361.349 235.435 361.171C235.457 360.994 235.514 360.823 235.602 360.668L316.048 219.698C316.228 219.385 316.525 219.157 316.874 219.063C317.222 218.97 317.593 219.018 317.906 219.198C318.218 219.378 318.447 219.675 318.54 220.024C318.634 220.372 318.585 220.743 318.405 221.056L237.973 362.02C237.853 362.227 237.681 362.399 237.473 362.518C237.266 362.637 237.03 362.7 236.791 362.699Z" fill="#2A2E32"/>
<path d="M244.406 363.542L199.877 378.485L149.744 428.97C148.43 430.29 147.574 431.997 147.301 433.839C147.029 435.681 147.354 437.562 148.229 439.206C148.629 439.954 149.135 440.64 149.73 441.244L254.288 387.029L244.406 363.542Z" fill="#2A2E32"/>
<path d="M192.222 410.923C191.996 410.923 191.775 410.867 191.576 410.76L178.169 403.547C178.012 403.462 177.873 403.347 177.76 403.209C177.648 403.071 177.564 402.912 177.512 402.741C177.461 402.57 177.444 402.39 177.463 402.213C177.481 402.035 177.534 401.863 177.619 401.706C177.703 401.549 177.818 401.411 177.957 401.298C178.095 401.185 178.254 401.101 178.425 401.05C178.596 400.999 178.775 400.982 178.953 401C179.13 401.018 179.302 401.071 179.459 401.156L192.86 408.39C193.126 408.533 193.337 408.762 193.458 409.039C193.58 409.315 193.606 409.625 193.532 409.918C193.458 410.211 193.288 410.471 193.05 410.657C192.811 410.843 192.517 410.944 192.215 410.944L192.222 410.923Z" fill="white"/>
<path d="M420.24 201.781H323.167V112.804C323.176 110.655 324.033 108.597 325.552 107.077C327.071 105.557 329.128 104.698 331.277 104.688H412.103C413.169 104.687 414.224 104.897 415.208 105.305C416.193 105.713 417.087 106.311 417.84 107.065C418.593 107.819 419.191 108.714 419.598 109.699C420.005 110.683 420.214 111.739 420.213 112.804L420.24 201.781Z" fill="#C20004"/>
<path d="M235.222 52.6387H195.828C192.836 52.6387 189.966 51.4501 187.851 49.3344C185.735 47.2187 184.546 44.3491 184.546 41.357V25.4703C184.546 22.5214 185.718 19.6933 187.803 17.6082C189.888 15.523 192.716 14.3516 195.665 14.3516H234.971C236.698 14.3507 238.409 14.6901 240.005 15.3506C241.601 16.011 243.052 16.9794 244.274 18.2006C245.495 19.4217 246.465 20.8716 247.126 22.4674C247.787 24.0632 248.127 25.7737 248.127 27.5011V39.7269C248.128 41.4222 247.795 43.1011 247.147 44.6675C246.499 46.234 245.548 47.6575 244.35 48.8565C243.152 50.0556 241.729 51.0068 240.162 51.6558C238.596 52.3047 236.918 52.6387 235.222 52.6387Z" fill="#2A2E32"/>
<path d="M252.902 398.007L191.942 426.355C190.554 427 189.953 428.648 190.598 430.036L193.574 436.435C194.219 437.823 195.867 438.425 197.255 437.779L258.214 409.431C259.602 408.786 260.204 407.138 259.559 405.75L256.583 399.351C255.937 397.963 254.289 397.361 252.902 398.007Z" fill="#2A2E32"/>
<path d="M253.324 387.885L151.272 441.271C152.544 442.57 154.194 443.434 155.986 443.739C157.778 444.044 159.62 443.774 161.25 442.969L249.71 399.2C251.583 398.275 253.032 396.672 253.765 394.717C254.498 392.761 254.459 390.6 253.657 388.673L253.324 387.885Z" fill="white"/>
<path d="M157.419 445.223C156.096 445.222 154.786 444.955 153.567 444.439C152.348 443.924 151.244 443.17 150.321 442.221L149.038 440.917L254.01 385.996L254.906 388.149C255.837 390.395 255.881 392.911 255.028 395.187C254.176 397.464 252.492 399.333 250.315 400.416L161.868 444.205C160.484 444.884 158.961 445.233 157.419 445.223ZM153.751 441.508C154.79 442.117 155.965 442.457 157.168 442.499C158.372 442.54 159.567 442.282 160.645 441.746L249.113 398.018C250.573 397.288 251.727 396.063 252.369 394.562C253.01 393.061 253.099 391.38 252.617 389.82L153.751 441.508Z" fill="#2A2E32"/>
<path d="M200.175 401.727C199.949 401.729 199.727 401.673 199.53 401.564L186.129 394.33C185.812 394.159 185.576 393.869 185.473 393.524C185.369 393.179 185.408 392.807 185.579 392.49C185.75 392.173 186.04 391.936 186.385 391.833C186.73 391.73 187.102 391.768 187.419 391.939L200.82 399.173C201.089 399.318 201.301 399.549 201.423 399.83C201.544 400.11 201.567 400.423 201.489 400.718C201.41 401.013 201.235 401.273 200.99 401.456C200.746 401.639 200.446 401.735 200.141 401.727H200.175Z" fill="white"/>
<path d="M234.951 371.936L207.939 381.092C205.961 381.763 203.87 382.037 201.786 381.9C199.702 381.762 197.666 381.216 195.793 380.291C193.92 379.366 192.248 378.082 190.872 376.511C189.496 374.94 188.443 373.113 187.773 371.135L148.521 255.295C145.954 247.719 146.503 239.433 150.045 232.26C153.587 225.088 159.834 219.616 167.41 217.049C174.987 214.482 183.272 215.03 190.445 218.573C197.617 222.115 203.089 228.361 205.656 235.938L244.908 351.771C245.579 353.748 245.853 355.839 245.716 357.923C245.578 360.007 245.031 362.044 244.107 363.916C243.182 365.789 241.898 367.461 240.327 368.837C238.756 370.213 236.929 371.266 234.951 371.936Z" fill="#C20004"/>
<path d="M322.997 201.883L199.224 268.907C181.218 279.347 159.511 275.55 150.749 260.431C141.98 245.311 149.479 224.596 167.484 214.156L290.272 142.975L322.997 201.883Z" fill="#C20004"/>
<path d="M205.561 264.288C205.26 264.286 204.967 264.184 204.73 263.998C204.492 263.812 204.323 263.552 204.25 263.259C204.177 262.966 204.203 262.657 204.325 262.381C204.447 262.105 204.657 261.877 204.923 261.734L216.605 255.492C216.763 255.393 216.94 255.328 217.124 255.3C217.308 255.273 217.496 255.283 217.676 255.331C217.856 255.379 218.024 255.463 218.17 255.579C218.316 255.695 218.437 255.839 218.524 256.004C218.612 256.168 218.665 256.348 218.68 256.534C218.695 256.72 218.672 256.906 218.612 257.083C218.551 257.259 218.456 257.421 218.33 257.559C218.205 257.696 218.052 257.807 217.882 257.883L206.2 264.125C206.004 264.231 205.784 264.287 205.561 264.288Z" fill="#2A2E32"/>
<path d="M261.881 235.89C261.58 235.889 261.287 235.787 261.05 235.6C260.812 235.414 260.644 235.154 260.57 234.861C260.497 234.568 260.524 234.26 260.645 233.983C260.767 233.707 260.977 233.48 261.243 233.336L291.4 217.219C291.558 217.124 291.733 217.062 291.915 217.037C292.097 217.012 292.283 217.024 292.46 217.073C292.637 217.122 292.803 217.206 292.947 217.321C293.091 217.435 293.21 217.578 293.297 217.74C293.384 217.902 293.437 218.08 293.453 218.264C293.469 218.447 293.448 218.631 293.391 218.806C293.333 218.981 293.241 219.142 293.12 219.28C292.998 219.418 292.85 219.53 292.684 219.609L262.52 235.727C262.324 235.833 262.104 235.889 261.881 235.89Z" fill="#2A2E32"/>
<path d="M351.66 465.695C350.104 465.696 348.549 465.619 347 465.464C329.341 463.718 313.821 452.206 303.239 433.066C292.813 414.204 288.425 390.112 290.897 365.226C293.37 340.339 302.39 317.579 316.313 301.135C330.455 284.44 347.944 276.215 365.59 277.961C383.236 279.706 398.77 291.212 409.352 310.359C419.778 329.214 424.159 353.306 421.693 378.192C419.228 403.078 410.201 425.839 396.277 442.282C383.386 457.51 367.703 465.695 351.66 465.695ZM360.965 282.484C329.123 282.484 300.291 318.645 295.625 365.694C293.254 389.63 297.431 412.737 307.395 430.763C317.203 448.497 331.433 459.14 347.469 460.73C380.934 464.051 412.096 426.81 416.966 377.723C421.836 328.637 398.573 286.03 365.122 282.688C363.731 282.552 362.346 282.484 360.965 282.484Z" fill="#636466"/>
<path d="M354.879 377.139C358.511 377.139 361.454 373.6 361.454 369.233C361.454 364.867 358.511 361.327 354.879 361.327C351.248 361.327 348.305 364.867 348.305 369.233C348.305 373.6 351.248 377.139 354.879 377.139Z" fill="#2A2E32"/>
<path d="M61.4398 465.695C59.8837 465.696 58.3287 465.619 56.7804 465.464C39.1209 463.718 23.5941 452.206 13.0119 433.066C2.58605 414.204 -1.79487 390.112 0.67067 365.226C3.13621 340.339 12.1629 317.579 26.0868 301.135C40.228 284.44 57.7313 276.215 75.3636 277.961C92.9959 279.706 108.543 291.212 119.125 310.359C129.551 329.214 133.939 353.306 131.473 378.192C129.008 403.078 119.974 425.866 106.05 442.282C93.159 457.51 77.476 465.695 61.4398 465.695ZM70.745 282.484C38.8967 282.484 10.0642 318.645 5.40478 365.694C3.02754 389.63 7.21148 412.737 17.1755 430.763C26.9766 448.497 41.2128 459.14 57.249 460.73C58.6278 460.871 60.013 460.941 61.399 460.94C93.2405 460.94 122.073 424.779 126.739 377.723C131.602 328.637 108.346 286.03 74.895 282.688C73.5094 282.552 72.126 282.484 70.745 282.484Z" fill="#636466"/>
<path d="M64.6526 377.139C68.2838 377.139 71.2274 373.6 71.2274 369.233C71.2274 364.867 68.2838 361.327 64.6526 361.327C61.0215 361.327 58.0779 364.867 58.0779 369.233C58.0779 373.6 61.0215 377.139 64.6526 377.139Z" fill="#2A2E32"/>
<path d="M64.6592 362.699C64.5621 362.708 64.4643 362.708 64.3672 362.699C64.1928 362.661 64.0275 362.589 63.8809 362.487C63.7343 362.385 63.6091 362.256 63.5126 362.106C63.4161 361.956 63.3501 361.788 63.3185 361.612C63.2868 361.437 63.29 361.256 63.328 361.082L96.3105 207.342C96.7734 205.232 97.9411 203.343 99.6214 201.984C101.302 200.626 103.394 199.881 105.555 199.871H152.25C152.611 199.871 152.956 200.014 153.211 200.269C153.466 200.524 153.609 200.869 153.609 201.23C153.609 201.59 153.466 201.935 153.211 202.19C152.956 202.445 152.611 202.588 152.25 202.588H105.555C104.016 202.598 102.525 203.13 101.329 204.097C100.132 205.065 99.2986 206.41 98.9662 207.913L65.9837 361.612C65.9213 361.918 65.7556 362.192 65.5144 362.39C65.2732 362.588 64.9712 362.697 64.6592 362.699Z" fill="#2A2E32"/>
<path d="M65.8206 175.916C64.1417 175.913 62.5129 175.344 61.1969 174.301C59.8809 173.259 58.9543 171.803 58.5667 170.17L44.0587 108.266C43.8152 107.177 43.8187 106.048 44.0691 104.96C44.3194 103.873 44.8101 102.855 45.5052 101.982C46.2004 101.109 47.0822 100.403 48.086 99.9156C49.0898 99.4281 50.19 99.1716 51.3059 99.165H129.565C131.223 99.1623 132.835 99.7144 134.143 100.734C135.452 101.753 136.381 103.18 136.785 104.789L151.727 164.125C151.994 165.203 152.016 166.326 151.794 167.414C151.571 168.501 151.109 169.526 150.441 170.412C149.773 171.299 148.916 172.026 147.932 172.539C146.947 173.053 145.861 173.341 144.752 173.383L66.0991 175.916H65.8206ZM51.3059 101.882C50.5947 101.887 49.8937 102.051 49.2544 102.362C48.6151 102.674 48.0538 103.125 47.6119 103.682C47.17 104.239 46.8588 104.889 46.7011 105.582C46.5434 106.276 46.5433 106.996 46.7008 107.689L61.2156 169.593C61.4636 170.628 62.0524 171.551 62.8874 172.213C63.7225 172.874 64.7554 173.236 65.8206 173.24H65.9769L144.657 170.672C145.361 170.644 146.05 170.46 146.674 170.133C147.298 169.806 147.842 169.344 148.266 168.781C148.689 168.219 148.983 167.568 149.125 166.878C149.266 166.188 149.253 165.475 149.085 164.791L134.143 105.455C133.881 104.436 133.289 103.533 132.46 102.886C131.63 102.24 130.61 101.886 129.558 101.882H51.3059Z" fill="#2A2E32"/>
<path d="M129.857 125.199H103.931C103.571 125.199 103.226 125.056 102.971 124.801C102.716 124.547 102.573 124.201 102.573 123.841C102.573 123.481 102.716 123.135 102.971 122.88C103.226 122.626 103.571 122.482 103.931 122.482H129.857C130.217 122.482 130.563 122.626 130.817 122.88C131.072 123.135 131.215 123.481 131.215 123.841C131.215 124.201 131.072 124.547 130.817 124.801C130.563 125.056 130.217 125.199 129.857 125.199Z" fill="#2A2E32"/>
<path d="M131.779 136.569H105.846C105.486 136.569 105.14 136.426 104.886 136.172C104.631 135.917 104.488 135.571 104.488 135.211C104.488 134.851 104.631 134.505 104.886 134.25C105.14 133.996 105.486 133.853 105.846 133.853H131.779C132.139 133.853 132.484 133.996 132.739 134.25C132.994 134.505 133.137 134.851 133.137 135.211C133.137 135.571 132.994 135.917 132.739 136.172C132.484 136.426 132.139 136.569 131.779 136.569Z" fill="#2A2E32"/>
<path d="M125.388 147.933H107.382C107.022 147.933 106.676 147.79 106.421 147.535C106.167 147.28 106.023 146.935 106.023 146.574C106.023 146.214 106.167 145.868 106.421 145.614C106.676 145.359 107.022 145.216 107.382 145.216H125.388C125.748 145.216 126.094 145.359 126.348 145.614C126.603 145.868 126.746 146.214 126.746 146.574C126.746 146.935 126.603 147.28 126.348 147.535C126.094 147.79 125.748 147.933 125.388 147.933Z" fill="#2A2E32"/>
<path d="M96.5342 151.587H70.3167C69.6833 151.586 69.0678 151.376 68.5665 150.989C68.0651 150.602 67.7061 150.06 67.5455 149.447L61.8333 127.42C61.7246 126.997 61.7141 126.555 61.8024 126.127C61.8907 125.7 62.0756 125.298 62.343 124.952C62.6104 124.607 62.9531 124.327 63.345 124.135C63.737 123.942 64.1678 123.842 64.6045 123.841H90.8221C91.4555 123.841 92.0709 124.051 92.5723 124.438C93.0736 124.825 93.4327 125.368 93.5933 125.98L99.3054 148.007C99.4155 148.43 99.4271 148.873 99.3393 149.301C99.2516 149.73 99.0667 150.132 98.7991 150.478C98.5315 150.823 98.1882 151.103 97.7955 151.295C97.4029 151.488 96.9714 151.587 96.5342 151.587Z" fill="#C20004"/>
<path d="M83.079 151.654C82.7583 151.66 82.446 151.552 82.1974 151.349C81.9488 151.147 81.7799 150.863 81.7206 150.547L76.9661 125.376C76.9079 125.025 76.9893 124.666 77.1928 124.375C77.3963 124.084 77.7058 123.884 78.0548 123.818C78.4039 123.753 78.7648 123.826 79.0602 124.023C79.3557 124.221 79.5621 124.526 79.6354 124.873L84.3899 150.045C84.4233 150.22 84.4217 150.401 84.3851 150.576C84.3485 150.751 84.2777 150.918 84.1767 151.065C84.0757 151.213 83.9466 151.339 83.7967 151.437C83.6467 151.534 83.479 151.601 83.3031 151.634C83.229 151.646 83.1541 151.653 83.079 151.654Z" fill="#2A2E32"/>
<path d="M88.2688 133.35C87.6433 133.351 87.0374 133.132 86.5571 132.732L78.4541 126.034C78.3039 125.926 78.1776 125.787 78.083 125.627C77.9884 125.468 77.9275 125.291 77.904 125.107C77.8805 124.923 77.895 124.736 77.9465 124.558C77.998 124.379 78.0854 124.214 78.2035 124.07C78.3215 123.927 78.4676 123.81 78.6327 123.725C78.7979 123.641 78.9786 123.591 79.1637 123.579C79.3489 123.567 79.5345 123.593 79.7091 123.656C79.8838 123.718 80.0438 123.816 80.1793 123.943L88.2823 130.633L91.0875 123.773C91.2337 123.455 91.497 123.205 91.8226 123.076C92.1483 122.948 92.511 122.95 92.8351 123.082C93.1593 123.214 93.4198 123.467 93.5624 123.787C93.705 124.106 93.7187 124.469 93.6006 124.798L90.775 131.672C90.6169 132.065 90.3675 132.415 90.0474 132.692C89.7274 132.97 89.3458 133.167 88.9344 133.268C88.7165 133.322 88.4931 133.349 88.2688 133.35Z" fill="#2A2E32"/>
<path d="M92.1811 151.41C91.8691 151.409 91.5671 151.3 91.3259 151.102C91.0847 150.904 90.919 150.629 90.8566 150.323L87.1549 132.236C87.0828 131.883 87.154 131.516 87.3527 131.215C87.5514 130.914 87.8614 130.705 88.2145 130.633C88.5675 130.561 88.9348 130.632 89.2354 130.831C89.536 131.029 89.7454 131.339 89.8174 131.693L93.5055 149.78C93.5412 149.955 93.5422 150.135 93.5082 150.31C93.4743 150.485 93.4062 150.652 93.3078 150.801C93.2094 150.95 93.0827 151.078 92.9348 151.178C92.7869 151.277 92.6208 151.347 92.446 151.383C92.3588 151.401 92.27 151.41 92.1811 151.41Z" fill="#2A2E32"/>
<path d="M465.143 183.754H357.121C352.252 183.754 348.305 187.701 348.305 192.57V270.347C348.305 275.216 352.252 279.163 357.121 279.163H465.143C470.012 279.163 473.959 275.216 473.959 270.347V192.57C473.959 187.701 470.012 183.754 465.143 183.754Z" fill="#636466"/>
<path d="M450.763 280.515C450.403 280.515 450.058 280.372 449.803 280.117C449.548 279.862 449.405 279.517 449.405 279.156V228.154C449.405 227.794 449.548 227.449 449.803 227.194C450.058 226.939 450.403 226.796 450.763 226.796C451.124 226.796 451.469 226.939 451.724 227.194C451.979 227.449 452.122 227.794 452.122 228.154V279.156C452.122 279.517 451.979 279.862 451.724 280.117C451.469 280.372 451.124 280.515 450.763 280.515Z" fill="#2A2E32"/>
<path d="M379.073 193.311H360.741C358.693 193.311 357.032 194.971 357.032 197.019V207.194C357.032 209.242 358.693 210.902 360.741 210.902H379.073C381.121 210.902 382.781 209.242 382.781 207.194V197.019C382.781 194.971 381.121 193.311 379.073 193.311Z" fill="white"/>
<path d="M379.895 221.912H359.151C358.791 221.912 358.446 221.769 358.191 221.514C357.936 221.26 357.793 220.914 357.793 220.554C357.793 220.193 357.936 219.848 358.191 219.593C358.446 219.338 358.791 219.195 359.151 219.195H379.895C380.255 219.195 380.6 219.338 380.855 219.593C381.11 219.848 381.253 220.193 381.253 220.554C381.253 220.914 381.11 221.26 380.855 221.514C380.6 221.769 380.255 221.912 379.895 221.912Z" fill="#2A2E32"/>
<path d="M374.413 230.171H359.151C358.791 230.171 358.446 230.028 358.191 229.773C357.936 229.518 357.793 229.173 357.793 228.813C357.793 228.452 357.936 228.107 358.191 227.852C358.446 227.597 358.791 227.454 359.151 227.454H374.413C374.774 227.454 375.119 227.597 375.374 227.852C375.629 228.107 375.772 228.452 375.772 228.813C375.772 229.173 375.629 229.518 375.374 229.773C375.119 230.028 374.774 230.171 374.413 230.171Z" fill="#2A2E32"/>
<path d="M450.641 229.519C448.04 229.519 445.642 227.923 444.209 225.227L423.717 189.296C423.537 188.983 423.489 188.611 423.583 188.262C423.678 187.913 423.907 187.615 424.22 187.435C424.533 187.255 424.906 187.207 425.255 187.301C425.604 187.395 425.901 187.624 426.081 187.938L446.586 223.902C447.592 225.79 449.113 226.857 450.736 226.782C452.36 226.707 453.949 225.546 454.866 223.583L469.958 188.209C470.028 188.045 470.13 187.897 470.257 187.772C470.385 187.647 470.536 187.548 470.701 187.482C470.867 187.415 471.044 187.382 471.222 187.384C471.401 187.386 471.577 187.423 471.741 187.493C471.905 187.563 472.054 187.665 472.179 187.792C472.304 187.92 472.402 188.07 472.469 188.236C472.535 188.402 472.568 188.579 472.567 188.757C472.565 188.935 472.528 189.112 472.458 189.276L457.325 224.704C455.966 227.658 453.508 229.458 450.791 229.512L450.641 229.519Z" fill="#2A2E32"/>
<path d="M422.339 280.189C421.978 280.189 421.633 280.045 421.378 279.791C421.123 279.536 420.98 279.19 420.98 278.83V198.5C420.688 186.145 427.018 183.482 427.283 183.38C427.613 183.262 427.975 183.276 428.295 183.419C428.615 183.561 428.867 183.822 429 184.146C429.132 184.47 429.134 184.833 429.005 185.158C428.876 185.484 428.627 185.747 428.309 185.894C428.071 186.002 423.453 188.176 423.69 198.466V278.83C423.69 279.189 423.548 279.534 423.295 279.788C423.042 280.043 422.698 280.187 422.339 280.189Z" fill="#2A2E32"/>
<path d="M342.226 220.554H284.248C282.633 220.545 281.087 219.897 279.948 218.752C278.809 217.606 278.169 216.057 278.169 214.441C278.167 212.995 278.681 211.596 279.619 210.496C280.556 209.395 281.856 208.665 283.284 208.437L341.261 199.118C342.13 198.984 343.017 199.039 343.862 199.28C344.708 199.52 345.492 199.939 346.16 200.51C346.829 201.081 347.366 201.788 347.736 202.586C348.106 203.383 348.3 204.25 348.305 205.129V214.441C348.305 216.057 347.665 217.606 346.526 218.752C345.387 219.897 343.841 220.545 342.226 220.554Z" fill="#2A2E32"/>
<path d="M453.012 132.141H379.609C374.253 132.141 369.91 136.483 369.91 141.84V174.062C369.91 179.418 374.253 183.761 379.609 183.761H453.012C458.368 183.761 462.711 179.418 462.711 174.062V141.84C462.711 136.483 458.368 132.141 453.012 132.141Z" fill="#C20004"/>
<path d="M418.325 184.746C417.964 184.746 417.619 184.602 417.364 184.348C417.109 184.093 416.966 183.747 416.966 183.387V132.134C416.966 131.774 417.109 131.428 417.364 131.173C417.619 130.919 417.964 130.775 418.325 130.775C418.685 130.775 419.031 130.919 419.285 131.173C419.54 131.428 419.683 131.774 419.683 132.134V183.387C419.683 183.747 419.54 184.093 419.285 184.348C419.031 184.602 418.685 184.746 418.325 184.746Z" fill="#2A2E32"/>
<path d="M450.376 163.399H434.191L417.163 135.245C416.991 134.938 416.945 134.576 417.035 134.235C417.125 133.895 417.344 133.602 417.645 133.42C417.946 133.238 418.307 133.179 418.65 133.258C418.994 133.336 419.293 133.544 419.486 133.839L435.726 160.682H448.692L460.531 137.011C460.692 136.689 460.975 136.444 461.317 136.33C461.659 136.216 462.032 136.242 462.354 136.403C462.677 136.565 462.922 136.847 463.036 137.189C463.15 137.531 463.123 137.905 462.962 138.227L450.376 163.399Z" fill="#2A2E32"/>
<path d="M419.364 184.745C419.113 184.745 418.868 184.675 418.655 184.543C418.441 184.412 418.268 184.224 418.155 184.001C418.042 183.777 417.993 183.526 418.013 183.277C418.034 183.027 418.123 182.788 418.27 182.585L434.266 160.708H450.275L462.08 178.945C462.187 179.095 462.264 179.265 462.304 179.445C462.344 179.625 462.346 179.811 462.312 179.992C462.278 180.173 462.207 180.346 462.103 180.499C462 180.652 461.867 180.782 461.712 180.882C461.557 180.981 461.383 181.048 461.201 181.079C461.019 181.109 460.833 181.102 460.654 181.058C460.475 181.014 460.306 180.934 460.159 180.823C460.012 180.712 459.889 180.572 459.797 180.412L448.821 163.398H435.645L420.464 184.161C420.341 184.339 420.176 184.485 419.985 184.587C419.794 184.688 419.581 184.743 419.364 184.745Z" fill="#2A2E32"/>
<path d="M327.052 1.38574H297.839C293.649 1.38574 290.252 4.78248 290.252 8.97255V35.4075C290.252 39.5975 293.649 42.9943 297.839 42.9943H327.052C331.242 42.9943 334.638 39.5975 334.638 35.4075V8.97255C334.638 4.78248 331.242 1.38574 327.052 1.38574Z" fill="white"/>
<path d="M327.052 44.3525H297.846C296.67 44.3543 295.505 44.1243 294.417 43.6757C293.33 43.227 292.342 42.5685 291.509 41.7378C290.677 40.907 290.016 39.9204 289.565 38.8342C289.114 37.748 288.881 36.5835 288.88 35.4073V8.97239C288.878 7.79476 289.109 6.62833 289.558 5.53983C290.008 4.45133 290.667 3.46212 291.499 2.62878C292.331 1.79543 293.32 1.13431 294.407 0.683244C295.495 0.232172 296.661 -1.35378e-06 297.839 0H327.045C329.416 0.00359291 331.69 0.94719 333.366 2.62397C335.043 4.30074 335.987 6.5739 335.99 8.94522V35.3801C335.993 36.5563 335.764 37.7215 335.316 38.8091C334.868 39.8966 334.21 40.8853 333.38 41.7186C332.55 42.5518 331.564 43.2133 330.478 43.6653C329.392 44.1172 328.228 44.3508 327.052 44.3525ZM297.846 2.74401C296.195 2.7476 294.613 3.40496 293.446 4.57223C292.278 5.7395 291.621 7.32163 291.617 8.97239V35.4073C291.619 37.0586 292.276 38.6418 293.444 39.8095C294.611 40.9771 296.194 41.6339 297.846 41.6357H327.052C328.703 41.6339 330.286 40.9771 331.454 39.8095C332.622 38.6418 333.278 37.0586 333.28 35.4073V8.97239C333.282 8.15269 333.122 7.34066 332.81 6.58266C332.498 5.82467 332.04 5.13556 331.462 4.55468C330.883 3.9738 330.196 3.51252 329.44 3.19719C328.683 2.88185 327.872 2.71863 327.052 2.71685L297.846 2.74401Z" fill="#2A2E32"/>
<path d="M321.937 23.0929C322.818 21.4214 323.242 19.5471 323.167 17.6592C323.028 14.8505 321.799 12.2066 319.742 10.2891C317.685 8.37167 314.961 7.33167 312.15 7.39002C309.338 7.44838 306.66 8.60049 304.684 10.6017C302.708 12.6028 301.59 15.2954 301.568 18.1075C301.574 19.7579 301.96 21.3847 302.695 22.862C302.906 23.3239 303.13 23.7925 303.375 24.2544C305.231 28.106 307.328 31.8376 309.651 35.4274C309.899 35.8148 310.239 36.135 310.641 36.3596C311.042 36.5842 311.493 36.7062 311.953 36.715C312.413 36.7237 312.868 36.6188 313.278 36.4097C313.688 36.2005 314.04 35.8934 314.303 35.5157C316.938 31.685 319.429 27.6889 321.774 23.5276C321.822 23.4529 321.863 23.3714 321.903 23.2967L321.971 23.1812C321.903 23.1337 321.924 23.0929 321.937 23.0929Z" fill="#2A2E32"/>
<path d="M312.368 23.4332C314.933 23.4332 317.013 21.3532 317.013 18.7874C317.013 16.2216 314.933 14.1416 312.368 14.1416C309.802 14.1416 307.722 16.2216 307.722 18.7874C307.722 21.3532 309.802 23.4332 312.368 23.4332Z" fill="white"/>
<path d="M185.593 22.5293C185.593 22.5293 177.958 26.4891 181.646 44.1486C182.099 46.3109 181.861 48.5606 180.967 50.5808L180.145 52.4214C179.942 52.8863 179.915 53.4093 180.068 53.8929C180.222 54.3764 180.546 54.7877 180.981 55.05L183.439 56.5103L186.258 67.6833C186.258 67.6833 188.438 79.8752 201.955 74.8694L210.635 71.9148L224.145 78.6118L244.732 56.3133L234.251 48.0133C238.265 46.5938 240.874 42.8989 240.717 39.0545C240.534 34.4698 236.547 31.9907 236.37 31.8888C234.542 30.8117 232.393 30.4103 230.298 30.7546C226.59 31.4338 223.506 34.6329 222.501 38.8711C222.494 38.8711 200.624 51.6199 185.593 22.5293Z" fill="white"/>
<path d="M224.464 80.3098L210.547 73.409L202.396 76.1802C197.696 77.919 193.689 77.8918 190.517 76.0783C186.156 73.5856 185.083 68.607 184.94 68.0025L182.244 57.4136L180.274 56.2453C179.556 55.8114 179.022 55.1298 178.772 54.3291C178.521 53.5284 178.573 52.6639 178.916 51.8984L179.731 50.0577C180.508 48.2972 180.71 46.3362 180.308 44.4542C176.457 25.9389 184.614 21.5036 184.961 21.3202L186.17 20.7021L186.788 21.9044C191.719 31.4133 197.879 37.3293 205.127 39.4348C210.538 40.9083 216.3 40.3802 221.353 37.9473C222.657 33.4645 226.026 30.15 230.074 29.4164C232.491 29.0209 234.97 29.4822 237.084 30.7205C237.281 30.836 241.872 33.6479 242.089 38.9933C242.119 40.8732 241.646 42.7269 240.72 44.3629C239.793 45.9988 238.446 47.3575 236.819 48.2985L246.735 56.157L224.464 80.3098ZM210.771 70.4748L223.873 76.9681L242.762 56.4695L231.473 47.5446L233.789 46.7228C237.185 45.5205 239.488 42.3826 239.352 39.0952C239.196 35.2305 235.705 33.0638 235.664 33.0434C234.118 32.1367 232.305 31.7957 230.536 32.0789C227.364 32.6563 224.722 35.475 223.812 39.1903L223.676 39.754L223.173 40.0393C217.381 43.0792 210.647 43.7935 204.346 42.0362C196.779 39.8288 190.333 33.974 185.171 24.6212C184.408 25.4748 183.796 26.4536 183.365 27.5146C182.196 30.2315 181.184 35.2984 182.978 43.8904C183.5 46.33 183.244 48.8722 182.244 51.158L181.402 52.9783C181.332 53.1397 181.323 53.3208 181.377 53.4881C181.431 53.6555 181.543 53.7977 181.694 53.8884L184.628 55.6408L187.61 67.4523C187.61 67.4931 188.445 71.7517 191.896 73.7146C194.327 75.0731 197.56 75.0731 201.493 73.5992L210.771 70.4748Z" fill="#2A2E32"/>
<path d="M231.147 44.0878C230.235 44.0926 229.354 43.7537 228.679 43.1387C228.005 42.5237 227.587 41.6775 227.508 40.7683C227.429 39.8592 227.695 38.9536 228.254 38.2316C228.812 37.5096 229.621 37.0241 230.521 36.8715C231.421 36.7189 232.345 36.9104 233.11 37.408C233.875 37.9056 234.425 38.6729 234.65 39.5572C234.875 40.4416 234.759 41.3783 234.326 42.1812C233.892 42.9841 233.172 43.5945 232.309 43.8909C231.936 44.0226 231.543 44.0893 231.147 44.0878ZM231.147 39.5575C231.048 39.5591 230.949 39.5775 230.855 39.6118C230.648 39.6883 230.476 39.84 230.375 40.0368C230.274 40.2336 230.25 40.4612 230.309 40.6746C230.368 40.8879 230.504 41.0715 230.692 41.1889C230.88 41.3063 231.104 41.3489 231.322 41.3085C231.539 41.268 231.734 41.1473 231.867 40.9703C231.999 40.7933 232.061 40.5729 232.039 40.3527C232.017 40.1325 231.913 39.9286 231.748 39.7814C231.583 39.6341 231.368 39.5542 231.147 39.5575Z" fill="#2A2E32"/>
<path d="M229.028 42.5521C228.76 42.5532 228.498 42.4752 228.274 42.3277C228.051 42.1803 227.876 41.9701 227.771 41.7235C227.276 40.5956 227.185 39.3313 227.513 38.144C228.192 35.8551 230.502 34.2521 233.266 34.1502C233.626 34.1376 233.977 34.2687 234.241 34.5145C234.504 34.7603 234.659 35.1009 234.672 35.4611C234.685 35.8214 234.554 36.1719 234.308 36.4356C234.062 36.6993 233.721 36.8545 233.361 36.8671C231.792 36.9214 230.461 37.7637 230.121 38.9047C229.971 39.4918 230.026 40.1125 230.277 40.6639C230.347 40.8284 230.383 41.005 230.384 41.1835C230.385 41.3621 230.35 41.539 230.283 41.7043C230.215 41.8696 230.116 42.0199 229.99 42.1467C229.865 42.2736 229.715 42.3744 229.551 42.4434C229.385 42.5127 229.207 42.5496 229.028 42.5521Z" fill="#2A2E32"/>
<path d="M196.704 47.7074C197.777 47.7074 198.647 46.8377 198.647 45.7648C198.647 44.692 197.777 43.8223 196.704 43.8223C195.631 43.8223 194.762 44.692 194.762 45.7648C194.762 46.8377 195.631 47.7074 196.704 47.7074Z" fill="#2A2E32"/>
<path d="M193.064 64.2394C192.748 64.2415 192.433 64.2211 192.12 64.1782C191.759 64.1188 191.438 63.9187 191.225 63.6219C191.012 63.3251 190.926 62.956 190.985 62.5957C191.045 62.2354 191.245 61.9135 191.542 61.7008C191.839 61.4881 192.208 61.402 192.568 61.4614C192.745 61.4614 196.351 61.964 198.946 57.9431C199.042 57.7914 199.167 57.6601 199.314 57.557C199.461 57.4539 199.627 57.381 199.802 57.3423C199.977 57.3037 200.158 57.3002 200.335 57.3321C200.512 57.3639 200.68 57.4305 200.831 57.5278C200.982 57.6252 201.112 57.7515 201.213 57.8994C201.315 58.0474 201.386 58.214 201.423 58.3896C201.46 58.5653 201.462 58.7465 201.428 58.9229C201.395 59.0992 201.327 59.2671 201.228 59.417C198.491 63.696 194.782 64.2394 193.064 64.2394Z" fill="#2A2E32"/>
<path d="M205.045 0.760742H225.673C231.629 0.766142 237.339 3.1355 241.55 7.34835C245.76 11.5612 248.126 17.273 248.128 23.2291H182.577C182.579 17.2707 184.946 11.5568 189.16 7.34355C193.373 3.13031 199.087 0.762543 205.045 0.760742Z" fill="#636466"/>
<path d="M214.683 72.4993C214.683 72.4993 215.987 71.3922 222.467 59.2207L221.156 75.7391L214.683 72.4993Z" fill="#2A2E32"/>
<path d="M222.093 23.2295C224.076 30.6753 224.479 38.4538 223.275 46.0646C221.62 56.1743 217.216 65.6341 210.547 73.4097L215.301 75.8073C217.678 73.077 219.78 70.1195 221.577 66.9775C231.392 49.7663 229.306 31.611 227.731 23.2499L222.093 23.2295Z" fill="#C20004"/>
<path d="M221.435 81.5051L245.608 55.8512C248.019 53.1258 251.046 51.016 254.437 49.6976C261.746 46.9332 269.482 48.7603 280.526 53.997C289.214 58.1536 297.471 63.1588 305.175 68.9397C320.742 80.527 333.022 96.0606 340.039 114.155C345.33 127.807 348.488 144.787 344.175 163.357C339.78 182.273 329.395 195.28 322.854 202.133L276.186 178.7L221.435 81.5051Z" fill="#2A2E32"/>
<path d="M297.486 152.612C297.155 152.609 296.837 152.486 296.59 152.266C296.344 152.045 296.187 151.743 296.148 151.414C296.108 151.086 296.19 150.755 296.378 150.483C296.565 150.211 296.846 150.016 297.166 149.936L319.377 144.502C319.554 144.447 319.74 144.429 319.925 144.449C320.109 144.469 320.288 144.527 320.449 144.619C320.61 144.71 320.751 144.834 320.863 144.982C320.974 145.13 321.054 145.3 321.098 145.48C321.142 145.66 321.148 145.848 321.117 146.03C321.085 146.213 321.017 146.388 320.915 146.543C320.814 146.698 320.681 146.831 320.527 146.933C320.372 147.036 320.198 147.105 320.015 147.137L297.812 152.571C297.704 152.595 297.595 152.608 297.486 152.612Z" fill="white"/>
<path d="M294.199 136.63C286.571 112.036 269.747 76.0378 246.423 73.6334C242.877 73.2734 231.765 72.1256 223.724 79.0671C222.259 80.3528 220.965 81.8205 219.872 83.4344C212.788 93.8603 216.381 106.894 217.325 110.338C217.995 112.765 218.887 115.125 219.988 117.388C225.014 126.979 230.036 136.571 235.053 146.166L186.116 162.875C184.834 163.137 183.626 163.677 182.577 164.458L198.735 201.726C200.813 201.484 202.849 200.964 204.787 200.177L278.142 178.694C283.752 177.05 289.268 172.207 292.501 167.528C298.722 158.515 297.282 146.588 294.199 136.63Z" fill="#2A2E32"/>
<path d="M272.226 181.56C271.904 181.563 271.591 181.451 271.344 181.244C271.097 181.038 270.931 180.75 270.876 180.432C270.822 180.115 270.882 179.788 271.046 179.511C271.209 179.233 271.466 179.023 271.771 178.918L277.524 176.88C283.966 174.615 289.324 170.017 292.541 163.994C295.758 157.97 296.599 150.959 294.898 144.346C293.961 140.651 292.86 136.949 291.645 133.343C288.736 124.742 285.051 116.423 280.635 108.491C280.46 108.175 280.418 107.804 280.517 107.457C280.616 107.111 280.849 106.818 281.164 106.643C281.48 106.468 281.851 106.426 282.198 106.525C282.544 106.625 282.837 106.858 283.012 107.173C287.505 115.241 291.256 123.7 294.219 132.446C295.462 136.121 296.576 139.918 297.533 143.646C299.404 150.916 298.48 158.623 294.946 165.245C291.411 171.867 285.522 176.922 278.441 179.414L272.688 181.451C272.541 181.514 272.385 181.551 272.226 181.56Z" fill="white"/>
<path d="M412.986 118.502H331.895C331.535 118.502 331.189 118.359 330.934 118.104C330.679 117.849 330.536 117.504 330.536 117.144C330.536 116.783 330.679 116.438 330.934 116.183C331.189 115.928 331.535 115.785 331.895 115.785H412.986C413.346 115.785 413.692 115.928 413.946 116.183C414.201 116.438 414.344 116.783 414.344 117.144C414.344 117.504 414.201 117.849 413.946 118.104C413.692 118.359 413.346 118.502 412.986 118.502Z" fill="#2A2E32"/>
<path d="M365.978 106.065C365.617 106.065 365.272 105.922 365.017 105.667C364.762 105.413 364.619 105.067 364.619 104.707V79.2364C364.619 78.8761 364.762 78.5306 365.017 78.2758C365.272 78.021 365.617 77.8779 365.978 77.8779C366.338 77.8779 366.683 78.021 366.938 78.2758C367.193 78.5306 367.336 78.8761 367.336 79.2364V104.707C367.336 105.067 367.193 105.413 366.938 105.667C366.683 105.922 366.338 106.065 365.978 106.065Z" fill="#2A2E32"/>
<path d="M180.512 172.384L157.249 181.214C156.217 181.607 155.164 181.947 154.111 182.287C151.822 183.02 145.886 186.09 145.397 198.146C145.397 198.146 144.718 212.091 153.609 211.642C153.609 211.642 158.743 220.295 164.809 216.852C164.809 216.852 173.482 221.701 175.459 212.437C177.601 210.558 179.761 208.604 181.939 206.575C185.416 203.335 188.697 200.116 191.801 196.951L180.512 172.384Z" fill="white"/>
<path d="M169.563 219.5C167.92 219.459 166.303 219.085 164.809 218.4C159.708 220.716 155.021 216.281 152.848 213.034C150.921 212.997 149.085 212.207 147.733 210.834C143.658 206.758 144.011 198.458 144.025 198.105C144.541 185.322 150.953 181.899 153.683 181.023C154.784 180.663 155.775 180.344 156.753 179.97L181.205 170.665L193.431 197.256L192.751 197.935C189.539 201.209 186.211 204.463 182.842 207.601C180.804 209.496 178.766 211.377 176.668 213.197C175.989 216.057 174.569 217.952 172.504 218.909C171.576 219.311 170.574 219.512 169.563 219.5ZM164.809 215.323L165.488 215.697C165.522 215.697 168.925 217.565 171.431 216.424C172.789 215.812 173.672 214.386 174.148 212.178L174.243 211.737L174.576 211.438C176.736 209.543 178.902 207.58 181.028 205.604C184.132 202.71 187.209 199.715 190.184 196.692L179.819 174.109L157.745 182.51C156.706 182.904 155.707 183.237 154.539 183.604C152.352 184.283 147.217 187.143 146.769 198.227C146.769 198.309 146.463 205.699 149.676 208.918C150.181 209.419 150.791 209.804 151.461 210.044C152.131 210.285 152.845 210.376 153.554 210.311L154.369 210.27L154.79 210.949C155.638 212.288 156.677 213.496 157.874 214.535C160.115 216.424 162.173 216.797 164.157 215.67L164.809 215.323Z" fill="#2A2E32"/>
<path d="M153.608 213.028C153.341 213.028 153.081 212.949 152.858 212.802C152.636 212.654 152.462 212.445 152.358 212.199C152.216 211.867 148.962 203.981 151.679 196.903C151.743 196.737 151.839 196.584 151.962 196.454C152.084 196.325 152.231 196.22 152.394 196.148C152.557 196.075 152.733 196.035 152.912 196.03C153.09 196.025 153.268 196.055 153.435 196.119C153.602 196.183 153.754 196.279 153.884 196.401C154.014 196.524 154.118 196.671 154.191 196.834C154.263 196.997 154.304 197.173 154.308 197.352C154.313 197.53 154.283 197.708 154.219 197.875C151.903 203.94 154.858 211.072 154.898 211.14C155.039 211.471 155.042 211.845 154.907 212.178C154.772 212.512 154.51 212.779 154.178 212.919C153.998 212.996 153.804 213.033 153.608 213.028Z" fill="#2A2E32"/>
<path d="M165.664 218.027C165.426 218.027 165.191 217.964 164.985 217.844C160.781 215.426 158.349 211.147 157.962 205.469C157.8 202.873 158.029 200.267 158.641 197.739C158.674 197.555 158.744 197.379 158.848 197.223C158.951 197.066 159.086 196.934 159.244 196.832C159.402 196.731 159.579 196.663 159.764 196.633C159.949 196.604 160.138 196.613 160.32 196.66C160.501 196.707 160.671 196.791 160.818 196.907C160.966 197.022 161.087 197.167 161.176 197.333C161.265 197.498 161.318 197.68 161.333 197.866C161.348 198.053 161.324 198.241 161.263 198.418C161.263 198.547 158.098 210.712 166.357 215.467C166.615 215.616 166.817 215.847 166.931 216.123C167.045 216.399 167.065 216.705 166.987 216.993C166.91 217.282 166.74 217.537 166.503 217.719C166.266 217.901 165.976 218 165.678 218L165.664 218.027Z" fill="#2A2E32"/>
<path d="M175.452 213.823C175.349 213.822 175.246 213.809 175.146 213.782C166.622 211.832 166.5 201.407 167.627 196.163C167.709 195.817 167.923 195.517 168.223 195.326C168.524 195.136 168.887 195.072 169.235 195.147C169.582 195.221 169.887 195.429 170.083 195.726C170.279 196.023 170.351 196.384 170.283 196.734C170.283 196.863 167.709 209.292 175.717 211.14C176.042 211.214 176.329 211.405 176.522 211.677C176.715 211.949 176.802 212.283 176.765 212.615C176.728 212.946 176.57 213.253 176.322 213.475C176.073 213.698 175.752 213.822 175.418 213.823H175.452Z" fill="#2A2E32"/>
<path d="M246.09 19.6973H184.418C184.057 19.6973 183.712 19.5542 183.457 19.2994C183.202 19.0447 183.059 18.6992 183.059 18.3389C183.059 17.9786 183.202 17.6331 183.457 17.3783C183.712 17.1236 184.057 16.9805 184.418 16.9805H246.09C246.45 16.9805 246.796 17.1236 247.05 17.3783C247.305 17.6331 247.448 17.9786 247.448 18.3389C247.448 18.6992 247.305 19.0447 247.05 19.2994C246.796 19.5542 246.45 19.6973 246.09 19.6973Z" fill="#2A2E32"/>
<path d="M437.179 89.126H401.589C397.74 89.126 394.62 92.246 394.62 96.0947V125.172C394.62 129.02 397.74 132.14 401.589 132.14H437.179C441.028 132.14 444.148 129.02 444.148 125.172V96.0947C444.148 92.246 441.028 89.126 437.179 89.126Z" fill="#B3B3B3"/>
<path d="M442.871 106.065H395.849C395.489 106.065 395.144 105.922 394.889 105.668C394.634 105.413 394.491 105.067 394.491 104.707C394.491 104.347 394.634 104.001 394.889 103.747C395.144 103.492 395.489 103.349 395.849 103.349H442.871C443.231 103.349 443.577 103.492 443.832 103.747C444.087 104.001 444.23 104.347 444.23 104.707C444.23 105.067 444.087 105.413 443.832 105.668C443.577 105.922 443.231 106.065 442.871 106.065Z" fill="#2A2E32"/>
<path d="M419.391 133.492C419.031 133.492 418.685 133.349 418.431 133.094C418.176 132.84 418.033 132.494 418.033 132.134V89.126C418.033 88.7657 418.176 88.4202 418.431 88.1655C418.685 87.9107 419.031 87.7676 419.391 87.7676C419.751 87.7676 420.097 87.9107 420.352 88.1655C420.606 88.4202 420.75 88.7657 420.75 89.126V132.134C420.75 132.494 420.606 132.84 420.352 133.094C420.097 133.349 419.751 133.492 419.391 133.492Z" fill="#2A2E32"/>
<path d="M417.964 92.8962L418.032 90.6684C418.555 73.2602 424.098 67.5752 428.662 65.8636C429.697 65.4771 430.802 65.316 431.905 65.3909C433.007 65.4659 434.08 65.7752 435.053 66.2983C435.984 66.7895 436.798 67.4739 437.442 68.3056C438.087 69.1373 438.546 70.0971 438.789 71.1207C441.234 81.5941 420.844 91.497 419.975 91.9317L417.964 92.8962ZM429.613 68.4038C426.02 69.7622 421.686 74.3537 420.851 88.4338C426.964 85.0989 437.587 77.9128 436.147 71.7388C435.994 71.089 435.703 70.48 435.292 69.9536C434.882 69.4272 434.362 68.9958 433.77 68.6891C433.137 68.3492 432.439 68.148 431.722 68.0988C431.005 68.0496 430.286 68.1536 429.613 68.4038Z" fill="#2A2E32"/>
<path d="M420.043 92.8962L418.005 91.9317C417.136 91.5174 396.746 81.5941 399.191 71.1207C399.434 70.0971 399.893 69.1373 400.537 68.3056C401.182 67.4739 401.996 66.7895 402.927 66.2983C403.9 65.7752 404.973 65.4659 406.075 65.3909C407.178 65.316 408.283 65.4771 409.318 65.8636C413.882 67.5684 419.431 73.2602 419.948 90.6684L420.043 92.8962ZM406.642 68.0846C405.803 68.085 404.977 68.2927 404.238 68.6891C403.645 68.9958 403.125 69.4272 402.715 69.9536C402.305 70.48 402.013 71.089 401.86 71.7388C400.42 77.9196 411.016 85.1057 417.163 88.4338C416.321 74.3537 411.987 69.7487 408.394 68.4038C407.834 68.1939 407.24 68.0858 406.642 68.0846Z" fill="#2A2E32"/>
<path d="M179.962 177.159L188.357 195.899C188.357 195.899 190.123 202.562 198.722 201.699L182.563 164.458C180.207 166.217 177.87 169.837 179.962 177.159Z" fill="#636466"/>
<path d="M234.7 146.431C234.377 146.431 234.065 146.315 233.82 146.105C233.574 145.895 233.412 145.605 233.361 145.286C233.31 144.967 233.375 144.641 233.543 144.365C233.711 144.09 233.972 143.883 234.279 143.782L251.938 137.962C252.28 137.849 252.653 137.877 252.975 138.039C253.296 138.202 253.54 138.485 253.653 138.828C253.766 139.17 253.738 139.543 253.575 139.864C253.413 140.186 253.129 140.43 252.787 140.543L235.128 146.357C234.99 146.404 234.845 146.43 234.7 146.431Z" fill="white"/>
<path d="M467.826 277.125H353.195C350.494 277.125 348.305 279.313 348.305 282.012C348.305 284.711 350.494 286.899 353.195 286.899H467.826C470.526 286.899 472.716 284.711 472.716 282.012C472.716 279.313 470.526 277.125 467.826 277.125Z" fill="#2A2E32"/>
<path d="M133.687 22.4814H91.7525C85.6718 22.4814 80.7424 27.4108 80.7424 33.4915C80.7424 39.5721 85.6718 44.5015 91.7525 44.5015H133.687C139.768 44.5015 144.697 39.5721 144.697 33.4915C144.697 27.4108 139.768 22.4814 133.687 22.4814Z" fill="white"/>
<path d="M133.687 45.8667H91.7528C88.5218 45.791 85.4486 44.4543 83.1902 42.1424C80.9318 39.8305 79.6675 36.7268 79.6675 33.4949C79.6675 30.263 80.9318 27.1593 83.1902 24.8474C85.4486 22.5355 88.5218 21.1988 91.7528 21.123H133.687C136.918 21.1988 139.992 22.5355 142.25 24.8474C144.508 27.1593 145.773 30.263 145.773 33.4949C145.773 36.7268 144.508 39.8305 142.25 42.1424C139.992 44.4543 136.918 45.791 133.687 45.8667ZM91.7528 23.8399C89.2365 23.9066 86.8456 24.9531 85.0895 26.7565C83.3333 28.5599 82.3505 30.9777 82.3505 33.4949C82.3505 36.0121 83.3333 38.4299 85.0895 40.2333C86.8456 42.0366 89.2365 43.0831 91.7528 43.1499H133.687C136.204 43.0831 138.595 42.0366 140.351 40.2333C142.107 38.4299 143.09 36.0121 143.09 33.4949C143.09 30.9777 142.107 28.5599 140.351 26.7565C138.595 24.9531 136.204 23.9066 133.687 23.8399H91.7528Z" fill="#2A2E32"/>
<path d="M95.2984 37.0778C97.279 37.0778 98.8846 35.4721 98.8846 33.4915C98.8846 31.5109 97.279 29.9053 95.2984 29.9053C93.3178 29.9053 91.7122 31.5109 91.7122 33.4915C91.7122 35.4721 93.3178 37.0778 95.2984 37.0778Z" fill="#636466"/>
<path d="M112.721 37.0778C114.701 37.0778 116.307 35.4721 116.307 33.4915C116.307 31.5109 114.701 29.9053 112.721 29.9053C110.74 29.9053 109.134 31.5109 109.134 33.4915C109.134 35.4721 110.74 37.0778 112.721 37.0778Z" fill="#636466"/>
<path d="M130.141 37.0778C132.122 37.0778 133.728 35.4721 133.728 33.4915C133.728 31.5109 132.122 29.9053 130.141 29.9053C128.161 29.9053 126.555 31.5109 126.555 33.4915C126.555 35.4721 128.161 37.0778 130.141 37.0778Z" fill="#636466"/>
</svg>
