<svg width="25" height="23" viewBox="0 0 25 23" fill="none" xmlns="http://www.w3.org/2000/svg">
<path d="M8.40471 11.4286C8.40471 9.45536 10.1143 7.85714 12.225 7.85714C14.3358 7.85714 16.0454 9.45536 16.0454 11.4286C16.0454 13.4018 14.3358 15 12.225 15C10.1143 15 8.40471 13.4018 8.40471 11.4286ZM12.225 0C13.0703 0 13.7532 0.639732 13.7532 1.42857V2.97545C17.5926 3.57768 20.625 6.41071 21.2649 10H22.9219C23.7672 10 24.4501 10.6384 24.4501 11.4286C24.4501 12.2188 23.7672 12.8571 22.9219 12.8571H21.2649C20.625 16.4464 17.5926 19.2812 13.7532 19.8795V21.4286C13.7532 22.2188 13.0703 22.8571 12.225 22.8571C11.3798 22.8571 10.6969 22.2188 10.6969 21.4286V19.8795C6.85748 19.2812 3.82701 16.4464 3.18281 12.8571H1.52813C0.684316 12.8571 0 12.2188 0 11.4286C0 10.6384 0.684316 10 1.52813 10H3.18281C3.82701 6.41071 6.85748 3.57768 10.6969 2.97545V1.42857C10.6969 0.639732 11.3798 0 12.225 0ZM6.11252 11.4286C6.11252 14.5848 8.84883 17.1429 12.225 17.1429C15.6012 17.1429 18.3376 14.5848 18.3376 11.4286C18.3376 8.27232 15.6012 5.71429 12.225 5.71429C8.84883 5.71429 6.11252 8.27232 6.11252 11.4286Z" fill="black" fill-opacity="0.3"/>
</svg>
