<svg width="26" height="23" viewBox="0 0 26 23" fill="none" xmlns="http://www.w3.org/2000/svg">
<path d="M17.5833 6.6875C17.5833 8.82031 14.7913 12.6211 13.5653 14.1523C13.2712 14.5625 12.7288 14.5625 12.4347 14.1523C11.2087 12.6211 8.41667 8.82031 8.41667 6.6875C8.41667 4.09883 10.4677 2 13 2C15.5323 2 17.5833 4.09883 17.5833 6.6875ZM13 7.9375C13.8441 7.9375 14.5278 7.23828 14.5278 6.375C14.5278 5.51211 13.8441 4.8125 13 4.8125C12.1559 4.8125 11.4722 5.51211 11.4722 6.375C11.4722 7.23828 12.1559 7.9375 13 7.9375ZM18.2556 9.02344C18.2747 8.97656 18.2938 8.92969 18.3128 8.87891L22.7434 7.06641C23.3469 6.82031 24 7.27344 24 7.9375V18.5156C24 18.8984 23.7708 19.2422 23.4233 19.3867L17.8889 21.6484V9.82812C18.0226 9.55859 18.1448 9.29297 18.2556 9.02344ZM7.74444 9.02344C7.85521 9.29297 7.97743 9.55859 8.11111 9.82812V19.6484L3.25698 21.6367C2.65503 21.8477 2 21.4297 2 20.7656V10.1875C2 9.80469 2.22821 9.42578 2.57635 9.31641L7.25556 7.40234C7.34722 7.95703 7.53437 8.50781 7.74444 9.02344ZM14.5201 14.9336C15.051 14.2891 15.8837 13.1836 16.6667 11.9609V21.6992L9.33333 19.5547V11.9609C10.1163 13.1836 10.949 14.2891 11.4799 14.9336C12.2628 15.9688 13.7372 15.9688 14.5201 14.9336Z" fill="black"/>
</svg>
