<svg width="25" height="23" viewBox="0 0 25 23" fill="none" xmlns="http://www.w3.org/2000/svg">
<path d="M12.225 22.8571C5.47261 22.8571 0 17.7411 0 11.4286C0 5.11607 5.47261 0 12.225 0C18.9775 0 24.4501 5.11607 24.4501 11.4286C24.4501 17.7411 18.9775 22.8571 12.225 22.8571ZM11.0789 11.4286C11.0789 11.7857 11.27 12.1205 11.5899 12.2813L16.1743 15.1384C16.6996 15.5045 17.4111 15.3705 17.7215 14.8795C18.1131 14.3884 17.9698 13.7232 17.4446 13.3929L13.3711 10.8571V5.35714C13.3711 4.76339 12.8602 4.28571 12.1821 4.28571C11.5899 4.28571 11.036 4.76339 11.036 5.35714L11.0789 11.4286Z" fill="black" fill-opacity="0.3"/>
</svg>
