<svg width="591" height="478" viewBox="0 0 591 478" fill="none" xmlns="http://www.w3.org/2000/svg">
<path d="M415.325 3.59724L75.7795 152.387C46.1454 165.373 41.6761 205.576 67.7444 224.744L366.354 444.436C392.415 463.611 429.467 447.377 433.032 415.23L473.969 46.7547C477.541 14.5802 444.959 -9.3894 415.325 3.59724Z" fill="#B3B3B3"/>
<path d="M526.315 460.866H30.0611C29.7008 460.866 29.3553 460.723 29.1005 460.468C28.8458 460.214 28.7026 459.868 28.7026 459.508C28.7026 459.148 28.8458 458.802 29.1005 458.547C29.3553 458.293 29.7008 458.149 30.0611 458.149H526.315C526.676 458.149 527.021 458.293 527.276 458.547C527.531 458.802 527.674 459.148 527.674 459.508C527.674 459.868 527.531 460.214 527.276 460.468C527.021 460.723 526.676 460.866 526.315 460.866Z" fill="#2A2E32"/>
<path d="M340.15 190.802L357.09 134.821C357.326 134.04 357.731 133.32 358.278 132.714C358.824 132.107 359.497 131.628 360.25 131.312C361.002 130.995 361.815 130.848 362.631 130.882C363.446 130.916 364.245 131.129 364.968 131.507L383.253 141.016C384.043 141.427 384.723 142.023 385.235 142.753C385.747 143.483 386.075 144.325 386.192 145.208C386.309 146.092 386.212 146.991 385.909 147.828C385.605 148.666 385.104 149.419 384.448 150.022L340.15 190.802Z" fill="#2A2E32"/>
<path d="M335.81 188.609L384.143 158.52C384.893 158.053 385.739 157.762 386.618 157.666C387.496 157.571 388.385 157.674 389.218 157.969C390.051 158.264 390.807 158.743 391.43 159.37C392.053 159.996 392.527 160.755 392.816 161.59L399.228 180.153C399.533 181.035 399.623 181.976 399.493 182.899C399.363 183.822 399.015 184.701 398.479 185.464C397.942 186.227 397.232 186.851 396.407 187.286C395.582 187.72 394.666 187.953 393.733 187.964L335.81 188.609Z" fill="#2A2E32"/>
<path d="M267.468 292.197C289.971 292.197 308.214 273.954 308.214 251.45C308.214 228.947 289.971 210.704 267.468 210.704C244.964 210.704 226.722 228.947 226.722 251.45C226.722 273.954 244.964 292.197 267.468 292.197Z" fill="#2A2E32"/>
<path d="M179.774 74.3232H19.7651C9.59936 74.3232 1.3584 82.5642 1.3584 92.73V163.572C1.3584 173.738 9.59936 181.979 19.7651 181.979H179.774C189.94 181.979 198.181 173.738 198.181 163.572V92.73C198.181 82.5642 189.94 74.3232 179.774 74.3232Z" fill="white"/>
<path d="M179.774 183.339H19.7719C14.5297 183.333 9.5038 181.248 5.79702 177.542C2.09023 173.835 0.00539412 168.809 0 163.567V92.7378C0.00539412 87.4956 2.09023 82.4697 5.79702 78.7629C9.5038 75.0561 14.5297 72.9712 19.7719 72.9658H179.774C185.015 72.973 190.04 75.0587 193.745 78.7653C197.45 82.4719 199.534 87.4968 199.539 92.7378V163.567C199.534 168.808 197.45 173.833 193.745 177.539C190.04 181.246 185.015 183.331 179.774 183.339V183.339ZM19.7719 75.6827C15.2497 75.6863 10.9138 77.4843 7.71614 80.682C4.51847 83.8797 2.72045 88.2156 2.71686 92.7378V163.567C2.72045 168.089 4.51847 172.425 7.71614 175.622C10.9138 178.82 15.2497 180.618 19.7719 180.622H179.774C184.295 180.616 188.63 178.818 191.826 175.62C195.022 172.423 196.819 168.088 196.823 163.567V92.7378C196.819 88.2168 195.022 83.8819 191.826 80.6844C188.63 77.4869 184.295 75.6881 179.774 75.6827H19.7719Z" fill="#2A2E32"/>
<path d="M37.2827 110.649C36.9282 110.649 36.5878 110.51 36.334 110.263C36.0802 110.015 35.9331 109.678 35.9243 109.324C35.7952 103.795 37.8397 100.494 39.5852 98.6944C41.5108 96.6583 44.1608 95.4626 46.9615 95.3662H47.0362C49.741 95.4234 52.3139 96.5463 54.1951 98.4906C55.9747 100.277 58.087 103.605 58.0191 109.304C58.0191 109.664 57.876 110.01 57.6212 110.264C57.3665 110.519 57.021 110.662 56.6607 110.662C56.3004 110.662 55.9549 110.519 55.7001 110.264C55.4454 110.01 55.3022 109.664 55.3022 109.304C55.3566 104.549 53.6857 101.832 52.273 100.44C50.8918 99.016 49.0121 98.1833 47.0294 98.117H46.9819C44.9139 98.2094 42.9639 99.1064 41.5482 100.617C39.5716 102.654 38.5664 105.656 38.6547 109.29C38.6592 109.469 38.6285 109.646 38.5644 109.813C38.5003 109.979 38.404 110.131 38.281 110.261C38.158 110.39 38.0107 110.494 37.8476 110.566C37.6844 110.639 37.5087 110.678 37.3302 110.683L37.2827 110.649Z" fill="#2A2E32"/>
<path d="M66.4877 163.009H27.6503C26.6991 163.009 25.759 162.805 24.8929 162.412C24.0268 162.019 23.2547 161.445 22.6283 160.73C22.0019 160.014 21.5357 159.172 21.2609 158.262C20.986 157.351 20.9089 156.392 21.0347 155.45L26.4684 115.077C26.6825 113.474 27.4713 112.004 28.6882 110.94C29.9051 109.875 31.4672 109.289 33.084 109.29H60.1574C61.7481 109.29 63.2864 109.858 64.4955 110.892C65.7046 111.925 66.505 113.356 66.7526 114.928L73.0625 155.307C73.2126 156.258 73.155 157.229 72.8937 158.156C72.6324 159.082 72.1736 159.94 71.5488 160.672C70.924 161.404 70.1481 161.992 69.2744 162.395C68.4007 162.799 67.45 163.008 66.4877 163.009Z" fill="#C20004"/>
<path d="M172.003 103.129H98.4102C95.488 103.129 93.1191 105.498 93.1191 108.42V112.529C93.1191 115.451 95.488 117.82 98.4102 117.82H172.003C174.925 117.82 177.294 115.451 177.294 112.529V108.42C177.294 105.498 174.925 103.129 172.003 103.129Z" fill="#C20004"/>
<path d="M173.783 136.418H96.6382C96.2779 136.418 95.9324 136.274 95.6777 136.02C95.4229 135.765 95.2798 135.419 95.2798 135.059C95.2798 134.699 95.4229 134.353 95.6777 134.099C95.9324 133.844 96.2779 133.701 96.6382 133.701H173.783C174.144 133.701 174.489 133.844 174.744 134.099C174.999 134.353 175.142 134.699 175.142 135.059C175.142 135.419 174.999 135.765 174.744 136.02C174.489 136.274 174.144 136.418 173.783 136.418Z" fill="#2A2E32"/>
<path d="M162.923 153.874H96.6382C96.2779 153.874 95.9324 153.731 95.6777 153.476C95.4229 153.221 95.2798 152.876 95.2798 152.516C95.2798 152.155 95.4229 151.81 95.6777 151.555C95.9324 151.3 96.2779 151.157 96.6382 151.157H162.923C163.283 151.157 163.628 151.3 163.883 151.555C164.138 151.81 164.281 152.155 164.281 152.516C164.281 152.876 164.138 153.221 163.883 153.476C163.628 153.731 163.283 153.874 162.923 153.874Z" fill="#2A2E32"/>
<path d="M389.32 327.353C412.847 327.353 431.92 308.402 431.92 285.025C431.92 261.647 412.847 242.696 389.32 242.696C365.792 242.696 346.719 261.647 346.719 285.025C346.719 308.402 365.792 327.353 389.32 327.353Z" fill="#2A2E32"/>
<path d="M346.718 270.244C370.246 270.244 389.319 251.293 389.319 227.915C389.319 204.538 370.246 185.586 346.718 185.586C323.191 185.586 304.118 204.538 304.118 227.915C304.118 251.293 323.191 270.244 346.718 270.244Z" fill="#2A2E32"/>
<path d="M309.293 221.118H283.401C277.028 221.118 270.717 219.862 264.828 217.423C258.94 214.984 253.59 211.408 249.083 206.901C244.577 202.394 241.002 197.043 238.564 191.154C236.125 185.266 234.871 178.954 234.872 172.581V139.462C234.881 131.849 237.912 124.55 243.299 119.171C248.686 113.791 255.989 110.77 263.602 110.772H298.561C310.407 110.772 321.768 115.478 330.144 123.854C338.521 132.231 343.227 143.591 343.227 155.437V187.245C343.223 191.697 342.342 196.105 340.635 200.217C338.928 204.329 336.427 208.065 333.276 211.21C330.125 214.356 326.385 216.85 322.27 218.549C318.155 220.249 313.745 221.122 309.293 221.118V221.118Z" fill="#2A2E32"/>
<path d="M245.583 122.115C245.583 122.115 230.219 124.383 226.184 156.877C225.707 160.846 223.994 164.565 221.287 167.507L218.815 170.183C218.192 170.857 217.837 171.735 217.818 172.653C217.799 173.571 218.118 174.463 218.713 175.162L222.062 179.101L220.37 199.885C220.37 199.885 216.974 222.034 243.049 221.348H259.636V244.326H311.765V204.83C311.765 204.83 323.645 202.792 325.805 191.096C326.35 188.172 326.227 185.163 325.443 182.294C324.66 179.425 323.237 176.771 321.281 174.53C317.389 170.122 310.529 166.379 299.234 171.65C299.241 171.65 254.372 180.656 245.583 122.115Z" fill="white"/>
<path d="M308.214 196.115C307.139 196.115 306.088 195.796 305.195 195.199C304.301 194.602 303.605 193.753 303.193 192.76C302.782 191.767 302.675 190.675 302.884 189.621C303.094 188.567 303.611 187.598 304.371 186.839C305.131 186.079 306.099 185.561 307.153 185.351C308.207 185.142 309.3 185.249 310.293 185.661C311.286 186.072 312.134 186.768 312.731 187.662C313.329 188.556 313.647 189.606 313.647 190.681C313.647 192.122 313.075 193.504 312.056 194.523C311.037 195.542 309.655 196.115 308.214 196.115ZM308.214 187.923C307.676 187.923 307.151 188.083 306.704 188.381C306.257 188.68 305.909 189.104 305.703 189.6C305.498 190.097 305.444 190.643 305.549 191.17C305.654 191.697 305.912 192.181 306.292 192.561C306.672 192.941 307.156 193.2 307.683 193.305C308.21 193.41 308.757 193.356 309.253 193.15C309.75 192.944 310.174 192.596 310.472 192.149C310.771 191.703 310.93 191.177 310.93 190.64C310.93 189.919 310.644 189.228 310.135 188.719C309.625 188.209 308.934 187.923 308.214 187.923Z" fill="#2A2E32"/>
<path d="M304.119 192.019C303.765 192.019 303.426 191.882 303.172 191.636C302.919 191.39 302.771 191.055 302.76 190.701C302.665 187.896 303.501 185.628 305.253 183.957C308.73 180.642 314.538 181.063 314.762 181.084C315.122 181.112 315.457 181.282 315.692 181.556C315.927 181.831 316.043 182.187 316.015 182.547C315.987 182.908 315.817 183.242 315.543 183.477C315.268 183.712 314.912 183.829 314.551 183.801V183.801C314.504 183.801 309.688 183.461 307.08 185.947C305.905 187.074 305.368 188.603 305.436 190.627C305.443 190.806 305.414 190.984 305.351 191.152C305.288 191.32 305.192 191.473 305.07 191.604C304.947 191.735 304.8 191.84 304.637 191.913C304.474 191.987 304.298 192.028 304.119 192.033V192.019Z" fill="#2A2E32"/>
<path d="M251.051 171.609C252.825 171.609 254.263 170.17 254.263 168.396C254.263 166.621 252.825 165.183 251.051 165.183C249.276 165.183 247.838 166.621 247.838 168.396C247.838 170.17 249.276 171.609 251.051 171.609Z" fill="#2A2E32"/>
<path d="M239.769 198.703C238.46 198.708 237.165 198.449 235.958 197.942C232.053 196.292 229.431 191.938 229.438 187.115C229.44 186.711 229.53 186.312 229.702 185.946C229.874 185.58 230.124 185.256 230.435 184.997C230.746 184.738 231.109 184.551 231.5 184.447C231.891 184.344 232.3 184.327 232.698 184.398L248.897 187.292C249.312 187.368 249.703 187.538 250.042 187.788C250.381 188.037 250.659 188.361 250.856 188.733C251.052 189.106 251.161 189.518 251.175 189.939C251.188 190.36 251.106 190.779 250.935 191.163C248.857 195.782 244.258 198.703 239.769 198.703ZM232.209 187.041C232.201 187.06 232.201 187.082 232.209 187.102C232.209 190.851 234.159 194.193 237.072 195.429C241.542 197.317 246.69 194.071 248.517 189.995L248.476 189.914L232.27 187.02L232.209 187.041Z" fill="#2A2E32"/>
<path d="M259.208 221.374H284.115C284.336 221.376 284.549 221.453 284.72 221.593C284.89 221.733 285.008 221.928 285.052 222.144C285.097 222.36 285.066 222.585 284.965 222.781C284.863 222.977 284.698 223.133 284.496 223.221L259.208 234.021V221.374Z" fill="#2A2E32"/>
<path d="M259.209 243.796C259.203 242.557 259.597 241.35 260.331 240.352C261.064 239.354 262.1 238.618 263.284 238.254C264.19 237.98 265.12 237.793 266.062 237.697C269.619 237.367 273.183 238.25 276.175 240.203C278.674 238.267 281.743 237.213 284.903 237.206C288.063 237.199 291.137 238.238 293.645 240.162C296.175 238.464 299.13 237.508 302.176 237.405C304.086 237.352 305.991 237.642 307.799 238.26C308.926 238.654 309.902 239.389 310.593 240.363C311.283 241.336 311.653 242.501 311.651 243.694V255.581H259.209V243.796Z" fill="#C20004"/>
<path d="M461.417 415.264L161.714 415.013L174.999 293.386C176.259 281.859 181.723 271.201 190.346 263.45C198.97 255.699 210.148 251.398 221.743 251.369L345.638 251.057C360.093 251.022 374.229 255.306 386.233 263.36C398.237 271.414 407.561 282.87 413.009 296.259C438.14 354.047 456.323 396.24 458.306 401.245C459.25 403.7 460.006 406.222 460.568 408.791C461.009 410.925 461.293 413.089 461.417 415.264V415.264Z" fill="#C20004"/>
<path d="M370.742 415.108H217.118V310.991H333.053C334.636 310.991 336.179 311.498 337.453 312.438C338.728 313.378 339.668 314.701 340.137 316.214L370.742 415.108Z" fill="#2A2E32"/>
<path d="M333.033 312.349C332.709 312.354 332.394 312.243 332.145 312.036C331.896 311.829 331.729 311.541 331.674 311.222C331.294 308.973 322.552 256.13 340.789 249.78C341.13 249.661 341.503 249.682 341.828 249.839C342.153 249.995 342.402 250.275 342.521 250.615C342.64 250.956 342.619 251.329 342.462 251.654C342.306 251.979 342.026 252.228 341.686 252.347C328.326 256.993 331.864 296.095 334.357 310.76C334.387 310.936 334.382 311.116 334.343 311.291C334.303 311.465 334.229 311.63 334.126 311.775C334.022 311.921 333.891 312.045 333.74 312.14C333.588 312.235 333.419 312.299 333.243 312.329C333.174 312.341 333.103 312.348 333.033 312.349V312.349Z" fill="#2A2E32"/>
<path d="M220.513 312.349C220.207 312.35 219.909 312.247 219.669 312.057C219.428 311.867 219.259 311.601 219.189 311.303C215.642 296.517 215.546 281.113 218.91 266.285C220.13 261.005 221.793 255.839 223.882 250.839C224.027 250.517 224.293 250.264 224.622 250.134C224.951 250.004 225.317 250.007 225.644 250.143C225.97 250.28 226.231 250.538 226.37 250.863C226.509 251.188 226.516 251.555 226.388 251.885C224.36 256.744 222.745 261.766 221.559 266.896C218.287 281.32 218.382 296.304 221.838 310.685C221.878 310.859 221.884 311.039 221.854 311.215C221.825 311.391 221.761 311.56 221.666 311.711C221.572 311.863 221.448 311.994 221.303 312.098C221.157 312.201 220.993 312.275 220.819 312.315C220.719 312.34 220.616 312.351 220.513 312.349V312.349Z" fill="#2A2E32"/>
<path d="M201.095 227.406C199.683 225.58 198.062 223.926 196.266 222.475L196.191 222.407C192.832 219.426 189.914 215.982 187.525 212.178C185.405 208.782 184.128 205.305 182.05 199.952C181.011 197.29 180.277 195.198 179.87 194.03C175.027 180.119 171.848 167.649 166.931 165.856C166.19 165.605 165.421 165.447 164.642 165.387C163.604 165.29 162.557 165.401 161.564 165.715C160.57 166.029 159.649 166.539 158.855 167.214C158.328 167.663 157.871 168.187 157.496 168.77C155.595 171.792 156.539 176.173 158.488 184.806C158.801 186.164 159.079 187.285 159.262 188.032L163.209 206.127C163.209 206.127 153.509 208.32 154.053 216.009C154.053 216.009 145.087 210.698 141.61 221.13C141.61 221.13 130.267 222.047 133.561 234.491C133.561 234.491 138.132 251.145 144.904 251.695C144.904 251.695 143.627 277.682 165.219 289.052L200.538 284.61L202.861 274.544C208.974 248.055 206.217 239.463 205.191 236.284C204.2 233.166 202.824 230.184 201.095 227.406V227.406Z" fill="white"/>
<path d="M169.796 274.321C169.582 274.321 169.37 274.271 169.179 274.174C168.988 274.078 168.822 273.937 168.696 273.764C164.618 268.227 162.086 261.706 161.36 254.868C159.819 239.246 168.743 227.699 172.398 223.726L169.565 216.418C169.287 215.677 168.927 214.733 168.526 213.796C166.278 208.573 165.266 204.185 165.524 200.748C165.597 199.71 165.88 198.698 166.355 197.772C166.83 196.846 167.488 196.026 168.288 195.362C169.072 194.708 169.981 194.22 170.96 193.928C171.938 193.636 172.966 193.546 173.98 193.664C180.134 194.343 183.815 201.38 183.971 201.672C184.053 201.831 184.103 202.004 184.118 202.182C184.133 202.36 184.113 202.539 184.059 202.71C184.005 202.88 183.918 203.038 183.802 203.175C183.687 203.311 183.546 203.424 183.387 203.506C183.228 203.588 183.055 203.638 182.877 203.653C182.699 203.668 182.52 203.648 182.349 203.593C182.179 203.539 182.021 203.452 181.885 203.337C181.748 203.221 181.635 203.08 181.553 202.922C181.553 202.86 178.381 196.883 173.681 196.367C173.029 196.291 172.368 196.348 171.739 196.534C171.11 196.721 170.525 197.034 170.02 197.454C169.501 197.886 169.075 198.418 168.768 199.02C168.461 199.621 168.279 200.278 168.234 200.952C168.01 203.947 168.947 207.907 171.019 212.723C171.447 213.708 171.82 214.699 172.105 215.44L175.556 224.337L174.951 224.962C172.01 228.012 162.542 239.158 164.084 254.59C164.753 260.94 167.097 267 170.876 272.147C171.088 272.438 171.176 272.8 171.121 273.155C171.067 273.51 170.873 273.829 170.584 274.042C170.357 274.216 170.082 274.313 169.796 274.321V274.321Z" fill="#2A2E32"/>
<path d="M246.738 408.473C237.54 407.867 228.309 408.963 219.508 411.706C186.763 422.023 172.235 452.262 169.151 459.108L246.738 459.509V408.473Z" fill="white"/>
<path d="M248.097 460.873L167.053 460.452L167.909 458.55C172.976 447.329 188.095 420.181 219.101 410.407C228.06 407.613 237.457 406.497 246.82 407.113L248.097 407.194V460.873ZM171.278 457.762L245.38 458.142V409.755C236.766 409.336 228.146 410.442 219.916 413.022C191.586 421.927 176.936 445.964 171.278 457.762Z" fill="#2A2E32"/>
<path d="M157.645 255.444C156.319 255.457 155.007 255.169 153.808 254.601C152.314 253.87 151.049 252.745 150.147 251.348C149.681 251.916 149.1 252.379 148.442 252.706C147.193 253.298 145.765 253.383 144.455 252.944C144.287 252.883 144.133 252.789 144.002 252.669C143.87 252.548 143.764 252.403 143.688 252.241C143.613 252.079 143.57 251.904 143.562 251.726C143.555 251.548 143.582 251.37 143.643 251.202C143.704 251.034 143.798 250.88 143.918 250.749C144.039 250.617 144.184 250.511 144.346 250.435C144.508 250.36 144.683 250.317 144.861 250.309C145.04 250.302 145.218 250.329 145.385 250.39C146.005 250.576 146.672 250.531 147.26 250.261C147.67 249.997 148.024 249.654 148.301 249.251C148.577 248.849 148.77 248.396 148.87 247.918L150.228 243.496L151.498 247.938C151.498 247.938 152.402 250.906 155.023 252.143C156.884 253.026 159.248 252.869 162.046 251.687C162.212 251.61 162.391 251.566 162.574 251.559C162.757 251.552 162.939 251.583 163.11 251.648C163.28 251.713 163.436 251.812 163.568 251.939C163.699 252.066 163.804 252.218 163.875 252.386C163.947 252.555 163.983 252.736 163.983 252.919C163.983 253.101 163.946 253.282 163.874 253.45C163.802 253.619 163.697 253.77 163.565 253.897C163.433 254.024 163.277 254.122 163.106 254.187C161.388 254.967 159.531 255.394 157.645 255.444V255.444Z" fill="#2A2E32"/>
<path d="M150.167 249.685C149.879 249.683 149.598 249.591 149.366 249.42C149.134 249.249 148.963 249.009 148.876 248.734L140.305 221.524C140.197 221.18 140.23 220.807 140.396 220.487C140.563 220.168 140.85 219.927 141.194 219.819C141.539 219.711 141.911 219.744 142.231 219.911C142.551 220.078 142.791 220.365 142.899 220.709L151.437 247.919C151.491 248.089 151.51 248.268 151.495 248.446C151.479 248.624 151.428 248.797 151.346 248.956C151.263 249.114 151.15 249.254 151.013 249.369C150.876 249.484 150.718 249.57 150.547 249.623C150.424 249.662 150.296 249.682 150.167 249.685Z" fill="#2A2E32"/>
<path d="M163.616 244.054C163.336 244.054 163.063 243.966 162.835 243.805C162.606 243.643 162.433 243.415 162.339 243.151L152.796 216.451C152.736 216.283 152.71 216.104 152.718 215.926C152.727 215.748 152.771 215.573 152.847 215.411C152.924 215.25 153.031 215.105 153.163 214.985C153.295 214.865 153.45 214.772 153.618 214.712C153.786 214.652 153.965 214.625 154.143 214.634C154.321 214.643 154.496 214.686 154.658 214.763C154.819 214.839 154.964 214.946 155.084 215.079C155.204 215.211 155.297 215.366 155.357 215.534L164.866 242.241C164.939 242.446 164.962 242.666 164.932 242.881C164.902 243.097 164.821 243.303 164.695 243.481C164.569 243.658 164.402 243.803 164.209 243.903C164.015 244.003 163.8 244.055 163.582 244.054H163.616Z" fill="#2A2E32"/>
<path d="M519.273 93.8647H430.398C417.509 93.8647 407.06 104.312 407.06 117.199C407.06 130.087 417.509 140.534 430.398 140.534H519.273C532.162 140.534 542.611 130.087 542.611 117.199C542.611 104.312 532.162 93.8647 519.273 93.8647Z" fill="white"/>
<path d="M519.306 141.9H430.39C423.84 141.9 417.559 139.298 412.927 134.666C408.296 130.035 405.694 123.753 405.694 117.203C405.694 110.653 408.296 104.372 412.927 99.7402C417.559 95.1088 423.84 92.5068 430.39 92.5068H519.306C525.856 92.5068 532.137 95.1088 536.769 99.7402C541.4 104.372 544.002 110.653 544.002 117.203C544.002 123.753 541.4 130.035 536.769 134.666C532.137 139.298 525.856 141.9 519.306 141.9V141.9ZM430.39 95.2237C424.561 95.2237 418.97 97.5394 414.848 101.661C410.726 105.783 408.411 111.374 408.411 117.203C408.411 123.033 410.726 128.623 414.848 132.745C418.97 136.867 424.561 139.183 430.39 139.183H519.306C525.135 139.183 530.726 136.867 534.848 132.745C538.97 128.623 541.285 123.033 541.285 117.203C541.285 111.374 538.97 105.783 534.848 101.661C530.726 97.5394 525.135 95.2237 519.306 95.2237H430.39Z" fill="#2A2E32"/>
<path d="M437.903 124.803C442.101 124.803 445.504 121.4 445.504 117.202C445.504 113.005 442.101 109.602 437.903 109.602C433.706 109.602 430.303 113.005 430.303 117.202C430.303 121.4 433.706 124.803 437.903 124.803Z" fill="#636466"/>
<path d="M474.831 124.803C479.029 124.803 482.432 121.4 482.432 117.202C482.432 113.005 479.029 109.602 474.831 109.602C470.634 109.602 467.231 113.005 467.231 117.202C467.231 121.4 470.634 124.803 474.831 124.803Z" fill="#636466"/>
<path d="M511.761 124.803C515.958 124.803 519.361 121.4 519.361 117.202C519.361 113.005 515.958 109.602 511.761 109.602C507.563 109.602 504.16 113.005 504.16 117.202C504.16 121.4 507.563 124.803 511.761 124.803Z" fill="#636466"/>
<path d="M75.2703 221.796H32.1063C23.2685 221.796 16.104 228.96 16.104 237.798V280.963C16.104 289.8 23.2685 296.965 32.1063 296.965H75.2703C84.1082 296.965 91.2726 289.8 91.2726 280.963V237.798C91.2726 228.96 84.1082 221.796 75.2703 221.796Z" fill="white"/>
<path d="M75.2636 298.322H32.1063C27.503 298.315 23.0904 296.483 19.836 293.227C16.5816 289.971 14.751 285.558 14.7456 280.955V237.784C14.751 233.18 16.5816 228.767 19.836 225.511C23.0904 222.256 27.503 220.423 32.1063 220.416H75.2636C79.8681 220.421 84.2824 222.253 87.5383 225.509C90.7942 228.765 92.6257 233.179 92.6311 237.784V280.934C92.6311 285.542 90.8019 289.962 87.5455 293.222C84.289 296.483 79.8716 298.317 75.2636 298.322V298.322ZM32.1063 223.153C28.226 223.157 24.5054 224.699 21.7603 227.442C19.0152 230.184 17.4697 233.903 17.4625 237.784V280.934C17.4661 284.818 19.0098 288.541 21.7551 291.288C24.5004 294.034 28.223 295.58 32.1063 295.585H75.2636C79.1475 295.58 82.8708 294.034 85.6172 291.288C88.3635 288.542 89.9088 284.818 89.9142 280.934V237.784C89.9106 233.899 88.3659 230.175 85.6192 227.428C82.8724 224.681 79.1481 223.136 75.2636 223.133L32.1063 223.153Z" fill="#2A2E32"/>
<path d="M74.6526 247.096C73.822 245.571 72.5824 244.307 71.0731 243.448C64.1384 239.57 57.1357 241.974 53.7056 247.014C50.228 241.913 43.0895 239.502 36.0461 243.618C34.768 244.362 33.6999 245.418 32.9421 246.688C29.7565 252.04 30.3814 257.413 33.0575 261.237C33.1058 261.306 33.158 261.371 33.2137 261.434V261.468C33.2681 261.543 36.6777 265.496 38.8105 267.656C42.8818 271.622 47.1504 275.38 51.6001 278.917C52.1756 279.386 52.8953 279.642 53.6377 279.642C54.3801 279.642 55.0998 279.386 55.6753 278.917C59.5129 275.854 62.6305 273.198 64.9466 271.167C66.716 269.694 68.3859 268.106 69.9456 266.413C73.2738 262.738 80.6025 257.922 74.6526 247.096Z" fill="#2A2E32"/>
<path d="M566.056 193.567H433.575C420.964 193.567 410.74 203.791 410.74 216.402V361.435C410.74 374.047 420.964 384.271 433.575 384.271H566.056C578.668 384.271 588.891 374.047 588.891 361.435V216.402C588.891 203.791 578.668 193.567 566.056 193.567Z" fill="white"/>
<path d="M566.057 385.629H433.576C427.162 385.621 421.012 383.07 416.476 378.535C411.941 373.999 409.39 367.849 409.382 361.435V216.402C409.39 209.987 411.941 203.838 416.476 199.302C421.012 194.766 427.162 192.215 433.576 192.208H566.057C572.471 192.215 578.621 194.766 583.156 199.302C587.692 203.838 590.243 209.987 590.25 216.402V361.435C590.243 367.849 587.692 373.999 583.156 378.535C578.621 383.07 572.471 385.621 566.057 385.629ZM433.576 194.925C427.882 194.932 422.424 197.197 418.398 201.223C414.371 205.249 412.106 210.708 412.099 216.402V361.435C412.106 367.129 414.371 372.587 418.398 376.613C422.424 380.64 427.882 382.905 433.576 382.912H566.057C571.75 382.905 577.209 380.64 581.235 376.613C585.261 372.587 587.526 367.129 587.533 361.435V216.402C587.528 210.707 585.264 205.248 581.237 201.221C577.211 197.195 571.751 194.93 566.057 194.925H433.576Z" fill="#2A2E32"/>
<path d="M455.25 265.287H437.529C432.386 265.287 428.217 269.456 428.217 274.599V292.319C428.217 297.462 432.386 301.632 437.529 301.632H455.25C460.393 301.632 464.562 297.462 464.562 292.319V274.599C464.562 269.456 460.393 265.287 455.25 265.287Z" fill="#B3B3B3"/>
<path d="M455.25 320.458H437.529C432.386 320.458 428.217 324.627 428.217 329.77V347.491C428.217 352.634 432.386 356.803 437.529 356.803H455.25C460.393 356.803 464.562 352.634 464.562 347.491V329.77C464.562 324.627 460.393 320.458 455.25 320.458Z" fill="#B3B3B3"/>
<path d="M569.033 274.619H486.997C486.637 274.619 486.291 274.476 486.037 274.221C485.782 273.967 485.639 273.621 485.639 273.261C485.639 272.9 485.782 272.555 486.037 272.3C486.291 272.045 486.637 271.902 486.997 271.902H569.033C569.393 271.902 569.738 272.045 569.993 272.3C570.248 272.555 570.391 272.9 570.391 273.261C570.391 273.621 570.248 273.967 569.993 274.221C569.738 274.476 569.393 274.619 569.033 274.619Z" fill="#2A2E32"/>
<path d="M537.565 294.622H486.997C486.637 294.622 486.291 294.479 486.037 294.224C485.782 293.969 485.639 293.623 485.639 293.263C485.639 292.903 485.782 292.557 486.037 292.303C486.291 292.048 486.637 291.905 486.997 291.905H537.565C537.925 291.905 538.27 292.048 538.525 292.303C538.78 292.557 538.923 292.903 538.923 293.263C538.923 293.623 538.78 293.969 538.525 294.224C538.27 294.479 537.925 294.622 537.565 294.622Z" fill="#2A2E32"/>
<path d="M569.033 329.989H486.997C486.637 329.989 486.291 329.846 486.037 329.591C485.782 329.336 485.639 328.991 485.639 328.63C485.639 328.27 485.782 327.925 486.037 327.67C486.291 327.415 486.637 327.272 486.997 327.272H569.033C569.393 327.272 569.738 327.415 569.993 327.67C570.248 327.925 570.391 328.27 570.391 328.63C570.391 328.991 570.248 329.336 569.993 329.591C569.738 329.846 569.393 329.989 569.033 329.989Z" fill="#2A2E32"/>
<path d="M537.565 349.991H486.997C486.637 349.991 486.291 349.848 486.037 349.593C485.782 349.338 485.639 348.993 485.639 348.632C485.639 348.272 485.782 347.927 486.037 347.672C486.291 347.417 486.637 347.274 486.997 347.274H537.565C537.925 347.274 538.27 347.417 538.525 347.672C538.78 347.927 538.923 348.272 538.923 348.632C538.923 348.993 538.78 349.338 538.525 349.593C538.27 349.848 537.925 349.991 537.565 349.991Z" fill="#2A2E32"/>
<path d="M460.629 219.127C460.063 218.082 459.213 217.218 458.177 216.634C453.423 213.972 448.627 215.622 446.277 219.079C443.893 215.581 439.003 213.931 434.187 216.736C433.314 217.25 432.585 217.977 432.068 218.848C429.881 222.509 430.309 226.191 432.143 228.812C432.175 228.861 432.212 228.906 432.252 228.948V228.948C432.292 229.003 434.629 231.713 436.089 233.193C437.339 234.45 440.422 237.33 444.851 240.902C445.245 241.219 445.735 241.392 446.24 241.392C446.745 241.392 447.235 241.219 447.629 240.902C450.257 238.797 452.383 236.977 453.98 235.591C455.179 234.582 456.314 233.498 457.376 232.344C459.685 229.852 464.711 226.551 460.629 219.127Z" fill="#2A2E32"/>
<path d="M403.283 473.398H256.165C253.92 473.399 251.697 472.958 249.623 472.099C247.549 471.241 245.665 469.982 244.077 468.395C242.489 466.808 241.23 464.924 240.371 462.85C239.512 460.777 239.069 458.554 239.069 456.309V428.101C239.071 418.037 243.07 408.386 250.186 401.27C257.302 394.154 266.953 390.155 277.017 390.153H436.306C442.971 390.153 449.364 392.801 454.077 397.514C458.79 402.227 461.437 408.619 461.437 415.284V415.284C461.435 422.919 459.928 430.478 457.004 437.53C454.08 444.582 449.796 450.989 444.396 456.385C438.996 461.782 432.586 466.062 425.531 468.981C418.477 471.9 410.917 473.401 403.283 473.398Z" fill="#C20004"/>
<path d="M175.781 476.095C169.69 475.969 163.684 474.644 158.106 472.197C152.528 469.749 147.486 466.227 143.269 461.831C139.052 457.435 135.742 452.251 133.529 446.575C131.315 440.9 130.241 434.844 130.368 428.754L132.902 306.868C133.05 299.869 135.971 293.214 141.024 288.368C146.077 283.522 152.847 280.88 159.846 281.024L199.818 281.86C206.812 282.011 213.46 284.934 218.3 289.985C223.14 295.037 225.776 301.803 225.628 308.797L223.122 430.683C222.996 436.773 221.671 442.779 219.223 448.358C216.776 453.936 213.254 458.978 208.857 463.195C204.461 467.412 199.278 470.722 193.602 472.935C187.927 475.149 181.871 476.222 175.781 476.095Z" fill="#C20004"/>
<path d="M393.313 390.147H356.432C356.071 390.147 355.726 390.003 355.471 389.749C355.216 389.494 355.073 389.148 355.073 388.788C355.073 388.428 355.216 388.082 355.471 387.828C355.726 387.573 356.071 387.43 356.432 387.43H393.313C393.673 387.43 394.019 387.573 394.274 387.828C394.528 388.082 394.671 388.428 394.671 388.788C394.671 389.148 394.528 389.494 394.274 389.749C394.019 390.003 393.673 390.147 393.313 390.147Z" fill="#2A2E32"/>
<path d="M350.725 192.663C348.773 192.663 346.864 192.085 345.241 191C343.617 189.916 342.351 188.375 341.603 186.571C340.855 184.768 340.658 182.783 341.038 180.868C341.417 178.953 342.356 177.193 343.735 175.811C345.114 174.429 346.872 173.487 348.786 173.104C350.701 172.721 352.686 172.913 354.491 173.658C356.295 174.402 357.839 175.665 358.927 177.286C360.014 178.907 360.597 180.815 360.601 182.767C360.603 184.065 360.349 185.351 359.853 186.552C359.358 187.752 358.631 188.842 357.714 189.762C356.797 190.681 355.707 191.41 354.508 191.908C353.309 192.406 352.024 192.662 350.725 192.663V192.663ZM350.725 175.628C349.309 175.628 347.924 176.049 346.746 176.836C345.568 177.624 344.651 178.743 344.109 180.053C343.568 181.362 343.428 182.802 343.706 184.192C343.983 185.581 344.667 186.856 345.671 187.857C346.674 188.857 347.951 189.537 349.341 189.811C350.731 190.085 352.171 189.941 353.479 189.396C354.787 188.851 355.904 187.93 356.688 186.75C357.472 185.57 357.888 184.184 357.884 182.767C357.877 180.872 357.12 179.058 355.778 177.72C354.437 176.382 352.62 175.63 350.725 175.628V175.628Z" fill="#2A2E32"/>
<path d="M225.818 312.349C225.457 312.349 225.112 312.206 224.857 311.952C224.602 311.697 224.459 311.351 224.459 310.991C224.283 283.883 202.113 283.293 201.183 283.293C200.822 283.293 200.477 283.149 200.222 282.895C199.967 282.64 199.824 282.294 199.824 281.934C199.824 281.574 199.967 281.228 200.222 280.974C200.477 280.719 200.822 280.576 201.183 280.576C201.441 280.576 226.952 281.167 227.149 310.998C227.149 311.358 227.006 311.704 226.751 311.958C226.496 312.213 226.151 312.356 225.791 312.356L225.818 312.349Z" fill="#2A2E32"/>
<path d="M305.232 252.81H263.121C262.76 252.81 262.415 252.667 262.16 252.412C261.905 252.157 261.762 251.811 261.762 251.451C261.762 251.091 261.905 250.745 262.16 250.491C262.415 250.236 262.76 250.093 263.121 250.093H305.232C305.592 250.093 305.938 250.236 306.192 250.491C306.447 250.745 306.59 251.091 306.59 251.451C306.59 251.811 306.447 252.157 306.192 252.412C305.938 252.667 305.592 252.81 305.232 252.81Z" fill="#2A2E32"/>
<path d="M265.321 468.12C264.961 468.12 264.616 467.977 264.361 467.722C264.106 467.467 263.963 467.122 263.963 466.762V405.143C263.963 404.783 264.106 404.437 264.361 404.183C264.616 403.928 264.961 403.785 265.321 403.785C265.682 403.785 266.027 403.928 266.282 404.183C266.537 404.437 266.68 404.783 266.68 405.143V466.762C266.68 467.122 266.537 467.467 266.282 467.722C266.027 467.977 265.682 468.12 265.321 468.12Z" fill="#2A2E32"/>
<path d="M209.347 306.575H147.736C147.376 306.575 147.03 306.432 146.775 306.177C146.521 305.923 146.377 305.577 146.377 305.217C146.377 304.857 146.521 304.511 146.775 304.256C147.03 304.001 147.376 303.858 147.736 303.858H209.347C209.708 303.858 210.053 304.001 210.308 304.256C210.563 304.511 210.706 304.857 210.706 305.217C210.706 305.577 210.563 305.923 210.308 306.177C210.053 306.432 209.708 306.575 209.347 306.575Z" fill="#2A2E32"/>
<path d="M61.3939 398.684C61.1155 398.684 60.8437 398.599 60.6153 398.44C60.3869 398.281 60.213 398.055 60.1169 397.794C52.238 376.304 35.9505 358.855 35.7875 358.685C35.5398 358.423 35.4064 358.073 35.4166 357.712C35.4267 357.352 35.5797 357.01 35.8418 356.763C36.1039 356.515 36.4537 356.381 36.8142 356.392C37.1746 356.402 37.5163 356.555 37.764 356.817C37.927 356.994 54.5949 374.83 62.6708 396.891C62.7935 397.229 62.7773 397.601 62.6258 397.927C62.4743 398.253 62.1998 398.506 61.8625 398.63C61.7111 398.677 61.5521 398.695 61.3939 398.684V398.684Z" fill="#2A2E32"/>
<path d="M69.0825 400.899C68.7223 400.899 68.3767 400.756 68.122 400.501C67.8672 400.246 67.7241 399.901 67.7241 399.54V380.937C67.7241 380.576 67.8672 380.231 68.122 379.976C68.3767 379.721 68.7223 379.578 69.0825 379.578C69.4428 379.578 69.7883 379.721 70.0431 379.976C70.2979 380.231 70.441 380.576 70.441 380.937V399.54C70.441 399.901 70.2979 400.246 70.0431 400.501C69.7883 400.756 69.4428 400.899 69.0825 400.899Z" fill="#2A2E32"/>
<path d="M109.109 427.517C109.107 423.07 107.34 418.806 104.195 415.661C101.051 412.517 96.7861 410.749 92.3391 410.747H88.6034V398.08H42.3761V410.754H38.6404C34.1928 410.754 29.9273 412.521 26.7824 415.666C23.6374 418.811 21.8706 423.076 21.8706 427.524V427.524C21.876 431.968 23.6454 436.227 26.79 439.367C29.9345 442.506 34.1969 444.269 38.6404 444.267C36.4385 444.266 34.258 444.699 32.2234 445.541C30.1888 446.383 28.3401 447.618 26.7828 449.174C25.2255 450.731 23.9901 452.579 23.1473 454.613C22.3044 456.648 21.8706 458.828 21.8706 461.03V461.03C21.8697 463.232 22.3029 465.414 23.1453 467.449C23.9878 469.484 25.223 471.333 26.7804 472.89C28.3378 474.447 30.1868 475.683 32.2218 476.525C34.2568 477.368 36.4379 477.801 38.6404 477.8H92.3391C96.7867 477.8 101.052 476.033 104.197 472.888C107.342 469.743 109.109 465.478 109.109 461.03V461.03C109.107 456.583 107.339 452.32 104.195 449.176C101.05 446.033 96.7855 444.267 92.3391 444.267C96.7832 444.267 101.046 442.503 104.19 439.362C107.334 436.222 109.103 431.961 109.109 427.517V427.517Z" fill="#636466"/>
<path d="M93.0454 445.72H74.1021C73.7418 445.72 73.3963 445.577 73.1415 445.322C72.8868 445.068 72.7437 444.722 72.7437 444.362C72.7437 444.002 72.8868 443.656 73.1415 443.401C73.3963 443.147 73.7418 443.003 74.1021 443.003H93.0454C93.4056 443.003 93.7512 443.147 94.0059 443.401C94.2607 443.656 94.4038 444.002 94.4038 444.362C94.4038 444.722 94.2607 445.068 94.0059 445.322C93.7512 445.577 93.4056 445.72 93.0454 445.72V445.72Z" fill="#2A2E32"/>
<path d="M47.5513 445.626H37.6348C37.2745 445.626 36.929 445.482 36.6742 445.228C36.4195 444.973 36.2764 444.627 36.2764 444.267C36.2764 443.907 36.4195 443.561 36.6742 443.307C36.929 443.052 37.2745 442.909 37.6348 442.909H47.5513C47.9116 442.909 48.2571 443.052 48.5119 443.307C48.7666 443.561 48.9097 443.907 48.9097 444.267C48.9097 444.627 48.7666 444.973 48.5119 445.228C48.2571 445.482 47.9116 445.626 47.5513 445.626Z" fill="#2A2E32"/>
<path d="M65.4962 402.018C78.4941 402.018 89.031 399.823 89.031 397.114C89.031 394.406 78.4941 392.21 65.4962 392.21C52.4983 392.21 41.9614 394.406 41.9614 397.114C41.9614 399.823 52.4983 402.018 65.4962 402.018Z" fill="#2A2E32"/>
<path d="M69.0827 380.937C75.2159 380.937 80.1878 375.965 80.1878 369.832C80.1878 363.699 75.2159 358.727 69.0827 358.727C62.9495 358.727 57.9775 363.699 57.9775 369.832C57.9775 375.965 62.9495 380.937 69.0827 380.937Z" fill="#C20004"/>
<path d="M32.7783 365.111C39.3503 365.111 44.6781 359.784 44.6781 353.211C44.6781 346.639 39.3503 341.312 32.7783 341.312C26.2062 341.312 20.8784 346.639 20.8784 353.211C20.8784 359.784 26.2062 365.111 32.7783 365.111Z" fill="#C20004"/>
<path d="M176.039 182.457C174.68 178.748 172.717 173.987 169.96 170.007C167.623 166.61 164.954 165.184 162.02 165.693C161.171 165.795 160.356 166.082 159.631 166.536C158.907 166.989 158.291 167.597 157.829 168.315C155.513 172.031 157.055 178.585 157.829 181.22L157.931 181.56L155.343 182.382L155.221 181.981C154.141 178.259 152.735 171.351 155.527 166.875C156.188 165.829 157.071 164.941 158.113 164.273C159.155 163.606 160.331 163.175 161.558 163.011C165.572 162.331 169.253 164.192 172.201 168.444C175.149 172.696 177.153 177.641 178.593 181.492L176.039 182.457Z" fill="#2A2E32"/>
</svg>
