<svg width="804" height="448" viewBox="0 0 804 448" fill="none" xmlns="http://www.w3.org/2000/svg">
<g clip-path="url(#clip0_1142_4392)">
<path d="M31.6241 446.854L31.5774 445.925C31.5675 445.72 30.6973 425.341 42.895 411.788C55.0933 398.234 76.0298 396.316 76.2394 396.299L77.1956 396.218L77.2421 397.147C77.252 397.351 78.1221 417.73 65.9246 431.284C53.7263 444.838 32.7898 446.755 32.5802 446.773L31.6241 446.854ZM44.2255 412.914C33.9122 424.373 33.251 440.906 33.2561 445.04C37.4805 444.484 54.291 441.606 64.5942 430.157C74.8962 418.71 75.5655 402.168 75.5635 398.031C71.3366 398.588 54.5281 401.466 44.2255 412.914Z" fill="#F0F0F0"/>
<path d="M50.5086 416.762C47.8772 434.988 32.0328 446.721 32.0328 446.721C32.0328 446.721 20.4549 428.906 23.0864 410.68C25.7178 392.455 41.5621 380.721 41.5621 380.721C41.5621 380.721 53.1401 398.537 50.5086 416.762Z" fill="#F0F0F0"/>
<path d="M803.999 14.519H295.691V265.814H803.999V14.519Z" fill="#636466"/>
<path d="M789.466 36.0679H310.229V245.732H789.466V36.0679Z" fill="white"/>
<path d="M803.784 0H295.477V22.4982H803.784V0Z" fill="#CB334B"/>
<path d="M311.522 14.5762C313.732 14.5762 315.524 12.7093 315.524 10.4063C315.524 8.10328 313.732 6.23633 311.522 6.23633C309.311 6.23633 307.52 8.10328 307.52 10.4063C307.52 12.7093 309.311 14.5762 311.522 14.5762Z" fill="white"/>
<path d="M326.715 14.5762C328.926 14.5762 330.718 12.7093 330.718 10.4063C330.718 8.10328 328.926 6.23633 326.715 6.23633C324.505 6.23633 322.713 8.10328 322.713 10.4063C322.713 12.7093 324.505 14.5762 326.715 14.5762Z" fill="white"/>
<path d="M341.907 14.5762C344.117 14.5762 345.909 12.7093 345.909 10.4063C345.909 8.10328 344.117 6.23633 341.907 6.23633C339.696 6.23633 337.904 8.10328 337.904 10.4063C337.904 12.7093 339.696 14.5762 341.907 14.5762Z" fill="white"/>
<path d="M491.353 119.678H389.742V209.847H491.353V119.678Z" fill="white"/>
<path d="M491.647 210.154H389.445V119.37H491.647V210.154ZM390.036 209.539H491.057V119.986H390.036V209.539Z" fill="#3F3D56"/>
<path d="M453.249 137.219H427.846V209.847H453.249V137.219Z" fill="#6C63FF"/>
<path d="M453.249 137.219H427.846V209.847H453.249V137.219Z" fill="#CB334B"/>
<path opacity="0.2" d="M390.037 126.295V140.924L491.353 147.683L491.055 129.631L390.037 126.295Z" fill="black"/>
<path d="M497.26 111.369H383.834V137.219H497.26V111.369Z" fill="white"/>
<path d="M497.556 137.527H383.539V111.061H497.556V137.527ZM384.13 136.912H496.966V111.677H384.13L384.13 136.912Z" fill="#3F3D56"/>
<path d="M453.249 108.907H427.846V136.911H453.249V108.907Z" fill="#CB334B"/>
<path d="M437.828 84.4894C444.534 94.8454 438.216 111.502 438.216 111.502C438.216 111.502 421.026 111.367 414.321 101.011C407.615 90.6553 413.933 73.999 413.933 73.999C413.933 73.999 431.123 74.1333 437.828 84.4894Z" fill="#CB334B"/>
<path d="M440.905 84.4894C434.199 94.8454 440.517 111.502 440.517 111.502C440.517 111.502 457.707 111.367 464.412 101.011C471.118 90.6553 464.8 73.999 464.8 73.999C464.8 73.999 447.61 74.1333 440.905 84.4894Z" fill="#CB334B"/>
<path d="M422.824 92.2889C424.293 92.2889 425.483 91.0489 425.483 89.5192C425.483 87.9896 424.293 86.7495 422.824 86.7495C421.356 86.7495 420.166 87.9896 420.166 89.5192C420.166 91.0489 421.356 92.2889 422.824 92.2889Z" fill="#3F3D56"/>
<path d="M438.776 120.293C440.244 120.293 441.434 119.053 441.434 117.524C441.434 115.994 440.244 114.754 438.776 114.754C437.307 114.754 436.117 115.994 436.117 117.524C436.117 119.053 437.307 120.293 438.776 120.293Z" fill="#3F3D56"/>
<path d="M438.776 180.919C440.244 180.919 441.434 179.679 441.434 178.149C441.434 176.619 440.244 175.379 438.776 175.379C437.307 175.379 436.117 176.619 436.117 178.149C436.117 179.679 437.307 180.919 438.776 180.919Z" fill="#3F3D56"/>
<path d="M429.913 101.521C430.892 101.521 431.685 100.694 431.685 99.6746C431.685 98.6548 430.892 97.8281 429.913 97.8281C428.934 97.8281 428.141 98.6548 428.141 99.6746C428.141 100.694 428.934 101.521 429.913 101.521Z" fill="#3F3D56"/>
<path d="M456.497 85.8262C457.476 85.8262 458.269 84.9995 458.269 83.9798C458.269 82.96 457.476 82.1333 456.497 82.1333C455.518 82.1333 454.725 82.96 454.725 83.9798C454.725 84.9995 455.518 85.8262 456.497 85.8262Z" fill="#3F3D56"/>
<path d="M444.977 129.218C445.956 129.218 446.75 128.391 446.75 127.371C446.75 126.352 445.956 125.525 444.977 125.525C443.999 125.525 443.205 126.352 443.205 127.371C443.205 128.391 443.999 129.218 444.977 129.218Z" fill="#3F3D56"/>
<path d="M434.345 153.222C435.323 153.222 436.117 152.395 436.117 151.375C436.117 150.355 435.323 149.529 434.345 149.529C433.366 149.529 432.572 150.355 432.572 151.375C432.572 152.395 433.366 153.222 434.345 153.222Z" fill="#3F3D56"/>
<path d="M443.501 161.531C444.48 161.531 445.273 160.704 445.273 159.684C445.273 158.665 444.48 157.838 443.501 157.838C442.522 157.838 441.729 158.665 441.729 159.684C441.729 160.704 442.522 161.531 443.501 161.531Z" fill="#3F3D56"/>
<path d="M441.432 196.306C442.411 196.306 443.205 195.48 443.205 194.46C443.205 193.44 442.411 192.613 441.432 192.613C440.454 192.613 439.66 193.44 439.66 194.46C439.66 195.48 440.454 196.306 441.432 196.306Z" fill="#3F3D56"/>
<path d="M706.826 162.141H556.038C554.154 162.141 552.348 161.361 551.016 159.974C549.684 158.586 548.936 156.704 548.936 154.741C548.936 152.779 549.684 150.897 551.016 149.509C552.348 148.121 554.154 147.342 556.038 147.342H706.826C708.71 147.342 710.516 148.121 711.848 149.509C713.18 150.897 713.929 152.779 713.929 154.741C713.929 156.704 713.18 158.586 711.848 159.974C710.516 161.361 708.71 162.141 706.826 162.141V162.141Z" fill="#E4E4E4"/>
<path d="M658.202 136.812H556.038C554.154 136.812 552.348 136.032 551.016 134.645C549.684 133.257 548.936 131.375 548.936 129.412C548.936 127.45 549.684 125.568 551.016 124.18C552.348 122.792 554.154 122.013 556.038 122.013H658.202C660.086 122.013 661.893 122.792 663.224 124.18C664.556 125.568 665.305 127.45 665.305 129.412C665.305 131.375 664.556 133.257 663.224 134.645C661.893 136.032 660.086 136.812 658.202 136.812Z" fill="#E4E4E4"/>
<path d="M696.499 210.155C701.53 205.585 709.646 201.27 716.187 198.744C709.646 196.215 701.53 191.9 696.499 187.33L700.045 197.544H681.648V199.943H700.045L696.499 210.155Z" fill="#3F3D56"/>
<path d="M218.125 234.61C217.151 233.903 216.04 233.428 214.87 233.216C213.701 233.005 212.501 233.064 211.355 233.388C210.21 233.713 209.146 234.295 208.24 235.093C207.334 235.892 206.606 236.888 206.11 238.012L187.568 237.266L184.385 248.895L210.584 249.565C212.45 250.309 214.514 250.315 216.384 249.58C218.254 248.845 219.801 247.421 220.73 245.577C221.66 243.734 221.908 241.599 221.428 239.578C220.948 237.557 219.773 235.789 218.125 234.61H218.125Z" fill="#FFB6B6"/>
<path d="M203.229 251.019L184.33 253.492L181.937 253.802L143.486 258.827C143.486 258.827 131.687 249.968 121.195 240.609V230.839C121.188 221.251 124.524 211.988 130.582 204.772C144.783 211.949 154.699 228.776 154.699 228.776L179.286 231.279L181.745 231.529L197.022 233.081L203.229 251.019Z" fill="#636466"/>
<path d="M124.667 329.467H160.219C160.219 331.054 199.082 332.342 199.082 332.342C199.939 333.014 200.721 333.786 201.411 334.642C203.486 337.22 204.619 340.478 204.613 343.842V346.143C204.611 349.955 203.157 353.61 200.57 356.306C197.982 359.002 194.473 360.517 190.814 360.518H124.667C121.009 360.515 117.501 358.999 114.914 356.304C112.327 353.609 110.872 349.954 110.869 346.143V343.842C110.874 340.031 112.33 336.378 114.916 333.683C117.503 330.988 121.009 329.472 124.667 329.467V329.467Z" fill="#3F3D56"/>
<path d="M164.872 359.947H150.521V446.243H164.872V359.947Z" fill="#3F3D56"/>
<path d="M205.713 445.718C205.713 447.334 183.968 446.343 157.144 446.343C130.32 446.343 108.574 447.334 108.574 445.718C108.574 444.103 130.32 431.293 157.144 431.293C183.968 431.293 205.713 444.103 205.713 445.718Z" fill="#3F3D56"/>
<path d="M215.353 435.857H226.033L231.114 392.939H215.352L215.353 435.857Z" fill="#FFB6B6"/>
<path d="M212.629 432.225L233.662 432.224H233.662C237.217 432.224 240.626 433.696 243.14 436.314C245.654 438.933 247.066 442.485 247.066 446.189V446.642L212.63 446.644L212.629 432.225Z" fill="#2F2E41"/>
<path d="M246.919 435.857H257.599L262.68 392.939H246.918L246.919 435.857Z" fill="#FFB6B6"/>
<path d="M244.195 432.225L265.228 432.224H265.229C268.784 432.224 272.193 433.696 274.706 436.314C277.22 438.933 278.632 442.485 278.633 446.189V446.642L244.196 446.644L244.195 432.225Z" fill="#2F2E41"/>
<path d="M157.302 188.774C167.557 188.774 175.871 180.112 175.871 169.427C175.871 158.742 167.557 150.081 157.302 150.081C147.046 150.081 138.732 158.742 138.732 169.427C138.732 180.112 147.046 188.774 157.302 188.774Z" fill="#FFB6B6"/>
<path d="M159.397 160.2C159.397 160.2 166.002 150.635 172.154 160.204C178.307 169.774 184.391 158.166 182.977 154.519C181.564 150.872 181.936 150.433 171.687 145.697C161.438 140.962 141.733 131.439 135.968 155.072C130.203 178.705 142 179.152 142 179.152C142 179.152 144.406 156.187 147.184 162.653L149.962 169.118L152.816 170.179L159.397 160.2Z" fill="#2F2E41"/>
<path d="M121.197 301.983C121.197 301.983 114.966 336.308 138.673 340.679C162.379 345.05 196.6 348.122 196.6 348.122L211.967 422.822L232.613 420.901C232.613 420.901 229.867 330.98 223.115 323.945C216.362 316.91 173.684 295.845 173.684 295.845L121.197 301.983Z" fill="#2F2E41"/>
<path d="M167.496 287.597L177.864 298.433C177.864 298.433 252.728 310.996 255.616 329.011C259.976 356.209 265.126 415.353 265.126 415.353L242.618 413.594L233.792 346.364L197.778 337.829L156.805 314.565L167.496 287.597Z" fill="#2F2E41"/>
<path d="M176.566 296.846C176.566 296.846 118.735 320.45 120.003 306.566C121.473 290.479 121.195 283.472 121.195 283.472V230.838C121.197 223.648 123.076 216.593 126.63 210.428C130.184 204.264 135.279 199.222 141.372 195.843L160.895 196.183L166.919 204.502C171.762 229.777 172.723 232.78 172.723 232.78L176.758 244.292L177.604 251.49L174.644 266.815L176.566 296.846Z" fill="#636466"/>
<path d="M224.057 234.667L223.943 234.63L225.842 228.265C226.449 226.231 226.135 224.32 225.14 223.998L218.547 221.863C217.552 221.541 216.254 222.929 215.647 224.963L205.229 259.881C204.622 261.916 204.936 263.827 205.931 264.149L212.524 266.284C213.519 266.606 214.817 265.218 215.424 263.183L222.591 239.161L222.705 239.197L224.057 234.667Z" fill="#6C63FF"/>
<path d="M225.018 235.668L224.904 235.631L226.803 229.266C227.41 227.232 227.096 225.321 226.101 224.999L219.508 222.864C218.513 222.542 217.215 223.93 216.608 225.964L206.19 260.882C205.583 262.917 205.897 264.827 206.892 265.15L213.485 267.285C214.48 267.607 215.778 266.219 216.385 264.184L223.552 240.162L223.666 240.198L225.018 235.668Z" fill="#3F3D56"/>
<path d="M220.727 235.154C221.099 233.908 220.907 232.737 220.297 232.54C219.688 232.343 218.893 233.193 218.521 234.439C218.149 235.686 218.342 236.856 218.951 237.053C219.56 237.25 220.356 236.4 220.727 235.154Z" fill="#D0CDE1"/>
<path d="M222.324 249.625C221.35 248.919 220.239 248.443 219.069 248.232C217.9 248.021 216.7 248.079 215.554 248.404C214.409 248.728 213.345 249.31 212.439 250.109C211.533 250.908 210.806 251.904 210.309 253.027L191.767 252.282L188.584 263.91L214.783 264.58C216.649 265.325 218.713 265.33 220.583 264.595C222.453 263.86 224 262.436 224.929 260.593C225.859 258.749 226.107 256.615 225.627 254.593C225.147 252.572 223.972 250.804 222.324 249.625H222.324Z" fill="#FFB6B6"/>
<path d="M207.428 266.035L186.136 268.817L147.685 273.843C147.685 273.843 132.436 262.391 121.195 251.77V230.839C121.194 225.983 122.051 221.167 123.722 216.634C143.553 217.765 158.897 243.792 158.897 243.792L183.485 246.294L201.221 248.096L207.428 266.035Z" fill="#636466"/>
<path d="M367.029 448H0.960809C0.705987 448 0.4616 447.895 0.281414 447.707C0.101227 447.519 0 447.265 0 446.999C0 446.734 0.101227 446.479 0.281414 446.291C0.4616 446.103 0.705987 445.998 0.960809 445.998H367.029C367.284 445.998 367.528 446.103 367.708 446.291C367.889 446.479 367.99 446.734 367.99 446.999C367.99 447.265 367.889 447.519 367.708 447.707C367.528 447.895 367.284 448 367.029 448Z" fill="#CACACA"/>
</g>
<defs>
<clipPath id="clip0_1142_4392">
<rect width="804" height="448" fill="white"/>
</clipPath>
</defs>
</svg>
