<svg width="533" height="515" viewBox="0 0 533 515" fill="none" xmlns="http://www.w3.org/2000/svg">
<path d="M499.729 468.902L468.547 39.0427C466.203 6.77331 429.832 -10.859 403.023 7.3031L46.3282 249.238C19.5536 267.401 22.481 307.746 51.5989 321.853L439.429 509.77C468.601 523.885 502.079 501.158 499.729 468.902Z" fill="#B3B3B3"/>
<path d="M310.053 230.832C286.518 230.058 266.855 212.018 263.533 188.143L255.193 128.271L286.559 123.897C288.922 123.618 298.818 122.715 307.702 129.589C311.234 132.305 314.209 136.014 316.763 141.529C321.762 152.329 342.926 208.302 319.779 226.329C316.913 228.535 313.59 230.074 310.053 230.832Z" fill="black"/>
<path d="M410.603 510.572H222.122L206.894 280.998C233.462 269.37 261.283 260.844 289.805 255.589C330.558 248.118 362.834 247.805 392.006 251.432C398.214 337.998 404.388 424.006 410.603 510.572Z" fill="black"/>
<path d="M308.314 228.577L300.842 208.072C308.198 207.773 314.08 201.381 314.08 193.516C314.08 185.454 307.92 178.927 300.313 178.927C297.052 178.935 293.909 180.144 291.483 182.323L277.416 143.669L219.745 162.232C217.072 163.09 214.594 164.468 212.454 166.284C210.313 168.101 208.552 170.322 207.27 172.82C205.988 175.318 205.211 178.044 204.984 180.842C204.756 183.64 205.082 186.456 205.943 189.128L221.565 237.672C223.944 245.031 229.145 251.147 236.027 254.677C242.91 258.206 250.911 258.862 258.276 256.499L266.665 252.75L273.674 267.734C273.976 268.396 274.499 268.932 275.155 269.248C287.333 275.103 300.924 273.67 309.292 265.852C315.072 260.466 318.271 255.616 319.195 252.444C319.397 251.702 319.318 250.911 318.971 250.223L308.314 228.577Z" fill="white"/>
<path d="M266.678 252.777L291.958 241.23C292.126 241.157 292.314 241.144 292.49 241.192C292.667 241.24 292.822 241.347 292.929 241.496C293.036 241.644 293.089 241.825 293.079 242.008C293.07 242.19 292.998 242.364 292.875 242.501L272.227 264.643L266.678 252.777Z" fill="black"/>
<path d="M299.158 199.547C298.181 199.548 297.226 199.26 296.413 198.718C295.6 198.176 294.966 197.406 294.591 196.504C294.216 195.601 294.118 194.608 294.307 193.65C294.497 192.692 294.967 191.811 295.657 191.12C296.347 190.429 297.227 189.958 298.185 189.767C299.143 189.576 300.137 189.673 301.039 190.047C301.942 190.42 302.714 191.053 303.256 191.865C303.799 192.677 304.089 193.632 304.089 194.609C304.089 195.918 303.57 197.173 302.645 198.098C301.721 199.024 300.466 199.545 299.158 199.547ZM299.158 192.395C298.718 192.394 298.288 192.523 297.921 192.767C297.555 193.01 297.269 193.357 297.101 193.763C296.932 194.169 296.887 194.616 296.973 195.048C297.058 195.479 297.27 195.876 297.581 196.187C297.892 196.498 298.288 196.709 298.72 196.795C299.151 196.88 299.598 196.836 300.004 196.667C300.41 196.498 300.757 196.212 301.001 195.846C301.244 195.479 301.374 195.049 301.372 194.609C301.372 194.022 301.139 193.459 300.724 193.044C300.308 192.628 299.745 192.395 299.158 192.395Z" fill="black"/>
<path d="M295.68 196.796C295.346 196.799 295.022 196.677 294.771 196.455C294.52 196.233 294.361 195.927 294.322 195.594C293.976 192.653 294.648 190.276 296.319 188.517C299.457 185.209 304.958 185.515 305.189 185.528C305.55 185.551 305.886 185.715 306.125 185.986C306.364 186.257 306.485 186.611 306.463 186.971C306.44 187.332 306.276 187.668 306.005 187.907C305.734 188.146 305.38 188.268 305.02 188.245C304.979 188.245 300.537 188.007 298.282 190.391C297.182 191.553 296.774 193.149 297.018 195.282C297.059 195.638 296.956 195.996 296.734 196.277C296.511 196.558 296.186 196.74 295.83 196.783L295.68 196.796Z" fill="black"/>
<path d="M245.629 234.839C243.875 234.86 242.141 234.465 240.569 233.685C240.274 233.497 240.062 233.202 239.979 232.861C239.895 232.521 239.947 232.162 240.122 231.858C240.297 231.555 240.583 231.331 240.919 231.233C241.256 231.136 241.617 231.172 241.928 231.334C242.24 231.504 249.229 235.287 256.381 225.188C256.48 225.033 256.61 224.9 256.762 224.796C256.914 224.693 257.085 224.621 257.266 224.586C257.446 224.551 257.632 224.553 257.811 224.591C257.991 224.63 258.161 224.705 258.311 224.811C258.461 224.917 258.588 225.053 258.684 225.21C258.78 225.366 258.843 225.541 258.87 225.723C258.896 225.905 258.886 226.09 258.839 226.268C258.792 226.446 258.709 226.612 258.595 226.757C253.956 233.311 249.12 234.839 245.629 234.839Z" fill="black"/>
<path d="M253.97 198.474C255.613 198.474 256.945 197.142 256.945 195.499C256.945 193.856 255.613 192.524 253.97 192.524C252.327 192.524 250.995 193.856 250.995 195.499C250.995 197.142 252.327 198.474 253.97 198.474Z" fill="black"/>
<path d="M219.147 211.073C220.79 211.073 222.122 209.741 222.122 208.098C222.122 206.455 220.79 205.123 219.147 205.123C217.504 205.123 216.172 206.455 216.172 208.098C216.172 209.741 217.504 211.073 219.147 211.073Z" fill="black"/>
<path d="M218.393 224.386C211.567 224.386 205.23 218.884 203.593 211.039C201.745 202.21 206.547 193.706 214.291 192.083C216.207 191.703 218.184 191.745 220.083 192.206C221.982 192.667 223.758 193.536 225.287 194.752C228.601 197.343 230.874 201.038 231.692 205.164C232.597 209.272 231.994 213.568 229.994 217.268C229.081 218.996 227.802 220.504 226.247 221.688C224.691 222.872 222.897 223.702 220.988 224.121C220.134 224.297 219.265 224.386 218.393 224.386ZM216.905 194.501C216.221 194.504 215.538 194.577 214.868 194.718C208.585 196.029 204.727 203.093 206.269 210.455C207.811 217.818 214.175 222.742 220.451 221.431C221.978 221.091 223.413 220.421 224.654 219.469C225.895 218.516 226.913 217.304 227.637 215.916C229.315 212.789 229.811 209.164 229.036 205.701C228.364 202.205 226.451 199.069 223.65 196.871C221.721 195.369 219.35 194.546 216.905 194.528V194.501Z" fill="black"/>
<path d="M231.522 205.701C231.2 205.699 230.889 205.582 230.645 205.372C230.401 205.161 230.24 204.871 230.19 204.553C230.14 204.234 230.205 203.909 230.373 203.634C230.541 203.359 230.802 203.153 231.108 203.052L243.374 199.099C243.709 199.016 244.062 199.063 244.363 199.231C244.664 199.398 244.89 199.674 244.996 200.002C245.101 200.33 245.078 200.686 244.93 200.998C244.783 201.309 244.523 201.553 244.203 201.68L231.943 205.64C231.806 205.68 231.665 205.701 231.522 205.701Z" fill="black"/>
<path d="M237.621 220.196C236.929 220.214 236.24 220.081 235.604 219.805C234.968 219.529 234.4 219.118 233.94 218.599C232.582 216.949 232.813 214.687 233.458 213.254C233.918 212.25 234.665 211.404 235.604 210.822L230.014 195.88C229.911 195.549 229.939 195.191 230.092 194.879C230.245 194.568 230.511 194.327 230.835 194.205C231.16 194.083 231.519 194.091 231.839 194.225C232.159 194.36 232.415 194.612 232.555 194.929L239.075 212.31L237.717 212.758C237.326 212.887 236.966 213.093 236.657 213.364C236.348 213.634 236.096 213.964 235.917 214.334C235.672 214.871 235.38 216.08 235.998 216.813C236.616 217.547 238.036 217.764 239.353 216.915C239.502 216.805 239.672 216.727 239.851 216.685C240.031 216.643 240.218 216.639 240.4 216.671C240.581 216.704 240.755 216.773 240.909 216.875C241.063 216.977 241.194 217.109 241.296 217.263C241.397 217.418 241.466 217.591 241.498 217.773C241.529 217.955 241.524 218.142 241.481 218.321C241.439 218.501 241.36 218.67 241.25 218.818C241.14 218.967 241.001 219.091 240.841 219.184C239.888 219.825 238.77 220.177 237.621 220.196Z" fill="black"/>
<path d="M248.104 166.96C265.295 163.365 277.073 150.131 274.412 137.401C271.75 124.671 255.656 117.266 238.465 120.86C221.273 124.455 209.495 137.688 212.157 150.418C214.818 163.149 230.912 170.554 248.104 166.96Z" fill="black"/>
<path d="M300.544 167.061L283.502 171.489C278.864 172.693 273.937 172.006 269.805 169.578C265.673 167.151 262.674 163.181 261.469 158.543L257.875 144.715L292.407 135.742L300.544 167.061Z" fill="black"/>
<path d="M204.856 184.408C217.7 184.408 228.112 173.996 228.112 161.152C228.112 148.308 217.7 137.895 204.856 137.895C192.012 137.895 181.6 148.308 181.6 161.152C181.6 173.996 192.012 184.408 204.856 184.408Z" fill="black"/>
<path d="M268.281 192.497C267.965 192.498 267.658 192.388 267.414 192.187C267.169 191.985 267.003 191.705 266.944 191.394C266.884 191.083 266.935 190.762 267.087 190.484C267.24 190.207 267.484 189.991 267.778 189.875L293.208 179.687C293.376 179.61 293.557 179.567 293.742 179.562C293.926 179.557 294.109 179.59 294.281 179.658C294.452 179.726 294.608 179.829 294.738 179.959C294.869 180.09 294.971 180.245 295.04 180.417C295.108 180.588 295.141 180.772 295.136 180.956C295.131 181.14 295.089 181.322 295.011 181.489C294.934 181.657 294.823 181.807 294.686 181.93C294.549 182.054 294.388 182.148 294.213 182.207L268.784 192.395C268.624 192.459 268.453 192.493 268.281 192.497Z" fill="black"/>
<path d="M172.254 408.969L166.311 488.341L168.396 507.814H221.938L215.567 411.74L172.254 408.969Z" fill="white"/>
<path d="M223.392 509.173H167.173L164.952 488.362L171.004 407.535L216.844 410.463L223.392 509.173ZM169.619 506.456H220.485L214.29 413.017L173.538 410.409L167.676 488.321L169.619 506.456Z" fill="black"/>
<path d="M206.894 281.005C204.614 281.928 202.421 283.05 200.34 284.361C184.786 294.169 179.664 312.208 175.725 329.807C171.541 348.519 165.381 391.567 163.221 424.998C180.092 426.071 199.789 427.151 216.661 428.231L206.894 281.005Z" fill="black"/>
<path d="M191.849 347.724H28.9675C28.6072 347.724 28.2617 347.581 28.0069 347.326C27.7522 347.071 27.609 346.726 27.609 346.366C27.609 346.005 27.7522 345.66 28.0069 345.405C28.2617 345.15 28.6072 345.007 28.9675 345.007H191.849C192.21 345.007 192.555 345.15 192.81 345.405C193.065 345.66 193.208 346.005 193.208 346.366C193.208 346.726 193.065 347.071 192.81 347.326C192.555 347.581 192.21 347.724 191.849 347.724Z" fill="black"/>
<path d="M111.729 346.977H44.1343C42.7724 346.975 41.4667 346.434 40.503 345.472C39.5394 344.509 38.9963 343.204 38.9927 341.842V332.231C38.9945 330.868 39.5368 329.562 40.5006 328.598C41.4645 327.634 42.7712 327.091 44.1343 327.09H111.729C113.093 327.091 114.399 327.634 115.363 328.598C116.327 329.562 116.869 330.868 116.871 332.231V341.849C116.866 343.21 116.322 344.513 115.358 345.474C114.395 346.435 113.09 346.975 111.729 346.977ZM44.1343 329.8C43.8159 329.8 43.5006 329.862 43.2064 329.984C42.9122 330.106 42.6449 330.285 42.4197 330.51C42.1946 330.735 42.016 331.002 41.8941 331.297C41.7723 331.591 41.7095 331.906 41.7095 332.225V341.842C41.7113 342.484 41.9676 343.099 42.4221 343.552C42.8767 344.006 43.4924 344.26 44.1343 344.26H111.729C112.371 344.26 112.987 344.006 113.442 343.552C113.896 343.099 114.152 342.484 114.154 341.842V332.231C114.154 331.588 113.899 330.971 113.444 330.517C112.989 330.062 112.373 329.807 111.729 329.807L44.1343 329.8Z" fill="black"/>
<path d="M111.723 310.184H44.1343C42.0449 310.184 40.3511 311.878 40.3511 313.968V323.578C40.3511 325.668 42.0449 327.362 44.1343 327.362H111.723C113.812 327.362 115.506 325.668 115.506 323.578V313.968C115.506 311.878 113.812 310.184 111.723 310.184Z" fill="#636466"/>
<path d="M129.477 346.637H119.853C118.492 346.636 117.187 346.094 116.224 345.132C115.261 344.169 114.72 342.864 114.718 341.503V285.529C114.72 284.168 115.261 282.862 116.224 281.9C117.187 280.937 118.492 280.396 119.853 280.394H129.477C130.839 280.396 132.144 280.937 133.106 281.9C134.069 282.862 134.61 284.168 134.612 285.529V341.503C134.61 342.864 134.069 344.169 133.106 345.132C132.144 346.094 130.839 346.636 129.477 346.637ZM119.853 283.131C119.212 283.133 118.598 283.388 118.145 283.841C117.692 284.294 117.437 284.908 117.435 285.549V341.523C117.437 342.164 117.692 342.778 118.145 343.231C118.598 343.684 119.212 343.939 119.853 343.941H129.477C130.118 343.939 130.732 343.684 131.185 343.231C131.638 342.778 131.894 342.164 131.895 341.523V285.529C131.894 284.888 131.638 284.274 131.185 283.821C130.732 283.368 130.118 283.113 129.477 283.111L119.853 283.131Z" fill="black"/>
<path d="M147.857 281.752H138.246C136.156 281.752 134.463 283.446 134.463 285.536V341.503C134.463 343.592 136.156 345.286 138.246 345.286H147.857C149.946 345.286 151.64 343.592 151.64 341.503V285.536C151.64 283.446 149.946 281.752 147.857 281.752Z" fill="#C20004"/>
<path d="M290.315 289.59C281.301 289.504 272.497 286.861 264.926 281.97C264.639 281.767 264.443 281.461 264.377 281.116C264.311 280.771 264.381 280.415 264.573 280.12C264.764 279.826 265.062 279.618 265.404 279.538C265.746 279.459 266.105 279.515 266.406 279.694C270.624 282.411 282.028 288.606 296.448 286.412C316.329 283.396 326.177 267.251 327.95 264.045C328.032 263.882 328.146 263.736 328.285 263.618C328.425 263.5 328.587 263.411 328.761 263.356C328.936 263.302 329.12 263.284 329.302 263.302C329.484 263.321 329.66 263.376 329.82 263.464C329.981 263.552 330.121 263.672 330.234 263.816C330.347 263.96 330.429 264.126 330.477 264.302C330.524 264.479 330.535 264.663 330.509 264.844C330.484 265.026 330.422 265.2 330.327 265.356C328.446 268.752 317.993 285.889 296.856 289.095C294.691 289.426 292.504 289.592 290.315 289.59Z" fill="white"/>
<path d="M240.973 297.662L209.846 305.857C205.74 306.938 203.287 311.143 204.368 315.25L221.058 378.64C222.139 382.747 226.344 385.199 230.451 384.118L261.578 375.923C265.684 374.842 268.137 370.637 267.055 366.53L250.366 303.14C249.285 299.033 245.08 296.581 240.973 297.662Z" fill="#C20004"/>
<path d="M240.358 308.726L239.842 308.842C238.169 309.217 236.998 310.345 237.226 311.362L239.073 319.602C239.301 320.618 240.842 321.138 242.515 320.763L243.032 320.647C244.705 320.272 245.876 319.144 245.648 318.127L243.8 309.887C243.572 308.871 242.031 308.351 240.358 308.726Z" fill="white"/>
<path d="M256.205 210.224C249.413 210.224 243.171 204.94 241.588 197.38C239.815 188.829 244.658 180.57 252.415 178.94C260.171 177.31 267.921 182.954 269.708 191.505C271.494 200.057 266.644 208.329 258.894 209.946C258.01 210.133 257.109 210.227 256.205 210.224ZM255.084 181.378C254.37 181.376 253.657 181.449 252.958 181.596C246.675 182.913 242.77 189.746 244.251 196.823C245.731 203.901 252.041 208.601 258.324 207.29C264.607 205.979 268.512 199.14 267.031 192.062C265.714 185.779 260.62 181.378 255.098 181.378H255.084Z" fill="black"/>
<path d="M419.433 100.525H363.208C355.03 100.525 348.401 107.154 348.401 115.331V168.147C348.401 176.325 355.03 182.954 363.208 182.954H419.433C427.61 182.954 434.24 176.325 434.24 168.147V115.331C434.24 107.154 427.61 100.525 419.433 100.525Z" fill="white"/>
<path d="M410.787 124.868H371.847C368.576 124.868 365.925 127.52 365.925 130.791V163.78C365.925 167.051 368.576 169.703 371.847 169.703H410.787C414.058 169.703 416.709 167.051 416.709 163.78V130.791C416.709 127.52 414.058 124.868 410.787 124.868Z" fill="#B3B3B3"/>
<path d="M416.709 140.891H365.924C365.564 140.891 365.219 140.748 364.964 140.493C364.709 140.238 364.566 139.893 364.566 139.532C364.566 139.172 364.709 138.827 364.964 138.572C365.219 138.317 365.564 138.174 365.924 138.174H416.709C417.069 138.174 417.415 138.317 417.67 138.572C417.924 138.827 418.068 139.172 418.068 139.532C418.068 139.893 417.924 140.238 417.67 140.493C417.415 140.748 417.069 140.891 416.709 140.891Z" fill="#2A2E32"/>
<path d="M393.405 126.233H391.3C378.789 126.233 375.203 121.88 374.394 118.225C374.244 117.556 374.24 116.862 374.383 116.191C374.526 115.52 374.812 114.888 375.223 114.338C375.633 113.788 376.158 113.334 376.76 113.006C377.363 112.678 378.03 112.485 378.714 112.439C386.797 111.888 392.298 123.809 392.536 124.318L393.405 126.233ZM379.237 115.142H378.897C378.607 115.164 378.324 115.248 378.069 115.389C377.813 115.529 377.591 115.723 377.417 115.957C377.237 116.193 377.111 116.465 377.048 116.755C376.985 117.045 376.985 117.345 377.05 117.634C377.804 121.071 382.029 123.102 389.031 123.455C387.096 120.066 383.36 115.135 379.257 115.135L379.237 115.142Z" fill="#2A2E32"/>
<path d="M391.144 126.233H389.038L389.908 124.318C390.138 123.809 395.647 111.888 403.73 112.439C404.414 112.485 405.08 112.678 405.683 113.006C406.286 113.334 406.81 113.788 407.221 114.338C407.631 114.888 407.918 115.52 408.061 116.191C408.204 116.862 408.2 117.556 408.049 118.225C407.241 121.873 403.655 126.233 391.144 126.233ZM403.206 115.142C399.131 115.142 395.368 120.073 393.412 123.462C400.415 123.109 404.64 121.078 405.394 117.641C405.458 117.352 405.459 117.052 405.396 116.762C405.332 116.472 405.206 116.2 405.027 115.964C404.853 115.73 404.63 115.536 404.375 115.395C404.119 115.255 403.837 115.171 403.546 115.149L403.206 115.142Z" fill="#2A2E32"/>
<path d="M404.85 150.087C404.612 150.087 404.378 150.024 404.172 149.904C403.965 149.785 403.794 149.614 403.675 149.408L391.021 127.591L378.965 148.606C378.876 148.761 378.757 148.897 378.616 149.005C378.474 149.114 378.312 149.194 378.14 149.24C377.967 149.287 377.787 149.299 377.61 149.276C377.433 149.252 377.262 149.195 377.108 149.105C376.953 149.016 376.817 148.897 376.708 148.756C376.6 148.614 376.52 148.452 376.473 148.28C376.427 148.107 376.415 147.928 376.438 147.75C376.461 147.573 376.519 147.402 376.608 147.248L391.008 122.117L406.025 148.008C406.205 148.32 406.254 148.69 406.161 149.038C406.068 149.386 405.841 149.682 405.529 149.863C405.328 149.999 405.093 150.077 404.85 150.087Z" fill="#2A2E32"/>
<path d="M391.538 171.061C391.177 171.061 390.832 170.918 390.577 170.663C390.322 170.408 390.179 170.063 390.179 169.703V126.301C390.179 125.941 390.322 125.595 390.577 125.34C390.832 125.086 391.177 124.943 391.538 124.943C391.898 124.943 392.243 125.086 392.498 125.34C392.753 125.595 392.896 125.941 392.896 126.301V169.703C392.896 170.063 392.753 170.408 392.498 170.663C392.243 170.918 391.898 171.061 391.538 171.061Z" fill="#2A2E32"/>
<path d="M382.164 382.024L215.302 401.348L213.319 377.766L377.308 358.395L382.164 382.024Z" fill="#2A2E32"/>
<path d="M394.058 433.869L217.041 453.885L215.337 428.388L388.481 408.188L394.058 433.869Z" fill="#2A2E32"/>
<path d="M272.451 352.343C272.451 352.343 250.214 354.312 238.613 334.391C237.524 332.511 236.041 330.889 234.266 329.637C231.216 327.49 226.652 326.146 221.938 331.532C221.938 331.532 214.277 321.391 208.619 327.185C208.619 327.185 204.584 332.299 209.977 340.918C209.977 340.918 201.358 344.498 209.896 359.57C211.207 361.886 212.484 364.222 213.618 366.627C218.209 376.312 234.538 403.813 273.457 407.807C275.994 408.079 278.4 409.071 280.391 410.667L372.655 483.92C381.155 490.731 391.083 495.534 401.699 497.973C416.886 501.369 444.224 499.589 458.372 479.865C466.679 468.119 470.267 453.679 468.424 439.411L464.139 404.567L387.292 417.16L309.72 368.522C307.13 366.89 305.021 364.6 303.607 361.886C299.104 353.294 287.761 333.359 275.175 324.685C274.74 324.386 274.312 324.094 273.891 323.782C271.174 321.744 267.778 320.06 264.348 320.005C258.915 319.924 254.31 324.943 257.665 330.037C259.139 332.279 261.509 334.113 263.703 335.621C265.978 337.168 267.913 339.164 269.389 341.486C270.865 343.808 271.852 346.407 272.288 349.123C272.45 350.188 272.505 351.267 272.451 352.343Z" fill="white"/>
<path d="M248.326 366.498C248.118 366.497 247.914 366.448 247.728 366.355C244.114 364.594 240.727 362.4 237.642 359.821C227.189 351.053 222.618 339.771 220.621 331.851C220.531 331.502 220.583 331.131 220.767 330.82C220.95 330.509 221.249 330.284 221.599 330.194C221.948 330.104 222.319 330.156 222.63 330.34C222.941 330.523 223.166 330.823 223.256 331.172C225.151 338.704 229.491 349.422 239.387 357.729C242.295 360.166 245.488 362.239 248.896 363.903C249.174 364.037 249.397 364.262 249.53 364.54C249.663 364.818 249.697 365.132 249.628 365.432C249.558 365.732 249.389 366 249.147 366.191C248.906 366.382 248.607 366.485 248.299 366.484L248.326 366.498Z" fill="black"/>
<path d="M239.605 377.977C239.395 377.98 239.187 377.931 239 377.834C237.177 377.014 235.48 375.94 233.961 374.642C233.438 374.221 232.779 373.698 231.923 373.005C221.735 365.119 213.734 354.191 208.735 341.401C208.66 341.233 208.621 341.053 208.618 340.869C208.616 340.686 208.65 340.504 208.72 340.334C208.79 340.165 208.893 340.011 209.024 339.882C209.154 339.754 209.31 339.653 209.48 339.586C209.651 339.519 209.833 339.487 210.017 339.493C210.2 339.498 210.38 339.541 210.547 339.617C210.713 339.694 210.862 339.804 210.985 339.94C211.108 340.076 211.202 340.236 211.261 340.409C216.091 352.744 223.806 363.272 233.587 370.858C234.49 371.538 235.156 372.095 235.686 372.523C237.056 373.703 238.591 374.675 240.243 375.409C240.514 375.548 240.73 375.773 240.858 376.05C240.985 376.326 241.016 376.637 240.945 376.933C240.875 377.229 240.707 377.492 240.469 377.682C240.231 377.871 239.936 377.975 239.632 377.977H239.605Z" fill="black"/>
<path d="M279.257 510.545H165.055V485.896H279.257C280.775 485.898 282.231 486.502 283.304 487.575C284.377 488.649 284.981 490.104 284.983 491.622V504.826C284.981 506.343 284.377 507.798 283.304 508.87C282.23 509.942 280.775 510.545 279.257 510.545Z" fill="black"/>
<path d="M177.919 510.545H44.3245C41.8353 510.57 39.4047 509.79 37.3949 508.322C35.3851 506.853 33.9038 504.774 33.1718 502.395L0.454174 391.479C-1.66497 384.293 3.89778 377.134 11.6068 377.134H137.614C140.213 377.11 142.743 377.964 144.797 379.556C146.85 381.149 148.306 383.387 148.93 385.91L177.919 510.545Z" fill="black"/>
<path d="M479.237 403.63L388.97 418.736L355.825 249.408L379.352 249.741C393.949 249.866 408.122 254.665 419.793 263.434C425.875 268.028 431.048 273.715 435.048 280.204C437.92 284.918 440.134 290.002 441.629 295.316L479.237 403.63Z" fill="black"/>
<path d="M518.543 208.099H419.195C412.473 208.099 407.024 213.548 407.024 220.27V283.824C407.024 290.546 412.473 295.995 419.195 295.995H518.543C525.266 295.995 530.715 290.546 530.715 283.824V220.27C530.715 213.548 525.266 208.099 518.543 208.099Z" fill="white"/>
<path d="M518.543 297.354H419.216C415.626 297.345 412.185 295.915 409.646 293.378C407.107 290.84 405.676 287.4 405.665 283.81V220.277C405.678 216.688 407.11 213.25 409.649 210.714C412.188 208.178 415.627 206.749 419.216 206.74H518.543C522.13 206.753 525.566 208.183 528.101 210.719C530.637 213.255 532.068 216.691 532.08 220.277V283.81C532.069 287.398 530.64 290.835 528.104 293.373C525.568 295.91 522.131 297.341 518.543 297.354ZM419.216 209.457C416.351 209.471 413.608 210.616 411.583 212.642C409.558 214.668 408.415 217.412 408.402 220.277V283.81C408.402 286.679 409.541 289.431 411.569 291.461C413.596 293.491 416.346 294.633 419.216 294.637H518.543C521.414 294.635 524.166 293.494 526.195 291.463C528.224 289.433 529.363 286.681 529.363 283.81V220.277C529.351 217.411 528.207 214.666 526.18 212.64C524.154 210.613 521.409 209.469 518.543 209.457H419.216Z" fill="black"/>
<path d="M514.346 238.493H477.485C477.125 238.493 476.779 238.35 476.525 238.095C476.27 237.841 476.127 237.495 476.127 237.135C476.127 236.775 476.27 236.429 476.525 236.174C476.779 235.919 477.125 235.776 477.485 235.776H514.346C514.706 235.776 515.052 235.919 515.307 236.174C515.561 236.429 515.704 236.775 515.704 237.135C515.704 237.495 515.561 237.841 515.307 238.095C515.052 238.35 514.706 238.493 514.346 238.493Z" fill="black"/>
<path d="M514.346 253.409H477.485C477.125 253.409 476.779 253.266 476.525 253.011C476.27 252.756 476.127 252.411 476.127 252.05C476.127 251.69 476.27 251.345 476.525 251.09C476.779 250.835 477.125 250.692 477.485 250.692H514.346C514.706 250.692 515.052 250.835 515.307 251.09C515.561 251.345 515.704 251.69 515.704 252.05C515.704 252.411 515.561 252.756 515.307 253.011C515.052 253.266 514.706 253.409 514.346 253.409Z" fill="black"/>
<path d="M501.482 268.317H477.485C477.125 268.317 476.779 268.174 476.525 267.919C476.27 267.665 476.127 267.319 476.127 266.959C476.127 266.598 476.27 266.253 476.525 265.998C476.779 265.743 477.125 265.6 477.485 265.6H501.482C501.842 265.6 502.188 265.743 502.442 265.998C502.697 266.253 502.84 266.598 502.84 266.959C502.84 267.319 502.697 267.665 502.442 267.919C502.188 268.174 501.842 268.317 501.482 268.317Z" fill="black"/>
<path d="M435.517 231.341C435.592 232.962 436.289 234.492 437.463 235.612C438.636 236.733 440.197 237.358 441.82 237.358C443.442 237.358 445.003 236.733 446.177 235.612C447.35 234.492 448.047 232.962 448.123 231.341C448.123 231.341 461.082 229.215 461.259 247.812H454.867V272.834H428.215V247.812H420.818C420.818 247.812 421.172 229.955 435.517 231.341Z" fill="#2A2E32"/>
<path d="M408.681 429.943C408.443 429.949 408.209 429.89 408.002 429.773L387.795 418.62C387.495 418.439 387.276 418.148 387.186 417.809C387.095 417.47 387.139 417.109 387.308 416.802C387.478 416.494 387.76 416.265 388.095 416.16C388.43 416.056 388.792 416.086 389.106 416.243L409.313 427.396C409.578 427.542 409.786 427.774 409.905 428.052C410.024 428.331 410.046 428.642 409.968 428.935C409.89 429.227 409.716 429.486 409.474 429.668C409.232 429.851 408.936 429.948 408.633 429.943H408.681Z" fill="black"/>
<path d="M191.849 255.691H28.9675C28.6072 255.691 28.2617 255.548 28.0069 255.293C27.7522 255.038 27.609 254.693 27.609 254.332C27.609 253.972 27.7522 253.627 28.0069 253.372C28.2617 253.117 28.6072 252.974 28.9675 252.974H191.849C192.21 252.974 192.555 253.117 192.81 253.372C193.065 253.627 193.208 253.972 193.208 254.332C193.208 254.693 193.065 255.038 192.81 255.293C192.555 255.548 192.21 255.691 191.849 255.691Z" fill="black"/>
<path d="M141.771 252.369C155.099 252.369 165.903 241.565 165.903 228.237C165.903 214.909 155.099 204.104 141.771 204.104C128.443 204.104 117.639 214.909 117.639 228.237C117.639 241.565 128.443 252.369 141.771 252.369Z" fill="white"/>
<path d="M92.5689 254.652H57.8748C54.6676 254.648 51.5929 253.373 49.325 251.105C47.0572 248.837 45.7816 245.762 45.778 242.555V192.681C45.778 189.471 47.0521 186.393 49.3202 184.122C51.5884 181.851 54.6653 180.574 57.8748 180.57H92.5893C95.7965 180.574 98.8712 181.849 101.139 184.117C103.407 186.385 104.682 189.46 104.686 192.667V242.542C104.686 244.132 104.373 245.708 103.764 247.178C103.155 248.647 102.262 249.983 101.137 251.107C100.011 252.232 98.6755 253.124 97.2054 253.732C95.7354 254.34 94.1598 254.653 92.5689 254.652ZM57.8748 183.287C55.3882 183.291 53.0044 184.28 51.2461 186.038C49.4878 187.797 48.4985 190.18 48.4949 192.667V242.542C48.494 243.774 48.7359 244.995 49.2068 246.134C49.6777 247.273 50.3684 248.309 51.2394 249.181C52.1104 250.053 53.1447 250.745 54.2832 251.218C55.4217 251.69 56.6421 251.934 57.8748 251.935H92.5893C95.0759 251.931 97.4596 250.942 99.2179 249.184C100.976 247.425 101.966 245.042 101.969 242.555V192.681C101.969 191.446 101.726 190.224 101.254 189.084C100.781 187.944 100.089 186.908 99.2155 186.036C98.3425 185.164 97.3062 184.472 96.1657 184C95.0253 183.529 93.8031 183.286 92.5689 183.287H57.8748Z" fill="black"/>
<path d="M102.587 236.734H47.116C46.7557 236.734 46.4102 236.591 46.1554 236.336C45.9007 236.081 45.7575 235.736 45.7575 235.376C45.7575 235.015 45.9007 234.67 46.1554 234.415C46.4102 234.16 46.7557 234.017 47.116 234.017H102.587C102.947 234.017 103.293 234.16 103.548 234.415C103.802 234.67 103.946 235.015 103.946 235.376C103.946 235.736 103.802 236.081 103.548 236.336C103.293 236.591 102.947 236.734 102.587 236.734Z" fill="black"/>
<path d="M69.4213 248.165C71.2406 248.165 72.7155 246.69 72.7155 244.871C72.7155 243.052 71.2406 241.577 69.4213 241.577C67.602 241.577 66.1271 243.052 66.1271 244.871C66.1271 246.69 67.602 248.165 69.4213 248.165Z" fill="white"/>
<path d="M80.9815 248.165C82.8009 248.165 84.2757 246.69 84.2757 244.871C84.2757 243.052 82.8009 241.577 80.9815 241.577C79.1622 241.577 77.6873 243.052 77.6873 244.871C77.6873 246.69 79.1622 248.165 80.9815 248.165Z" fill="white"/>
<path d="M136.711 210.415C136.401 210.414 136.1 210.307 135.859 210.112C135.618 209.917 135.451 209.645 135.386 209.342C131.854 193.04 135.841 181.888 139.808 175.381C144.141 168.31 149.317 165.152 149.514 165.023C149.823 164.837 150.193 164.782 150.543 164.869C150.892 164.957 151.193 165.179 151.378 165.488C151.564 165.797 151.619 166.167 151.532 166.517C151.445 166.866 151.222 167.167 150.913 167.353C150.098 167.849 131.691 179.429 138.008 208.744C138.083 209.095 138.015 209.461 137.821 209.763C137.626 210.065 137.32 210.277 136.969 210.354C136.885 210.382 136.799 210.402 136.711 210.415Z" fill="black"/>
<path d="M167.228 166.986L161.38 165.716C161.332 165.397 161.271 165.037 161.197 164.758L166.304 161.892C167.268 161.243 167.952 160.256 168.221 159.126C168.489 157.996 168.323 156.806 167.755 155.793C167.187 154.78 166.258 154.017 165.154 153.658C164.05 153.298 162.85 153.366 161.794 153.85L156.422 156.866C156.333 156.913 156.265 156.975 156.184 157.029C155.926 156.839 155.661 156.655 155.389 156.486L156.571 151.018C156.83 149.82 156.602 148.568 155.937 147.539C155.273 146.509 154.227 145.785 153.029 145.526C151.831 145.268 150.58 145.496 149.55 146.16C148.52 146.824 147.796 147.871 147.538 149.069L146.356 154.502C145.899 154.563 145.445 154.649 144.997 154.76C144.9 154.578 144.793 154.402 144.678 154.231L140.97 149.327C140.232 148.349 139.136 147.703 137.923 147.533C136.709 147.363 135.478 147.682 134.5 148.42C133.522 149.158 132.877 150.254 132.707 151.467C132.537 152.68 132.856 153.911 133.593 154.889L137.302 159.814C137.302 159.854 137.37 159.882 137.404 159.922C137.275 160.099 137.166 160.282 137.044 160.459L131.386 159.236C130.188 158.978 128.937 159.206 127.907 159.869C126.876 160.533 126.151 161.578 125.891 162.775C125.762 163.368 125.752 163.981 125.86 164.578C125.968 165.176 126.193 165.746 126.521 166.256C126.85 166.766 127.276 167.207 127.775 167.552C128.274 167.898 128.836 168.142 129.43 168.27L135.04 169.486C135.04 169.622 135.074 169.757 135.094 169.893H135.047L129.668 172.909C128.646 173.533 127.906 174.529 127.603 175.687C127.3 176.845 127.458 178.076 128.044 179.12C128.63 180.164 129.598 180.94 130.744 181.286C131.891 181.631 133.126 181.518 134.191 180.971L139.57 177.955C139.611 177.955 139.638 177.901 139.679 177.881C140.111 178.241 140.564 178.575 141.038 178.879L139.862 184.313C139.718 184.913 139.694 185.535 139.794 186.144C139.893 186.753 140.114 187.336 140.442 187.858C140.77 188.381 141.199 188.832 141.704 189.186C142.21 189.54 142.781 189.79 143.384 189.92C143.987 190.05 144.61 190.058 145.216 189.944C145.822 189.829 146.4 189.595 146.914 189.254C147.428 188.913 147.869 188.473 148.211 187.959C148.552 187.445 148.788 186.868 148.903 186.262L150.071 180.829C150.411 180.781 150.75 180.72 151.083 180.645L154.676 185.4C155.021 185.929 155.47 186.381 155.997 186.73C156.523 187.079 157.115 187.316 157.737 187.427C158.358 187.538 158.996 187.521 159.611 187.377C160.225 187.232 160.804 186.963 161.311 186.586C161.817 186.21 162.242 185.733 162.557 185.186C162.873 184.639 163.073 184.034 163.146 183.406C163.219 182.779 163.162 182.144 162.98 181.539C162.798 180.935 162.493 180.374 162.086 179.891L158.894 175.646C159.098 175.368 159.295 175.082 159.478 174.784L165.272 176.04C165.865 176.169 166.478 176.18 167.075 176.071C167.672 175.963 168.242 175.738 168.753 175.41C169.263 175.081 169.704 174.655 170.049 174.156C170.395 173.657 170.639 173.095 170.767 172.501C170.898 171.907 170.911 171.292 170.805 170.692C170.698 170.093 170.474 169.52 170.145 169.008C169.816 168.495 169.389 168.052 168.888 167.706C168.388 167.359 167.823 167.114 167.228 166.986Z" fill="#C20004"/>
<path d="M167.228 166.986L161.38 165.716C161.332 165.397 161.271 165.037 161.197 164.758L166.304 161.892C167.268 161.243 167.952 160.256 168.221 159.126C168.489 157.996 168.323 156.806 167.755 155.793C167.187 154.78 166.258 154.017 165.154 153.658C164.05 153.298 162.85 153.366 161.794 153.85L156.422 156.866C156.333 156.913 156.265 156.975 156.184 157.029C155.926 156.839 155.661 156.655 155.389 156.486L156.571 151.018C156.83 149.82 156.602 148.568 155.937 147.539C155.273 146.509 154.227 145.785 153.029 145.526C151.831 145.268 150.58 145.496 149.55 146.16C148.52 146.824 147.796 147.871 147.538 149.069L146.356 154.502C145.899 154.563 145.445 154.649 144.997 154.76C144.9 154.578 144.793 154.402 144.678 154.231L140.97 149.327C140.232 148.349 139.136 147.703 137.923 147.533C136.709 147.363 135.478 147.682 134.5 148.42C133.522 149.158 132.877 150.254 132.707 151.467C132.537 152.68 132.856 153.911 133.593 154.889L137.302 159.814C137.302 159.854 137.37 159.882 137.404 159.922C137.275 160.099 137.166 160.282 137.044 160.459L131.386 159.236C130.188 158.978 128.937 159.206 127.907 159.869C126.876 160.533 126.151 161.578 125.891 162.775C125.762 163.368 125.752 163.981 125.86 164.578C125.968 165.176 126.193 165.746 126.521 166.256C126.85 166.766 127.276 167.207 127.775 167.552C128.274 167.898 128.836 168.142 129.43 168.27L135.04 169.486C135.04 169.622 135.074 169.757 135.094 169.893H135.047L129.668 172.909C128.646 173.533 127.906 174.529 127.603 175.687C127.3 176.845 127.458 178.076 128.044 179.12C128.63 180.164 129.598 180.94 130.744 181.286C131.891 181.631 133.126 181.518 134.191 180.971L139.57 177.955C139.611 177.955 139.638 177.901 139.679 177.881C140.111 178.241 140.564 178.575 141.038 178.879L139.862 184.313C139.718 184.913 139.694 185.535 139.794 186.144C139.893 186.753 140.114 187.336 140.442 187.858C140.77 188.381 141.199 188.832 141.704 189.186C142.21 189.54 142.781 189.79 143.384 189.92C143.987 190.05 144.61 190.058 145.216 189.944C145.822 189.829 146.4 189.595 146.914 189.254C147.428 188.913 147.869 188.473 148.211 187.959C148.552 187.445 148.788 186.868 148.903 186.262L150.071 180.829C150.411 180.781 150.75 180.72 151.083 180.645L154.676 185.4C155.021 185.929 155.47 186.381 155.997 186.73C156.523 187.079 157.115 187.316 157.737 187.427C158.358 187.538 158.996 187.521 159.611 187.377C160.225 187.232 160.804 186.963 161.311 186.586C161.817 186.21 162.242 185.733 162.557 185.186C162.873 184.639 163.073 184.034 163.146 183.406C163.219 182.779 163.162 182.144 162.98 181.539C162.798 180.935 162.493 180.374 162.086 179.891L158.894 175.646C159.098 175.368 159.295 175.082 159.478 174.784L165.272 176.04C165.865 176.169 166.478 176.18 167.075 176.071C167.672 175.963 168.242 175.738 168.753 175.41C169.263 175.081 169.704 174.655 170.049 174.156C170.395 173.657 170.639 173.095 170.767 172.501C170.898 171.907 170.911 171.292 170.805 170.692C170.698 170.093 170.474 169.52 170.145 169.008C169.816 168.495 169.389 168.052 168.888 167.706C168.388 167.359 167.823 167.114 167.228 166.986Z" fill="#C20004"/>
<path d="M167.228 166.986L161.38 165.716C161.332 165.397 161.271 165.037 161.197 164.758L166.304 161.892C167.268 161.243 167.952 160.256 168.221 159.126C168.489 157.996 168.323 156.806 167.755 155.793C167.187 154.78 166.258 154.017 165.154 153.658C164.05 153.298 162.85 153.366 161.794 153.85L156.422 156.866C156.333 156.913 156.265 156.975 156.184 157.029C155.926 156.839 155.661 156.655 155.389 156.486L156.571 151.018C156.83 149.82 156.602 148.568 155.937 147.539C155.273 146.509 154.227 145.785 153.029 145.526C151.831 145.268 150.58 145.496 149.55 146.16C148.52 146.824 147.796 147.871 147.538 149.069L146.356 154.502C145.899 154.563 145.445 154.649 144.997 154.76C144.9 154.578 144.793 154.402 144.678 154.231L140.97 149.327C140.232 148.349 139.136 147.703 137.923 147.533C136.709 147.363 135.478 147.682 134.5 148.42C133.522 149.158 132.877 150.254 132.707 151.467C132.537 152.68 132.856 153.911 133.593 154.889L137.302 159.814C137.302 159.854 137.37 159.882 137.404 159.922C137.275 160.099 137.166 160.282 137.044 160.459L131.386 159.236C130.188 158.978 128.937 159.206 127.907 159.869C126.876 160.533 126.151 161.578 125.891 162.775C125.762 163.368 125.752 163.981 125.86 164.578C125.968 165.176 126.193 165.746 126.521 166.256C126.85 166.766 127.276 167.207 127.775 167.552C128.274 167.898 128.836 168.142 129.43 168.27L135.04 169.486C135.04 169.622 135.074 169.757 135.094 169.893H135.047L129.668 172.909C128.646 173.533 127.906 174.529 127.603 175.687C127.3 176.845 127.458 178.076 128.044 179.12C128.63 180.164 129.598 180.94 130.744 181.286C131.891 181.631 133.126 181.518 134.191 180.971L139.57 177.955C139.611 177.955 139.638 177.901 139.679 177.881C140.111 178.241 140.564 178.575 141.038 178.879L139.862 184.313C139.718 184.913 139.694 185.535 139.794 186.144C139.893 186.753 140.114 187.336 140.442 187.858C140.77 188.381 141.199 188.832 141.704 189.186C142.21 189.54 142.781 189.79 143.384 189.92C143.987 190.05 144.61 190.058 145.216 189.944C145.822 189.829 146.4 189.595 146.914 189.254C147.428 188.913 147.869 188.473 148.211 187.959C148.552 187.445 148.788 186.868 148.903 186.262L150.071 180.829C150.411 180.781 150.75 180.72 151.083 180.645L154.676 185.4C155.021 185.929 155.47 186.381 155.997 186.73C156.523 187.079 157.115 187.316 157.737 187.427C158.358 187.538 158.996 187.521 159.611 187.377C160.225 187.232 160.804 186.963 161.311 186.586C161.817 186.21 162.242 185.733 162.557 185.186C162.873 184.639 163.073 184.034 163.146 183.406C163.219 182.779 163.162 182.144 162.98 181.539C162.798 180.935 162.493 180.374 162.086 179.891L158.894 175.646C159.098 175.368 159.295 175.082 159.478 174.784L165.272 176.04C165.865 176.169 166.478 176.18 167.075 176.071C167.672 175.963 168.242 175.738 168.753 175.41C169.263 175.081 169.704 174.655 170.049 174.156C170.395 173.657 170.639 173.095 170.767 172.501C170.898 171.907 170.911 171.292 170.805 170.692C170.698 170.093 170.474 169.52 170.145 169.008C169.816 168.495 169.389 168.052 168.888 167.706C168.388 167.359 167.823 167.114 167.228 166.986Z" fill="#C20004"/>
<path d="M167.228 166.986L161.38 165.716C161.332 165.397 161.271 165.037 161.197 164.758L166.304 161.892C167.268 161.243 167.952 160.256 168.221 159.126C168.489 157.996 168.323 156.806 167.755 155.793C167.187 154.78 166.258 154.017 165.154 153.658C164.05 153.298 162.85 153.366 161.794 153.85L156.422 156.866C156.333 156.913 156.265 156.975 156.184 157.029C155.926 156.839 155.661 156.655 155.389 156.486L156.571 151.018C156.83 149.82 156.602 148.568 155.937 147.539C155.273 146.509 154.227 145.785 153.029 145.526C151.831 145.268 150.58 145.496 149.55 146.16C148.52 146.824 147.796 147.871 147.538 149.069L146.356 154.502C145.899 154.563 145.445 154.649 144.997 154.76C144.9 154.578 144.793 154.402 144.678 154.231L140.97 149.327C140.232 148.349 139.136 147.703 137.923 147.533C136.709 147.363 135.478 147.682 134.5 148.42C133.522 149.158 132.877 150.254 132.707 151.467C132.537 152.68 132.856 153.911 133.593 154.889L137.302 159.814C137.302 159.854 137.37 159.882 137.404 159.922C137.275 160.099 137.166 160.282 137.044 160.459L131.386 159.236C130.188 158.978 128.937 159.206 127.907 159.869C126.876 160.533 126.151 161.578 125.891 162.775C125.762 163.368 125.752 163.981 125.86 164.578C125.968 165.176 126.193 165.746 126.521 166.256C126.85 166.766 127.276 167.207 127.775 167.552C128.274 167.898 128.836 168.142 129.43 168.27L135.04 169.486C135.04 169.622 135.074 169.757 135.094 169.893H135.047L129.668 172.909C128.646 173.533 127.906 174.529 127.603 175.687C127.3 176.845 127.458 178.076 128.044 179.12C128.63 180.164 129.598 180.94 130.744 181.286C131.891 181.631 133.126 181.518 134.191 180.971L139.57 177.955C139.611 177.955 139.638 177.901 139.679 177.881C140.111 178.241 140.564 178.575 141.038 178.879L139.862 184.313C139.718 184.913 139.694 185.535 139.794 186.144C139.893 186.753 140.114 187.336 140.442 187.858C140.77 188.381 141.199 188.832 141.704 189.186C142.21 189.54 142.781 189.79 143.384 189.92C143.987 190.05 144.61 190.058 145.216 189.944C145.822 189.829 146.4 189.595 146.914 189.254C147.428 188.913 147.869 188.473 148.211 187.959C148.552 187.445 148.788 186.868 148.903 186.262L150.071 180.829C150.411 180.781 150.75 180.72 151.083 180.645L154.676 185.4C155.021 185.929 155.47 186.381 155.997 186.73C156.523 187.079 157.115 187.316 157.737 187.427C158.358 187.538 158.996 187.521 159.611 187.377C160.225 187.232 160.804 186.963 161.311 186.586C161.817 186.21 162.242 185.733 162.557 185.186C162.873 184.639 163.073 184.034 163.146 183.406C163.219 182.779 163.162 182.144 162.98 181.539C162.798 180.935 162.493 180.374 162.086 179.891L158.894 175.646C159.098 175.368 159.295 175.082 159.478 174.784L165.272 176.04C165.865 176.169 166.478 176.18 167.075 176.071C167.672 175.963 168.242 175.738 168.753 175.41C169.263 175.081 169.704 174.655 170.049 174.156C170.395 173.657 170.639 173.095 170.767 172.501C170.898 171.907 170.911 171.292 170.805 170.692C170.698 170.093 170.474 169.52 170.145 169.008C169.816 168.495 169.389 168.052 168.888 167.706C168.388 167.359 167.823 167.114 167.228 166.986Z" fill="#C20004"/>
<path d="M167.228 166.986L161.38 165.716C161.332 165.397 161.271 165.037 161.197 164.758L166.304 161.892C167.268 161.243 167.952 160.256 168.221 159.126C168.489 157.996 168.323 156.806 167.755 155.793C167.187 154.78 166.258 154.017 165.154 153.658C164.05 153.298 162.85 153.366 161.794 153.85L156.422 156.866C156.333 156.913 156.265 156.975 156.184 157.029C155.926 156.839 155.661 156.655 155.389 156.486L156.571 151.018C156.83 149.82 156.602 148.568 155.937 147.539C155.273 146.509 154.227 145.785 153.029 145.526C151.831 145.268 150.58 145.496 149.55 146.16C148.52 146.824 147.796 147.871 147.538 149.069L146.356 154.502C145.899 154.563 145.445 154.649 144.997 154.76C144.9 154.578 144.793 154.402 144.678 154.231L140.97 149.327C140.232 148.349 139.136 147.703 137.923 147.533C136.709 147.363 135.478 147.682 134.5 148.42C133.522 149.158 132.877 150.254 132.707 151.467C132.537 152.68 132.856 153.911 133.593 154.889L137.302 159.814C137.302 159.854 137.37 159.882 137.404 159.922C137.275 160.099 137.166 160.282 137.044 160.459L131.386 159.236C130.188 158.978 128.937 159.206 127.907 159.869C126.876 160.533 126.151 161.578 125.891 162.775C125.762 163.368 125.752 163.981 125.86 164.578C125.968 165.176 126.193 165.746 126.521 166.256C126.85 166.766 127.276 167.207 127.775 167.552C128.274 167.898 128.836 168.142 129.43 168.27L135.04 169.486C135.04 169.622 135.074 169.757 135.094 169.893H135.047L129.668 172.909C128.646 173.533 127.906 174.529 127.603 175.687C127.3 176.845 127.458 178.076 128.044 179.12C128.63 180.164 129.598 180.94 130.744 181.286C131.891 181.631 133.126 181.518 134.191 180.971L139.57 177.955C139.611 177.955 139.638 177.901 139.679 177.881C140.111 178.241 140.564 178.575 141.038 178.879L139.862 184.313C139.718 184.913 139.694 185.535 139.794 186.144C139.893 186.753 140.114 187.336 140.442 187.858C140.77 188.381 141.199 188.832 141.704 189.186C142.21 189.54 142.781 189.79 143.384 189.92C143.987 190.05 144.61 190.058 145.216 189.944C145.822 189.829 146.4 189.595 146.914 189.254C147.428 188.913 147.869 188.473 148.211 187.959C148.552 187.445 148.788 186.868 148.903 186.262L150.071 180.829C150.411 180.781 150.75 180.72 151.083 180.645L154.676 185.4C155.021 185.929 155.47 186.381 155.997 186.73C156.523 187.079 157.115 187.316 157.737 187.427C158.358 187.538 158.996 187.521 159.611 187.377C160.225 187.232 160.804 186.963 161.311 186.586C161.817 186.21 162.242 185.733 162.557 185.186C162.873 184.639 163.073 184.034 163.146 183.406C163.219 182.779 163.162 182.144 162.98 181.539C162.798 180.935 162.493 180.374 162.086 179.891L158.894 175.646C159.098 175.368 159.295 175.082 159.478 174.784L165.272 176.04C165.865 176.169 166.478 176.18 167.075 176.071C167.672 175.963 168.242 175.738 168.753 175.41C169.263 175.081 169.704 174.655 170.049 174.156C170.395 173.657 170.639 173.095 170.767 172.501C170.898 171.907 170.911 171.292 170.805 170.692C170.698 170.093 170.474 169.52 170.145 169.008C169.816 168.495 169.389 168.052 168.888 167.706C168.388 167.359 167.823 167.114 167.228 166.986Z" fill="#C20004"/>
<path d="M167.228 166.986L161.38 165.716C161.332 165.397 161.271 165.037 161.197 164.758L166.304 161.892C167.268 161.243 167.952 160.256 168.221 159.126C168.489 157.996 168.323 156.806 167.755 155.793C167.187 154.78 166.258 154.017 165.154 153.658C164.05 153.298 162.85 153.366 161.794 153.85L156.422 156.866C156.333 156.913 156.265 156.975 156.184 157.029C155.926 156.839 155.661 156.655 155.389 156.486L156.571 151.018C156.83 149.82 156.602 148.568 155.937 147.539C155.273 146.509 154.227 145.785 153.029 145.526C151.831 145.268 150.58 145.496 149.55 146.16C148.52 146.824 147.796 147.871 147.538 149.069L146.356 154.502C145.899 154.563 145.445 154.649 144.997 154.76C144.9 154.578 144.793 154.402 144.678 154.231L140.97 149.327C140.232 148.349 139.136 147.703 137.923 147.533C136.709 147.363 135.478 147.682 134.5 148.42C133.522 149.158 132.877 150.254 132.707 151.467C132.537 152.68 132.856 153.911 133.593 154.889L137.302 159.814C137.302 159.854 137.37 159.882 137.404 159.922C137.275 160.099 137.166 160.282 137.044 160.459L131.386 159.236C130.188 158.978 128.937 159.206 127.907 159.869C126.876 160.533 126.151 161.578 125.891 162.775C125.762 163.368 125.752 163.981 125.86 164.578C125.968 165.176 126.193 165.746 126.521 166.256C126.85 166.766 127.276 167.207 127.775 167.552C128.274 167.898 128.836 168.142 129.43 168.27L135.04 169.486C135.04 169.622 135.074 169.757 135.094 169.893H135.047L129.668 172.909C128.646 173.533 127.906 174.529 127.603 175.687C127.3 176.845 127.458 178.076 128.044 179.12C128.63 180.164 129.598 180.94 130.744 181.286C131.891 181.631 133.126 181.518 134.191 180.971L139.57 177.955C139.611 177.955 139.638 177.901 139.679 177.881C140.111 178.241 140.564 178.575 141.038 178.879L139.862 184.313C139.718 184.913 139.694 185.535 139.794 186.144C139.893 186.753 140.114 187.336 140.442 187.858C140.77 188.381 141.199 188.832 141.704 189.186C142.21 189.54 142.781 189.79 143.384 189.92C143.987 190.05 144.61 190.058 145.216 189.944C145.822 189.829 146.4 189.595 146.914 189.254C147.428 188.913 147.869 188.473 148.211 187.959C148.552 187.445 148.788 186.868 148.903 186.262L150.071 180.829C150.411 180.781 150.75 180.72 151.083 180.645L154.676 185.4C155.021 185.929 155.47 186.381 155.997 186.73C156.523 187.079 157.115 187.316 157.737 187.427C158.358 187.538 158.996 187.521 159.611 187.377C160.225 187.232 160.804 186.963 161.311 186.586C161.817 186.21 162.242 185.733 162.557 185.186C162.873 184.639 163.073 184.034 163.146 183.406C163.219 182.779 163.162 182.144 162.98 181.539C162.798 180.935 162.493 180.374 162.086 179.891L158.894 175.646C159.098 175.368 159.295 175.082 159.478 174.784L165.272 176.04C165.865 176.169 166.478 176.18 167.075 176.071C167.672 175.963 168.242 175.738 168.753 175.41C169.263 175.081 169.704 174.655 170.049 174.156C170.395 173.657 170.639 173.095 170.767 172.501C170.898 171.907 170.911 171.292 170.805 170.692C170.698 170.093 170.474 169.52 170.145 169.008C169.816 168.495 169.389 168.052 168.888 167.706C168.388 167.359 167.823 167.114 167.228 166.986Z" fill="#C20004"/>
<path d="M167.228 166.986L161.38 165.716C161.332 165.397 161.271 165.037 161.197 164.758L166.304 161.892C167.268 161.243 167.952 160.256 168.221 159.126C168.489 157.996 168.323 156.806 167.755 155.793C167.187 154.78 166.258 154.017 165.154 153.658C164.05 153.298 162.85 153.366 161.794 153.85L156.422 156.866C156.333 156.913 156.265 156.975 156.184 157.029C155.926 156.839 155.661 156.655 155.389 156.486L156.571 151.018C156.83 149.82 156.602 148.568 155.937 147.539C155.273 146.509 154.227 145.785 153.029 145.526C151.831 145.268 150.58 145.496 149.55 146.16C148.52 146.824 147.796 147.871 147.538 149.069L146.356 154.502C145.899 154.563 145.445 154.649 144.997 154.76C144.9 154.578 144.793 154.402 144.678 154.231L140.97 149.327C140.232 148.349 139.136 147.703 137.923 147.533C136.709 147.363 135.478 147.682 134.5 148.42C133.522 149.158 132.877 150.254 132.707 151.467C132.537 152.68 132.856 153.911 133.593 154.889L137.302 159.814C137.302 159.854 137.37 159.882 137.404 159.922C137.275 160.099 137.166 160.282 137.044 160.459L131.386 159.236C130.188 158.978 128.937 159.206 127.907 159.869C126.876 160.533 126.151 161.578 125.891 162.775C125.762 163.368 125.752 163.981 125.86 164.578C125.968 165.176 126.193 165.746 126.521 166.256C126.85 166.766 127.276 167.207 127.775 167.552C128.274 167.898 128.836 168.142 129.43 168.27L135.04 169.486C135.04 169.622 135.074 169.757 135.094 169.893H135.047L129.668 172.909C128.646 173.533 127.906 174.529 127.603 175.687C127.3 176.845 127.458 178.076 128.044 179.12C128.63 180.164 129.598 180.94 130.744 181.286C131.891 181.631 133.126 181.518 134.191 180.971L139.57 177.955C139.611 177.955 139.638 177.901 139.679 177.881C140.111 178.241 140.564 178.575 141.038 178.879L139.862 184.313C139.718 184.913 139.694 185.535 139.794 186.144C139.893 186.753 140.114 187.336 140.442 187.858C140.77 188.381 141.199 188.832 141.704 189.186C142.21 189.54 142.781 189.79 143.384 189.92C143.987 190.05 144.61 190.058 145.216 189.944C145.822 189.829 146.4 189.595 146.914 189.254C147.428 188.913 147.869 188.473 148.211 187.959C148.552 187.445 148.788 186.868 148.903 186.262L150.071 180.829C150.411 180.781 150.75 180.72 151.083 180.645L154.676 185.4C155.021 185.929 155.47 186.381 155.997 186.73C156.523 187.079 157.115 187.316 157.737 187.427C158.358 187.538 158.996 187.521 159.611 187.377C160.225 187.232 160.804 186.963 161.311 186.586C161.817 186.21 162.242 185.733 162.557 185.186C162.873 184.639 163.073 184.034 163.146 183.406C163.219 182.779 163.162 182.144 162.98 181.539C162.798 180.935 162.493 180.374 162.086 179.891L158.894 175.646C159.098 175.368 159.295 175.082 159.478 174.784L165.272 176.04C165.865 176.169 166.478 176.18 167.075 176.071C167.672 175.963 168.242 175.738 168.753 175.41C169.263 175.081 169.704 174.655 170.049 174.156C170.395 173.657 170.639 173.095 170.767 172.501C170.898 171.907 170.911 171.292 170.805 170.692C170.698 170.093 170.474 169.52 170.145 169.008C169.816 168.495 169.389 168.052 168.888 167.706C168.388 167.359 167.823 167.114 167.228 166.986Z" fill="#C20004"/>
<path d="M148.332 173.798C151.712 173.798 154.452 171.059 154.452 167.679C154.452 164.299 151.712 161.559 148.332 161.559C144.952 161.559 142.213 164.299 142.213 167.679C142.213 171.059 144.952 173.798 148.332 173.798Z" fill="white"/>
<path d="M137.938 215.797C141.173 215.245 143.431 212.657 142.981 210.017C142.53 207.377 139.542 205.684 136.307 206.236C133.071 206.788 130.813 209.376 131.264 212.016C131.714 214.656 134.702 216.349 137.938 215.797Z" fill="black"/>
<path d="M129.824 248.267C129.53 248.266 129.244 248.169 129.01 247.992C128.776 247.815 128.606 247.566 128.524 247.284C128.443 247.002 128.456 246.701 128.56 246.426C128.665 246.151 128.855 245.918 129.104 245.761C132.537 243.605 136.455 242.34 140.501 242.08C145.51 241.799 150.486 243.052 154.764 245.673C155.065 245.864 155.279 246.166 155.36 246.513C155.441 246.86 155.381 247.226 155.195 247.53C155.009 247.834 154.71 248.052 154.364 248.138C154.018 248.224 153.652 248.17 153.345 247.989C149.54 245.662 145.117 244.548 140.664 244.796C137.073 245.027 133.597 246.15 130.55 248.063C130.332 248.197 130.08 248.268 129.824 248.267Z" fill="black"/>
</svg>
